0
SECTION
2
HEADER
9
$INSUNITS
70
4
9
$ACADVER
1
AC1014
9
$HANDSEED
5
FFFF
0
ENDSEC
0
SECTION
2
TABLES
0
TABLE
2
VPORT
5
8
100
AcDbSymbolTable
0
ENDTAB
0
TABLE
2
LTYPE
5
5
100
AcDbSymbolTable
0
LTYPE
5
14
100
AcDbSymbolTableRecord
100
AcDbLinetypeTableRecord
2
BYBLOCK
70
0
0
LTYPE
5
15
100
AcDbSymbolTableRecord
100
AcDbLinetypeTableRecord
2
BYLAYER
70
0
0
LTYPE
5
16
100
AcDbSymbolTableRecord
100
AcDbLinetypeTableRecord
2
DASHED
70
0
3
Dashed __ __ __ __ __ __ __ __ __ __ __ __ __ _
72
65
73
2
40
0.75
49
0.5
74
0
49
-0.25
74
0
0
ENDTAB
0
TABLE
2
LAYER
5
2
100
AcDbSymbolTable
70
2
0
LAYER
5
50
100
AcDbSymbolTableRecord
100
AcDbLayerTableRecord
2
0
70
0
62
7
6
CONTINUOUS
0
ENDTAB
0
TABLE
2
STYLE
5
3
100
AcDbSymbolTable
70
1
0
STYLE
5
11
100
AcDbSymbolTableRecord
100
AcDbTextStyleTableRecord
2
STANDARD
70
0
0
ENDTAB
0
TABLE
2
VIEW
5
6
100
AcDbSymbolTable
70
0
0
ENDTAB
0
TABLE
2
UCS
5
7
100
AcDbSymbolTable
70
0
0
ENDTAB
0
TABLE
2
APPID
5
9
100
AcDbSymbolTable
70
2
0
APPID
5
12
100
AcDbSymbolTableRecord
100
AcDbRegAppTableRecord
2
ACAD
70
0
0
ENDTAB
0
TABLE
2
DIMSTYLE
5
A
100
AcDbSymbolTable
70
1
0
ENDTAB
0
TABLE
2
BLOCK_RECORD
5
1
100
AcDbSymbolTable
70
1
0
BLOCK_RECORD
5
1F
100
AcDbSymbolTableRecord
100
AcDbBlockTableRecord
2
*MODEL_SPACE
0
BLOCK_RECORD
5
1B
100
AcDbSymbolTableRecord
100
AcDbBlockTableRecord
2
*PAPER_SPACE
0
ENDTAB
0
ENDSEC
0
SECTION
2
BLOCKS
0
BLOCK
5
20
100
AcDbEntity
100
AcDbBlockBegin
2
*MODEL_SPACE
0
ENDBLK
5
21
100
AcDbEntity
100
AcDbBlockEnd
0
BLOCK
5
1C
100
AcDbEntity
100
AcDbBlockBegin
2
*PAPER_SPACE
0
ENDBLK
5
1D
100
AcDbEntity
100
AcDbBlockEnd
0
ENDSEC
0
SECTION
2
ENTITIES
0
CIRCLE
5
100
100
AcDbEntity
8
0
100
AcDbCircle
10
12.699999999999999
20
-18.450000000000003
30
0
40
1.0999999999999985
210
0
220
0
230
1
0
SPLINE
5
101
100
AcDbEntity
8
0
100
AcDbSpline
70
0
71
3
72
16
73
12
74
0
42
0.000000001
43
0.0000000001
44
0.0000000001
40
0
40
0
40
0
40
0
40
0.1296057062118067
40
0.1296057062118067
40
0.1987840661061161
40
0.1987840661061161
40
0.24971163256941228
40
0.24971163256941228
40
0.30345552485233734
40
0.30345552485233734
40
0.37801186078713866
40
0.37801186078713866
40
0.37801186078713866
40
0.37801186078713866
10
-15.000000000000002
20
17.815000000000005
30
0
10
-15.000000000000002
20
18.247019020706027
30
0
10
-15.000000000000002
20
18.670560872846991
30
0
10
-14.831082835555867
20
19.306177717078054
30
0
10
-14.724130004090219
20
19.588212535011145
30
0
10
-14.353829670444467
20
20.071154396519017
30
0
10
-14.149012979183471
20
20.2613450493972
30
0
10
-13.625109841056872
20
20.566858957057043
30
0
10
-13.352972701654018
20
20.646518008566495
30
0
10
-12.765859551336938
20
20.750000000000011
30
0
10
-12.419559367804291
20
20.750000000000014
30
0
10
-12.064999999999994
20
20.750000000000014
30
0
0
LINE
5
102
100
AcDbEntity
8
0
100
AcDbLine
10
-15.000000000000002
20
17.815000000000005
30
0
11
-15.000000000000002
21
-17.815000000000005
31
0
0
SPLINE
5
103
100
AcDbEntity
8
0
100
AcDbSpline
70
0
71
3
72
16
73
12
74
0
42
0.000000001
43
0.0000000001
44
0.0000000001
40
0
40
0
40
0
40
0
40
0.12960570621181319
40
0.12960570621181319
40
0.19878406610612534
40
0.19878406610612534
40
0.24971163256947859
40
0.24971163256947859
40
0.30345552485252708
40
0.30345552485252708
40
0.37801186078752802
40
0.37801186078752802
40
0.37801186078752802
40
0.37801186078752802
10
-12.065000000000001
20
-20.75
30
0
10
-12.497019020706047
20
-20.75
30
0
10
-12.920560872846998
20
-20.75
30
0
10
-13.556177717078041
20
-20.581082835555868
30
0
10
-13.838212535011138
20
-20.474130004090224
30
0
10
-14.321154396519237
20
-20.103829670444298
30
0
10
-14.511345049397338
20
-19.89901297918323
30
0
10
-14.816858957057072
20
-19.375109841056812
30
0
10
-14.896518008566506
20
-19.102972701653933
30
0
10
-15.000000000000007
20
-18.515859551336934
30
0
10
-15.000000000000007
20
-18.169559367804275
30
0
10
-15.000000000000009
20
-17.815000000000005
30
0
0
LINE
5
104
100
AcDbEntity
8
0
100
AcDbLine
10
-12.065000000000001
20
-20.75
30
0
11
12.065000000000001
21
-20.75
31
0
0
SPLINE
5
105
100
AcDbEntity
8
0
100
AcDbSpline
70
0
71
3
72
16
73
12
74
0
42
0.000000001
43
0.0000000001
44
0.0000000001
40
0
40
0
40
0
40
0
40
0.12960570621181319
40
0.12960570621181319
40
0.19878406610612534
40
0.19878406610612534
40
0.24971163256947859
40
0.24971163256947859
40
0.30345552485252708
40
0.30345552485252708
40
0.37801186078752802
40
0.37801186078752802
40
0.37801186078752802
40
0.37801186078752802
10
15
20
-17.815000000000005
30
0
10
15
20
-18.247019020706048
30
0
10
15
20
-18.670560872846998
30
0
10
14.831082835555867
20
-19.306177717078043
30
0
10
14.72413000409022
20
-19.588212535011142
30
0
10
14.353829670444293
20
-20.07115439651924
30
0
10
14.149012979183226
20
-20.261345049397338
30
0
10
13.62510984105681
20
-20.566858957057072
30
0
10
13.352972701653929
20
-20.64651800856651
30
0
10
12.765859551336931
20
-20.750000000000007
30
0
10
12.419559367804274
20
-20.750000000000011
30
0
10
12.065000000000001
20
-20.750000000000011
30
0
0
LINE
5
106
100
AcDbEntity
8
0
100
AcDbLine
10
15
20
-17.815000000000005
30
0
11
14.999999999999998
21
17.815000000000005
31
0
0
SPLINE
5
107
100
AcDbEntity
8
0
100
AcDbSpline
70
0
71
3
72
16
73
12
74
0
42
0.000000001
43
0.0000000001
44
0.0000000001
40
0
40
0
40
0
40
0
40
0.12960570621181319
40
0.12960570621181319
40
0.19878406610612534
40
0.19878406610612534
40
0.24971163256947859
40
0.24971163256947859
40
0.30345552485252708
40
0.30345552485252708
40
0.37801186078752802
40
0.37801186078752802
40
0.37801186078752802
40
0.37801186078752802
10
12.064999999999998
20
20.75
30
0
10
12.497019020706041
20
20.75
30
0
10
12.920560872846993
20
20.75
30
0
10
13.556177717078038
20
20.581082835555868
30
0
10
13.838212535011134
20
20.474130004090224
30
0
10
14.321154396519233
20
20.103829670444298
30
0
10
14.511345049397333
20
19.89901297918323
30
0
10
14.816858957057066
20
19.375109841056812
30
0
10
14.896518008566503
20
19.102972701653933
30
0
10
15.000000000000002
20
18.515859551336934
30
0
10
15.000000000000002
20
18.169559367804275
30
0
10
15.000000000000004
20
17.815000000000005
30
0
0
LINE
5
108
100
AcDbEntity
8
0
100
AcDbLine
10
12.064999999999998
20
20.75
30
0
11
-12.064999999999998
21
20.750000000000014
31
0
0
ENDSEC
0
SECTION
2
OBJECTS
0
DICTIONARY
5
C
100
AcDbDictionary
3
ACAD_GROUP
350
D
3
ACAD_MLINESTYLE
350
17
0
DICTIONARY
5
D
100
AcDbDictionary
0
DICTIONARY
5
1A
330
C
100
AcDbDictionary
0
DICTIONARY
5
17
100
AcDbDictionary
0
ENDSEC
0
EOF
