%TF.GenerationSoftware,KiCad,Pcbnew,9.0.6*%
%TF.CreationDate,2026-01-06T10:29:40+09:00*%
%TF.ProjectId,VVDAP,56564441-502e-46b6-9963-61645f706362,rev?*%
%TF.SameCoordinates,Original*%
%TF.FileFunction,Copper,L1,Top*%
%TF.FilePolarity,Positive*%
%FSLAX46Y46*%
G04 Gerber Fmt 4.6, Leading zero omitted, Abs format (unit mm)*
G04 Created by KiCad (PCBNEW 9.0.6) date 2026-01-06 10:29:40*
%MOMM*%
%LPD*%
G01*
G04 APERTURE LIST*
G04 Aperture macros list*
%AMRoundRect*
0 Rectangle with rounded corners*
0 $1 Rounding radius*
0 $2 $3 $4 $5 $6 $7 $8 $9 X,Y pos of 4 corners*
0 Add a 4 corners polygon primitive as box body*
4,1,4,$2,$3,$4,$5,$6,$7,$8,$9,$2,$3,0*
0 Add four circle primitives for the rounded corners*
1,1,$1+$1,$2,$3*
1,1,$1+$1,$4,$5*
1,1,$1+$1,$6,$7*
1,1,$1+$1,$8,$9*
0 Add four rect primitives between the rounded corners*
20,1,$1+$1,$2,$3,$4,$5,0*
20,1,$1+$1,$4,$5,$6,$7,0*
20,1,$1+$1,$6,$7,$8,$9,0*
20,1,$1+$1,$8,$9,$2,$3,0*%
%AMFreePoly0*
4,1,18,-0.287500,0.312500,-0.285597,0.322067,-0.280178,0.330178,-0.272067,0.335597,-0.262500,0.337500,0.262500,0.337500,0.272067,0.335597,0.280178,0.330178,0.285597,0.322067,0.287500,0.312500,0.287500,-0.193750,0.143750,-0.337500,-0.262500,-0.337500,-0.272067,-0.335597,-0.280178,-0.330178,-0.285597,-0.322067,-0.287500,-0.312500,-0.287500,0.312500,-0.287500,0.312500,$1*%
G04 Aperture macros list end*
%TA.AperFunction,SMDPad,CuDef*%
%ADD10RoundRect,0.225000X0.225000X0.250000X-0.225000X0.250000X-0.225000X-0.250000X0.225000X-0.250000X0*%
%TD*%
%TA.AperFunction,SMDPad,CuDef*%
%ADD11RoundRect,0.200000X-0.275000X0.200000X-0.275000X-0.200000X0.275000X-0.200000X0.275000X0.200000X0*%
%TD*%
%TA.AperFunction,SMDPad,CuDef*%
%ADD12FreePoly0,0.000000*%
%TD*%
%TA.AperFunction,SMDPad,CuDef*%
%ADD13RoundRect,0.025000X-0.262500X-0.312500X0.262500X-0.312500X0.262500X0.312500X-0.262500X0.312500X0*%
%TD*%
%TA.AperFunction,SMDPad,CuDef*%
%ADD14RoundRect,0.025000X-0.125000X-0.312500X0.125000X-0.312500X0.125000X0.312500X-0.125000X0.312500X0*%
%TD*%
%TA.AperFunction,SMDPad,CuDef*%
%ADD15RoundRect,0.025000X-0.425000X-0.250000X0.425000X-0.250000X0.425000X0.250000X-0.425000X0.250000X0*%
%TD*%
%TA.AperFunction,SMDPad,CuDef*%
%ADD16RoundRect,0.150000X0.200000X-0.150000X0.200000X0.150000X-0.200000X0.150000X-0.200000X-0.150000X0*%
%TD*%
%TA.AperFunction,SMDPad,CuDef*%
%ADD17RoundRect,0.250000X0.275000X0.750000X-0.275000X0.750000X-0.275000X-0.750000X0.275000X-0.750000X0*%
%TD*%
%TA.AperFunction,SMDPad,CuDef*%
%ADD18RoundRect,0.200000X-0.200000X-0.275000X0.200000X-0.275000X0.200000X0.275000X-0.200000X0.275000X0*%
%TD*%
%TA.AperFunction,SMDPad,CuDef*%
%ADD19RoundRect,0.225000X-0.225000X-0.250000X0.225000X-0.250000X0.225000X0.250000X-0.225000X0.250000X0*%
%TD*%
%TA.AperFunction,SMDPad,CuDef*%
%ADD20RoundRect,0.075000X0.200000X-0.075000X0.200000X0.075000X-0.200000X0.075000X-0.200000X-0.075000X0*%
%TD*%
%TA.AperFunction,SMDPad,CuDef*%
%ADD21RoundRect,0.150000X-0.512500X-0.150000X0.512500X-0.150000X0.512500X0.150000X-0.512500X0.150000X0*%
%TD*%
%TA.AperFunction,SMDPad,CuDef*%
%ADD22RoundRect,0.150000X-0.150000X0.825000X-0.150000X-0.825000X0.150000X-0.825000X0.150000X0.825000X0*%
%TD*%
%TA.AperFunction,SMDPad,CuDef*%
%ADD23RoundRect,0.250000X-0.375000X-0.625000X0.375000X-0.625000X0.375000X0.625000X-0.375000X0.625000X0*%
%TD*%
%TA.AperFunction,SMDPad,CuDef*%
%ADD24RoundRect,0.075000X0.075000X0.200000X-0.075000X0.200000X-0.075000X-0.200000X0.075000X-0.200000X0*%
%TD*%
%TA.AperFunction,SMDPad,CuDef*%
%ADD25RoundRect,0.050000X-0.320000X-1.345000X0.320000X-1.345000X0.320000X1.345000X-0.320000X1.345000X0*%
%TD*%
%TA.AperFunction,SMDPad,CuDef*%
%ADD26RoundRect,0.225000X-0.250000X0.225000X-0.250000X-0.225000X0.250000X-0.225000X0.250000X0.225000X0*%
%TD*%
%TA.AperFunction,SMDPad,CuDef*%
%ADD27RoundRect,0.150000X-0.150000X-0.200000X0.150000X-0.200000X0.150000X0.200000X-0.150000X0.200000X0*%
%TD*%
%TA.AperFunction,ConnectorPad*%
%ADD28C,0.787400*%
%TD*%
%TA.AperFunction,SMDPad,CuDef*%
%ADD29RoundRect,0.218750X-0.218750X-0.256250X0.218750X-0.256250X0.218750X0.256250X-0.218750X0.256250X0*%
%TD*%
%TA.AperFunction,SMDPad,CuDef*%
%ADD30RoundRect,0.150000X0.512500X0.150000X-0.512500X0.150000X-0.512500X-0.150000X0.512500X-0.150000X0*%
%TD*%
%TA.AperFunction,SMDPad,CuDef*%
%ADD31RoundRect,0.075000X-0.075000X-0.200000X0.075000X-0.200000X0.075000X0.200000X-0.075000X0.200000X0*%
%TD*%
%TA.AperFunction,SMDPad,CuDef*%
%ADD32RoundRect,0.150000X-0.150000X0.512500X-0.150000X-0.512500X0.150000X-0.512500X0.150000X0.512500X0*%
%TD*%
%TA.AperFunction,SMDPad,CuDef*%
%ADD33RoundRect,0.200000X0.275000X-0.200000X0.275000X0.200000X-0.275000X0.200000X-0.275000X-0.200000X0*%
%TD*%
%TA.AperFunction,SMDPad,CuDef*%
%ADD34RoundRect,0.100000X0.100000X-0.637500X0.100000X0.637500X-0.100000X0.637500X-0.100000X-0.637500X0*%
%TD*%
%TA.AperFunction,SMDPad,CuDef*%
%ADD35RoundRect,0.200000X0.200000X0.275000X-0.200000X0.275000X-0.200000X-0.275000X0.200000X-0.275000X0*%
%TD*%
%TA.AperFunction,SMDPad,CuDef*%
%ADD36RoundRect,0.225000X0.250000X-0.225000X0.250000X0.225000X-0.250000X0.225000X-0.250000X-0.225000X0*%
%TD*%
%TA.AperFunction,SMDPad,CuDef*%
%ADD37RoundRect,0.250000X0.325000X0.650000X-0.325000X0.650000X-0.325000X-0.650000X0.325000X-0.650000X0*%
%TD*%
%TA.AperFunction,SMDPad,CuDef*%
%ADD38R,0.600000X1.450000*%
%TD*%
%TA.AperFunction,SMDPad,CuDef*%
%ADD39R,0.300000X1.450000*%
%TD*%
%TA.AperFunction,HeatsinkPad*%
%ADD40O,1.000000X2.100000*%
%TD*%
%TA.AperFunction,HeatsinkPad*%
%ADD41O,1.000000X1.600000*%
%TD*%
%TA.AperFunction,SMDPad,CuDef*%
%ADD42RoundRect,0.150000X0.150000X-0.512500X0.150000X0.512500X-0.150000X0.512500X-0.150000X-0.512500X0*%
%TD*%
%TA.AperFunction,SMDPad,CuDef*%
%ADD43RoundRect,0.250000X-0.275000X-0.750000X0.275000X-0.750000X0.275000X0.750000X-0.275000X0.750000X0*%
%TD*%
%TA.AperFunction,ViaPad*%
%ADD44C,0.800000*%
%TD*%
%TA.AperFunction,ViaPad*%
%ADD45C,0.600000*%
%TD*%
%TA.AperFunction,Conductor*%
%ADD46C,0.400000*%
%TD*%
%TA.AperFunction,Conductor*%
%ADD47C,0.300000*%
%TD*%
%TA.AperFunction,Conductor*%
%ADD48C,0.200000*%
%TD*%
G04 APERTURE END LIST*
D10*
%TO.P,C7,1*%
%TO.N,+3.3V*%
X89375000Y-54900000D03*
%TO.P,C7,2*%
%TO.N,GND*%
X87825000Y-54900000D03*
%TD*%
D11*
%TO.P,R10,1*%
%TO.N,VTARGET-LDO*%
X68000000Y-68675000D03*
%TO.P,R10,2*%
%TO.N,JTAG-SWDIO-IN-VV*%
X68000000Y-70325000D03*
%TD*%
D12*
%TO.P,U11,1,GND1*%
%TO.N,GND*%
X90362500Y-62212500D03*
D13*
%TO.P,U11,2,GND2*%
%TO.N,GND-TARGET*%
X90362500Y-66387500D03*
D14*
%TO.P,U11,3,GND2*%
X91100000Y-66387500D03*
D15*
X91400000Y-66325000D03*
D14*
%TO.P,U11,4,GND2*%
X91700000Y-66387500D03*
%TO.P,U11,5,VOUT*%
%TO.N,+5V-Isolated*%
X92300000Y-66387500D03*
D15*
X92600000Y-66325000D03*
D14*
%TO.P,U11,6,VOUT*%
X92900000Y-66387500D03*
D13*
%TO.P,U11,7,VSEL*%
%TO.N,GND-TARGET*%
X93637500Y-66387500D03*
%TO.P,U11,8,EN*%
%TO.N,GND*%
X93637500Y-62212500D03*
D14*
%TO.P,U11,9,VIN*%
%TO.N,+5V*%
X92900000Y-62212500D03*
%TO.P,U11,10,VIN*%
X92300000Y-62212500D03*
D15*
X92600000Y-62275000D03*
D14*
%TO.P,U11,11,GND1*%
%TO.N,GND*%
X91700000Y-62212500D03*
%TO.P,U11,12,GND1*%
X91100000Y-62212500D03*
D15*
X91400000Y-62275000D03*
%TD*%
D16*
%TO.P,D4,1,K*%
%TO.N,VCC-Target*%
X75500000Y-78400000D03*
%TO.P,D4,2,A*%
%TO.N,GND-TARGET*%
X75500000Y-79800000D03*
%TD*%
D17*
%TO.P,SW2,1,1*%
%TO.N,BOOT0*%
X70525000Y-58200000D03*
%TO.P,SW2,2,2*%
%TO.N,+3.3V*%
X66075000Y-58200000D03*
%TD*%
D18*
%TO.P,R3,1*%
%TO.N,Net-(D1-K)*%
X91175000Y-51000000D03*
%TO.P,R3,2*%
%TO.N,GND*%
X92825000Y-51000000D03*
%TD*%
D19*
%TO.P,C10,1*%
%TO.N,+5V*%
X71925000Y-41800000D03*
%TO.P,C10,2*%
%TO.N,GND*%
X73475000Y-41800000D03*
%TD*%
D20*
%TO.P,U4,1,D1+*%
%TO.N,JTAG-SWDIO-VV*%
X77985000Y-72300000D03*
%TO.P,U4,2,D1-*%
%TO.N,unconnected-(U4-D1--Pad2)*%
X77985000Y-71800000D03*
%TO.P,U4,3,GND*%
%TO.N,GND-TARGET*%
X77985000Y-71300000D03*
%TO.P,U4,4,D2+*%
%TO.N,unconnected-(U4-D2+-Pad4)*%
X77985000Y-70800000D03*
%TO.P,U4,5,D2-*%
%TO.N,unconnected-(U4-D2--Pad5)*%
X77985000Y-70300000D03*
%TO.P,U4,6,NC*%
%TO.N,unconnected-(U4-NC-Pad6)*%
X77215000Y-70300000D03*
%TO.P,U4,7,NC*%
%TO.N,unconnected-(U4-NC-Pad7)*%
X77215000Y-70800000D03*
%TO.P,U4,8,GND*%
%TO.N,GND-TARGET*%
X77215000Y-71300000D03*
%TO.P,U4,9,NC*%
%TO.N,unconnected-(U4-NC-Pad9)*%
X77215000Y-71800000D03*
%TO.P,U4,10,NC*%
%TO.N,unconnected-(U4-NC-Pad10)*%
X77215000Y-72300000D03*
%TD*%
D10*
%TO.P,C6,1*%
%TO.N,+3.3V*%
X85775000Y-54900000D03*
%TO.P,C6,2*%
%TO.N,GND*%
X84225000Y-54900000D03*
%TD*%
D18*
%TO.P,R11,1*%
%TO.N,GND-TARGET*%
X86875000Y-79300000D03*
%TO.P,R11,2*%
%TO.N,VCC-Target*%
X88525000Y-79300000D03*
%TD*%
%TO.P,R4,1*%
%TO.N,Net-(D2-K)*%
X91175000Y-52800000D03*
%TO.P,R4,2*%
%TO.N,GND*%
X92825000Y-52800000D03*
%TD*%
D11*
%TO.P,R2,1*%
%TO.N,BOOT0*%
X72200000Y-59675000D03*
%TO.P,R2,2*%
%TO.N,GND*%
X72200000Y-61325000D03*
%TD*%
D21*
%TO.P,U10,1*%
%TO.N,JTAG-SWDIO-IN-VV*%
X69862500Y-72150000D03*
%TO.P,U10,2*%
%TO.N,JTAG-SWDIO-VV*%
X69862500Y-73100000D03*
%TO.P,U10,3,GND*%
%TO.N,GND-TARGET*%
X69862500Y-74050000D03*
%TO.P,U10,4*%
%TO.N,JTAG-SWDIO-OUT-VV*%
X72137500Y-74050000D03*
%TO.P,U10,5,VCC*%
%TO.N,VTARGET-LDO*%
X72137500Y-72150000D03*
%TD*%
D19*
%TO.P,C8,1*%
%TO.N,+3.3V*%
X75925000Y-50000000D03*
%TO.P,C8,2*%
%TO.N,GND*%
X77475000Y-50000000D03*
%TD*%
D21*
%TO.P,U7,1,NC*%
%TO.N,unconnected-(U7-NC-Pad1)*%
X69862500Y-68550000D03*
%TO.P,U7,2*%
%TO.N,JTAG-SWDIO-OUT-VV*%
X69862500Y-69500000D03*
%TO.P,U7,3,GND*%
%TO.N,GND-TARGET*%
X69862500Y-70450000D03*
%TO.P,U7,4*%
%TO.N,JTAG-SWDIO-VV*%
X72137500Y-70450000D03*
%TO.P,U7,5,VCC*%
%TO.N,VTARGET-LDO*%
X72137500Y-68550000D03*
%TD*%
D10*
%TO.P,C17,1*%
%TO.N,VCC-Target*%
X88475000Y-77600000D03*
%TO.P,C17,2*%
%TO.N,GND-TARGET*%
X86925000Y-77600000D03*
%TD*%
D19*
%TO.P,C1,1*%
%TO.N,+3.3V*%
X75925000Y-51700000D03*
%TO.P,C1,2*%
%TO.N,GND*%
X77475000Y-51700000D03*
%TD*%
D22*
%TO.P,U12,1,VDD1*%
%TO.N,+3.3V*%
X87545000Y-61825000D03*
%TO.P,U12,2,VIA*%
%TO.N,JTAG-TDI*%
X86275000Y-61825000D03*
%TO.P,U12,3,VIB*%
%TO.N,JTAG-SWCLK*%
X85005000Y-61825000D03*
%TO.P,U12,4,VIC*%
%TO.N,JTAG-nRST*%
X83735000Y-61825000D03*
%TO.P,U12,5,VID*%
%TO.N,JTAG-SWDIO-IN*%
X82465000Y-61825000D03*
%TO.P,U12,6,VOE*%
%TO.N,JTAG-SWDIO-OUT*%
X81195000Y-61825000D03*
%TO.P,U12,7,VOF*%
%TO.N,JTAG-TDO*%
X79925000Y-61825000D03*
%TO.P,U12,8,GND1*%
%TO.N,GND*%
X78655000Y-61825000D03*
%TO.P,U12,9,GND2*%
%TO.N,GND-TARGET*%
X78655000Y-66775000D03*
%TO.P,U12,10,VIF*%
%TO.N,JTAG-TDO-VV*%
X79925000Y-66775000D03*
%TO.P,U12,11,VIE*%
%TO.N,JTAG-SWDIO-IN-VV*%
X81195000Y-66775000D03*
%TO.P,U12,12,VOD*%
%TO.N,JTAG-SWDIO-OUT-VV*%
X82465000Y-66775000D03*
%TO.P,U12,13,VOC*%
%TO.N,JTAG-nRST-VV*%
X83735000Y-66775000D03*
%TO.P,U12,14,VOB*%
%TO.N,JTAG-SWCLK-VV*%
X85005000Y-66775000D03*
%TO.P,U12,15,VOA*%
%TO.N,JTAG-TDI-VV*%
X86275000Y-66775000D03*
%TO.P,U12,16,VDD2*%
%TO.N,VTARGET-LDO*%
X87545000Y-66775000D03*
%TD*%
D23*
%TO.P,F1,1*%
%TO.N,VCC-Host*%
X67300000Y-47400000D03*
%TO.P,F1,2*%
%TO.N,+5V*%
X70100000Y-47400000D03*
%TD*%
D24*
%TO.P,U3,1,D1+*%
%TO.N,JTAG-nRST-VV*%
X82400000Y-71515000D03*
%TO.P,U3,2,D1-*%
%TO.N,JTAG-TDI-VV*%
X81900000Y-71515000D03*
%TO.P,U3,3,GND*%
%TO.N,GND-TARGET*%
X81400000Y-71515000D03*
%TO.P,U3,4,D2+*%
%TO.N,JTAG-TDO-VV*%
X80900000Y-71515000D03*
%TO.P,U3,5,D2-*%
%TO.N,JTAG-SWCLK-VV*%
X80400000Y-71515000D03*
%TO.P,U3,6,NC*%
%TO.N,unconnected-(U3-NC-Pad6)*%
X80400000Y-72285000D03*
%TO.P,U3,7,NC*%
%TO.N,unconnected-(U3-NC-Pad7)*%
X80900000Y-72285000D03*
%TO.P,U3,8,GND*%
%TO.N,GND-TARGET*%
X81400000Y-72285000D03*
%TO.P,U3,9,NC*%
%TO.N,unconnected-(U3-NC-Pad9)*%
X81900000Y-72285000D03*
%TO.P,U3,10,NC*%
%TO.N,unconnected-(U3-NC-Pad10)*%
X82400000Y-72285000D03*
%TD*%
D25*
%TO.P,J1,1,Pin_1*%
%TO.N,VCC-Target*%
X77460000Y-79035000D03*
%TO.P,J1,2,Pin_2*%
%TO.N,JTAG-SWDIO-VV*%
X77460000Y-74965000D03*
%TO.P,J1,3,Pin_3*%
%TO.N,GND-TARGET*%
X78730000Y-79038000D03*
%TO.P,J1,4,Pin_4*%
%TO.N,JTAG-SWCLK-VV*%
X78730000Y-74968000D03*
%TO.P,J1,5,Pin_5*%
%TO.N,GND-TARGET*%
X80000000Y-79038000D03*
%TO.P,J1,6,Pin_6*%
%TO.N,JTAG-TDO-VV*%
X80000000Y-74968000D03*
%TO.P,J1,7,Pin_7*%
%TO.N,unconnected-(J1-Pin_7-Pad7)*%
X81270000Y-79038000D03*
%TO.P,J1,8,Pin_8*%
%TO.N,JTAG-TDI-VV*%
X81270000Y-74968000D03*
%TO.P,J1,9,Pin_9*%
%TO.N,unconnected-(J1-Pin_9-Pad9)*%
X82540000Y-79038000D03*
%TO.P,J1,10,Pin_10*%
%TO.N,JTAG-nRST-VV*%
X82540000Y-74968000D03*
%TD*%
D26*
%TO.P,C3,1*%
%TO.N,Host-nRESET*%
X72200000Y-56525000D03*
%TO.P,C3,2*%
%TO.N,GND*%
X72200000Y-58075000D03*
%TD*%
%TO.P,C5,1*%
%TO.N,VTARGET-LDO*%
X87900000Y-68925000D03*
%TO.P,C5,2*%
%TO.N,GND-TARGET*%
X87900000Y-70475000D03*
%TD*%
D27*
%TO.P,D3,1,K*%
%TO.N,+5V*%
X70200000Y-45300000D03*
%TO.P,D3,2,A*%
%TO.N,GND*%
X68800000Y-45300000D03*
%TD*%
D19*
%TO.P,C15,1*%
%TO.N,VTARGET-LDO*%
X84625000Y-72200000D03*
%TO.P,C15,2*%
%TO.N,GND-TARGET*%
X86175000Y-72200000D03*
%TD*%
D28*
%TO.P,J5,1,VCC*%
%TO.N,VCC-Host*%
X71970000Y-49965000D03*
%TO.P,J5,2,SWDIO*%
%TO.N,Host-SWDIO*%
X71970000Y-51235000D03*
%TO.P,J5,3,~{RESET}*%
%TO.N,Host-nRESET*%
X70700000Y-49965000D03*
%TO.P,J5,4,SWCLK*%
%TO.N,Host-SWCLK*%
X70700000Y-51235000D03*
%TO.P,J5,5,GND*%
%TO.N,GND*%
X69430000Y-49965000D03*
%TO.P,J5,6,SWO*%
%TO.N,unconnected-(J5-SWO-Pad6)*%
X69430000Y-51235000D03*
%TD*%
D29*
%TO.P,D1,1,K*%
%TO.N,Net-(D1-K)*%
X91212500Y-49200000D03*
%TO.P,D1,2,A*%
%TO.N,Activity-LED*%
X92787500Y-49200000D03*
%TD*%
D26*
%TO.P,C18,1*%
%TO.N,VTARGET-LDO*%
X84700000Y-73875000D03*
%TO.P,C18,2*%
%TO.N,GND-TARGET*%
X84700000Y-75425000D03*
%TD*%
D30*
%TO.P,U13,1,ADJ/EN*%
%TO.N,VCC-Target*%
X88837500Y-75850000D03*
%TO.P,U13,2,GND*%
%TO.N,GND-TARGET*%
X88837500Y-74900000D03*
%TO.P,U13,3,VIN*%
%TO.N,+5V-Isolated*%
X88837500Y-73950000D03*
%TO.P,U13,4,VOUT*%
%TO.N,VTARGET-LDO*%
X86562500Y-73950000D03*
%TO.P,U13,5,GND*%
%TO.N,GND-TARGET*%
X86562500Y-75850000D03*
%TD*%
D31*
%TO.P,U8,1,D1+*%
%TO.N,USB-DP*%
X80000000Y-49285000D03*
%TO.P,U8,2,D1-*%
%TO.N,USB-DM*%
X80500000Y-49285000D03*
%TO.P,U8,3,GND*%
%TO.N,GND*%
X81000000Y-49285000D03*
%TO.P,U8,4,D2+*%
%TO.N,CC1*%
X81500000Y-49285000D03*
%TO.P,U8,5,D2-*%
%TO.N,CC2*%
X82000000Y-49285000D03*
%TO.P,U8,6,NC*%
%TO.N,unconnected-(U8-NC-Pad6)*%
X82000000Y-48515000D03*
%TO.P,U8,7,NC*%
%TO.N,unconnected-(U8-NC-Pad7)*%
X81500000Y-48515000D03*
%TO.P,U8,8,GND*%
%TO.N,GND*%
X81000000Y-48515000D03*
%TO.P,U8,9,NC*%
%TO.N,unconnected-(U8-NC-Pad9)*%
X80500000Y-48515000D03*
%TO.P,U8,10,NC*%
%TO.N,unconnected-(U8-NC-Pad10)*%
X80000000Y-48515000D03*
%TD*%
D26*
%TO.P,C11,1*%
%TO.N,VTARGET-LDO*%
X74000000Y-68725000D03*
%TO.P,C11,2*%
%TO.N,GND-TARGET*%
X74000000Y-70275000D03*
%TD*%
D32*
%TO.P,U9,1*%
%TO.N,JTAG-SWDIO-IN*%
X85955000Y-50747500D03*
%TO.P,U9,2*%
%TO.N,JTAG-SWDIO*%
X85005000Y-50747500D03*
%TO.P,U9,3,GND*%
%TO.N,GND*%
X84055000Y-50747500D03*
%TO.P,U9,4*%
%TO.N,JTAG-SWDIO-OUT*%
X84055000Y-53022500D03*
%TO.P,U9,5,VCC*%
%TO.N,+3.3V*%
X85955000Y-53022500D03*
%TD*%
D10*
%TO.P,C20,1*%
%TO.N,+5V-Isolated*%
X92775000Y-67900000D03*
%TO.P,C20,2*%
%TO.N,GND-TARGET*%
X91225000Y-67900000D03*
%TD*%
D33*
%TO.P,R9,1*%
%TO.N,JTAG-SWDIO-VV*%
X68000000Y-73925000D03*
%TO.P,R9,2*%
%TO.N,VTARGET-LDO*%
X68000000Y-72275000D03*
%TD*%
D10*
%TO.P,C9,1*%
%TO.N,+3.3V*%
X73475000Y-47800000D03*
%TO.P,C9,2*%
%TO.N,GND*%
X71925000Y-47800000D03*
%TD*%
D34*
%TO.P,U1,1,BOOT0*%
%TO.N,BOOT0*%
X73775000Y-59375000D03*
%TO.P,U1,2,OSC_IN*%
%TO.N,unconnected-(U1-OSC_IN-Pad2)*%
X74425000Y-59375000D03*
%TO.P,U1,3,OSC_OUT*%
%TO.N,unconnected-(U1-OSC_OUT-Pad3)*%
X75075000Y-59375000D03*
%TO.P,U1,4,~{RST}*%
%TO.N,Host-nRESET*%
X75725000Y-59375000D03*
%TO.P,U1,5,VDDA*%
%TO.N,+3.3V*%
X76375000Y-59375000D03*
%TO.P,U1,6,PA0*%
%TO.N,JTAG-SWDIO*%
X77025000Y-59375000D03*
%TO.P,U1,7,PA1*%
%TO.N,JTAG-SWCLK*%
X77675000Y-59375000D03*
%TO.P,U1,8,PA2*%
%TO.N,UART-TXD*%
X78325000Y-59375000D03*
%TO.P,U1,9,PA3*%
%TO.N,UART-RXD*%
X78975000Y-59375000D03*
%TO.P,U1,10,PA4*%
%TO.N,JTAG-nRST*%
X79625000Y-59375000D03*
%TO.P,U1,11,PA5*%
%TO.N,Activity-LED*%
X79625000Y-53650000D03*
%TO.P,U1,12,PA6*%
%TO.N,JTAG-TDO*%
X78975000Y-53650000D03*
%TO.P,U1,13,PA7*%
%TO.N,JTAG-TDI*%
X78325000Y-53650000D03*
%TO.P,U1,14,PB1*%
%TO.N,unconnected-(U1-PB1-Pad14)*%
X77675000Y-53650000D03*
%TO.P,U1,15,VSS*%
%TO.N,GND*%
X77025000Y-53650000D03*
%TO.P,U1,16,VDD*%
%TO.N,+3.3V*%
X76375000Y-53650000D03*
%TO.P,U1,17,PA11*%
%TO.N,USB-DM*%
X75725000Y-53650000D03*
%TO.P,U1,18,PA12*%
%TO.N,USB-DP*%
X75075000Y-53650000D03*
%TO.P,U1,19,SWDIO*%
%TO.N,Host-SWDIO*%
X74425000Y-53650000D03*
%TO.P,U1,20,SWCLK*%
%TO.N,Host-SWCLK*%
X73775000Y-53650000D03*
%TD*%
D10*
%TO.P,C19,1*%
%TO.N,+5V*%
X92775000Y-60700000D03*
%TO.P,C19,2*%
%TO.N,GND*%
X91225000Y-60700000D03*
%TD*%
D18*
%TO.P,R8,1*%
%TO.N,JTAG-SWDIO*%
X84175000Y-48900000D03*
%TO.P,R8,2*%
%TO.N,+3.3V*%
X85825000Y-48900000D03*
%TD*%
D35*
%TO.P,R6,1*%
%TO.N,CC1*%
X81825000Y-51000000D03*
%TO.P,R6,2*%
%TO.N,GND*%
X80175000Y-51000000D03*
%TD*%
D11*
%TO.P,R1,1*%
%TO.N,+3.3V*%
X72200000Y-53275000D03*
%TO.P,R1,2*%
%TO.N,Host-nRESET*%
X72200000Y-54925000D03*
%TD*%
D36*
%TO.P,C4,1*%
%TO.N,+3.3V*%
X88900000Y-60775000D03*
%TO.P,C4,2*%
%TO.N,GND*%
X88900000Y-59225000D03*
%TD*%
D10*
%TO.P,C2,1*%
%TO.N,+3.3V*%
X75875000Y-61300000D03*
%TO.P,C2,2*%
%TO.N,GND*%
X74325000Y-61300000D03*
%TD*%
%TO.P,C16,1*%
%TO.N,+5V-Isolated*%
X89375000Y-72200000D03*
%TO.P,C16,2*%
%TO.N,GND-TARGET*%
X87825000Y-72200000D03*
%TD*%
D11*
%TO.P,R5,1*%
%TO.N,CC2*%
X81700000Y-52675000D03*
%TO.P,R5,2*%
%TO.N,GND*%
X81700000Y-54325000D03*
%TD*%
D10*
%TO.P,C13,1*%
%TO.N,+5V*%
X92775000Y-59000000D03*
%TO.P,C13,2*%
%TO.N,GND*%
X91225000Y-59000000D03*
%TD*%
D37*
%TO.P,C14,1*%
%TO.N,+5V-Isolated*%
X92675000Y-70000000D03*
%TO.P,C14,2*%
%TO.N,GND-TARGET*%
X89725000Y-70000000D03*
%TD*%
D32*
%TO.P,U5,1,NC*%
%TO.N,unconnected-(U5-NC-Pad1)*%
X89550000Y-50762500D03*
%TO.P,U5,2*%
%TO.N,JTAG-SWDIO-OUT*%
X88600000Y-50762500D03*
%TO.P,U5,3,GND*%
%TO.N,GND*%
X87650000Y-50762500D03*
%TO.P,U5,4*%
%TO.N,JTAG-SWDIO*%
X87650000Y-53037500D03*
%TO.P,U5,5,VCC*%
%TO.N,+3.3V*%
X89550000Y-53037500D03*
%TD*%
D38*
%TO.P,J2,A1,GND*%
%TO.N,GND*%
X83250000Y-46200000D03*
%TO.P,J2,A4,VBUS*%
%TO.N,VCC-Host*%
X82450000Y-46200000D03*
D39*
%TO.P,J2,A5,CC1*%
%TO.N,CC1*%
X81250000Y-46200000D03*
%TO.P,J2,A6,D+*%
%TO.N,USB-DP*%
X80250000Y-46200000D03*
%TO.P,J2,A7,D-*%
%TO.N,USB-DM*%
X79750000Y-46200000D03*
%TO.P,J2,A8,SBU1*%
%TO.N,unconnected-(J2-SBU1-PadA8)*%
X78750000Y-46200000D03*
D38*
%TO.P,J2,A9,VBUS*%
%TO.N,VCC-Host*%
X77550000Y-46200000D03*
%TO.P,J2,A12,GND*%
%TO.N,GND*%
X76750000Y-46200000D03*
%TO.P,J2,B1,GND*%
X76750000Y-46200000D03*
%TO.P,J2,B4,VBUS*%
%TO.N,VCC-Host*%
X77550000Y-46200000D03*
D39*
%TO.P,J2,B5,CC2*%
%TO.N,CC2*%
X78250000Y-46200000D03*
%TO.P,J2,B6,D+*%
%TO.N,USB-DP*%
X79250000Y-46200000D03*
%TO.P,J2,B7,D-*%
%TO.N,USB-DM*%
X80750000Y-46200000D03*
%TO.P,J2,B8,SBU2*%
%TO.N,unconnected-(J2-SBU2-PadB8)*%
X81750000Y-46200000D03*
D38*
%TO.P,J2,B9,VBUS*%
%TO.N,VCC-Host*%
X82450000Y-46200000D03*
%TO.P,J2,B12,GND*%
%TO.N,GND*%
X83250000Y-46200000D03*
D40*
%TO.P,J2,S1,SHIELD*%
X84320000Y-45285000D03*
D41*
X84320000Y-41105000D03*
D40*
X75680000Y-45285000D03*
D41*
X75680000Y-41105000D03*
%TD*%
D26*
%TO.P,C12,1*%
%TO.N,VTARGET-LDO*%
X74000000Y-72325000D03*
%TO.P,C12,2*%
%TO.N,GND-TARGET*%
X74000000Y-73875000D03*
%TD*%
D42*
%TO.P,U6,1,GND*%
%TO.N,GND*%
X71750000Y-45937500D03*
%TO.P,U6,2,VO*%
%TO.N,+3.3V*%
X73650000Y-45937500D03*
%TO.P,U6,3,VI*%
%TO.N,+5V*%
X72700000Y-43662500D03*
%TD*%
D35*
%TO.P,R7,1*%
%TO.N,+3.3V*%
X89425000Y-48900000D03*
%TO.P,R7,2*%
%TO.N,JTAG-SWDIO-IN*%
X87775000Y-48900000D03*
%TD*%
D29*
%TO.P,D2,1,K*%
%TO.N,Net-(D2-K)*%
X91212500Y-54600000D03*
%TO.P,D2,2,A*%
%TO.N,+3.3V*%
X92787500Y-54600000D03*
%TD*%
D43*
%TO.P,SW1,1,1*%
%TO.N,GND*%
X66075000Y-54400000D03*
%TO.P,SW1,2,2*%
%TO.N,Host-nRESET*%
X70525000Y-54400000D03*
%TD*%
D44*
%TO.N,+3.3V*%
X73400000Y-48800000D03*
X75700000Y-49000000D03*
X77000000Y-60800000D03*
X89400000Y-55900000D03*
X85800000Y-55900000D03*
X89400000Y-47900000D03*
X74600000Y-46600000D03*
X87700000Y-59600000D03*
X75700000Y-50850000D03*
X71300000Y-52800000D03*
D45*
%TO.N,GND*%
X76400000Y-56500000D03*
X86900000Y-54900000D03*
X84700000Y-59200000D03*
X83300000Y-55000000D03*
X77900000Y-62400000D03*
X81000000Y-50000000D03*
X79400000Y-51000000D03*
D44*
X65900000Y-62400000D03*
X74300000Y-56500000D03*
X90200000Y-60700000D03*
D45*
X81000000Y-59600000D03*
X79200000Y-60600000D03*
D44*
X77500000Y-50850000D03*
D45*
X81000000Y-47800000D03*
X86900000Y-50400000D03*
D44*
X68800000Y-46200000D03*
X90200000Y-59000000D03*
D45*
X83000000Y-56200000D03*
X83300000Y-50700000D03*
X82900000Y-57400000D03*
X85000000Y-57700000D03*
D44*
X74500000Y-41800000D03*
X69400000Y-48900000D03*
X72500000Y-46800000D03*
X73300000Y-61300000D03*
X78200000Y-56500000D03*
D45*
X79300000Y-48800000D03*
D44*
X89500000Y-62300000D03*
D45*
X79700000Y-54900000D03*
X83100000Y-59600000D03*
D44*
X71800000Y-44700000D03*
D45*
X81000000Y-57400000D03*
X84700000Y-60200000D03*
D44*
X88900000Y-58200000D03*
D45*
%TO.N,Activity-LED*%
X91000000Y-48200000D03*
X88400000Y-56800000D03*
D44*
%TO.N,+5V*%
X92800000Y-58000000D03*
X70700000Y-42900000D03*
%TO.N,VCC-Host*%
X83100000Y-47600000D03*
X67100000Y-48900000D03*
X71900000Y-49000000D03*
X77600000Y-47600000D03*
%TO.N,VTARGET-LDO*%
X88900000Y-68300000D03*
X74000000Y-71400000D03*
X75000000Y-68800000D03*
X68000000Y-67700000D03*
X84600000Y-71100000D03*
%TO.N,VCC-Target*%
X89500000Y-79300000D03*
X75500000Y-77500000D03*
D45*
%TO.N,CC2*%
X82200000Y-47800000D03*
X78500000Y-47500000D03*
%TO.N,GND-TARGET*%
X78700000Y-71300000D03*
D44*
X77700000Y-66200000D03*
D45*
X73100000Y-69700000D03*
X69900000Y-71200000D03*
D44*
X87600000Y-75200000D03*
D45*
X77200000Y-73000000D03*
D44*
X65900000Y-66200000D03*
D45*
X75700000Y-74500000D03*
D44*
X85900000Y-77600000D03*
D45*
X73100000Y-73300000D03*
X69900000Y-74800000D03*
X81400000Y-70800000D03*
X85100000Y-68300000D03*
D44*
X79300000Y-77000000D03*
X85800000Y-74900000D03*
X86100000Y-71200000D03*
X75500000Y-80600000D03*
D45*
X81400000Y-73000000D03*
D44*
X80300000Y-77000000D03*
X90200000Y-67900000D03*
X85900000Y-79500000D03*
D45*
X76500000Y-71300000D03*
D44*
X89500000Y-66300000D03*
D45*
X86800000Y-68500000D03*
D44*
X86900000Y-70400000D03*
D45*
X81800000Y-68800000D03*
D44*
X90800000Y-70000000D03*
X87800000Y-73200000D03*
D45*
%TO.N,JTAG-nRST-VV*%
X82500000Y-68300000D03*
X82900000Y-71100000D03*
%TO.N,JTAG-TDO-VV*%
X79400000Y-68000000D03*
X80600000Y-70700000D03*
%TO.N,JTAG-SWDIO-IN*%
X86700000Y-51200000D03*
X82500000Y-60300000D03*
%TO.N,JTAG-SWDIO*%
X77000000Y-58200000D03*
X84800000Y-49600000D03*
%TO.N,Host-nRESET*%
X71000000Y-49100000D03*
X69500000Y-53500000D03*
%TO.N,UART-RXD*%
X79100000Y-58200000D03*
%TO.N,JTAG-TDO*%
X80700000Y-60400000D03*
X80400000Y-56200000D03*
%TO.N,UART-TXD*%
X78300000Y-58200000D03*
%TO.N,JTAG-SWDIO-OUT*%
X88605000Y-51785000D03*
X82200000Y-59500000D03*
X84700000Y-53000000D03*
%TO.N,JTAG-SWDIO-OUT-VV*%
X72100000Y-73400000D03*
X70900000Y-69500000D03*
%TD*%
D46*
%TO.N,+3.3V*%
X89550000Y-53037500D02*
X89550000Y-54725000D01*
X73300000Y-47625000D02*
X73475000Y-47800000D01*
X85955000Y-54720000D02*
X85775000Y-54900000D01*
X73650000Y-45937500D02*
X73650000Y-46450000D01*
X87700000Y-59600000D02*
X88875000Y-60775000D01*
X89400000Y-55900000D02*
X89375000Y-55875000D01*
X92787500Y-54600000D02*
X92700000Y-54600000D01*
X86362500Y-48900000D02*
X87262500Y-48000000D01*
X74400000Y-46600000D02*
X74600000Y-46600000D01*
X71775000Y-53275000D02*
X71300000Y-52800000D01*
X88875000Y-60775000D02*
X88900000Y-60775000D01*
X85775000Y-55875000D02*
X85800000Y-55900000D01*
X74400000Y-46600000D02*
X74400000Y-47200000D01*
X75975000Y-61300000D02*
X75975000Y-60625000D01*
X75925000Y-51700000D02*
X75925000Y-52350000D01*
X76375000Y-53650000D02*
X76375000Y-52800000D01*
X75925000Y-50000000D02*
X75700000Y-49775000D01*
X66075000Y-58200000D02*
X66400000Y-57875000D01*
X75925000Y-52350000D02*
X76375000Y-52800000D01*
X75800000Y-50750000D02*
X75700000Y-50850000D01*
X76375000Y-60225000D02*
X76375000Y-59375000D01*
X75700000Y-50850000D02*
X75700000Y-49500000D01*
X75800000Y-50950000D02*
X75700000Y-50850000D01*
X89425000Y-48900000D02*
X89425000Y-47925000D01*
X74400000Y-47200000D02*
X73800000Y-47800000D01*
X87262500Y-48000000D02*
X88300000Y-48000000D01*
X73800000Y-47800000D02*
X73475000Y-47800000D01*
X92700000Y-54600000D02*
X91400000Y-55900000D01*
X72200000Y-53275000D02*
X71775000Y-53275000D01*
X75700000Y-49775000D02*
X75700000Y-49000000D01*
X73400000Y-48800000D02*
X73400000Y-47875000D01*
X89375000Y-55875000D02*
X89375000Y-54900000D01*
X89550000Y-54725000D02*
X89375000Y-54900000D01*
X75700000Y-50850000D02*
X75700000Y-52125000D01*
X85775000Y-54900000D02*
X85775000Y-55875000D01*
X73650000Y-46450000D02*
X73300000Y-46800000D01*
X75800000Y-51400000D02*
X75800000Y-50950000D01*
X67450000Y-55250000D02*
X67450000Y-53750000D01*
X70500000Y-52800000D02*
X71300000Y-52800000D01*
X77000000Y-60900000D02*
X76600000Y-61300000D01*
X88900000Y-60775000D02*
X88275000Y-61400000D01*
X88300000Y-48000000D02*
X89200000Y-48900000D01*
X87500000Y-61500000D02*
X87500000Y-61780000D01*
X75925000Y-51525000D02*
X75800000Y-51400000D01*
X89200000Y-48900000D02*
X89425000Y-48900000D01*
X75925000Y-51700000D02*
X75925000Y-51525000D01*
X67450000Y-53750000D02*
X68400000Y-52800000D01*
X76600000Y-61300000D02*
X75875000Y-61300000D01*
X77000000Y-60800000D02*
X77000000Y-60900000D01*
X66400000Y-57875000D02*
X66400000Y-56300000D01*
X87600000Y-61400000D02*
X87500000Y-61500000D01*
X66400000Y-56300000D02*
X67450000Y-55250000D01*
X85955000Y-53022500D02*
X85955000Y-54720000D01*
X89425000Y-47925000D02*
X89400000Y-47900000D01*
X87500000Y-61780000D02*
X87545000Y-61825000D01*
X88275000Y-61400000D02*
X87600000Y-61400000D01*
X73400000Y-47875000D02*
X73475000Y-47800000D01*
X68400000Y-52800000D02*
X70500000Y-52800000D01*
X75700000Y-52125000D02*
X75925000Y-52350000D01*
X85825000Y-48900000D02*
X86362500Y-48900000D01*
X73300000Y-46800000D02*
X73300000Y-47625000D01*
X75925000Y-50175000D02*
X75800000Y-50300000D01*
X75925000Y-50000000D02*
X75925000Y-50175000D01*
X91400000Y-55900000D02*
X89400000Y-55900000D01*
X75800000Y-50300000D02*
X75800000Y-50750000D01*
X75975000Y-60625000D02*
X76375000Y-60225000D01*
D47*
%TO.N,GND*%
X81000000Y-48515000D02*
X81000000Y-47800000D01*
D48*
%TO.N,Net-(D1-K)*%
X91175000Y-51000000D02*
X91175000Y-49237500D01*
X91175000Y-49237500D02*
X91212500Y-49200000D01*
%TO.N,Activity-LED*%
X88100000Y-57100000D02*
X88400000Y-56800000D01*
X91000000Y-48200000D02*
X91200000Y-48400000D01*
X91200000Y-48400000D02*
X91987500Y-48400000D01*
X79600000Y-53675000D02*
X79600000Y-54200000D01*
X91987500Y-48400000D02*
X92787500Y-49200000D01*
X79625000Y-53650000D02*
X79600000Y-53675000D01*
X79600000Y-54200000D02*
X79900000Y-54200000D01*
X83300000Y-55600000D02*
X84800000Y-57100000D01*
X79900000Y-54200000D02*
X81300000Y-55600000D01*
X81300000Y-55600000D02*
X83300000Y-55600000D01*
X84800000Y-57100000D02*
X88100000Y-57100000D01*
%TO.N,Net-(D2-K)*%
X91175000Y-52800000D02*
X91175000Y-54562500D01*
X91175000Y-54562500D02*
X91212500Y-54600000D01*
D46*
%TO.N,+5V*%
X92775000Y-58025000D02*
X92800000Y-58000000D01*
X70200000Y-45300000D02*
X70700000Y-44800000D01*
X92775000Y-59000000D02*
X92775000Y-58025000D01*
X92775000Y-61425000D02*
X92600000Y-61600000D01*
X92600000Y-62275000D02*
X92600000Y-61600000D01*
X70200000Y-45300000D02*
X70200000Y-47300000D01*
X70700000Y-42200000D02*
X71100000Y-41800000D01*
X70200000Y-47300000D02*
X70100000Y-47400000D01*
X92775000Y-60700000D02*
X92775000Y-61425000D01*
X72700000Y-42575000D02*
X71925000Y-41800000D01*
X92775000Y-60700000D02*
X92775000Y-59000000D01*
X70700000Y-44800000D02*
X70700000Y-42200000D01*
X71100000Y-41800000D02*
X71925000Y-41800000D01*
X72700000Y-43662500D02*
X72700000Y-42575000D01*
%TO.N,VCC-Host*%
X67100000Y-47600000D02*
X67300000Y-47400000D01*
X77550000Y-47550000D02*
X77600000Y-47600000D01*
X72000000Y-49100000D02*
X72000000Y-49900000D01*
X83000000Y-47600000D02*
X82450000Y-47050000D01*
X72000000Y-49900000D02*
X71970000Y-49930000D01*
X83100000Y-47600000D02*
X83000000Y-47600000D01*
X71970000Y-49930000D02*
X71970000Y-49965000D01*
X71900000Y-49000000D02*
X72000000Y-49100000D01*
X82450000Y-47050000D02*
X82450000Y-46200000D01*
X67100000Y-48900000D02*
X67100000Y-47600000D01*
X77550000Y-46200000D02*
X77550000Y-47550000D01*
%TO.N,VTARGET-LDO*%
X73825000Y-72150000D02*
X74000000Y-72325000D01*
X84700000Y-74125000D02*
X84700000Y-72275000D01*
X67800000Y-71600000D02*
X67800000Y-72075000D01*
X87900000Y-68925000D02*
X88275000Y-68925000D01*
X87772500Y-68797500D02*
X87900000Y-68925000D01*
X84700000Y-72275000D02*
X84625000Y-72200000D01*
X67800000Y-72075000D02*
X68000000Y-72275000D01*
X84625000Y-72200000D02*
X84625000Y-71125000D01*
X67100000Y-70900000D02*
X67100000Y-69850000D01*
X75000000Y-68800000D02*
X74075000Y-68800000D01*
X74000000Y-72325000D02*
X74000000Y-71400000D01*
X84625000Y-71125000D02*
X84600000Y-71100000D01*
X68000000Y-67700000D02*
X68000000Y-68675000D01*
X74075000Y-68800000D02*
X74000000Y-68725000D01*
X87545000Y-66775000D02*
X87545000Y-68000000D01*
X73825000Y-68550000D02*
X74000000Y-68725000D01*
X68000000Y-68950000D02*
X68000000Y-68675000D01*
X87772500Y-68227500D02*
X87772500Y-68797500D01*
X86562500Y-73950000D02*
X84875000Y-73950000D01*
X88275000Y-68925000D02*
X88900000Y-68300000D01*
X87772500Y-68227500D02*
X87545000Y-68000000D01*
X72137500Y-68550000D02*
X73825000Y-68550000D01*
X67800000Y-71600000D02*
X67100000Y-70900000D01*
X72137500Y-72150000D02*
X73825000Y-72150000D01*
X84875000Y-73950000D02*
X84700000Y-74125000D01*
X67100000Y-69850000D02*
X68000000Y-68950000D01*
%TO.N,VCC-Target*%
X77500000Y-78400000D02*
X77500000Y-78995000D01*
X88475000Y-77600000D02*
X88500000Y-77575000D01*
X75500000Y-78400000D02*
X77500000Y-78400000D01*
X88525000Y-79300000D02*
X88525000Y-77650000D01*
X88525000Y-77650000D02*
X88475000Y-77600000D01*
X75500000Y-78400000D02*
X75500000Y-77500000D01*
X77500000Y-78995000D02*
X77460000Y-79035000D01*
X88500000Y-76187500D02*
X88837500Y-75850000D01*
X89500000Y-79300000D02*
X88525000Y-79300000D01*
X88500000Y-77575000D02*
X88500000Y-76187500D01*
D48*
%TO.N,CC1*%
X81600000Y-48048529D02*
X81500000Y-48148529D01*
X81500000Y-49600000D02*
X82000000Y-50100000D01*
X82000000Y-50825000D02*
X81825000Y-51000000D01*
X81600000Y-47500000D02*
X81600000Y-48048529D01*
X81250000Y-47150000D02*
X81600000Y-47500000D01*
X81500000Y-49285000D02*
X81500000Y-49600000D01*
X82000000Y-50100000D02*
X82000000Y-50825000D01*
X81500000Y-48148529D02*
X81500000Y-49285000D01*
X81250000Y-46200000D02*
X81250000Y-47150000D01*
%TO.N,CC2*%
X82600000Y-51775000D02*
X81700000Y-52675000D01*
X78250000Y-46200000D02*
X78250000Y-47250000D01*
X82000000Y-49500000D02*
X82600000Y-50100000D01*
X82200000Y-47900000D02*
X82000000Y-48100000D01*
X82200000Y-47800000D02*
X82200000Y-47900000D01*
X82000000Y-49285000D02*
X82000000Y-49500000D01*
X78250000Y-47250000D02*
X78500000Y-47500000D01*
X82600000Y-50100000D02*
X82600000Y-51775000D01*
X82000000Y-48100000D02*
X82000000Y-49285000D01*
%TO.N,BOOT0*%
X72375000Y-59500000D02*
X73800000Y-59500000D01*
X73800000Y-59500000D02*
X73800000Y-59400000D01*
X73800000Y-59400000D02*
X73775000Y-59375000D01*
X72200000Y-59675000D02*
X72375000Y-59500000D01*
X70525000Y-58625000D02*
X70525000Y-58200000D01*
X72000000Y-59500000D02*
X71400000Y-59500000D01*
X72200000Y-59675000D02*
X72175000Y-59675000D01*
X71400000Y-59500000D02*
X70525000Y-58625000D01*
X72175000Y-59675000D02*
X72000000Y-59500000D01*
%TO.N,USB-DM*%
X80500000Y-45100000D02*
X80750000Y-45350000D01*
X75000000Y-52200000D02*
X75725000Y-52925000D01*
X80750000Y-47150000D02*
X80750000Y-46200000D01*
X76900000Y-49200000D02*
X76000000Y-48300000D01*
X79750000Y-45350000D02*
X80000000Y-45100000D01*
X75000000Y-48700000D02*
X75000000Y-52200000D01*
X79750000Y-46200000D02*
X79750000Y-45350000D01*
X80500000Y-49285000D02*
X80500000Y-48150000D01*
X80250000Y-49900000D02*
X78900000Y-49900000D01*
X78200000Y-49200000D02*
X76900000Y-49200000D01*
X75400000Y-48300000D02*
X75000000Y-48700000D01*
X80500000Y-49285000D02*
X80500000Y-49650000D01*
X75725000Y-52925000D02*
X75725000Y-53650000D01*
X80400000Y-47500000D02*
X80750000Y-47150000D01*
X80500000Y-48150000D02*
X80400000Y-48050000D01*
X80500000Y-49650000D02*
X80250000Y-49900000D01*
X80750000Y-45350000D02*
X80750000Y-46200000D01*
X76000000Y-48300000D02*
X75400000Y-48300000D01*
X80000000Y-45100000D02*
X80500000Y-45100000D01*
X78900000Y-49900000D02*
X78200000Y-49200000D01*
X80400000Y-48050000D02*
X80400000Y-47500000D01*
%TO.N,USB-DP*%
X74600000Y-48500000D02*
X74600000Y-52400000D01*
X74600000Y-52400000D02*
X75075000Y-52875000D01*
X77100000Y-48800000D02*
X76200000Y-47900000D01*
X79500000Y-47300000D02*
X80000000Y-47300000D01*
X79250000Y-47050000D02*
X79500000Y-47300000D01*
X80250000Y-47050000D02*
X80250000Y-46200000D01*
X80000000Y-49285000D02*
X79785000Y-49500000D01*
X79100000Y-49500000D02*
X78400000Y-48800000D01*
X76200000Y-47900000D02*
X75200000Y-47900000D01*
X80000000Y-47300000D02*
X80250000Y-47050000D01*
X79250000Y-46200000D02*
X79250000Y-47050000D01*
X79785000Y-49500000D02*
X79100000Y-49500000D01*
X75200000Y-47900000D02*
X74600000Y-48500000D01*
X78400000Y-48800000D02*
X77100000Y-48800000D01*
X75075000Y-52875000D02*
X75075000Y-53650000D01*
X80000000Y-49285000D02*
X80000000Y-47300000D01*
D46*
%TO.N,+5V-Isolated*%
X89375000Y-72200000D02*
X89200000Y-72375000D01*
X89375000Y-72200000D02*
X90800000Y-72200000D01*
X92600000Y-69925000D02*
X92675000Y-70000000D01*
X89200000Y-72375000D02*
X89200000Y-73950000D01*
X90800000Y-72200000D02*
X92675000Y-70325000D01*
X89200000Y-73950000D02*
X88837500Y-73950000D01*
X92675000Y-70325000D02*
X92675000Y-70000000D01*
X92600000Y-66325000D02*
X92600000Y-69925000D01*
D48*
%TO.N,Host-SWDIO*%
X74425000Y-52790686D02*
X73334314Y-51700000D01*
X73334314Y-51700000D02*
X72435000Y-51700000D01*
X72435000Y-51700000D02*
X71970000Y-51235000D01*
X74425000Y-53650000D02*
X74425000Y-52790686D01*
%TO.N,Host-SWCLK*%
X70700000Y-51235000D02*
X70700000Y-51800000D01*
X70700000Y-51800000D02*
X71000000Y-52100000D01*
X73775000Y-52775000D02*
X73775000Y-53650000D01*
X73100000Y-52100000D02*
X73775000Y-52775000D01*
X71000000Y-52100000D02*
X73100000Y-52100000D01*
%TO.N,JTAG-nRST-VV*%
X82900000Y-71100000D02*
X82600000Y-71100000D01*
X82400000Y-71300000D02*
X82400000Y-71515000D01*
X82400000Y-74828000D02*
X82540000Y-74968000D01*
X82600000Y-71100000D02*
X82400000Y-71300000D01*
X82400000Y-71515000D02*
X82400000Y-74828000D01*
X82500000Y-68300000D02*
X82800000Y-68300000D01*
X83735000Y-67365000D02*
X83735000Y-66775000D01*
X82800000Y-68300000D02*
X83735000Y-67365000D01*
%TO.N,JTAG-TDI-VV*%
X81270000Y-74030000D02*
X82000000Y-73300000D01*
X81900000Y-71515000D02*
X81900000Y-71200000D01*
X81900000Y-71200000D02*
X83800000Y-69300000D01*
X81270000Y-74968000D02*
X81270000Y-74030000D01*
X85050000Y-69300000D02*
X86275000Y-68075000D01*
X86275000Y-68075000D02*
X86275000Y-66775000D01*
X83800000Y-69300000D02*
X85050000Y-69300000D01*
X82000000Y-72751471D02*
X81900000Y-72651471D01*
X82000000Y-73300000D02*
X82000000Y-72751471D01*
X81900000Y-72651471D02*
X81900000Y-71515000D01*
%TO.N,JTAG-SWCLK-VV*%
X84400000Y-68100000D02*
X85005000Y-67495000D01*
X79700000Y-73200000D02*
X80400000Y-72500000D01*
X79500000Y-73200000D02*
X79700000Y-73200000D01*
X81600000Y-70100000D02*
X83600000Y-68100000D01*
X80000000Y-71000000D02*
X80000000Y-70400000D01*
X83600000Y-68100000D02*
X84400000Y-68100000D01*
X80400000Y-71515000D02*
X80400000Y-71400000D01*
X85005000Y-67495000D02*
X85005000Y-66775000D01*
X80000000Y-70400000D02*
X80300000Y-70100000D01*
X80400000Y-72500000D02*
X80400000Y-71515000D01*
X78730000Y-74968000D02*
X78730000Y-73970000D01*
X80300000Y-70100000D02*
X81600000Y-70100000D01*
X78730000Y-73970000D02*
X79500000Y-73200000D01*
X80400000Y-71400000D02*
X80000000Y-71000000D01*
%TO.N,JTAG-TDO-VV*%
X80700000Y-70800000D02*
X80700000Y-71000000D01*
X80600000Y-70700000D02*
X80700000Y-70800000D01*
X80200000Y-74768000D02*
X80000000Y-74968000D01*
X79925000Y-67475000D02*
X79400000Y-68000000D01*
X80200000Y-73300000D02*
X80200000Y-74768000D01*
X80900000Y-72600000D02*
X80200000Y-73300000D01*
X80900000Y-71200000D02*
X80900000Y-71515000D01*
X80700000Y-71000000D02*
X80900000Y-71200000D01*
X80900000Y-71515000D02*
X80900000Y-72600000D01*
X79925000Y-66775000D02*
X79925000Y-67475000D01*
%TO.N,JTAG-SWDIO-VV*%
X71750000Y-70450000D02*
X71000000Y-71200000D01*
X76700000Y-72300000D02*
X77985000Y-72300000D01*
X72137500Y-70450000D02*
X71750000Y-70450000D01*
X78200000Y-72400000D02*
X78200000Y-72900000D01*
X68075000Y-73925000D02*
X68000000Y-73925000D01*
X78100000Y-72300000D02*
X78200000Y-72400000D01*
X68900000Y-73100000D02*
X68075000Y-73925000D01*
X78200000Y-72900000D02*
X77700000Y-73400000D01*
X71000000Y-71200000D02*
X71000000Y-72400000D01*
X75200000Y-75900000D02*
X76300000Y-74800000D01*
X70000000Y-75900000D02*
X75200000Y-75900000D01*
X68000000Y-73925000D02*
X68025000Y-73925000D01*
X70300000Y-73100000D02*
X69862500Y-73100000D01*
X77700000Y-74725000D02*
X77460000Y-74965000D01*
X71000000Y-72400000D02*
X70300000Y-73100000D01*
X76300000Y-72700000D02*
X76700000Y-72300000D01*
X68025000Y-73925000D02*
X70000000Y-75900000D01*
X69862500Y-73100000D02*
X68900000Y-73100000D01*
X76300000Y-74800000D02*
X76300000Y-72700000D01*
X77700000Y-73400000D02*
X77700000Y-74725000D01*
X77985000Y-72300000D02*
X78100000Y-72300000D01*
%TO.N,JTAG-SWDIO-IN*%
X86700000Y-51200000D02*
X85955000Y-51200000D01*
X85955000Y-51200000D02*
X85955000Y-50747500D01*
X82500000Y-60500000D02*
X82400000Y-60600000D01*
X87090000Y-48900000D02*
X85955000Y-50035000D01*
X85955000Y-50035000D02*
X85955000Y-50747500D01*
X87775000Y-48900000D02*
X87090000Y-48900000D01*
X82400000Y-61760000D02*
X82465000Y-61825000D01*
X82400000Y-60600000D02*
X82400000Y-61760000D01*
X82500000Y-60300000D02*
X82500000Y-60500000D01*
%TO.N,JTAG-SWDIO*%
X85005000Y-50747500D02*
X85005000Y-49805000D01*
X77000000Y-58250000D02*
X77025000Y-58275000D01*
X86905000Y-51885000D02*
X85585000Y-51885000D01*
X85005000Y-49805000D02*
X84175000Y-48975000D01*
X85005000Y-51305000D02*
X85005000Y-50747500D01*
X77025000Y-58275000D02*
X77025000Y-59375000D01*
X84175000Y-48975000D02*
X84175000Y-48900000D01*
X87650000Y-52630000D02*
X86905000Y-51885000D01*
X87650000Y-53037500D02*
X87650000Y-52630000D01*
X85585000Y-51885000D02*
X85005000Y-51305000D01*
X77000000Y-58200000D02*
X77000000Y-58250000D01*
%TO.N,JTAG-SWDIO-IN-VV*%
X81195000Y-67205000D02*
X81195000Y-66775000D01*
X69100000Y-67900000D02*
X75100000Y-67900000D01*
X68800000Y-68200000D02*
X69100000Y-67900000D01*
X68000000Y-70325000D02*
X68000000Y-71000000D01*
X68000000Y-69900000D02*
X68800000Y-69100000D01*
X75800000Y-68600000D02*
X79800000Y-68600000D01*
X75100000Y-67900000D02*
X75800000Y-68600000D01*
X68000000Y-70325000D02*
X68000000Y-69900000D01*
X79800000Y-68600000D02*
X81195000Y-67205000D01*
X68000000Y-71000000D02*
X69150000Y-72150000D01*
X68800000Y-69100000D02*
X68800000Y-68200000D01*
X69150000Y-72150000D02*
X69862500Y-72150000D01*
%TO.N,JTAG-TDI*%
X83200000Y-56800000D02*
X80100000Y-56800000D01*
X78325000Y-54425000D02*
X78325000Y-53650000D01*
X86275000Y-60775000D02*
X85300000Y-59800000D01*
X85300000Y-59800000D02*
X85300000Y-58900000D01*
X78500000Y-54600000D02*
X78325000Y-54425000D01*
X85300000Y-58900000D02*
X83200000Y-56800000D01*
X78500000Y-55200000D02*
X78500000Y-54600000D01*
X86275000Y-61825000D02*
X86275000Y-60775000D01*
X80100000Y-56800000D02*
X78500000Y-55200000D01*
%TO.N,Host-nRESET*%
X70500000Y-54900000D02*
X70500000Y-54425000D01*
X72200000Y-54925000D02*
X70525000Y-54925000D01*
X75725000Y-58525000D02*
X75400000Y-58200000D01*
X70900000Y-49765000D02*
X70700000Y-49965000D01*
X73900000Y-58200000D02*
X72225000Y-56525000D01*
X69500000Y-53500000D02*
X70000000Y-53500000D01*
X72200000Y-54925000D02*
X72200000Y-56525000D01*
X70000000Y-53500000D02*
X70525000Y-54025000D01*
X70500000Y-54425000D02*
X70525000Y-54400000D01*
X75725000Y-59375000D02*
X75725000Y-58525000D01*
X70525000Y-54925000D02*
X70500000Y-54900000D01*
X75400000Y-58200000D02*
X73900000Y-58200000D01*
X70900000Y-49200000D02*
X70900000Y-49765000D01*
X71000000Y-49100000D02*
X70900000Y-49200000D01*
X72225000Y-56525000D02*
X72200000Y-56525000D01*
X70525000Y-54025000D02*
X70525000Y-54400000D01*
%TO.N,JTAG-nRST*%
X83735000Y-61825000D02*
X83700000Y-61790000D01*
X83700000Y-61790000D02*
X83700000Y-59200000D01*
X83700000Y-59200000D02*
X82900000Y-58400000D01*
X79800000Y-58400000D02*
X79625000Y-58575000D01*
X83800000Y-61050000D02*
X83735000Y-61115000D01*
X83735000Y-61115000D02*
X83735000Y-61825000D01*
X82900000Y-58400000D02*
X79800000Y-58400000D01*
X79625000Y-58575000D02*
X79625000Y-59375000D01*
%TO.N,UART-RXD*%
X78975000Y-58225000D02*
X78975000Y-59375000D01*
X79000000Y-58200000D02*
X78975000Y-58225000D01*
X79100000Y-58200000D02*
X79000000Y-58200000D01*
%TO.N,JTAG-TDO*%
X78975000Y-54525000D02*
X78900000Y-54600000D01*
X79925000Y-61175000D02*
X79925000Y-61825000D01*
X80700000Y-60400000D02*
X79925000Y-61175000D01*
X78900000Y-54600000D02*
X78900000Y-55000000D01*
X78975000Y-53650000D02*
X78975000Y-54525000D01*
X80100000Y-56200000D02*
X80400000Y-56200000D01*
X78900000Y-55000000D02*
X80100000Y-56200000D01*
%TO.N,UART-TXD*%
X78300000Y-58200000D02*
X78300000Y-58300000D01*
X78325000Y-58325000D02*
X78325000Y-59375000D01*
X78300000Y-58300000D02*
X78325000Y-58325000D01*
%TO.N,JTAG-SWCLK*%
X77700000Y-59350000D02*
X77700000Y-57900000D01*
X83100000Y-58000000D02*
X84100000Y-59000000D01*
X85005000Y-61405000D02*
X85005000Y-61825000D01*
X77675000Y-59375000D02*
X77700000Y-59350000D01*
X84100000Y-59000000D02*
X84100000Y-60500000D01*
X77700000Y-57900000D02*
X78000000Y-57600000D01*
X79800000Y-58000000D02*
X83100000Y-58000000D01*
X79400000Y-57600000D02*
X79800000Y-58000000D01*
X78000000Y-57600000D02*
X79400000Y-57600000D01*
X84100000Y-60500000D02*
X85005000Y-61405000D01*
%TO.N,JTAG-SWDIO-OUT*%
X81700000Y-60700000D02*
X81195000Y-61205000D01*
X84700000Y-53000000D02*
X84077500Y-53000000D01*
X88605000Y-51785000D02*
X88605000Y-50767500D01*
X81700000Y-60000000D02*
X81700000Y-60700000D01*
X82200000Y-59500000D02*
X81700000Y-60000000D01*
X88605000Y-50767500D02*
X88600000Y-50762500D01*
X84077500Y-53000000D02*
X84055000Y-53022500D01*
X81195000Y-61205000D02*
X81195000Y-61825000D01*
%TO.N,JTAG-SWDIO-OUT-VV*%
X75300000Y-74000000D02*
X75300000Y-69500000D01*
X75800000Y-69000000D02*
X80000000Y-69000000D01*
X82465000Y-67435000D02*
X82465000Y-66775000D01*
X75300000Y-69500000D02*
X75800000Y-69000000D01*
X70900000Y-69500000D02*
X69862500Y-69500000D01*
X73400000Y-74700000D02*
X74600000Y-74700000D01*
X80000000Y-69000000D02*
X80900000Y-68100000D01*
X72137500Y-74050000D02*
X72750000Y-74050000D01*
X81800000Y-68100000D02*
X82465000Y-67435000D01*
X72750000Y-74050000D02*
X73400000Y-74700000D01*
X80900000Y-68100000D02*
X81800000Y-68100000D01*
X72100000Y-73400000D02*
X72100000Y-74012500D01*
X72100000Y-74012500D02*
X72137500Y-74050000D01*
X74600000Y-74700000D02*
X75300000Y-74000000D01*
%TD*%
%TA.AperFunction,Conductor*%
%TO.N,GND-TARGET*%
G36*
X79367539Y-65819685D02*
G01*
X79413294Y-65872489D01*
X79424500Y-65924000D01*
X79424500Y-67380131D01*
X79404815Y-67447170D01*
X79352011Y-67492925D01*
X79332597Y-67499904D01*
X79206814Y-67533608D01*
X79206812Y-67533608D01*
X79206812Y-67533609D01*
X79092686Y-67599500D01*
X79092683Y-67599502D01*
X78999502Y-67692683D01*
X78999500Y-67692686D01*
X78933608Y-67806812D01*
X78911534Y-67889196D01*
X78899500Y-67934108D01*
X78899500Y-68065892D01*
X78920270Y-68143407D01*
X78918607Y-68213257D01*
X78879444Y-68271119D01*
X78815216Y-68298623D01*
X78800495Y-68299500D01*
X75975833Y-68299500D01*
X75908794Y-68279815D01*
X75888152Y-68263181D01*
X75284512Y-67659541D01*
X75284504Y-67659535D01*
X75238993Y-67633259D01*
X75238993Y-67633260D01*
X75217662Y-67620945D01*
X75215989Y-67619979D01*
X75139562Y-67599500D01*
X69060438Y-67599500D01*
X68996972Y-67616506D01*
X68984011Y-67619979D01*
X68984009Y-67619980D01*
X68961007Y-67633260D01*
X68961006Y-67633259D01*
X68915495Y-67659535D01*
X68915487Y-67659541D01*
X68812181Y-67762848D01*
X68750858Y-67796333D01*
X68681166Y-67791349D01*
X68625233Y-67749477D01*
X68600816Y-67684013D01*
X68600500Y-67675167D01*
X68600500Y-67620945D01*
X68600500Y-67620943D01*
X68559577Y-67468216D01*
X68535882Y-67427174D01*
X68480524Y-67331290D01*
X68480518Y-67331282D01*
X68368717Y-67219481D01*
X68368709Y-67219475D01*
X68231790Y-67140426D01*
X68231786Y-67140424D01*
X68231784Y-67140423D01*
X68079057Y-67099500D01*
X67920943Y-67099500D01*
X67768216Y-67140423D01*
X67768209Y-67140426D01*
X67631290Y-67219475D01*
X67631282Y-67219481D01*
X67519481Y-67331282D01*
X67519475Y-67331290D01*
X67440426Y-67468209D01*
X67440423Y-67468216D01*
X67399500Y-67620943D01*
X67399500Y-67779057D01*
X67440423Y-67931784D01*
X67449365Y-67947273D01*
X67488528Y-68015105D01*
X67505000Y-68083005D01*
X67482147Y-68149032D01*
X67468822Y-68164785D01*
X67396951Y-68236656D01*
X67396951Y-68236657D01*
X67396950Y-68236658D01*
X67391793Y-68246780D01*
X67339352Y-68349698D01*
X67324500Y-68443475D01*
X67324500Y-68906517D01*
X67335480Y-68975840D01*
X67326524Y-69045134D01*
X67300687Y-69082918D01*
X66779522Y-69604084D01*
X66779520Y-69604087D01*
X66726793Y-69695411D01*
X66726793Y-69695412D01*
X66703053Y-69784012D01*
X66700684Y-69792852D01*
X66699663Y-69796666D01*
X66699500Y-69797273D01*
X66699500Y-70847273D01*
X66699500Y-70952727D01*
X66704704Y-70972149D01*
X66726793Y-71054589D01*
X66751653Y-71097646D01*
X66779520Y-71145913D01*
X66779522Y-71145915D01*
X67357992Y-71724385D01*
X67391477Y-71785708D01*
X67386493Y-71855400D01*
X67380796Y-71868360D01*
X67339353Y-71949695D01*
X67339352Y-71949698D01*
X67324500Y-72043475D01*
X67324500Y-72506517D01*
X67332497Y-72557006D01*
X67339354Y-72600304D01*
X67396950Y-72713342D01*
X67396952Y-72713344D01*
X67396954Y-72713347D01*
X67486652Y-72803045D01*
X67486654Y-72803046D01*
X67486658Y-72803050D01*
X67595712Y-72858616D01*
X67599698Y-72860647D01*
X67693475Y-72875499D01*
X67693481Y-72875500D01*
X68306518Y-72875499D01*
X68396557Y-72861239D01*
X68465849Y-72870195D01*
X68519301Y-72915192D01*
X68539940Y-72981943D01*
X68521215Y-73049257D01*
X68503634Y-73071394D01*
X68286846Y-73288181D01*
X68225523Y-73321666D01*
X68199165Y-73324500D01*
X67693482Y-73324500D01*
X67619731Y-73336181D01*
X67599696Y-73339354D01*
X67486658Y-73396950D01*
X67486657Y-73396951D01*
X67486652Y-73396954D01*
X67396954Y-73486652D01*
X67396951Y-73486657D01*
X67396950Y-73486658D01*
X67383436Y-73513181D01*
X67339352Y-73599698D01*
X67324500Y-73693475D01*
X67324500Y-74156517D01*
X67331608Y-74201393D01*
X67339354Y-74250304D01*
X67396950Y-74363342D01*
X67396952Y-74363344D01*
X67396954Y-74363347D01*
X67486652Y-74453045D01*
X67486654Y-74453046D01*
X67486658Y-74453050D01*
X67597877Y-74509719D01*
X67599698Y-74510647D01*
X67693475Y-74525499D01*
X67693481Y-74525500D01*
X68149166Y-74525499D01*
X68216205Y-74545183D01*
X68236847Y-74561818D01*
X69815489Y-76140460D01*
X69874829Y-76174720D01*
X69884008Y-76180020D01*
X69884012Y-76180022D01*
X69960438Y-76200500D01*
X69960440Y-76200500D01*
X75239560Y-76200500D01*
X75239562Y-76200500D01*
X75315989Y-76180021D01*
X75384511Y-76140460D01*
X75440460Y-76084511D01*
X76540460Y-74984511D01*
X76563856Y-74943988D01*
X76580021Y-74915989D01*
X76600500Y-74839562D01*
X76600500Y-72875833D01*
X76620185Y-72808794D01*
X76636813Y-72788157D01*
X76766155Y-72658815D01*
X76827474Y-72625333D01*
X76897166Y-72630317D01*
X76901291Y-72631940D01*
X76907500Y-72634512D01*
X76907505Y-72634515D01*
X76987867Y-72650500D01*
X77442132Y-72650499D01*
X77522495Y-72634515D01*
X77531106Y-72628760D01*
X77597782Y-72607881D01*
X77636198Y-72613262D01*
X77653685Y-72618599D01*
X77677505Y-72634515D01*
X77757867Y-72650500D01*
X77758203Y-72650499D01*
X77764763Y-72652502D01*
X77788985Y-72668435D01*
X77814667Y-72681869D01*
X77817816Y-72687399D01*
X77823136Y-72690899D01*
X77834900Y-72717401D01*
X77849241Y-72742585D01*
X77848900Y-72748939D01*
X77851484Y-72754760D01*
X77847053Y-72783408D01*
X77845502Y-72812354D01*
X77841625Y-72818506D01*
X77840805Y-72823809D01*
X77832057Y-72833690D01*
X77816246Y-72858782D01*
X77515489Y-73159540D01*
X77459541Y-73215487D01*
X77459535Y-73215495D01*
X77419982Y-73284004D01*
X77416870Y-73291518D01*
X77413949Y-73290308D01*
X77385332Y-73337256D01*
X77322485Y-73367784D01*
X77301924Y-73369500D01*
X77115323Y-73369500D01*
X77042264Y-73384032D01*
X77042260Y-73384033D01*
X76959399Y-73439399D01*
X76904033Y-73522260D01*
X76904032Y-73522264D01*
X76889500Y-73595321D01*
X76889500Y-76334678D01*
X76904032Y-76407735D01*
X76904033Y-76407739D01*
X76914499Y-76423402D01*
X76959399Y-76490601D01*
X77042260Y-76545966D01*
X77042264Y-76545967D01*
X77115321Y-76560499D01*
X77115324Y-76560500D01*
X77115326Y-76560500D01*
X77268308Y-76560500D01*
X77335347Y-76580185D01*
X77381102Y-76632989D01*
X77391046Y-76702147D01*
X77382869Y-76731950D01*
X77375034Y-76750866D01*
X77363725Y-76778169D01*
X77363723Y-76778177D01*
X77334500Y-76925092D01*
X77334500Y-77074907D01*
X77363723Y-77221822D01*
X77363725Y-77221830D01*
X77382869Y-77268047D01*
X77390338Y-77337516D01*
X77359063Y-77399996D01*
X77298974Y-77435648D01*
X77268308Y-77439500D01*
X77115323Y-77439500D01*
X77042264Y-77454032D01*
X77042260Y-77454033D01*
X76959399Y-77509399D01*
X76904033Y-77592260D01*
X76904032Y-77592264D01*
X76889500Y-77665321D01*
X76889500Y-77875500D01*
X76869815Y-77942539D01*
X76817011Y-77988294D01*
X76765500Y-77999500D01*
X76119786Y-77999500D01*
X76052747Y-77979815D01*
X76006992Y-77927011D01*
X75997048Y-77857853D01*
X76012398Y-77813501D01*
X76036528Y-77771706D01*
X76059577Y-77731784D01*
X76100500Y-77579057D01*
X76100500Y-77420943D01*
X76059577Y-77268216D01*
X76029935Y-77216874D01*
X75980524Y-77131290D01*
X75980518Y-77131282D01*
X75868717Y-77019481D01*
X75868709Y-77019475D01*
X75731790Y-76940426D01*
X75731786Y-76940424D01*
X75731784Y-76940423D01*
X75579057Y-76899500D01*
X75420943Y-76899500D01*
X75268216Y-76940423D01*
X75268209Y-76940426D01*
X75131290Y-77019475D01*
X75131282Y-77019481D01*
X75019481Y-77131282D01*
X75019475Y-77131290D01*
X74940426Y-77268209D01*
X74940423Y-77268216D01*
X74899500Y-77420943D01*
X74899500Y-77579057D01*
X74940287Y-77731274D01*
X74940423Y-77731783D01*
X74940426Y-77731790D01*
X75019475Y-77868709D01*
X75024426Y-77875161D01*
X75021942Y-77877066D01*
X75048345Y-77925419D01*
X75043361Y-77995111D01*
X75014860Y-78039458D01*
X75010803Y-78043514D01*
X74959426Y-78148608D01*
X74949500Y-78216739D01*
X74949500Y-78583260D01*
X74959426Y-78651391D01*
X75010803Y-78756485D01*
X75093514Y-78839196D01*
X75093515Y-78839196D01*
X75093517Y-78839198D01*
X75198607Y-78890573D01*
X75232673Y-78895536D01*
X75266739Y-78900500D01*
X75266740Y-78900500D01*
X75733261Y-78900500D01*
X75755971Y-78897191D01*
X75801393Y-78890573D01*
X75906483Y-78839198D01*
X75906485Y-78839196D01*
X75908863Y-78836819D01*
X75912914Y-78834606D01*
X75914847Y-78833227D01*
X75915013Y-78833460D01*
X75970186Y-78803334D01*
X75996544Y-78800500D01*
X76765500Y-78800500D01*
X76832539Y-78820185D01*
X76878294Y-78872989D01*
X76889500Y-78924500D01*
X76889500Y-80404678D01*
X76904032Y-80477735D01*
X76904033Y-80477739D01*
X76914499Y-80493402D01*
X76959399Y-80560601D01*
X77042260Y-80615966D01*
X77042264Y-80615967D01*
X77115321Y-80630499D01*
X77115324Y-80630500D01*
X77115326Y-80630500D01*
X77804676Y-80630500D01*
X77804677Y-80630499D01*
X77877740Y-80615966D01*
X77960601Y-80560601D01*
X78015966Y-80477740D01*
X78030500Y-80404674D01*
X78030500Y-77884500D01*
X78050185Y-77817461D01*
X78102989Y-77771706D01*
X78154500Y-77760500D01*
X78169904Y-77760500D01*
X78169905Y-77760499D01*
X78316830Y-77731275D01*
X78455232Y-77673947D01*
X78579791Y-77590719D01*
X78685719Y-77484791D01*
X78768947Y-77360232D01*
X78826275Y-77221830D01*
X78855500Y-77074903D01*
X78855500Y-76925097D01*
X78826275Y-76778170D01*
X78808374Y-76734952D01*
X78800905Y-76665483D01*
X78832180Y-76603004D01*
X78892270Y-76567352D01*
X78922935Y-76563500D01*
X79074676Y-76563500D01*
X79074677Y-76563499D01*
X79147740Y-76548966D01*
X79230601Y-76493601D01*
X79261899Y-76446759D01*
X79315509Y-76401956D01*
X79384834Y-76393247D01*
X79447862Y-76423402D01*
X79468098Y-76446756D01*
X79499399Y-76493601D01*
X79577770Y-76545966D01*
X79582260Y-76548966D01*
X79582264Y-76548967D01*
X79655321Y-76563499D01*
X79655324Y-76563500D01*
X79655326Y-76563500D01*
X80344676Y-76563500D01*
X80344677Y-76563499D01*
X80417740Y-76548966D01*
X80500601Y-76493601D01*
X80531899Y-76446759D01*
X80585509Y-76401956D01*
X80654834Y-76393247D01*
X80717862Y-76423402D01*
X80738098Y-76446756D01*
X80769399Y-76493601D01*
X80847770Y-76545966D01*
X80852260Y-76548966D01*
X80852264Y-76548967D01*
X80925321Y-76563499D01*
X80925324Y-76563500D01*
X80925326Y-76563500D01*
X81077065Y-76563500D01*
X81144104Y-76583185D01*
X81189859Y-76635989D01*
X81199803Y-76705147D01*
X81191626Y-76734952D01*
X81173726Y-76778165D01*
X81173723Y-76778177D01*
X81144500Y-76925092D01*
X81144500Y-77074907D01*
X81173723Y-77221822D01*
X81173726Y-77221834D01*
X81194111Y-77271048D01*
X81201580Y-77340518D01*
X81170304Y-77402997D01*
X81110215Y-77438648D01*
X81079550Y-77442500D01*
X80925323Y-77442500D01*
X80852264Y-77457032D01*
X80852260Y-77457033D01*
X80769399Y-77512399D01*
X80714033Y-77595260D01*
X80714032Y-77595264D01*
X80699500Y-77668321D01*
X80699500Y-80407678D01*
X80714032Y-80480735D01*
X80714033Y-80480739D01*
X80714034Y-80480740D01*
X80769399Y-80563601D01*
X80847770Y-80615966D01*
X80852260Y-80618966D01*
X80852264Y-80618967D01*
X80925321Y-80633499D01*
X80925324Y-80633500D01*
X80925326Y-80633500D01*
X81614676Y-80633500D01*
X81614677Y-80633499D01*
X81687740Y-80618966D01*
X81770601Y-80563601D01*
X81801899Y-80516759D01*
X81855509Y-80471956D01*
X81924834Y-80463247D01*
X81987862Y-80493402D01*
X82008098Y-80516756D01*
X82039399Y-80563601D01*
X82117770Y-80615966D01*
X82122260Y-80618966D01*
X82122264Y-80618967D01*
X82195321Y-80633499D01*
X82195324Y-80633500D01*
X82195326Y-80633500D01*
X82884676Y-80633500D01*
X82884677Y-80633499D01*
X82957740Y-80618966D01*
X83040601Y-80563601D01*
X83095966Y-80480740D01*
X83110500Y-80407674D01*
X83110500Y-77668326D01*
X83110500Y-77668323D01*
X83110499Y-77668321D01*
X83095967Y-77595264D01*
X83095966Y-77595260D01*
X83092930Y-77590716D01*
X83040601Y-77512399D01*
X82957740Y-77457034D01*
X82957739Y-77457033D01*
X82957735Y-77457032D01*
X82884677Y-77442500D01*
X82884674Y-77442500D01*
X82730450Y-77442500D01*
X82698985Y-77433260D01*
X82667183Y-77425146D01*
X82665615Y-77423462D01*
X82663411Y-77422815D01*
X82641941Y-77398037D01*
X82619570Y-77374012D01*
X82619161Y-77371748D01*
X82617656Y-77370011D01*
X82612986Y-77337533D01*
X82609191Y-77316506D01*
X87824500Y-77316506D01*
X87824500Y-77883493D01*
X87840279Y-77983121D01*
X87840280Y-77983124D01*
X87840281Y-77983126D01*
X87901472Y-78103220D01*
X87901473Y-78103221D01*
X87901476Y-78103225D01*
X87996774Y-78198523D01*
X87996777Y-78198525D01*
X87996780Y-78198528D01*
X88056795Y-78229107D01*
X88107590Y-78277080D01*
X88124500Y-78339591D01*
X88124500Y-78607745D01*
X88104815Y-78674784D01*
X88088181Y-78695426D01*
X87996954Y-78786652D01*
X87996951Y-78786657D01*
X87996950Y-78786658D01*
X87992245Y-78795892D01*
X87939352Y-78899698D01*
X87924500Y-78993475D01*
X87924500Y-79606517D01*
X87934529Y-79669840D01*
X87939354Y-79700304D01*
X87996950Y-79813342D01*
X87996952Y-79813344D01*
X87996954Y-79813347D01*
X88086652Y-79903045D01*
X88086654Y-79903046D01*
X88086658Y-79903050D01*
X88199694Y-79960645D01*
X88199698Y-79960647D01*
X88293475Y-79975499D01*
X88293481Y-79975500D01*
X88756518Y-79975499D01*
X88850304Y-79960646D01*
X88963342Y-79903050D01*
X89035214Y-79831177D01*
X89096534Y-79797693D01*
X89166226Y-79802677D01*
X89184893Y-79811471D01*
X89202600Y-79821694D01*
X89268216Y-79859577D01*
X89420943Y-79900500D01*
X89420945Y-79900500D01*
X89579055Y-79900500D01*
X89579057Y-79900500D01*
X89731784Y-79859577D01*
X89868716Y-79780520D01*
X89980520Y-79668716D01*
X90059577Y-79531784D01*
X90100500Y-79379057D01*
X90100500Y-79220943D01*
X90066409Y-79093713D01*
X91349500Y-79093713D01*
X91349500Y-79306286D01*
X91369867Y-79434882D01*
X91382754Y-79516243D01*
X91442559Y-79700304D01*
X91448444Y-79718414D01*
X91544951Y-79907820D01*
X91669890Y-80079786D01*
X91820213Y-80230109D01*
X91992179Y-80355048D01*
X91992181Y-80355049D01*
X91992184Y-80355051D01*
X92181588Y-80451557D01*
X92383757Y-80517246D01*
X92593713Y-80550500D01*
X92593714Y-80550500D01*
X92806286Y-80550500D01*
X92806287Y-80550500D01*
X93016243Y-80517246D01*
X93218412Y-80451557D01*
X93407816Y-80355051D01*
X93481419Y-80301576D01*
X93579786Y-80230109D01*
X93579788Y-80230106D01*
X93579792Y-80230104D01*
X93730104Y-80079792D01*
X93730106Y-80079788D01*
X93730109Y-80079786D01*
X93855048Y-79907820D01*
X93855047Y-79907820D01*
X93855051Y-79907816D01*
X93951557Y-79718412D01*
X94017246Y-79516243D01*
X94050500Y-79306287D01*
X94050500Y-79093713D01*
X94017246Y-78883757D01*
X93951557Y-78681588D01*
X93855051Y-78492184D01*
X93855049Y-78492181D01*
X93855048Y-78492179D01*
X93730109Y-78320213D01*
X93579786Y-78169890D01*
X93407820Y-78044951D01*
X93218414Y-77948444D01*
X93218413Y-77948443D01*
X93218412Y-77948443D01*
X93016243Y-77882754D01*
X93016241Y-77882753D01*
X93016240Y-77882753D01*
X92854957Y-77857208D01*
X92806287Y-77849500D01*
X92593713Y-77849500D01*
X92545042Y-77857208D01*
X92383760Y-77882753D01*
X92181585Y-77948444D01*
X91992179Y-78044951D01*
X91820213Y-78169890D01*
X91669890Y-78320213D01*
X91544951Y-78492179D01*
X91448444Y-78681585D01*
X91382753Y-78883760D01*
X91349500Y-79093713D01*
X90066409Y-79093713D01*
X90059577Y-79068216D01*
X90016426Y-78993475D01*
X89980524Y-78931290D01*
X89980518Y-78931282D01*
X89868717Y-78819481D01*
X89868709Y-78819475D01*
X89731790Y-78740426D01*
X89731786Y-78740424D01*
X89731784Y-78740423D01*
X89579057Y-78699500D01*
X89420943Y-78699500D01*
X89268216Y-78740423D01*
X89268211Y-78740425D01*
X89184892Y-78788528D01*
X89157833Y-78795091D01*
X89131739Y-78804824D01*
X89124344Y-78803215D01*
X89116992Y-78804999D01*
X89090680Y-78795892D01*
X89063466Y-78789972D01*
X89054772Y-78783463D01*
X89050965Y-78782146D01*
X89035218Y-78768826D01*
X88963342Y-78696950D01*
X88963341Y-78696949D01*
X88961818Y-78695426D01*
X88928334Y-78634102D01*
X88925500Y-78607745D01*
X88925500Y-78277611D01*
X88945185Y-78210572D01*
X88961819Y-78189930D01*
X89048523Y-78103225D01*
X89048528Y-78103220D01*
X89109719Y-77983126D01*
X89109720Y-77983121D01*
X89125500Y-77883493D01*
X89125500Y-77316506D01*
X89109720Y-77216878D01*
X89109719Y-77216876D01*
X89109719Y-77216874D01*
X89048528Y-77096780D01*
X89048526Y-77096778D01*
X89048523Y-77096774D01*
X88953223Y-77001474D01*
X88951614Y-77000305D01*
X88950131Y-76998382D01*
X88946320Y-76994571D01*
X88946812Y-76994078D01*
X88908948Y-76944974D01*
X88900500Y-76899987D01*
X88900500Y-76474500D01*
X88920185Y-76407461D01*
X88972989Y-76361706D01*
X89024500Y-76350500D01*
X89383261Y-76350500D01*
X89405971Y-76347191D01*
X89451393Y-76340573D01*
X89556483Y-76289198D01*
X89639198Y-76206483D01*
X89690573Y-76101393D01*
X89700500Y-76033260D01*
X89700500Y-75666740D01*
X89690573Y-75598607D01*
X89639198Y-75493517D01*
X89639196Y-75493515D01*
X89639196Y-75493514D01*
X89556485Y-75410803D01*
X89451391Y-75359426D01*
X89383261Y-75349500D01*
X89383260Y-75349500D01*
X88291740Y-75349500D01*
X88291739Y-75349500D01*
X88223608Y-75359426D01*
X88118514Y-75410803D01*
X88035803Y-75493514D01*
X87984426Y-75598608D01*
X87974500Y-75666739D01*
X87974500Y-76033260D01*
X87984426Y-76101391D01*
X88022864Y-76180017D01*
X88035802Y-76206483D01*
X88063181Y-76233862D01*
X88096666Y-76295183D01*
X88099500Y-76321543D01*
X88099500Y-76873146D01*
X88079815Y-76940185D01*
X88031796Y-76983630D01*
X87996781Y-77001471D01*
X87996774Y-77001476D01*
X87901476Y-77096774D01*
X87901473Y-77096778D01*
X87840279Y-77216878D01*
X87824500Y-77316506D01*
X82609191Y-77316506D01*
X82607160Y-77305253D01*
X82607917Y-77302283D01*
X82607712Y-77300853D01*
X82615886Y-77271054D01*
X82618727Y-77264194D01*
X82618728Y-77264191D01*
X82618730Y-77264187D01*
X82636275Y-77221830D01*
X82665500Y-77074903D01*
X82665500Y-76925097D01*
X82636275Y-76778170D01*
X82618374Y-76734952D01*
X82610905Y-76665483D01*
X82642180Y-76603004D01*
X82702270Y-76567352D01*
X82732935Y-76563500D01*
X82884676Y-76563500D01*
X82884677Y-76563499D01*
X82957740Y-76548966D01*
X83040601Y-76493601D01*
X83095966Y-76410740D01*
X83110500Y-76337674D01*
X83110500Y-73598326D01*
X83110500Y-73598323D01*
X83110499Y-73598321D01*
X83095967Y-73525264D01*
X83095966Y-73525260D01*
X83086306Y-73510803D01*
X83040601Y-73442399D01*
X82957740Y-73387034D01*
X82957739Y-73387033D01*
X82957735Y-73387032D01*
X82884677Y-73372500D01*
X82884674Y-73372500D01*
X82824500Y-73372500D01*
X82757461Y-73352815D01*
X82711706Y-73300011D01*
X82700500Y-73248500D01*
X82700500Y-72681017D01*
X82720185Y-72613978D01*
X82721398Y-72612126D01*
X82729297Y-72600304D01*
X82734515Y-72592495D01*
X82734515Y-72592493D01*
X82734516Y-72592493D01*
X82750499Y-72512137D01*
X82750500Y-72512133D01*
X82750499Y-72057868D01*
X82734515Y-71977505D01*
X82734513Y-71977502D01*
X82728758Y-71968888D01*
X82712357Y-71916506D01*
X83974500Y-71916506D01*
X83974500Y-72483493D01*
X83990279Y-72583121D01*
X83990280Y-72583124D01*
X83990281Y-72583126D01*
X84047819Y-72696050D01*
X84051473Y-72703221D01*
X84051476Y-72703225D01*
X84146774Y-72798523D01*
X84146777Y-72798525D01*
X84146780Y-72798528D01*
X84231795Y-72841845D01*
X84242857Y-72852293D01*
X84256703Y-72858616D01*
X84267744Y-72875797D01*
X84282590Y-72889818D01*
X84286831Y-72905497D01*
X84294477Y-72917394D01*
X84299500Y-72952329D01*
X84299500Y-73173146D01*
X84279815Y-73240185D01*
X84231796Y-73283630D01*
X84196781Y-73301471D01*
X84196774Y-73301476D01*
X84101476Y-73396774D01*
X84101473Y-73396778D01*
X84101472Y-73396780D01*
X84040333Y-73516773D01*
X84040279Y-73516878D01*
X84024500Y-73616506D01*
X84024500Y-74133493D01*
X84040279Y-74233121D01*
X84040280Y-74233124D01*
X84040281Y-74233126D01*
X84101472Y-74353220D01*
X84101473Y-74353221D01*
X84101476Y-74353225D01*
X84196774Y-74448523D01*
X84196778Y-74448526D01*
X84196780Y-74448528D01*
X84316874Y-74509719D01*
X84316876Y-74509719D01*
X84316878Y-74509720D01*
X84416507Y-74525500D01*
X84416512Y-74525500D01*
X84983493Y-74525500D01*
X85083121Y-74509720D01*
X85083121Y-74509719D01*
X85083126Y-74509719D01*
X85203220Y-74448528D01*
X85264930Y-74386817D01*
X85326251Y-74353334D01*
X85352610Y-74350500D01*
X85753456Y-74350500D01*
X85820495Y-74370185D01*
X85841137Y-74386819D01*
X85843514Y-74389196D01*
X85843515Y-74389196D01*
X85843517Y-74389198D01*
X85948607Y-74440573D01*
X85982673Y-74445536D01*
X86016739Y-74450500D01*
X86016740Y-74450500D01*
X87108261Y-74450500D01*
X87130971Y-74447191D01*
X87176393Y-74440573D01*
X87281483Y-74389198D01*
X87364198Y-74306483D01*
X87415573Y-74201393D01*
X87425500Y-74133260D01*
X87425500Y-73766740D01*
X87415573Y-73698607D01*
X87364198Y-73593517D01*
X87364196Y-73593515D01*
X87364196Y-73593514D01*
X87281485Y-73510803D01*
X87176391Y-73459426D01*
X87108261Y-73449500D01*
X87108260Y-73449500D01*
X86016740Y-73449500D01*
X86016739Y-73449500D01*
X85948608Y-73459426D01*
X85843514Y-73510803D01*
X85841137Y-73513181D01*
X85837085Y-73515393D01*
X85835153Y-73516773D01*
X85834986Y-73516539D01*
X85779814Y-73546666D01*
X85753456Y-73549500D01*
X85452330Y-73549500D01*
X85385291Y-73529815D01*
X85341845Y-73481795D01*
X85298528Y-73396780D01*
X85298524Y-73396776D01*
X85298523Y-73396774D01*
X85203225Y-73301476D01*
X85203221Y-73301473D01*
X85203220Y-73301472D01*
X85200353Y-73300011D01*
X85168204Y-73283630D01*
X85117408Y-73235655D01*
X85100500Y-73173146D01*
X85100500Y-72852611D01*
X85120185Y-72785572D01*
X85136819Y-72764930D01*
X85198523Y-72703225D01*
X85198528Y-72703220D01*
X85259719Y-72583126D01*
X85263856Y-72557006D01*
X85275500Y-72483493D01*
X85275500Y-71916506D01*
X85259720Y-71816878D01*
X85259719Y-71816876D01*
X85259719Y-71816874D01*
X85198528Y-71696780D01*
X85198525Y-71696777D01*
X85198523Y-71696774D01*
X85107517Y-71605768D01*
X85074032Y-71544445D01*
X85079016Y-71474753D01*
X85087811Y-71456087D01*
X85159577Y-71331784D01*
X85200500Y-71179057D01*
X85200500Y-71020943D01*
X85159577Y-70868216D01*
X85158421Y-70866214D01*
X85080524Y-70731290D01*
X85080518Y-70731282D01*
X84968717Y-70619481D01*
X84968709Y-70619475D01*
X84831790Y-70540426D01*
X84831786Y-70540424D01*
X84831784Y-70540423D01*
X84679057Y-70499500D01*
X84520943Y-70499500D01*
X84368216Y-70540423D01*
X84368209Y-70540426D01*
X84231290Y-70619475D01*
X84231282Y-70619481D01*
X84119481Y-70731282D01*
X84119475Y-70731290D01*
X84040426Y-70868209D01*
X84040423Y-70868216D01*
X83999500Y-71020943D01*
X83999500Y-71179057D01*
X84038464Y-71324471D01*
X84040423Y-71331783D01*
X84040426Y-71331790D01*
X84119475Y-71468709D01*
X84122770Y-71473003D01*
X84147966Y-71538172D01*
X84133929Y-71606617D01*
X84112078Y-71636173D01*
X84051473Y-71696777D01*
X84051473Y-71696778D01*
X84051472Y-71696780D01*
X84000578Y-71796666D01*
X83990279Y-71816878D01*
X83974500Y-71916506D01*
X82712357Y-71916506D01*
X82707881Y-71902210D01*
X82726367Y-71834830D01*
X82728731Y-71831149D01*
X82734515Y-71822495D01*
X82750500Y-71742133D01*
X82750500Y-71724500D01*
X82770185Y-71657461D01*
X82822989Y-71611706D01*
X82874500Y-71600500D01*
X82965890Y-71600500D01*
X82965892Y-71600500D01*
X83093186Y-71566392D01*
X83207314Y-71500500D01*
X83300500Y-71407314D01*
X83366392Y-71293186D01*
X83400500Y-71165892D01*
X83400500Y-71034108D01*
X83366392Y-70906814D01*
X83363689Y-70902133D01*
X83344103Y-70868209D01*
X83300500Y-70792686D01*
X83207314Y-70699500D01*
X83105184Y-70640535D01*
X83056968Y-70589968D01*
X83043746Y-70521361D01*
X83069714Y-70456496D01*
X83079495Y-70445475D01*
X83888152Y-69636819D01*
X83949475Y-69603334D01*
X83975833Y-69600500D01*
X85089560Y-69600500D01*
X85089562Y-69600500D01*
X85165989Y-69580021D01*
X85234511Y-69540460D01*
X85290460Y-69484511D01*
X86515460Y-68259511D01*
X86555022Y-68190988D01*
X86575500Y-68114562D01*
X86575500Y-68035438D01*
X86575500Y-67992997D01*
X86595185Y-67925958D01*
X86627450Y-67892077D01*
X86631477Y-67889200D01*
X86631483Y-67889198D01*
X86714198Y-67806483D01*
X86765573Y-67701393D01*
X86775500Y-67633260D01*
X86775500Y-65924000D01*
X86778050Y-65915314D01*
X86776762Y-65906353D01*
X86787740Y-65882312D01*
X86795185Y-65856961D01*
X86802025Y-65851033D01*
X86805787Y-65842797D01*
X86828021Y-65828507D01*
X86847989Y-65811206D01*
X86858503Y-65808918D01*
X86864565Y-65805023D01*
X86899500Y-65800000D01*
X86920500Y-65800000D01*
X86987539Y-65819685D01*
X87033294Y-65872489D01*
X87044500Y-65924000D01*
X87044500Y-67633259D01*
X87044499Y-67633259D01*
X87054426Y-67701391D01*
X87105801Y-67806482D01*
X87105802Y-67806483D01*
X87108178Y-67808859D01*
X87110391Y-67812911D01*
X87111773Y-67814847D01*
X87111539Y-67815013D01*
X87141665Y-67870179D01*
X87144500Y-67896543D01*
X87144500Y-67947273D01*
X87144500Y-68052727D01*
X87151189Y-68077690D01*
X87171793Y-68154589D01*
X87188481Y-68183493D01*
X87224520Y-68245913D01*
X87224522Y-68245915D01*
X87279594Y-68300987D01*
X87313079Y-68362310D01*
X87308095Y-68432002D01*
X87302398Y-68444962D01*
X87240279Y-68566876D01*
X87224500Y-68666506D01*
X87224500Y-69183493D01*
X87240279Y-69283121D01*
X87240280Y-69283124D01*
X87240281Y-69283126D01*
X87301472Y-69403220D01*
X87301473Y-69403221D01*
X87301476Y-69403225D01*
X87396774Y-69498523D01*
X87396778Y-69498526D01*
X87396780Y-69498528D01*
X87516874Y-69559719D01*
X87516876Y-69559719D01*
X87516878Y-69559720D01*
X87616507Y-69575500D01*
X87616512Y-69575500D01*
X88183493Y-69575500D01*
X88283121Y-69559720D01*
X88283121Y-69559719D01*
X88283126Y-69559719D01*
X88403220Y-69498528D01*
X88498528Y-69403220D01*
X88559719Y-69283126D01*
X88567803Y-69232078D01*
X88597730Y-69168947D01*
X88602559Y-69163832D01*
X88829575Y-68936816D01*
X88890897Y-68903334D01*
X88917255Y-68900500D01*
X88979055Y-68900500D01*
X88979057Y-68900500D01*
X89131784Y-68859577D01*
X89268716Y-68780520D01*
X89380520Y-68668716D01*
X89459577Y-68531784D01*
X89500500Y-68379057D01*
X89500500Y-68220943D01*
X89459577Y-68068216D01*
X89450634Y-68052726D01*
X89380524Y-67931290D01*
X89380518Y-67931282D01*
X89268717Y-67819481D01*
X89268709Y-67819475D01*
X89131790Y-67740426D01*
X89131786Y-67740424D01*
X89131784Y-67740423D01*
X88979057Y-67699500D01*
X88820943Y-67699500D01*
X88668216Y-67740423D01*
X88668209Y-67740426D01*
X88531290Y-67819475D01*
X88531282Y-67819481D01*
X88419481Y-67931282D01*
X88419477Y-67931287D01*
X88349096Y-68053193D01*
X88325713Y-68075487D01*
X88303328Y-68098799D01*
X88300575Y-68099456D01*
X88298529Y-68101408D01*
X88266801Y-68107523D01*
X88235370Y-68115031D01*
X88232700Y-68114096D01*
X88229922Y-68114632D01*
X88199916Y-68102619D01*
X88169425Y-68091945D01*
X88167246Y-68089540D01*
X88165058Y-68088664D01*
X88143968Y-68067499D01*
X88138643Y-68060679D01*
X88138534Y-68060489D01*
X88092980Y-67981587D01*
X88019645Y-67908252D01*
X88014964Y-67902256D01*
X88004783Y-67876564D01*
X87991539Y-67852308D01*
X87992094Y-67844539D01*
X87989226Y-67837300D01*
X87994551Y-67810184D01*
X87996523Y-67782616D01*
X88001305Y-67771489D01*
X88035573Y-67701393D01*
X88045500Y-67633260D01*
X88045500Y-65924000D01*
X88065185Y-65856961D01*
X88117989Y-65811206D01*
X88169500Y-65800000D01*
X91855554Y-65800000D01*
X91922593Y-65819685D01*
X91968348Y-65872489D01*
X91978292Y-65941647D01*
X91965508Y-65975003D01*
X91967257Y-65975728D01*
X91962584Y-65987010D01*
X91949500Y-66052790D01*
X91949500Y-66722208D01*
X91949501Y-66722211D01*
X91962583Y-66787986D01*
X92012423Y-66862577D01*
X92068238Y-66899871D01*
X92087012Y-66912416D01*
X92087014Y-66912417D01*
X92099687Y-66914937D01*
X92161598Y-66947319D01*
X92196175Y-67008033D01*
X92199500Y-67036555D01*
X92199500Y-67370880D01*
X92185985Y-67427174D01*
X92140279Y-67516876D01*
X92124500Y-67616506D01*
X92124500Y-68183493D01*
X92140279Y-68283123D01*
X92157830Y-68317567D01*
X92182886Y-68366743D01*
X92185985Y-68372824D01*
X92199500Y-68429119D01*
X92199500Y-68839520D01*
X92179815Y-68906559D01*
X92143371Y-68940031D01*
X92144595Y-68941689D01*
X92137118Y-68947206D01*
X92137118Y-68947207D01*
X92080653Y-68988880D01*
X92027850Y-69027850D01*
X91947207Y-69137117D01*
X91947206Y-69137119D01*
X91902353Y-69265298D01*
X91902353Y-69265300D01*
X91899500Y-69295730D01*
X91899500Y-70482745D01*
X91879815Y-70549784D01*
X91863181Y-70570426D01*
X90670426Y-71763181D01*
X90609103Y-71796666D01*
X90582745Y-71799500D01*
X90076853Y-71799500D01*
X90009814Y-71779815D01*
X89966368Y-71731794D01*
X89957645Y-71714674D01*
X89948528Y-71696780D01*
X89948525Y-71696777D01*
X89948523Y-71696774D01*
X89853225Y-71601476D01*
X89853221Y-71601473D01*
X89853220Y-71601472D01*
X89733126Y-71540281D01*
X89733124Y-71540280D01*
X89733121Y-71540279D01*
X89633493Y-71524500D01*
X89633488Y-71524500D01*
X89116512Y-71524500D01*
X89116507Y-71524500D01*
X89016878Y-71540279D01*
X88896778Y-71601473D01*
X88896774Y-71601476D01*
X88801476Y-71696774D01*
X88801473Y-71696778D01*
X88801472Y-71696780D01*
X88750578Y-71796666D01*
X88740279Y-71816878D01*
X88724500Y-71916506D01*
X88724500Y-72483493D01*
X88740279Y-72583123D01*
X88752894Y-72607881D01*
X88783748Y-72668435D01*
X88785985Y-72672824D01*
X88799500Y-72729119D01*
X88799500Y-73325500D01*
X88779815Y-73392539D01*
X88727011Y-73438294D01*
X88675500Y-73449500D01*
X88291739Y-73449500D01*
X88223608Y-73459426D01*
X88118514Y-73510803D01*
X88035803Y-73593514D01*
X87984426Y-73698608D01*
X87974500Y-73766739D01*
X87974500Y-74133260D01*
X87984426Y-74201391D01*
X88035803Y-74306485D01*
X88118514Y-74389196D01*
X88118515Y-74389196D01*
X88118517Y-74389198D01*
X88223607Y-74440573D01*
X88257673Y-74445536D01*
X88291739Y-74450500D01*
X88291740Y-74450500D01*
X89383261Y-74450500D01*
X89405971Y-74447191D01*
X89451393Y-74440573D01*
X89556483Y-74389198D01*
X89639198Y-74306483D01*
X89690573Y-74201393D01*
X89700500Y-74133260D01*
X89700500Y-73766740D01*
X89690573Y-73698607D01*
X89639198Y-73593517D01*
X89639196Y-73593515D01*
X89639196Y-73593514D01*
X89636819Y-73591137D01*
X89634606Y-73587085D01*
X89633227Y-73585153D01*
X89633460Y-73584986D01*
X89603334Y-73529814D01*
X89600500Y-73503456D01*
X89600500Y-72986631D01*
X89620185Y-72919592D01*
X89672989Y-72873837D01*
X89705103Y-72864158D01*
X89733121Y-72859720D01*
X89733121Y-72859719D01*
X89733126Y-72859719D01*
X89853220Y-72798528D01*
X89948528Y-72703220D01*
X89966368Y-72668205D01*
X90014342Y-72617410D01*
X90076853Y-72600500D01*
X90852725Y-72600500D01*
X90852727Y-72600500D01*
X90954588Y-72573207D01*
X91045913Y-72520480D01*
X92429574Y-71136819D01*
X92490897Y-71103334D01*
X92517255Y-71100500D01*
X93054270Y-71100500D01*
X93084699Y-71097646D01*
X93084701Y-71097646D01*
X93153350Y-71073624D01*
X93212882Y-71052793D01*
X93322150Y-70972150D01*
X93402793Y-70862882D01*
X93436731Y-70765892D01*
X93447646Y-70734701D01*
X93447646Y-70734699D01*
X93450500Y-70704269D01*
X93450500Y-69295730D01*
X93447646Y-69265300D01*
X93447646Y-69265298D01*
X93402793Y-69137119D01*
X93402792Y-69137117D01*
X93378217Y-69103819D01*
X93322150Y-69027850D01*
X93212882Y-68947207D01*
X93199416Y-68942495D01*
X93083544Y-68901949D01*
X93064555Y-68888329D01*
X93043297Y-68878621D01*
X93036693Y-68868345D01*
X93026769Y-68861227D01*
X93018157Y-68839503D01*
X93005523Y-68819843D01*
X93002767Y-68800676D01*
X93001022Y-68796274D01*
X93000500Y-68784908D01*
X93000500Y-68686631D01*
X93020185Y-68619592D01*
X93072989Y-68573837D01*
X93105103Y-68564158D01*
X93133121Y-68559720D01*
X93133121Y-68559719D01*
X93133126Y-68559719D01*
X93253220Y-68498528D01*
X93348528Y-68403220D01*
X93409719Y-68283126D01*
X93409720Y-68283121D01*
X93425500Y-68183493D01*
X93425500Y-67616506D01*
X93409720Y-67516878D01*
X93409719Y-67516876D01*
X93409719Y-67516874D01*
X93348528Y-67396780D01*
X93348526Y-67396778D01*
X93348523Y-67396774D01*
X93253225Y-67301476D01*
X93253221Y-67301473D01*
X93253220Y-67301472D01*
X93133126Y-67240281D01*
X93133125Y-67240280D01*
X93133122Y-67240279D01*
X93105100Y-67235841D01*
X93074325Y-67221251D01*
X93043297Y-67207081D01*
X93042797Y-67206304D01*
X93041966Y-67205910D01*
X93023956Y-67176985D01*
X93005523Y-67148303D01*
X93005350Y-67147105D01*
X93005035Y-67146598D01*
X93000500Y-67113368D01*
X93000500Y-67036555D01*
X93020185Y-66969516D01*
X93072989Y-66923761D01*
X93100308Y-66914938D01*
X93112986Y-66912417D01*
X93187577Y-66862577D01*
X93237417Y-66787986D01*
X93250500Y-66722211D01*
X93250499Y-66374500D01*
X93250499Y-66052790D01*
X93237417Y-65987014D01*
X93237415Y-65987011D01*
X93232742Y-65975728D01*
X93235598Y-65974544D01*
X93220466Y-65926211D01*
X93238952Y-65858831D01*
X93290932Y-65812142D01*
X93344446Y-65800000D01*
X94375500Y-65800000D01*
X94442539Y-65819685D01*
X94488294Y-65872489D01*
X94499500Y-65924000D01*
X94499500Y-79195933D01*
X94499235Y-79204043D01*
X94484636Y-79426778D01*
X94482518Y-79442859D01*
X94439769Y-79657771D01*
X94435571Y-79673438D01*
X94365133Y-79880942D01*
X94358926Y-79895928D01*
X94262007Y-80092460D01*
X94253897Y-80106507D01*
X94132154Y-80288708D01*
X94122280Y-80301576D01*
X93977797Y-80466328D01*
X93966328Y-80477797D01*
X93801576Y-80622280D01*
X93788708Y-80632154D01*
X93606507Y-80753897D01*
X93592460Y-80762007D01*
X93395928Y-80858926D01*
X93380942Y-80865133D01*
X93173438Y-80935571D01*
X93157771Y-80939769D01*
X92942859Y-80982518D01*
X92926778Y-80984636D01*
X92704043Y-80999235D01*
X92695933Y-80999500D01*
X67304067Y-80999500D01*
X67295957Y-80999235D01*
X67073221Y-80984636D01*
X67057140Y-80982518D01*
X66842228Y-80939769D01*
X66826561Y-80935571D01*
X66619057Y-80865133D01*
X66604071Y-80858926D01*
X66407539Y-80762007D01*
X66393492Y-80753897D01*
X66243573Y-80653724D01*
X66211290Y-80632153D01*
X66198423Y-80622280D01*
X66191224Y-80615967D01*
X66128090Y-80560600D01*
X66033671Y-80477797D01*
X66022202Y-80466328D01*
X65924615Y-80355051D01*
X65877716Y-80301573D01*
X65867845Y-80288708D01*
X65857612Y-80273394D01*
X65746102Y-80106507D01*
X65737992Y-80092460D01*
X65672989Y-79960647D01*
X65641070Y-79895921D01*
X65634866Y-79880942D01*
X65564428Y-79673438D01*
X65560230Y-79657771D01*
X65535171Y-79531790D01*
X65517479Y-79442848D01*
X65515364Y-79426790D01*
X65500765Y-79204043D01*
X65500500Y-79195933D01*
X65500500Y-79093713D01*
X65949500Y-79093713D01*
X65949500Y-79306286D01*
X65969867Y-79434882D01*
X65982754Y-79516243D01*
X66042559Y-79700304D01*
X66048444Y-79718414D01*
X66144951Y-79907820D01*
X66269890Y-80079786D01*
X66420213Y-80230109D01*
X66592179Y-80355048D01*
X66592181Y-80355049D01*
X66592184Y-80355051D01*
X66781588Y-80451557D01*
X66983757Y-80517246D01*
X67193713Y-80550500D01*
X67193714Y-80550500D01*
X67406286Y-80550500D01*
X67406287Y-80550500D01*
X67616243Y-80517246D01*
X67818412Y-80451557D01*
X68007816Y-80355051D01*
X68081419Y-80301576D01*
X68179786Y-80230109D01*
X68179788Y-80230106D01*
X68179792Y-80230104D01*
X68330104Y-80079792D01*
X68330106Y-80079788D01*
X68330109Y-80079786D01*
X68455048Y-79907820D01*
X68455047Y-79907820D01*
X68455051Y-79907816D01*
X68551557Y-79718412D01*
X68617246Y-79516243D01*
X68650500Y-79306287D01*
X68650500Y-79093713D01*
X68617246Y-78883757D01*
X68551557Y-78681588D01*
X68455051Y-78492184D01*
X68455049Y-78492181D01*
X68455048Y-78492179D01*
X68330109Y-78320213D01*
X68179786Y-78169890D01*
X68007820Y-78044951D01*
X67818414Y-77948444D01*
X67818413Y-77948443D01*
X67818412Y-77948443D01*
X67616243Y-77882754D01*
X67616241Y-77882753D01*
X67616240Y-77882753D01*
X67454957Y-77857208D01*
X67406287Y-77849500D01*
X67193713Y-77849500D01*
X67145042Y-77857208D01*
X66983760Y-77882753D01*
X66781585Y-77948444D01*
X66592179Y-78044951D01*
X66420213Y-78169890D01*
X66269890Y-78320213D01*
X66144951Y-78492179D01*
X66048444Y-78681585D01*
X65982753Y-78883760D01*
X65949500Y-79093713D01*
X65500500Y-79093713D01*
X65500500Y-65924000D01*
X65520185Y-65856961D01*
X65572989Y-65811206D01*
X65624500Y-65800000D01*
X79300500Y-65800000D01*
X79367539Y-65819685D01*
G37*
%TD.AperFunction*%
%TA.AperFunction,Conductor*%
G36*
X71222384Y-68220185D02*
G01*
X71268139Y-68272989D01*
X71278083Y-68342147D01*
X71275146Y-68362310D01*
X71274500Y-68366743D01*
X71274500Y-68733260D01*
X71284426Y-68801391D01*
X71322189Y-68878638D01*
X71335802Y-68906483D01*
X71418517Y-68989198D01*
X71523607Y-69040573D01*
X71554911Y-69045134D01*
X71591739Y-69050500D01*
X71591740Y-69050500D01*
X72683261Y-69050500D01*
X72705971Y-69047191D01*
X72751393Y-69040573D01*
X72856483Y-68989198D01*
X72856801Y-68988880D01*
X72858863Y-68986819D01*
X72862914Y-68984606D01*
X72864847Y-68983227D01*
X72865013Y-68983460D01*
X72920186Y-68953334D01*
X72946544Y-68950500D01*
X73213369Y-68950500D01*
X73280408Y-68970185D01*
X73326163Y-69022989D01*
X73335842Y-69055103D01*
X73340279Y-69083121D01*
X73340280Y-69083124D01*
X73340281Y-69083126D01*
X73395901Y-69192286D01*
X73401473Y-69203221D01*
X73401476Y-69203225D01*
X73496774Y-69298523D01*
X73496778Y-69298526D01*
X73496780Y-69298528D01*
X73616874Y-69359719D01*
X73616876Y-69359719D01*
X73616878Y-69359720D01*
X73716507Y-69375500D01*
X73716512Y-69375500D01*
X74283493Y-69375500D01*
X74383121Y-69359720D01*
X74383121Y-69359719D01*
X74383126Y-69359719D01*
X74503220Y-69298528D01*
X74503226Y-69298521D01*
X74508588Y-69294627D01*
X74574394Y-69271147D01*
X74642448Y-69286972D01*
X74643474Y-69287558D01*
X74662473Y-69298527D01*
X74768216Y-69359577D01*
X74907595Y-69396923D01*
X74967254Y-69433287D01*
X74997783Y-69496134D01*
X74999500Y-69516697D01*
X74999500Y-73824167D01*
X74979815Y-73891206D01*
X74963181Y-73911848D01*
X74511848Y-74363181D01*
X74450525Y-74396666D01*
X74424167Y-74399500D01*
X73575833Y-74399500D01*
X73508794Y-74379815D01*
X73488152Y-74363181D01*
X73031090Y-73906119D01*
X72997605Y-73844796D01*
X72996071Y-73836344D01*
X72990573Y-73798607D01*
X72939198Y-73693517D01*
X72939196Y-73693515D01*
X72939196Y-73693514D01*
X72856485Y-73610803D01*
X72830952Y-73598321D01*
X72751393Y-73559427D01*
X72751391Y-73559426D01*
X72706621Y-73552903D01*
X72643120Y-73523758D01*
X72605457Y-73464909D01*
X72600500Y-73430199D01*
X72600500Y-73334110D01*
X72600500Y-73334108D01*
X72566392Y-73206814D01*
X72500500Y-73092686D01*
X72407314Y-72999500D01*
X72338413Y-72959720D01*
X72293187Y-72933608D01*
X72188273Y-72905497D01*
X72165892Y-72899500D01*
X72034108Y-72899500D01*
X71906812Y-72933608D01*
X71792686Y-72999500D01*
X71792683Y-72999502D01*
X71699502Y-73092683D01*
X71699500Y-73092686D01*
X71633608Y-73206812D01*
X71599500Y-73334108D01*
X71599500Y-73444920D01*
X71579815Y-73511959D01*
X71529960Y-73556320D01*
X71418517Y-73610800D01*
X71335803Y-73693514D01*
X71284426Y-73798608D01*
X71274500Y-73866739D01*
X71274500Y-74233260D01*
X71284426Y-74301391D01*
X71335803Y-74406485D01*
X71418514Y-74489196D01*
X71418515Y-74489196D01*
X71418517Y-74489198D01*
X71523607Y-74540573D01*
X71555247Y-74545183D01*
X71591739Y-74550500D01*
X71591740Y-74550500D01*
X72683259Y-74550500D01*
X72683260Y-74550500D01*
X72745871Y-74541377D01*
X72815046Y-74551189D01*
X72851429Y-74576400D01*
X73159540Y-74884511D01*
X73215489Y-74940460D01*
X73215491Y-74940461D01*
X73215495Y-74940464D01*
X73284004Y-74980017D01*
X73284011Y-74980021D01*
X73360438Y-75000500D01*
X73360440Y-75000500D01*
X74639560Y-75000500D01*
X74639562Y-75000500D01*
X74715989Y-74980021D01*
X74784511Y-74940460D01*
X74840460Y-74884511D01*
X75540460Y-74184511D01*
X75544377Y-74177727D01*
X75580021Y-74115989D01*
X75600500Y-74039562D01*
X75600500Y-70197863D01*
X76739500Y-70197863D01*
X76739500Y-70402129D01*
X76755486Y-70482498D01*
X76760159Y-70493780D01*
X76758714Y-70494378D01*
X76775436Y-70547788D01*
X76759482Y-70605938D01*
X76760159Y-70606219D01*
X76757926Y-70611609D01*
X76756950Y-70615168D01*
X76755550Y-70617345D01*
X76755484Y-70617505D01*
X76739500Y-70697863D01*
X76739500Y-70902129D01*
X76755485Y-70982495D01*
X76816375Y-71073624D01*
X76831924Y-71084013D01*
X76907505Y-71134515D01*
X76907508Y-71134515D01*
X76907509Y-71134516D01*
X76934533Y-71139891D01*
X76987867Y-71150500D01*
X77442132Y-71150499D01*
X77522495Y-71134515D01*
X77531109Y-71128758D01*
X77540807Y-71125722D01*
X77548488Y-71119067D01*
X77573584Y-71115458D01*
X77597783Y-71107881D01*
X77607584Y-71110569D01*
X77617646Y-71109123D01*
X77640711Y-71119656D01*
X77665163Y-71126364D01*
X77668890Y-71128759D01*
X77677505Y-71134515D01*
X77677506Y-71134516D01*
X77730957Y-71145147D01*
X77757867Y-71150500D01*
X78212132Y-71150499D01*
X78292495Y-71134515D01*
X78383624Y-71073624D01*
X78444515Y-70982495D01*
X78460500Y-70902133D01*
X78460499Y-70697868D01*
X78444515Y-70617505D01*
X78444513Y-70617502D01*
X78439841Y-70606222D01*
X78441285Y-70605623D01*
X78424563Y-70552211D01*
X78440517Y-70494056D01*
X78439842Y-70493777D01*
X78442070Y-70488396D01*
X78443049Y-70484831D01*
X78444452Y-70482647D01*
X78444516Y-70482493D01*
X78460499Y-70402136D01*
X78460500Y-70402133D01*
X78460499Y-70197868D01*
X78444515Y-70117505D01*
X78424309Y-70087266D01*
X78383624Y-70026375D01*
X78323684Y-69986325D01*
X78292495Y-69965485D01*
X78292493Y-69965484D01*
X78292490Y-69965483D01*
X78212135Y-69949500D01*
X77757870Y-69949500D01*
X77677503Y-69965485D01*
X77677499Y-69965487D01*
X77668887Y-69971242D01*
X77602209Y-69992118D01*
X77534829Y-69973632D01*
X77531110Y-69971241D01*
X77522495Y-69965485D01*
X77522492Y-69965483D01*
X77442135Y-69949500D01*
X76987870Y-69949500D01*
X76907504Y-69965485D01*
X76816375Y-70026375D01*
X76755485Y-70117505D01*
X76755483Y-70117509D01*
X76739500Y-70197863D01*
X75600500Y-70197863D01*
X75600500Y-69675833D01*
X75620185Y-69608794D01*
X75636819Y-69588152D01*
X75888152Y-69336819D01*
X75949475Y-69303334D01*
X75975833Y-69300500D01*
X80039560Y-69300500D01*
X80039562Y-69300500D01*
X80115989Y-69280021D01*
X80184511Y-69240460D01*
X80240460Y-69184511D01*
X80988152Y-68436819D01*
X81049475Y-68403334D01*
X81075833Y-68400500D01*
X81839561Y-68400500D01*
X81839562Y-68400500D01*
X81877661Y-68390291D01*
X81886708Y-68390506D01*
X81895031Y-68386942D01*
X81921092Y-68391323D01*
X81947511Y-68391952D01*
X81955008Y-68397026D01*
X81963934Y-68398527D01*
X81983486Y-68416300D01*
X82005374Y-68431114D01*
X82010305Y-68440679D01*
X82015635Y-68445524D01*
X82029530Y-68477968D01*
X82033608Y-68493186D01*
X82099500Y-68607314D01*
X82192686Y-68700500D01*
X82294815Y-68759464D01*
X82343031Y-68810031D01*
X82356254Y-68878638D01*
X82330286Y-68943503D01*
X82320496Y-68954532D01*
X81511848Y-69763181D01*
X81450525Y-69796666D01*
X81424167Y-69799500D01*
X80260438Y-69799500D01*
X80209486Y-69813152D01*
X80184010Y-69819979D01*
X80139962Y-69845411D01*
X80139960Y-69845412D01*
X80115490Y-69859539D01*
X80115487Y-69859541D01*
X79759541Y-70215487D01*
X79759535Y-70215495D01*
X79719982Y-70284004D01*
X79719979Y-70284009D01*
X79706326Y-70334962D01*
X79699500Y-70360438D01*
X79699500Y-71039562D01*
X79711409Y-71084007D01*
X79719979Y-71115990D01*
X79719980Y-71115991D01*
X79732005Y-71136819D01*
X79749079Y-71166392D01*
X79751768Y-71171050D01*
X79759541Y-71184512D01*
X80013181Y-71438152D01*
X80046666Y-71499475D01*
X80049500Y-71525832D01*
X80049500Y-71742129D01*
X80065485Y-71822495D01*
X80065485Y-71822496D01*
X80071243Y-71831113D01*
X80092118Y-71897791D01*
X80073631Y-71965171D01*
X80071243Y-71968887D01*
X80065484Y-71977505D01*
X80065483Y-71977507D01*
X80049500Y-72057862D01*
X80049500Y-72374166D01*
X80029815Y-72441205D01*
X80013181Y-72461847D01*
X79611848Y-72863181D01*
X79553365Y-72896013D01*
X79538972Y-72899500D01*
X79460438Y-72899500D01*
X79384011Y-72919979D01*
X79348537Y-72940460D01*
X79333085Y-72949380D01*
X79333081Y-72949382D01*
X79315492Y-72959537D01*
X79315487Y-72959541D01*
X78938848Y-73336181D01*
X78877525Y-73369666D01*
X78851167Y-73372500D01*
X78451833Y-73372500D01*
X78384794Y-73352815D01*
X78339039Y-73300011D01*
X78329095Y-73230853D01*
X78358120Y-73167297D01*
X78364152Y-73160819D01*
X78400804Y-73124167D01*
X78440460Y-73084511D01*
X78480022Y-73015988D01*
X78500500Y-72939562D01*
X78500500Y-72860438D01*
X78500500Y-72360438D01*
X78480021Y-72284011D01*
X78480020Y-72284010D01*
X78480020Y-72284008D01*
X78480018Y-72284005D01*
X78477111Y-72278969D01*
X78463278Y-72243075D01*
X78460499Y-72230169D01*
X78460499Y-72197868D01*
X78444515Y-72117505D01*
X78432301Y-72099225D01*
X78427322Y-72076104D01*
X78428220Y-72063894D01*
X78424563Y-72052211D01*
X78430738Y-72029703D01*
X78432452Y-72006423D01*
X78439810Y-71996636D01*
X78440517Y-71994056D01*
X78439842Y-71993777D01*
X78442070Y-71988396D01*
X78443049Y-71984831D01*
X78444452Y-71982647D01*
X78444516Y-71982493D01*
X78459415Y-71907588D01*
X78460500Y-71902133D01*
X78460499Y-71697868D01*
X78444515Y-71617505D01*
X78410362Y-71566392D01*
X78383624Y-71526375D01*
X78321014Y-71484541D01*
X78292495Y-71465485D01*
X78292493Y-71465484D01*
X78292490Y-71465483D01*
X78212135Y-71449500D01*
X77757870Y-71449500D01*
X77677503Y-71465485D01*
X77677499Y-71465487D01*
X77668887Y-71471242D01*
X77659188Y-71474278D01*
X77651510Y-71480932D01*
X77626409Y-71484541D01*
X77602209Y-71492118D01*
X77592410Y-71489429D01*
X77582352Y-71490876D01*
X77543704Y-71476067D01*
X77534829Y-71473632D01*
X77533506Y-71472159D01*
X77531110Y-71471241D01*
X77522495Y-71465485D01*
X77522492Y-71465483D01*
X77442135Y-71449500D01*
X76987870Y-71449500D01*
X76907504Y-71465485D01*
X76816375Y-71526375D01*
X76755485Y-71617505D01*
X76755483Y-71617509D01*
X76739500Y-71697863D01*
X76739500Y-71883166D01*
X76733643Y-71903110D01*
X76732628Y-71923872D01*
X76723998Y-71935958D01*
X76719815Y-71950205D01*
X76704107Y-71963815D01*
X76692027Y-71980735D01*
X76674435Y-71989526D01*
X76667011Y-71995960D01*
X76661439Y-71998343D01*
X76654648Y-72001051D01*
X76584011Y-72019979D01*
X76539960Y-72045412D01*
X76532214Y-72049883D01*
X76532209Y-72049886D01*
X76515490Y-72059539D01*
X76515487Y-72059541D01*
X76059541Y-72515487D01*
X76059535Y-72515495D01*
X76019982Y-72584004D01*
X76019979Y-72584009D01*
X76007988Y-72628761D01*
X76001627Y-72652502D01*
X75999500Y-72660439D01*
X75999500Y-74624167D01*
X75979815Y-74691206D01*
X75963181Y-74711848D01*
X75111848Y-75563181D01*
X75050525Y-75596666D01*
X75024167Y-75599500D01*
X70175833Y-75599500D01*
X70108794Y-75579815D01*
X70088152Y-75563181D01*
X68711818Y-74186847D01*
X68678333Y-74125524D01*
X68675499Y-74099166D01*
X68675499Y-73800833D01*
X68695184Y-73733794D01*
X68711818Y-73713152D01*
X68839984Y-73584986D01*
X68926964Y-73498006D01*
X68988286Y-73464522D01*
X69057978Y-73469506D01*
X69102325Y-73498007D01*
X69143514Y-73539196D01*
X69143515Y-73539196D01*
X69143517Y-73539198D01*
X69248607Y-73590573D01*
X69268813Y-73593517D01*
X69316739Y-73600500D01*
X69316740Y-73600500D01*
X70408261Y-73600500D01*
X70443771Y-73595326D01*
X70476393Y-73590573D01*
X70581483Y-73539198D01*
X70664198Y-73456483D01*
X70715573Y-73351393D01*
X70725500Y-73283260D01*
X70725500Y-73150833D01*
X70745185Y-73083794D01*
X70761819Y-73063152D01*
X71000500Y-72824471D01*
X71239465Y-72585505D01*
X71300786Y-72552022D01*
X71370477Y-72557006D01*
X71414825Y-72585507D01*
X71418514Y-72589196D01*
X71418515Y-72589196D01*
X71418517Y-72589198D01*
X71523607Y-72640573D01*
X71552893Y-72644840D01*
X71591739Y-72650500D01*
X71591740Y-72650500D01*
X72683261Y-72650500D01*
X72714337Y-72645972D01*
X72751393Y-72640573D01*
X72856483Y-72589198D01*
X72856485Y-72589196D01*
X72858863Y-72586819D01*
X72862914Y-72584606D01*
X72864847Y-72583227D01*
X72865013Y-72583460D01*
X72920186Y-72553334D01*
X72946544Y-72550500D01*
X73213369Y-72550500D01*
X73280408Y-72570185D01*
X73326163Y-72622989D01*
X73335842Y-72655103D01*
X73340279Y-72683121D01*
X73340280Y-72683124D01*
X73340281Y-72683126D01*
X73401472Y-72803220D01*
X73401473Y-72803221D01*
X73401476Y-72803225D01*
X73496774Y-72898523D01*
X73496778Y-72898526D01*
X73496780Y-72898528D01*
X73616874Y-72959719D01*
X73616876Y-72959719D01*
X73616878Y-72959720D01*
X73716507Y-72975500D01*
X73716512Y-72975500D01*
X74283493Y-72975500D01*
X74383121Y-72959720D01*
X74383121Y-72959719D01*
X74383126Y-72959719D01*
X74503220Y-72898528D01*
X74598528Y-72803220D01*
X74659719Y-72683126D01*
X74662082Y-72668206D01*
X74675500Y-72583493D01*
X74675500Y-72066506D01*
X74659720Y-71966878D01*
X74659719Y-71966876D01*
X74659719Y-71966874D01*
X74598528Y-71846780D01*
X74598526Y-71846778D01*
X74598523Y-71846774D01*
X74562420Y-71810671D01*
X74528935Y-71749348D01*
X74533919Y-71679656D01*
X74542713Y-71660992D01*
X74559577Y-71631784D01*
X74600500Y-71479057D01*
X74600500Y-71320943D01*
X74559577Y-71168216D01*
X74546702Y-71145915D01*
X74480524Y-71031290D01*
X74480518Y-71031282D01*
X74368717Y-70919481D01*
X74368709Y-70919475D01*
X74231790Y-70840426D01*
X74231786Y-70840424D01*
X74231784Y-70840423D01*
X74079057Y-70799500D01*
X73920943Y-70799500D01*
X73768216Y-70840423D01*
X73768209Y-70840426D01*
X73631290Y-70919475D01*
X73631282Y-70919481D01*
X73519481Y-71031282D01*
X73519475Y-71031290D01*
X73440426Y-71168209D01*
X73440423Y-71168216D01*
X73399500Y-71320943D01*
X73399500Y-71479057D01*
X73426038Y-71578097D01*
X73430140Y-71593407D01*
X73428477Y-71663257D01*
X73389314Y-71721119D01*
X73325086Y-71748623D01*
X73310365Y-71749500D01*
X72946544Y-71749500D01*
X72879505Y-71729815D01*
X72858863Y-71713181D01*
X72856485Y-71710803D01*
X72751391Y-71659426D01*
X72683261Y-71649500D01*
X72683260Y-71649500D01*
X71591740Y-71649500D01*
X71591739Y-71649500D01*
X71523607Y-71659426D01*
X71523606Y-71659426D01*
X71478959Y-71681253D01*
X71477289Y-71681537D01*
X71476011Y-71682646D01*
X71442976Y-71687395D01*
X71410086Y-71693011D01*
X71408529Y-71692348D01*
X71406853Y-71692590D01*
X71376480Y-71678719D01*
X71345789Y-71665667D01*
X71344837Y-71664268D01*
X71343297Y-71663565D01*
X71325257Y-71635494D01*
X71306482Y-71607903D01*
X71306144Y-71605753D01*
X71305523Y-71604787D01*
X71300500Y-71569852D01*
X71300500Y-71375833D01*
X71320185Y-71308794D01*
X71336819Y-71288152D01*
X71638152Y-70986819D01*
X71699475Y-70953334D01*
X71725833Y-70950500D01*
X72683261Y-70950500D01*
X72705971Y-70947191D01*
X72751393Y-70940573D01*
X72856483Y-70889198D01*
X72939198Y-70806483D01*
X72990573Y-70701393D01*
X73000500Y-70633260D01*
X73000500Y-70266740D01*
X72990573Y-70198607D01*
X72939198Y-70093517D01*
X72939196Y-70093515D01*
X72939196Y-70093514D01*
X72856485Y-70010803D01*
X72751391Y-69959426D01*
X72683261Y-69949500D01*
X72683260Y-69949500D01*
X71591740Y-69949500D01*
X71591739Y-69949500D01*
X71523607Y-69959426D01*
X71523606Y-69959426D01*
X71468582Y-69986325D01*
X71468577Y-69986329D01*
X71418517Y-70010802D01*
X71335802Y-70093517D01*
X71328375Y-70108707D01*
X71328373Y-70108710D01*
X71284426Y-70198606D01*
X71284426Y-70198607D01*
X71274500Y-70266739D01*
X71274500Y-70449167D01*
X71254815Y-70516206D01*
X71238181Y-70536848D01*
X70759541Y-71015487D01*
X70759535Y-71015495D01*
X70719982Y-71084004D01*
X70719979Y-71084009D01*
X70699500Y-71160439D01*
X70699500Y-71569852D01*
X70679815Y-71636891D01*
X70627011Y-71682646D01*
X70557853Y-71692590D01*
X70521041Y-71681253D01*
X70476393Y-71659426D01*
X70408261Y-71649500D01*
X70408260Y-71649500D01*
X69316740Y-71649500D01*
X69316739Y-71649500D01*
X69248608Y-71659426D01*
X69217851Y-71674462D01*
X69148978Y-71686219D01*
X69084681Y-71658875D01*
X69075712Y-71650741D01*
X68478133Y-71053162D01*
X68444648Y-70991839D01*
X68449632Y-70922147D01*
X68491504Y-70866214D01*
X68509516Y-70854999D01*
X68513342Y-70853050D01*
X68603050Y-70763342D01*
X68660646Y-70650304D01*
X68660646Y-70650302D01*
X68660647Y-70650301D01*
X68675499Y-70556524D01*
X68675500Y-70556519D01*
X68675499Y-70093482D01*
X68660646Y-69999696D01*
X68603050Y-69886658D01*
X68603045Y-69886653D01*
X68597311Y-69878759D01*
X68600058Y-69876762D01*
X68574877Y-69830646D01*
X68579861Y-69760954D01*
X68608359Y-69716610D01*
X68787820Y-69537150D01*
X68807255Y-69526538D01*
X68823989Y-69512038D01*
X68837320Y-69510121D01*
X68849142Y-69503666D01*
X68871228Y-69505245D01*
X68893147Y-69502094D01*
X68905398Y-69507689D01*
X68918834Y-69508650D01*
X68936560Y-69521920D01*
X68956703Y-69531119D01*
X68963985Y-69542450D01*
X68974767Y-69550522D01*
X68982504Y-69571267D01*
X68994477Y-69589897D01*
X68997628Y-69611815D01*
X68999184Y-69615986D01*
X68999500Y-69624832D01*
X68999500Y-69683260D01*
X69009426Y-69751391D01*
X69060803Y-69856485D01*
X69143514Y-69939196D01*
X69143515Y-69939196D01*
X69143517Y-69939198D01*
X69248607Y-69990573D01*
X69282673Y-69995536D01*
X69316739Y-70000500D01*
X69316740Y-70000500D01*
X70408261Y-70000500D01*
X70430971Y-69997191D01*
X70476393Y-69990573D01*
X70564546Y-69947478D01*
X70633419Y-69935720D01*
X70681006Y-69951491D01*
X70706814Y-69966392D01*
X70834108Y-70000500D01*
X70834110Y-70000500D01*
X70965890Y-70000500D01*
X70965892Y-70000500D01*
X71093186Y-69966392D01*
X71207314Y-69900500D01*
X71300500Y-69807314D01*
X71366392Y-69693186D01*
X71400500Y-69565892D01*
X71400500Y-69434108D01*
X71366392Y-69306814D01*
X71361607Y-69298527D01*
X71358301Y-69292801D01*
X71300500Y-69192686D01*
X71207314Y-69099500D01*
X71155520Y-69069596D01*
X71155517Y-69069594D01*
X71093189Y-69033609D01*
X71093186Y-69033608D01*
X70965892Y-68999500D01*
X70834108Y-68999500D01*
X70834105Y-68999500D01*
X70832950Y-68999652D01*
X70831976Y-68999500D01*
X70825981Y-68999500D01*
X70825981Y-68998564D01*
X70763916Y-68988880D01*
X70711664Y-68942495D01*
X70692785Y-68875224D01*
X70705376Y-68822250D01*
X70715573Y-68801393D01*
X70725500Y-68733260D01*
X70725500Y-68366740D01*
X70721950Y-68342375D01*
X70731765Y-68273199D01*
X70777421Y-68220310D01*
X70844424Y-68200500D01*
X71155345Y-68200500D01*
X71222384Y-68220185D01*
G37*
%TD.AperFunction*%
%TA.AperFunction,Conductor*%
G36*
X85717539Y-65819685D02*
G01*
X85763294Y-65872489D01*
X85774500Y-65924000D01*
X85774500Y-67633259D01*
X85774499Y-67633259D01*
X85784426Y-67701391D01*
X85784427Y-67701393D01*
X85828403Y-67791349D01*
X85835803Y-67806485D01*
X85889492Y-67860174D01*
X85922977Y-67921497D01*
X85917993Y-67991189D01*
X85889492Y-68035536D01*
X84961848Y-68963181D01*
X84900525Y-68996666D01*
X84874167Y-68999500D01*
X83760438Y-68999500D01*
X83684010Y-69019978D01*
X83615489Y-69059540D01*
X83615486Y-69059542D01*
X81659541Y-71015487D01*
X81659537Y-71015492D01*
X81619980Y-71084007D01*
X81619978Y-71084011D01*
X81606515Y-71134254D01*
X81599587Y-71145619D01*
X81589845Y-71171045D01*
X81565484Y-71207505D01*
X81549500Y-71287862D01*
X81549500Y-71742129D01*
X81565485Y-71822495D01*
X81565485Y-71822496D01*
X81571243Y-71831113D01*
X81574278Y-71840809D01*
X81580933Y-71848489D01*
X81584542Y-71873592D01*
X81592118Y-71897791D01*
X81589429Y-71907588D01*
X81590876Y-71917648D01*
X81576062Y-71956308D01*
X81573631Y-71965171D01*
X81572160Y-71966491D01*
X81571243Y-71968887D01*
X81565484Y-71977505D01*
X81565483Y-71977507D01*
X81549500Y-72057862D01*
X81549500Y-72512129D01*
X81565485Y-72592495D01*
X81578602Y-72612125D01*
X81579700Y-72615631D01*
X81582379Y-72618145D01*
X81595006Y-72664515D01*
X81599480Y-72678802D01*
X81599187Y-72679868D01*
X81599500Y-72681016D01*
X81599500Y-72691033D01*
X81609705Y-72729119D01*
X81619978Y-72767458D01*
X81639056Y-72800502D01*
X81659539Y-72835980D01*
X81659541Y-72835983D01*
X81663181Y-72839623D01*
X81677884Y-72866550D01*
X81694477Y-72892369D01*
X81695368Y-72898569D01*
X81696666Y-72900946D01*
X81699500Y-72927304D01*
X81699500Y-73124167D01*
X81679815Y-73191206D01*
X81663181Y-73211848D01*
X81538848Y-73336181D01*
X81477525Y-73369666D01*
X81451167Y-73372500D01*
X80925326Y-73372500D01*
X80860807Y-73385333D01*
X80791215Y-73379104D01*
X80736039Y-73336241D01*
X80712795Y-73270351D01*
X80728863Y-73202354D01*
X80748932Y-73176038D01*
X81140460Y-72784511D01*
X81150305Y-72767459D01*
X81180021Y-72715989D01*
X81193483Y-72665744D01*
X81210154Y-72628951D01*
X81234515Y-72592495D01*
X81234515Y-72592494D01*
X81234516Y-72592493D01*
X81250499Y-72512137D01*
X81250500Y-72512133D01*
X81250499Y-72057868D01*
X81234515Y-71977505D01*
X81228758Y-71968890D01*
X81225721Y-71959191D01*
X81219066Y-71951510D01*
X81215457Y-71926410D01*
X81207881Y-71902214D01*
X81210569Y-71892413D01*
X81209123Y-71882351D01*
X81219657Y-71859285D01*
X81226365Y-71834833D01*
X81228731Y-71831149D01*
X81234515Y-71822495D01*
X81250500Y-71742133D01*
X81250499Y-71287868D01*
X81234515Y-71207505D01*
X81210155Y-71171047D01*
X81204273Y-71158066D01*
X81200464Y-71153670D01*
X81199618Y-71147793D01*
X81193483Y-71134250D01*
X81189659Y-71119978D01*
X81180022Y-71084013D01*
X81180022Y-71084012D01*
X81140460Y-71015489D01*
X81106821Y-70981850D01*
X81073336Y-70920527D01*
X81074726Y-70862079D01*
X81100500Y-70765892D01*
X81100500Y-70634108D01*
X81079730Y-70556592D01*
X81081393Y-70486743D01*
X81120556Y-70428881D01*
X81184784Y-70401377D01*
X81199505Y-70400500D01*
X81639560Y-70400500D01*
X81639562Y-70400500D01*
X81715989Y-70380021D01*
X81784511Y-70340460D01*
X81840460Y-70284511D01*
X83688152Y-68436819D01*
X83749475Y-68403334D01*
X83775833Y-68400500D01*
X84439560Y-68400500D01*
X84439562Y-68400500D01*
X84515989Y-68380021D01*
X84584511Y-68340460D01*
X84640460Y-68284511D01*
X84938152Y-67986819D01*
X84999475Y-67953334D01*
X85025833Y-67950500D01*
X85188261Y-67950500D01*
X85210971Y-67947191D01*
X85256393Y-67940573D01*
X85361483Y-67889198D01*
X85444198Y-67806483D01*
X85495573Y-67701393D01*
X85505500Y-67633260D01*
X85505500Y-65924000D01*
X85508050Y-65915314D01*
X85506762Y-65906353D01*
X85517740Y-65882312D01*
X85525185Y-65856961D01*
X85532025Y-65851033D01*
X85535787Y-65842797D01*
X85558021Y-65828507D01*
X85577989Y-65811206D01*
X85588503Y-65808918D01*
X85594565Y-65805023D01*
X85629500Y-65800000D01*
X85650500Y-65800000D01*
X85717539Y-65819685D01*
G37*
%TD.AperFunction*%
%TD*%
%TA.AperFunction,Conductor*%
%TO.N,GND*%
G36*
X68967534Y-53220185D02*
G01*
X69013289Y-53272989D01*
X69023233Y-53342147D01*
X69020270Y-53356591D01*
X68999500Y-53434108D01*
X68999500Y-53565892D01*
X69012995Y-53616255D01*
X69033608Y-53693187D01*
X69062863Y-53743857D01*
X69099500Y-53807314D01*
X69192686Y-53900500D01*
X69306814Y-53966392D01*
X69434108Y-54000500D01*
X69434110Y-54000500D01*
X69565889Y-54000500D01*
X69565892Y-54000500D01*
X69643410Y-53979729D01*
X69713256Y-53981392D01*
X69771118Y-54020554D01*
X69798623Y-54084782D01*
X69799500Y-54099504D01*
X69799500Y-55204269D01*
X69802353Y-55234699D01*
X69802353Y-55234701D01*
X69846038Y-55359541D01*
X69847207Y-55362882D01*
X69927850Y-55472150D01*
X70037118Y-55552793D01*
X70072918Y-55565320D01*
X70165299Y-55597646D01*
X70195730Y-55600500D01*
X70195734Y-55600500D01*
X70854270Y-55600500D01*
X70884699Y-55597646D01*
X70884701Y-55597646D01*
X70967316Y-55568737D01*
X71012882Y-55552793D01*
X71122150Y-55472150D01*
X71202793Y-55362882D01*
X71221806Y-55308543D01*
X71235425Y-55289555D01*
X71245134Y-55268297D01*
X71255408Y-55261694D01*
X71262527Y-55251769D01*
X71284253Y-55243156D01*
X71303912Y-55230523D01*
X71323076Y-55227767D01*
X71327480Y-55226022D01*
X71338847Y-55225500D01*
X71450728Y-55225500D01*
X71517767Y-55245185D01*
X71561212Y-55293204D01*
X71596949Y-55363340D01*
X71596954Y-55363347D01*
X71686652Y-55453045D01*
X71686654Y-55453046D01*
X71686658Y-55453050D01*
X71793934Y-55507710D01*
X71799698Y-55510647D01*
X71808980Y-55513663D01*
X71808162Y-55516177D01*
X71825676Y-55524476D01*
X71856703Y-55538646D01*
X71857195Y-55539412D01*
X71858019Y-55539803D01*
X71876041Y-55568737D01*
X71894477Y-55597424D01*
X71894647Y-55598608D01*
X71894959Y-55599109D01*
X71899500Y-55632359D01*
X71899500Y-55773342D01*
X71879815Y-55840381D01*
X71827011Y-55886136D01*
X71818518Y-55889443D01*
X71796818Y-55900500D01*
X71696780Y-55951472D01*
X71696779Y-55951473D01*
X71696774Y-55951476D01*
X71601476Y-56046774D01*
X71601473Y-56046778D01*
X71540279Y-56166878D01*
X71524500Y-56266506D01*
X71524500Y-56783493D01*
X71540279Y-56883121D01*
X71540280Y-56883124D01*
X71540281Y-56883126D01*
X71601031Y-57002354D01*
X71601473Y-57003221D01*
X71601476Y-57003225D01*
X71696774Y-57098523D01*
X71696778Y-57098526D01*
X71696780Y-57098528D01*
X71816874Y-57159719D01*
X71816876Y-57159719D01*
X71816878Y-57159720D01*
X71916507Y-57175500D01*
X71916512Y-57175500D01*
X72399167Y-57175500D01*
X72466206Y-57195185D01*
X72486848Y-57211819D01*
X73553272Y-58278243D01*
X73586757Y-58339566D01*
X73581773Y-58409258D01*
X73539901Y-58465191D01*
X73515680Y-58479357D01*
X73502235Y-58485293D01*
X73422794Y-58564734D01*
X73377415Y-58667506D01*
X73377415Y-58667508D01*
X73374500Y-58692631D01*
X73374500Y-59075500D01*
X73354815Y-59142539D01*
X73302011Y-59188294D01*
X73250500Y-59199500D01*
X72817255Y-59199500D01*
X72750216Y-59179815D01*
X72729574Y-59163181D01*
X72713347Y-59146954D01*
X72713344Y-59146952D01*
X72713342Y-59146950D01*
X72636517Y-59107805D01*
X72600301Y-59089352D01*
X72506524Y-59074500D01*
X71893482Y-59074500D01*
X71812519Y-59087323D01*
X71799696Y-59089354D01*
X71686658Y-59146950D01*
X71686657Y-59146951D01*
X71686652Y-59146954D01*
X71670426Y-59163181D01*
X71643498Y-59177884D01*
X71617680Y-59194477D01*
X71611479Y-59195368D01*
X71609103Y-59196666D01*
X71582745Y-59199500D01*
X71575833Y-59199500D01*
X71508794Y-59179815D01*
X71488152Y-59163181D01*
X71286819Y-58961848D01*
X71253334Y-58900525D01*
X71250500Y-58874167D01*
X71250500Y-57395730D01*
X71247646Y-57365300D01*
X71247646Y-57365298D01*
X71202793Y-57237119D01*
X71202792Y-57237117D01*
X71122150Y-57127850D01*
X71012882Y-57047207D01*
X71012880Y-57047206D01*
X70884700Y-57002353D01*
X70854270Y-56999500D01*
X70854266Y-56999500D01*
X70195734Y-56999500D01*
X70195730Y-56999500D01*
X70165300Y-57002353D01*
X70165298Y-57002353D01*
X70037119Y-57047206D01*
X70037117Y-57047207D01*
X69927850Y-57127850D01*
X69847207Y-57237117D01*
X69847206Y-57237119D01*
X69802353Y-57365298D01*
X69802353Y-57365300D01*
X69799500Y-57395730D01*
X69799500Y-59004269D01*
X69802353Y-59034699D01*
X69802353Y-59034701D01*
X69847206Y-59162880D01*
X69847207Y-59162882D01*
X69927850Y-59272150D01*
X70037118Y-59352793D01*
X70079845Y-59367744D01*
X70165299Y-59397646D01*
X70195730Y-59400500D01*
X70824167Y-59400500D01*
X70891206Y-59420185D01*
X70911848Y-59436819D01*
X71159540Y-59684511D01*
X71215489Y-59740460D01*
X71215491Y-59740461D01*
X71215495Y-59740464D01*
X71248538Y-59759541D01*
X71284011Y-59780021D01*
X71360438Y-59800500D01*
X71401803Y-59800500D01*
X71468842Y-59820185D01*
X71514597Y-59872989D01*
X71524277Y-59905103D01*
X71524501Y-59906517D01*
X71524501Y-59906518D01*
X71539354Y-60000304D01*
X71596950Y-60113342D01*
X71596952Y-60113344D01*
X71596954Y-60113347D01*
X71686652Y-60203045D01*
X71686654Y-60203046D01*
X71686658Y-60203050D01*
X71787126Y-60254241D01*
X71799698Y-60260647D01*
X71893475Y-60275499D01*
X71893481Y-60275500D01*
X72506518Y-60275499D01*
X72600304Y-60260646D01*
X72713342Y-60203050D01*
X72803050Y-60113342D01*
X72860646Y-60000304D01*
X72860646Y-60000302D01*
X72860647Y-60000301D01*
X72875725Y-59905102D01*
X72905654Y-59841968D01*
X72964965Y-59805036D01*
X72998198Y-59800500D01*
X73250501Y-59800500D01*
X73317540Y-59820185D01*
X73363295Y-59872989D01*
X73374501Y-59924500D01*
X73374501Y-60057356D01*
X73374502Y-60057382D01*
X73377413Y-60082487D01*
X73377415Y-60082491D01*
X73422793Y-60185264D01*
X73422794Y-60185265D01*
X73502235Y-60264706D01*
X73605009Y-60310085D01*
X73630135Y-60313000D01*
X73919864Y-60312999D01*
X73919879Y-60312997D01*
X73919882Y-60312997D01*
X73944987Y-60310086D01*
X73944987Y-60310085D01*
X73944991Y-60310085D01*
X74047765Y-60264706D01*
X74047766Y-60264704D01*
X74049912Y-60263757D01*
X74119190Y-60254685D01*
X74150085Y-60263757D01*
X74255004Y-60310083D01*
X74255009Y-60310085D01*
X74280135Y-60313000D01*
X74569864Y-60312999D01*
X74569879Y-60312997D01*
X74569882Y-60312997D01*
X74594987Y-60310086D01*
X74594987Y-60310085D01*
X74594991Y-60310085D01*
X74697765Y-60264706D01*
X74697766Y-60264704D01*
X74699912Y-60263757D01*
X74769190Y-60254685D01*
X74800085Y-60263757D01*
X74905004Y-60310083D01*
X74905009Y-60310085D01*
X74930135Y-60313000D01*
X75219864Y-60312999D01*
X75219879Y-60312997D01*
X75219882Y-60312997D01*
X75244987Y-60310086D01*
X75244987Y-60310085D01*
X75244991Y-60310085D01*
X75347765Y-60264706D01*
X75347766Y-60264704D01*
X75349912Y-60263757D01*
X75383083Y-60259413D01*
X75416098Y-60254241D01*
X75418163Y-60254819D01*
X75419190Y-60254685D01*
X75450085Y-60263757D01*
X75539856Y-60303395D01*
X75593233Y-60348481D01*
X75613760Y-60415267D01*
X75604335Y-60464271D01*
X75601796Y-60470400D01*
X75586071Y-60529089D01*
X75576796Y-60563703D01*
X75540430Y-60623363D01*
X75513316Y-60642093D01*
X75396780Y-60701472D01*
X75396779Y-60701473D01*
X75396774Y-60701476D01*
X75301476Y-60796774D01*
X75301473Y-60796778D01*
X75240279Y-60916878D01*
X75224500Y-61016506D01*
X75224500Y-61583493D01*
X75240279Y-61683121D01*
X75240280Y-61683124D01*
X75240281Y-61683126D01*
X75301471Y-61803218D01*
X75301473Y-61803221D01*
X75301476Y-61803225D01*
X75396774Y-61898523D01*
X75396778Y-61898526D01*
X75396780Y-61898528D01*
X75516874Y-61959719D01*
X75516876Y-61959719D01*
X75516878Y-61959720D01*
X75616507Y-61975500D01*
X75616512Y-61975500D01*
X76133493Y-61975500D01*
X76233121Y-61959720D01*
X76233121Y-61959719D01*
X76233126Y-61959719D01*
X76353220Y-61898528D01*
X76448528Y-61803220D01*
X76466368Y-61768205D01*
X76514342Y-61717410D01*
X76576853Y-61700500D01*
X76652725Y-61700500D01*
X76652727Y-61700500D01*
X76754588Y-61673207D01*
X76845913Y-61620480D01*
X77037582Y-61428810D01*
X77093164Y-61396719D01*
X77231784Y-61359577D01*
X77368716Y-61280520D01*
X77480520Y-61168716D01*
X77559577Y-61031784D01*
X77600500Y-60879057D01*
X77600500Y-60720943D01*
X77559577Y-60568216D01*
X77519615Y-60498999D01*
X77503142Y-60431098D01*
X77525995Y-60365072D01*
X77580916Y-60321881D01*
X77626998Y-60312999D01*
X77819864Y-60312999D01*
X77819879Y-60312997D01*
X77819882Y-60312997D01*
X77844987Y-60310086D01*
X77844987Y-60310085D01*
X77844991Y-60310085D01*
X77947765Y-60264706D01*
X77947766Y-60264704D01*
X77949912Y-60263757D01*
X78019190Y-60254685D01*
X78050085Y-60263757D01*
X78155004Y-60310083D01*
X78155009Y-60310085D01*
X78180135Y-60313000D01*
X78469864Y-60312999D01*
X78469879Y-60312997D01*
X78469882Y-60312997D01*
X78494987Y-60310086D01*
X78494987Y-60310085D01*
X78494991Y-60310085D01*
X78597765Y-60264706D01*
X78597766Y-60264704D01*
X78599912Y-60263757D01*
X78669190Y-60254685D01*
X78700085Y-60263757D01*
X78805004Y-60310083D01*
X78805009Y-60310085D01*
X78830135Y-60313000D01*
X79119864Y-60312999D01*
X79119879Y-60312997D01*
X79119882Y-60312997D01*
X79144987Y-60310086D01*
X79144987Y-60310085D01*
X79144991Y-60310085D01*
X79247765Y-60264706D01*
X79247766Y-60264704D01*
X79249912Y-60263757D01*
X79319190Y-60254685D01*
X79350085Y-60263757D01*
X79455004Y-60310083D01*
X79455009Y-60310085D01*
X79480135Y-60313000D01*
X79769864Y-60312999D01*
X79769879Y-60312997D01*
X79769882Y-60312997D01*
X79794987Y-60310086D01*
X79794988Y-60310085D01*
X79794991Y-60310085D01*
X79897765Y-60264706D01*
X79977206Y-60185265D01*
X80022585Y-60082491D01*
X80025500Y-60057365D01*
X80025499Y-58824499D01*
X80045184Y-58757461D01*
X80097987Y-58711706D01*
X80149499Y-58700500D01*
X82724167Y-58700500D01*
X82791206Y-58720185D01*
X82811848Y-58736819D01*
X83363181Y-59288152D01*
X83396666Y-59349475D01*
X83399500Y-59375833D01*
X83399500Y-60638456D01*
X83379815Y-60705495D01*
X83363181Y-60726137D01*
X83295803Y-60793514D01*
X83244426Y-60898608D01*
X83234500Y-60966739D01*
X83234500Y-62676000D01*
X83231949Y-62684685D01*
X83233238Y-62693647D01*
X83222259Y-62717687D01*
X83214815Y-62743039D01*
X83207974Y-62748966D01*
X83204213Y-62757203D01*
X83181978Y-62771492D01*
X83162011Y-62788794D01*
X83151496Y-62791081D01*
X83145435Y-62794977D01*
X83110500Y-62800000D01*
X83089500Y-62800000D01*
X83022461Y-62780315D01*
X82976706Y-62727511D01*
X82965500Y-62676000D01*
X82965500Y-60966739D01*
X82958235Y-60916878D01*
X82955573Y-60898607D01*
X82904198Y-60793517D01*
X82904197Y-60793516D01*
X82904197Y-60793515D01*
X82896931Y-60786250D01*
X82863444Y-60724928D01*
X82868426Y-60655236D01*
X82896928Y-60610885D01*
X82900500Y-60607314D01*
X82966392Y-60493186D01*
X83000500Y-60365892D01*
X83000500Y-60234108D01*
X82966392Y-60106814D01*
X82900500Y-59992686D01*
X82807314Y-59899500D01*
X82718798Y-59848395D01*
X82670583Y-59797827D01*
X82657361Y-59729220D01*
X82664371Y-59701059D01*
X82664288Y-59701037D01*
X82665541Y-59696357D01*
X82666242Y-59693545D01*
X82666385Y-59693197D01*
X82666392Y-59693186D01*
X82700500Y-59565892D01*
X82700500Y-59434108D01*
X82666392Y-59306814D01*
X82600500Y-59192686D01*
X82507314Y-59099500D01*
X82450250Y-59066554D01*
X82393187Y-59033608D01*
X82283690Y-59004269D01*
X82265892Y-58999500D01*
X82134108Y-58999500D01*
X82006812Y-59033608D01*
X81892686Y-59099500D01*
X81892683Y-59099502D01*
X81799502Y-59192683D01*
X81799500Y-59192686D01*
X81733608Y-59306812D01*
X81699500Y-59434108D01*
X81699500Y-59524166D01*
X81690855Y-59553606D01*
X81684332Y-59583593D01*
X81680577Y-59588608D01*
X81679815Y-59591205D01*
X81663185Y-59611842D01*
X81515489Y-59759540D01*
X81515488Y-59759540D01*
X81515487Y-59759541D01*
X81459541Y-59815487D01*
X81459535Y-59815495D01*
X81419982Y-59884004D01*
X81419979Y-59884009D01*
X81399500Y-59960439D01*
X81399500Y-60147793D01*
X81379815Y-60214832D01*
X81327011Y-60260587D01*
X81257853Y-60270531D01*
X81194297Y-60241506D01*
X81168113Y-60209794D01*
X81145822Y-60171187D01*
X81100500Y-60092686D01*
X81007314Y-59999500D01*
X80939657Y-59960438D01*
X80893187Y-59933608D01*
X80827430Y-59915989D01*
X80765892Y-59899500D01*
X80634108Y-59899500D01*
X80506812Y-59933608D01*
X80392686Y-59999500D01*
X80392683Y-59999502D01*
X80299502Y-60092683D01*
X80299500Y-60092686D01*
X80252222Y-60174572D01*
X80252219Y-60174578D01*
X80233608Y-60206814D01*
X80225764Y-60236087D01*
X80225764Y-60236088D01*
X80199500Y-60334108D01*
X80199500Y-60424166D01*
X80190854Y-60453609D01*
X80184332Y-60483592D01*
X80180577Y-60488607D01*
X80179815Y-60491205D01*
X80163185Y-60511842D01*
X80061846Y-60613182D01*
X80000526Y-60646666D01*
X79974167Y-60649500D01*
X79741739Y-60649500D01*
X79673608Y-60659426D01*
X79568514Y-60710803D01*
X79485803Y-60793514D01*
X79434426Y-60898608D01*
X79424500Y-60966739D01*
X79424500Y-62676000D01*
X79404815Y-62743039D01*
X79352011Y-62788794D01*
X79300500Y-62800000D01*
X73000000Y-62800000D01*
X65624500Y-62800000D01*
X65557461Y-62780315D01*
X65511706Y-62727511D01*
X65500500Y-62676000D01*
X65500500Y-59497245D01*
X65520185Y-59430206D01*
X65572989Y-59384451D01*
X65642147Y-59374507D01*
X65665450Y-59380202D01*
X65715301Y-59397646D01*
X65715300Y-59397646D01*
X65745730Y-59400500D01*
X65745734Y-59400500D01*
X66404270Y-59400500D01*
X66434699Y-59397646D01*
X66434701Y-59397646D01*
X66518825Y-59368209D01*
X66562882Y-59352793D01*
X66672150Y-59272150D01*
X66752793Y-59162882D01*
X66775219Y-59098790D01*
X66797646Y-59034701D01*
X66797646Y-59034699D01*
X66800500Y-59004269D01*
X66800500Y-56517255D01*
X66820185Y-56450216D01*
X66836819Y-56429574D01*
X67287338Y-55979055D01*
X67770480Y-55495913D01*
X67823207Y-55404588D01*
X67850500Y-55302727D01*
X67850500Y-55197273D01*
X67850500Y-53967255D01*
X67870185Y-53900216D01*
X67886819Y-53879574D01*
X68529574Y-53236819D01*
X68590897Y-53203334D01*
X68617255Y-53200500D01*
X68900495Y-53200500D01*
X68967534Y-53220185D01*
G37*
%TD.AperFunction*%
%TA.AperFunction,Conductor*%
G36*
X92704043Y-40500765D02*
G01*
X92926790Y-40515364D01*
X92942848Y-40517479D01*
X93128875Y-40554482D01*
X93157771Y-40560230D01*
X93173438Y-40564428D01*
X93326569Y-40616409D01*
X93380944Y-40634867D01*
X93395921Y-40641070D01*
X93468531Y-40676877D01*
X93592460Y-40737992D01*
X93606508Y-40746102D01*
X93788712Y-40867848D01*
X93801576Y-40877719D01*
X93966328Y-41022202D01*
X93977797Y-41033671D01*
X94122280Y-41198423D01*
X94132154Y-41211291D01*
X94253897Y-41393492D01*
X94262007Y-41407539D01*
X94358926Y-41604071D01*
X94365133Y-41619057D01*
X94435571Y-41826561D01*
X94439769Y-41842228D01*
X94482518Y-42057140D01*
X94484636Y-42073221D01*
X94499235Y-42295956D01*
X94499500Y-42304066D01*
X94499500Y-62676000D01*
X94479815Y-62743039D01*
X94427011Y-62788794D01*
X94375500Y-62800000D01*
X93344446Y-62800000D01*
X93277407Y-62780315D01*
X93231652Y-62727511D01*
X93221708Y-62658353D01*
X93234491Y-62624996D01*
X93232743Y-62624272D01*
X93237415Y-62612989D01*
X93237415Y-62612988D01*
X93237417Y-62612986D01*
X93250500Y-62547211D01*
X93250499Y-61877790D01*
X93237417Y-61812014D01*
X93187577Y-61737423D01*
X93187576Y-61737422D01*
X93178941Y-61728787D01*
X93180289Y-61727438D01*
X93145167Y-61685409D01*
X93136461Y-61616084D01*
X93136894Y-61613577D01*
X93140757Y-61592489D01*
X93142477Y-61589511D01*
X93148207Y-61579587D01*
X93175500Y-61477727D01*
X93175500Y-61402850D01*
X93177530Y-61391770D01*
X93188388Y-61370223D01*
X93195185Y-61347076D01*
X93204132Y-61338981D01*
X93208973Y-61329375D01*
X93225562Y-61319592D01*
X93243205Y-61303630D01*
X93253220Y-61298528D01*
X93348528Y-61203220D01*
X93409719Y-61083126D01*
X93412883Y-61063151D01*
X93425500Y-60983493D01*
X93425500Y-60416506D01*
X93409720Y-60316878D01*
X93409719Y-60316876D01*
X93409719Y-60316874D01*
X93348528Y-60196780D01*
X93348526Y-60196778D01*
X93348523Y-60196774D01*
X93253221Y-60101472D01*
X93243204Y-60096368D01*
X93192408Y-60048393D01*
X93175500Y-59985884D01*
X93175500Y-59714115D01*
X93195185Y-59647076D01*
X93243205Y-59603630D01*
X93253220Y-59598528D01*
X93348528Y-59503220D01*
X93409719Y-59383126D01*
X93411084Y-59374507D01*
X93425500Y-59283493D01*
X93425500Y-58716506D01*
X93409720Y-58616878D01*
X93409719Y-58616876D01*
X93409719Y-58616874D01*
X93348528Y-58496780D01*
X93348525Y-58496777D01*
X93348523Y-58496774D01*
X93325818Y-58474069D01*
X93292333Y-58412746D01*
X93297317Y-58343054D01*
X93306109Y-58324393D01*
X93359577Y-58231784D01*
X93400500Y-58079057D01*
X93400500Y-57920943D01*
X93359577Y-57768216D01*
X93329137Y-57715492D01*
X93280524Y-57631290D01*
X93280518Y-57631282D01*
X93168717Y-57519481D01*
X93168709Y-57519475D01*
X93031790Y-57440426D01*
X93031786Y-57440424D01*
X93031784Y-57440423D01*
X92879057Y-57399500D01*
X92720943Y-57399500D01*
X92568216Y-57440423D01*
X92568209Y-57440426D01*
X92431290Y-57519475D01*
X92431282Y-57519481D01*
X92319481Y-57631282D01*
X92319475Y-57631290D01*
X92240426Y-57768209D01*
X92240423Y-57768216D01*
X92199500Y-57920943D01*
X92199500Y-58079056D01*
X92240423Y-58231783D01*
X92240426Y-58231790D01*
X92275586Y-58292690D01*
X92292059Y-58360590D01*
X92269206Y-58426617D01*
X92255881Y-58442370D01*
X92201473Y-58496777D01*
X92201473Y-58496778D01*
X92140279Y-58616878D01*
X92124500Y-58716506D01*
X92124500Y-59283493D01*
X92140279Y-59383121D01*
X92140280Y-59383124D01*
X92140281Y-59383126D01*
X92166258Y-59434108D01*
X92201473Y-59503221D01*
X92201476Y-59503225D01*
X92296774Y-59598523D01*
X92296780Y-59598528D01*
X92306794Y-59603630D01*
X92357590Y-59651604D01*
X92374500Y-59714115D01*
X92374500Y-59985884D01*
X92354815Y-60052923D01*
X92306796Y-60096368D01*
X92296778Y-60101472D01*
X92201476Y-60196774D01*
X92201473Y-60196778D01*
X92140279Y-60316878D01*
X92124500Y-60416506D01*
X92124500Y-60983493D01*
X92140279Y-61083121D01*
X92140280Y-61083124D01*
X92140281Y-61083126D01*
X92201472Y-61203220D01*
X92201473Y-61203221D01*
X92201476Y-61203225D01*
X92238892Y-61240641D01*
X92272377Y-61301964D01*
X92269243Y-61366329D01*
X92265196Y-61378896D01*
X92226793Y-61445412D01*
X92217531Y-61479979D01*
X92199500Y-61547273D01*
X92199500Y-61582917D01*
X92193532Y-61601451D01*
X92184393Y-61614891D01*
X92179815Y-61630483D01*
X92165154Y-61643186D01*
X92154246Y-61659230D01*
X92139292Y-61665596D01*
X92127011Y-61676238D01*
X92099692Y-61685061D01*
X92087017Y-61687582D01*
X92087011Y-61687584D01*
X92012423Y-61737423D01*
X91962583Y-61812012D01*
X91949500Y-61877790D01*
X91949500Y-62547208D01*
X91962583Y-62612986D01*
X91967258Y-62624272D01*
X91964401Y-62625455D01*
X91979534Y-62673789D01*
X91961048Y-62741169D01*
X91909068Y-62787858D01*
X91855554Y-62800000D01*
X88169500Y-62800000D01*
X88102461Y-62780315D01*
X88056706Y-62727511D01*
X88045500Y-62676000D01*
X88045500Y-61924500D01*
X88065185Y-61857461D01*
X88117989Y-61811706D01*
X88169500Y-61800500D01*
X88327725Y-61800500D01*
X88327727Y-61800500D01*
X88429588Y-61773207D01*
X88520913Y-61720480D01*
X88779574Y-61461819D01*
X88840897Y-61428334D01*
X88867255Y-61425500D01*
X89183493Y-61425500D01*
X89283121Y-61409720D01*
X89283121Y-61409719D01*
X89283126Y-61409719D01*
X89403220Y-61348528D01*
X89498528Y-61253220D01*
X89559719Y-61133126D01*
X89562781Y-61113794D01*
X89575500Y-61033493D01*
X89575500Y-60516506D01*
X89559720Y-60416878D01*
X89559719Y-60416876D01*
X89559719Y-60416874D01*
X89498528Y-60296780D01*
X89498526Y-60296778D01*
X89498523Y-60296774D01*
X89403225Y-60201476D01*
X89403221Y-60201473D01*
X89403220Y-60201472D01*
X89283126Y-60140281D01*
X89283124Y-60140280D01*
X89283121Y-60140279D01*
X89183493Y-60124500D01*
X89183488Y-60124500D01*
X88842255Y-60124500D01*
X88775216Y-60104815D01*
X88754574Y-60088181D01*
X88336819Y-59670426D01*
X88303334Y-59609103D01*
X88300500Y-59582745D01*
X88300500Y-59520945D01*
X88300500Y-59520943D01*
X88259577Y-59368216D01*
X88213765Y-59288866D01*
X88180524Y-59231290D01*
X88180518Y-59231282D01*
X88068717Y-59119481D01*
X88068709Y-59119475D01*
X87931790Y-59040426D01*
X87931786Y-59040424D01*
X87931784Y-59040423D01*
X87779057Y-58999500D01*
X87620943Y-58999500D01*
X87468216Y-59040423D01*
X87468209Y-59040426D01*
X87331290Y-59119475D01*
X87331282Y-59119481D01*
X87219481Y-59231282D01*
X87219475Y-59231290D01*
X87140426Y-59368209D01*
X87140423Y-59368216D01*
X87099500Y-59520943D01*
X87099500Y-59679057D01*
X87136059Y-59815495D01*
X87140423Y-59831783D01*
X87140426Y-59831790D01*
X87219475Y-59968709D01*
X87219479Y-59968714D01*
X87219480Y-59968716D01*
X87331284Y-60080520D01*
X87331286Y-60080521D01*
X87331290Y-60080524D01*
X87434794Y-60140281D01*
X87468216Y-60159577D01*
X87620943Y-60200500D01*
X87682745Y-60200500D01*
X87749784Y-60220185D01*
X87770426Y-60236819D01*
X88046956Y-60513349D01*
X88080441Y-60574672D01*
X88075457Y-60644364D01*
X88033585Y-60700297D01*
X87968121Y-60724714D01*
X87904815Y-60712431D01*
X87879994Y-60700297D01*
X87796393Y-60659427D01*
X87796391Y-60659426D01*
X87728261Y-60649500D01*
X87728260Y-60649500D01*
X87361740Y-60649500D01*
X87361739Y-60649500D01*
X87293608Y-60659426D01*
X87188514Y-60710803D01*
X87105803Y-60793514D01*
X87054426Y-60898608D01*
X87044500Y-60966739D01*
X87044500Y-62676000D01*
X87041949Y-62684685D01*
X87043238Y-62693647D01*
X87032259Y-62717687D01*
X87024815Y-62743039D01*
X87017974Y-62748966D01*
X87014213Y-62757203D01*
X86991978Y-62771492D01*
X86972011Y-62788794D01*
X86961496Y-62791081D01*
X86955435Y-62794977D01*
X86920500Y-62800000D01*
X86899500Y-62800000D01*
X86832461Y-62780315D01*
X86786706Y-62727511D01*
X86775500Y-62676000D01*
X86775500Y-60966739D01*
X86768235Y-60916878D01*
X86765573Y-60898607D01*
X86714198Y-60793517D01*
X86714196Y-60793515D01*
X86714196Y-60793514D01*
X86631484Y-60710802D01*
X86600615Y-60695711D01*
X86549033Y-60648583D01*
X86547689Y-60646311D01*
X86515462Y-60590492D01*
X86515458Y-60590487D01*
X85636819Y-59711848D01*
X85603334Y-59650525D01*
X85600500Y-59624167D01*
X85600500Y-58860439D01*
X85588456Y-58815492D01*
X85580021Y-58784011D01*
X85580017Y-58784004D01*
X85540464Y-58715495D01*
X85540458Y-58715487D01*
X83384512Y-56559541D01*
X83384507Y-56559537D01*
X83360907Y-56545912D01*
X83360907Y-56545911D01*
X83360905Y-56545911D01*
X83315994Y-56519981D01*
X83315993Y-56519980D01*
X83305823Y-56517255D01*
X83239562Y-56499500D01*
X83239560Y-56499500D01*
X80999505Y-56499500D01*
X80932466Y-56479815D01*
X80886711Y-56427011D01*
X80876767Y-56357853D01*
X80879730Y-56343407D01*
X80881495Y-56336819D01*
X80900500Y-56265892D01*
X80900500Y-56134108D01*
X80866392Y-56006814D01*
X80800500Y-55892686D01*
X80707314Y-55799500D01*
X80633292Y-55756763D01*
X80593187Y-55733608D01*
X80529539Y-55716554D01*
X80465892Y-55699500D01*
X80334108Y-55699500D01*
X80206814Y-55733608D01*
X80206813Y-55733608D01*
X80195233Y-55740294D01*
X80127332Y-55756763D01*
X80061306Y-55733909D01*
X80045556Y-55720585D01*
X79236819Y-54911848D01*
X79222115Y-54884920D01*
X79205523Y-54859102D01*
X79204631Y-54852901D01*
X79203334Y-54850525D01*
X79200500Y-54824167D01*
X79200500Y-54768648D01*
X79217113Y-54706648D01*
X79239846Y-54667273D01*
X79245168Y-54658055D01*
X79255021Y-54640989D01*
X79255023Y-54640980D01*
X79256954Y-54636321D01*
X79300793Y-54581915D01*
X79367087Y-54559848D01*
X79421602Y-54570334D01*
X79455009Y-54585085D01*
X79480135Y-54588000D01*
X79769864Y-54587999D01*
X79793780Y-54585225D01*
X79862639Y-54597054D01*
X79895747Y-54620718D01*
X81059540Y-55784511D01*
X81115489Y-55840460D01*
X81115491Y-55840461D01*
X81115495Y-55840464D01*
X81161553Y-55867055D01*
X81184011Y-55880021D01*
X81260438Y-55900500D01*
X83124167Y-55900500D01*
X83191206Y-55920185D01*
X83211848Y-55936819D01*
X84559540Y-57284511D01*
X84615489Y-57340460D01*
X84615491Y-57340461D01*
X84615495Y-57340464D01*
X84684004Y-57380017D01*
X84684007Y-57380019D01*
X84684011Y-57380021D01*
X84760438Y-57400500D01*
X84760440Y-57400500D01*
X88139560Y-57400500D01*
X88139562Y-57400500D01*
X88215989Y-57380021D01*
X88284511Y-57340460D01*
X88284513Y-57340458D01*
X88288153Y-57336819D01*
X88349476Y-57303334D01*
X88375834Y-57300500D01*
X88465890Y-57300500D01*
X88465892Y-57300500D01*
X88593186Y-57266392D01*
X88707314Y-57200500D01*
X88800500Y-57107314D01*
X88866392Y-56993186D01*
X88900500Y-56865892D01*
X88900500Y-56734108D01*
X88866392Y-56606814D01*
X88800500Y-56492686D01*
X88707314Y-56399500D01*
X88650250Y-56366554D01*
X88593187Y-56333608D01*
X88529539Y-56316554D01*
X88465892Y-56299500D01*
X88334108Y-56299500D01*
X88206812Y-56333608D01*
X88092686Y-56399500D01*
X88092683Y-56399502D01*
X87999502Y-56492683D01*
X87999500Y-56492686D01*
X87933608Y-56606812D01*
X87918058Y-56664844D01*
X87908863Y-56699167D01*
X87906605Y-56707593D01*
X87870240Y-56767254D01*
X87807393Y-56797783D01*
X87786830Y-56799500D01*
X84975833Y-56799500D01*
X84908794Y-56779815D01*
X84888152Y-56763181D01*
X83484512Y-55359541D01*
X83484511Y-55359540D01*
X83451399Y-55340423D01*
X83451397Y-55340422D01*
X83451396Y-55340420D01*
X83415994Y-55319981D01*
X83415991Y-55319979D01*
X83373321Y-55308546D01*
X83339562Y-55299500D01*
X83339560Y-55299500D01*
X81475833Y-55299500D01*
X81408794Y-55279815D01*
X81388152Y-55263181D01*
X80084512Y-53959541D01*
X80078060Y-53954590D01*
X80079429Y-53952805D01*
X80039276Y-53910682D01*
X80025499Y-53853877D01*
X80025499Y-52967643D01*
X80025499Y-52967636D01*
X80023419Y-52949697D01*
X80022586Y-52942512D01*
X80022585Y-52942510D01*
X80022585Y-52942509D01*
X79977206Y-52839735D01*
X79897765Y-52760294D01*
X79867544Y-52746950D01*
X79794992Y-52714915D01*
X79769865Y-52712000D01*
X79480143Y-52712000D01*
X79480117Y-52712002D01*
X79455013Y-52714913D01*
X79387021Y-52744934D01*
X79352238Y-52760293D01*
X79350086Y-52761243D01*
X79280807Y-52770314D01*
X79249914Y-52761243D01*
X79247765Y-52760294D01*
X79144991Y-52714915D01*
X79119865Y-52712000D01*
X78830143Y-52712000D01*
X78830117Y-52712002D01*
X78805013Y-52714913D01*
X78737021Y-52744934D01*
X78702238Y-52760293D01*
X78700086Y-52761243D01*
X78630807Y-52770314D01*
X78599914Y-52761243D01*
X78597765Y-52760294D01*
X78494991Y-52714915D01*
X78469865Y-52712000D01*
X78180143Y-52712000D01*
X78180117Y-52712002D01*
X78155013Y-52714913D01*
X78087021Y-52744934D01*
X78052238Y-52760293D01*
X78050086Y-52761243D01*
X77980807Y-52770314D01*
X77949914Y-52761243D01*
X77947765Y-52760294D01*
X77844991Y-52714915D01*
X77819865Y-52712000D01*
X77530143Y-52712000D01*
X77530117Y-52712002D01*
X77505012Y-52714913D01*
X77505008Y-52714915D01*
X77402235Y-52760293D01*
X77322794Y-52839734D01*
X77277415Y-52942506D01*
X77277415Y-52942508D01*
X77274500Y-52967631D01*
X77274500Y-54332356D01*
X77274502Y-54332382D01*
X77277413Y-54357487D01*
X77277415Y-54357491D01*
X77322793Y-54460264D01*
X77322794Y-54460265D01*
X77402235Y-54539706D01*
X77505009Y-54585085D01*
X77530135Y-54588000D01*
X77819864Y-54587999D01*
X77819879Y-54587997D01*
X77819882Y-54587997D01*
X77844987Y-54585086D01*
X77844987Y-54585085D01*
X77844991Y-54585085D01*
X77922821Y-54550719D01*
X77992096Y-54541648D01*
X78055281Y-54571471D01*
X78064221Y-54580265D01*
X78073464Y-54590326D01*
X78084540Y-54609511D01*
X78165042Y-54690013D01*
X78166816Y-54691944D01*
X78181133Y-54721028D01*
X78196666Y-54749475D01*
X78197093Y-54753451D01*
X78197674Y-54754631D01*
X78197440Y-54756676D01*
X78199500Y-54775833D01*
X78199500Y-55239562D01*
X78219978Y-55315987D01*
X78222284Y-55319981D01*
X78222287Y-55319987D01*
X78259537Y-55384507D01*
X78259539Y-55384510D01*
X78259540Y-55384511D01*
X79915489Y-57040460D01*
X79984012Y-57080022D01*
X80060438Y-57100500D01*
X80139562Y-57100500D01*
X83024167Y-57100500D01*
X83091206Y-57120185D01*
X83111848Y-57136819D01*
X84963181Y-58988152D01*
X84996666Y-59049475D01*
X84999500Y-59075833D01*
X84999500Y-59839562D01*
X85011410Y-59884009D01*
X85019979Y-59915990D01*
X85019982Y-59915995D01*
X85059535Y-59984504D01*
X85059541Y-59984512D01*
X85783950Y-60708921D01*
X85817435Y-60770244D01*
X85812451Y-60839936D01*
X85807670Y-60851061D01*
X85784426Y-60898606D01*
X85784426Y-60898607D01*
X85774500Y-60966739D01*
X85774500Y-62676000D01*
X85771949Y-62684685D01*
X85773238Y-62693647D01*
X85762259Y-62717687D01*
X85754815Y-62743039D01*
X85747974Y-62748966D01*
X85744213Y-62757203D01*
X85721978Y-62771492D01*
X85702011Y-62788794D01*
X85691496Y-62791081D01*
X85685435Y-62794977D01*
X85650500Y-62800000D01*
X85629500Y-62800000D01*
X85562461Y-62780315D01*
X85516706Y-62727511D01*
X85505500Y-62676000D01*
X85505500Y-60966739D01*
X85498235Y-60916878D01*
X85495573Y-60898607D01*
X85444198Y-60793517D01*
X85444196Y-60793515D01*
X85444196Y-60793514D01*
X85361485Y-60710803D01*
X85339994Y-60700297D01*
X85256393Y-60659427D01*
X85256391Y-60659426D01*
X85188261Y-60649500D01*
X85188260Y-60649500D01*
X84821740Y-60649500D01*
X84791690Y-60653878D01*
X84754762Y-60659258D01*
X84685585Y-60649443D01*
X84649205Y-60624234D01*
X84436819Y-60411848D01*
X84403334Y-60350525D01*
X84400500Y-60324167D01*
X84400500Y-58960439D01*
X84400500Y-58960438D01*
X84394906Y-58939562D01*
X84391146Y-58925529D01*
X84380023Y-58884015D01*
X84380022Y-58884013D01*
X84380022Y-58884012D01*
X84340460Y-58815489D01*
X83284511Y-57759540D01*
X83284510Y-57759539D01*
X83262053Y-57746574D01*
X83239595Y-57733608D01*
X83234604Y-57730726D01*
X83215990Y-57719979D01*
X83215991Y-57719979D01*
X83177775Y-57709739D01*
X83139562Y-57699500D01*
X83139560Y-57699500D01*
X79975833Y-57699500D01*
X79908794Y-57679815D01*
X79888152Y-57663181D01*
X79584512Y-57359541D01*
X79584507Y-57359537D01*
X79551462Y-57340459D01*
X79551462Y-57340458D01*
X79551460Y-57340458D01*
X79539083Y-57333312D01*
X79515990Y-57319979D01*
X79515991Y-57319979D01*
X79477775Y-57309739D01*
X79439562Y-57299500D01*
X77960438Y-57299500D01*
X77929867Y-57307691D01*
X77884008Y-57319979D01*
X77884007Y-57319980D01*
X77848538Y-57340459D01*
X77815492Y-57359537D01*
X77815487Y-57359541D01*
X77459541Y-57715487D01*
X77459537Y-57715492D01*
X77447104Y-57737027D01*
X77396536Y-57785242D01*
X77327928Y-57798463D01*
X77277718Y-57782412D01*
X77193189Y-57733609D01*
X77193186Y-57733608D01*
X77065892Y-57699500D01*
X76934108Y-57699500D01*
X76806812Y-57733608D01*
X76692686Y-57799500D01*
X76692683Y-57799502D01*
X76599502Y-57892683D01*
X76599500Y-57892686D01*
X76533608Y-58006812D01*
X76499500Y-58134108D01*
X76499500Y-58265891D01*
X76503524Y-58280910D01*
X76501859Y-58350759D01*
X76462695Y-58408621D01*
X76398466Y-58436123D01*
X76383749Y-58437000D01*
X76230144Y-58437000D01*
X76230117Y-58437002D01*
X76205013Y-58439913D01*
X76199449Y-58442370D01*
X76161682Y-58459045D01*
X76092407Y-58468116D01*
X76029222Y-58438292D01*
X76004212Y-58407611D01*
X75965460Y-58340489D01*
X75909511Y-58284540D01*
X75584511Y-57959540D01*
X75551863Y-57940691D01*
X75551863Y-57940690D01*
X75551859Y-57940689D01*
X75539343Y-57933462D01*
X75515990Y-57919979D01*
X75515991Y-57919979D01*
X75477775Y-57909739D01*
X75439562Y-57899500D01*
X75439560Y-57899500D01*
X74075833Y-57899500D01*
X74008794Y-57879815D01*
X73988152Y-57863181D01*
X72911819Y-56786848D01*
X72878334Y-56725525D01*
X72875500Y-56699167D01*
X72875500Y-56266506D01*
X72859720Y-56166878D01*
X72859719Y-56166876D01*
X72859719Y-56166874D01*
X72798528Y-56046780D01*
X72798526Y-56046778D01*
X72798523Y-56046774D01*
X72703225Y-55951476D01*
X72703222Y-55951474D01*
X72703220Y-55951472D01*
X72583126Y-55890281D01*
X72583124Y-55890280D01*
X72574431Y-55885851D01*
X72575416Y-55883916D01*
X72565771Y-55877318D01*
X72543297Y-55867055D01*
X72537438Y-55857939D01*
X72528494Y-55851821D01*
X72518879Y-55829060D01*
X72505523Y-55808277D01*
X72503161Y-55791849D01*
X72501306Y-55787458D01*
X72500500Y-55773342D01*
X72500500Y-55632359D01*
X72520185Y-55565320D01*
X72572989Y-55519565D01*
X72591157Y-55514089D01*
X72591019Y-55513663D01*
X72600300Y-55510647D01*
X72600301Y-55510646D01*
X72600304Y-55510646D01*
X72713342Y-55453050D01*
X72803050Y-55363342D01*
X72860646Y-55250304D01*
X72860646Y-55250302D01*
X72860647Y-55250301D01*
X72875499Y-55156524D01*
X72875500Y-55156519D01*
X72875499Y-54693482D01*
X72860646Y-54599696D01*
X72803050Y-54486658D01*
X72803046Y-54486654D01*
X72803045Y-54486652D01*
X72713347Y-54396954D01*
X72713344Y-54396952D01*
X72713342Y-54396950D01*
X72635892Y-54357487D01*
X72600301Y-54339352D01*
X72506524Y-54324500D01*
X71893482Y-54324500D01*
X71812519Y-54337323D01*
X71799696Y-54339354D01*
X71686658Y-54396950D01*
X71686657Y-54396951D01*
X71686652Y-54396954D01*
X71596954Y-54486652D01*
X71596951Y-54486657D01*
X71596950Y-54486658D01*
X71561212Y-54556796D01*
X71550764Y-54567859D01*
X71544442Y-54581703D01*
X71527261Y-54592744D01*
X71513239Y-54607591D01*
X71497559Y-54611832D01*
X71485664Y-54619477D01*
X71450729Y-54624500D01*
X71374500Y-54624500D01*
X71307461Y-54604815D01*
X71261706Y-54552011D01*
X71250500Y-54500500D01*
X71250500Y-53616255D01*
X71270185Y-53549216D01*
X71322989Y-53503461D01*
X71392147Y-53493517D01*
X71455703Y-53522542D01*
X71462167Y-53528560D01*
X71498908Y-53565301D01*
X71531121Y-53597514D01*
X71553923Y-53628899D01*
X71596950Y-53713343D01*
X71686652Y-53803045D01*
X71686654Y-53803046D01*
X71686658Y-53803050D01*
X71799694Y-53860645D01*
X71799698Y-53860647D01*
X71893475Y-53875499D01*
X71893481Y-53875500D01*
X72506518Y-53875499D01*
X72600304Y-53860646D01*
X72713342Y-53803050D01*
X72803050Y-53713342D01*
X72860646Y-53600304D01*
X72860646Y-53600302D01*
X72860647Y-53600301D01*
X72875499Y-53506524D01*
X72875500Y-53506519D01*
X72875499Y-53043482D01*
X72860646Y-52949696D01*
X72803050Y-52836658D01*
X72803046Y-52836654D01*
X72803045Y-52836652D01*
X72713347Y-52746954D01*
X72713344Y-52746952D01*
X72713342Y-52746950D01*
X72622197Y-52700509D01*
X72600301Y-52689352D01*
X72506524Y-52674500D01*
X71983204Y-52674500D01*
X71957614Y-52666986D01*
X71931228Y-52663081D01*
X71924603Y-52657292D01*
X71916165Y-52654815D01*
X71898701Y-52634661D01*
X71878613Y-52617109D01*
X71873581Y-52605670D01*
X71870410Y-52602011D01*
X71864084Y-52584944D01*
X71863745Y-52583771D01*
X71859577Y-52568216D01*
X71858915Y-52567071D01*
X71856566Y-52558944D01*
X71856682Y-52530637D01*
X71853655Y-52502488D01*
X71856824Y-52496155D01*
X71856854Y-52489075D01*
X71872257Y-52465322D01*
X71884928Y-52440008D01*
X71891016Y-52436395D01*
X71894870Y-52430453D01*
X71920672Y-52418797D01*
X71945015Y-52404353D01*
X71955590Y-52403024D01*
X71958545Y-52401690D01*
X71962065Y-52402211D01*
X71975686Y-52400500D01*
X72924167Y-52400500D01*
X72991206Y-52420185D01*
X73011848Y-52436819D01*
X73360271Y-52785242D01*
X73393756Y-52846565D01*
X73388772Y-52916257D01*
X73386028Y-52923001D01*
X73377416Y-52942508D01*
X73377415Y-52942510D01*
X73374500Y-52967631D01*
X73374500Y-54332356D01*
X73374502Y-54332382D01*
X73377413Y-54357487D01*
X73377415Y-54357491D01*
X73422793Y-54460264D01*
X73422794Y-54460265D01*
X73502235Y-54539706D01*
X73605009Y-54585085D01*
X73630135Y-54588000D01*
X73919864Y-54587999D01*
X73919879Y-54587997D01*
X73919882Y-54587997D01*
X73944987Y-54585086D01*
X73944987Y-54585085D01*
X73944991Y-54585085D01*
X74047765Y-54539706D01*
X74047766Y-54539704D01*
X74049912Y-54538757D01*
X74119190Y-54529685D01*
X74150085Y-54538757D01*
X74251974Y-54583745D01*
X74255009Y-54585085D01*
X74280135Y-54588000D01*
X74569864Y-54587999D01*
X74569879Y-54587997D01*
X74569882Y-54587997D01*
X74594987Y-54585086D01*
X74594987Y-54585085D01*
X74594991Y-54585085D01*
X74697765Y-54539706D01*
X74697766Y-54539704D01*
X74699912Y-54538757D01*
X74769190Y-54529685D01*
X74800085Y-54538757D01*
X74901974Y-54583745D01*
X74905009Y-54585085D01*
X74930135Y-54588000D01*
X75219864Y-54587999D01*
X75219879Y-54587997D01*
X75219882Y-54587997D01*
X75244987Y-54585086D01*
X75244987Y-54585085D01*
X75244991Y-54585085D01*
X75347765Y-54539706D01*
X75347766Y-54539704D01*
X75349912Y-54538757D01*
X75419190Y-54529685D01*
X75450085Y-54538757D01*
X75551974Y-54583745D01*
X75555009Y-54585085D01*
X75580135Y-54588000D01*
X75869864Y-54587999D01*
X75869879Y-54587997D01*
X75869882Y-54587997D01*
X75894987Y-54585086D01*
X75894987Y-54585085D01*
X75894991Y-54585085D01*
X75997765Y-54539706D01*
X75997766Y-54539704D01*
X75999912Y-54538757D01*
X76069190Y-54529685D01*
X76100085Y-54538757D01*
X76201974Y-54583745D01*
X76205009Y-54585085D01*
X76230135Y-54588000D01*
X76519864Y-54587999D01*
X76519879Y-54587997D01*
X76519882Y-54587997D01*
X76544987Y-54585086D01*
X76544988Y-54585085D01*
X76544991Y-54585085D01*
X76647765Y-54539706D01*
X76727206Y-54460265D01*
X76772585Y-54357491D01*
X76775500Y-54332365D01*
X76775500Y-53651393D01*
X76775500Y-52747273D01*
X76762967Y-52700500D01*
X76748207Y-52645412D01*
X76695480Y-52554087D01*
X76508646Y-52367253D01*
X76475161Y-52305930D01*
X76480145Y-52236238D01*
X76496009Y-52206686D01*
X76498521Y-52203226D01*
X76498528Y-52203220D01*
X76559719Y-52083126D01*
X76561534Y-52071666D01*
X76575500Y-51983493D01*
X76575500Y-51416506D01*
X76559720Y-51316878D01*
X76559719Y-51316876D01*
X76559719Y-51316874D01*
X76498528Y-51196780D01*
X76498526Y-51196778D01*
X76498523Y-51196774D01*
X76403225Y-51101476D01*
X76403222Y-51101474D01*
X76403220Y-51101472D01*
X76361658Y-51080295D01*
X76310863Y-51032321D01*
X76293954Y-50969811D01*
X76293954Y-50953486D01*
X76300500Y-50929057D01*
X76300500Y-50770943D01*
X76293954Y-50746513D01*
X76293954Y-50730188D01*
X76299383Y-50711698D01*
X76299842Y-50692431D01*
X76309024Y-50678864D01*
X76313639Y-50663149D01*
X76328201Y-50650530D01*
X76339005Y-50634569D01*
X76361653Y-50619707D01*
X76403220Y-50598528D01*
X76498528Y-50503220D01*
X76559719Y-50383126D01*
X76566652Y-50339354D01*
X76575500Y-50283493D01*
X76575500Y-49716506D01*
X76559720Y-49616878D01*
X76559719Y-49616876D01*
X76559719Y-49616874D01*
X76557492Y-49612504D01*
X76544597Y-49543838D01*
X76570873Y-49479098D01*
X76627979Y-49438840D01*
X76697785Y-49435848D01*
X76729976Y-49448824D01*
X76784011Y-49480021D01*
X76860438Y-49500500D01*
X78024167Y-49500500D01*
X78091206Y-49520185D01*
X78111848Y-49536819D01*
X78659540Y-50084511D01*
X78715489Y-50140460D01*
X78715491Y-50140461D01*
X78715495Y-50140464D01*
X78755051Y-50163301D01*
X78784011Y-50180021D01*
X78860438Y-50200500D01*
X78860440Y-50200500D01*
X80289560Y-50200500D01*
X80289562Y-50200500D01*
X80365989Y-50180021D01*
X80434511Y-50140460D01*
X80490460Y-50084511D01*
X80740460Y-49834511D01*
X80757751Y-49804562D01*
X80780021Y-49765989D01*
X80800500Y-49689562D01*
X80800500Y-49661663D01*
X80806397Y-49643232D01*
X80815574Y-49629679D01*
X80820185Y-49613978D01*
X80821398Y-49612126D01*
X80830106Y-49599093D01*
X80834515Y-49592495D01*
X80834515Y-49592493D01*
X80834516Y-49592493D01*
X80850499Y-49512137D01*
X80850500Y-49512133D01*
X80850499Y-49057868D01*
X80834515Y-48977505D01*
X80828758Y-48968890D01*
X80825721Y-48959191D01*
X80819066Y-48951510D01*
X80815457Y-48926410D01*
X80807881Y-48902214D01*
X80810569Y-48892413D01*
X80809123Y-48882351D01*
X80823927Y-48843718D01*
X80826365Y-48834833D01*
X80827840Y-48833507D01*
X80828760Y-48831107D01*
X80834515Y-48822495D01*
X80835307Y-48818516D01*
X80850499Y-48742137D01*
X80850500Y-48742133D01*
X80850499Y-48287868D01*
X80834515Y-48207505D01*
X80834514Y-48207503D01*
X80834513Y-48207501D01*
X80821398Y-48187873D01*
X80818361Y-48178174D01*
X80811705Y-48170493D01*
X80802031Y-48126021D01*
X80800520Y-48121195D01*
X80800777Y-48120256D01*
X80800500Y-48118982D01*
X80800500Y-48110439D01*
X80800312Y-48109737D01*
X80780021Y-48034011D01*
X80775980Y-48027011D01*
X80740464Y-47965495D01*
X80740458Y-47965487D01*
X80736819Y-47961848D01*
X80722115Y-47934920D01*
X80705523Y-47909102D01*
X80704631Y-47902901D01*
X80703334Y-47900525D01*
X80700500Y-47874167D01*
X80700500Y-47675833D01*
X80720185Y-47608794D01*
X80736819Y-47588152D01*
X80912319Y-47412652D01*
X80973642Y-47379167D01*
X81043334Y-47384151D01*
X81087681Y-47412652D01*
X81263181Y-47588152D01*
X81296666Y-47649475D01*
X81299500Y-47675833D01*
X81299500Y-47872696D01*
X81279815Y-47939735D01*
X81263181Y-47960377D01*
X81259541Y-47964016D01*
X81259535Y-47964024D01*
X81219982Y-48032533D01*
X81219979Y-48032538D01*
X81199500Y-48108968D01*
X81199500Y-48118983D01*
X81196949Y-48127668D01*
X81198238Y-48136631D01*
X81187259Y-48160669D01*
X81179815Y-48186022D01*
X81178617Y-48187850D01*
X81165487Y-48207503D01*
X81165484Y-48207507D01*
X81165483Y-48207507D01*
X81149500Y-48287862D01*
X81149500Y-48742129D01*
X81165485Y-48822495D01*
X81165485Y-48822496D01*
X81171243Y-48831113D01*
X81174278Y-48840809D01*
X81180933Y-48848489D01*
X81184542Y-48873592D01*
X81192118Y-48897791D01*
X81189429Y-48907588D01*
X81190876Y-48917648D01*
X81180340Y-48940715D01*
X81173631Y-48965171D01*
X81171243Y-48968887D01*
X81165484Y-48977505D01*
X81165483Y-48977507D01*
X81149500Y-49057862D01*
X81149500Y-49512129D01*
X81165485Y-49592496D01*
X81189843Y-49628949D01*
X81200653Y-49648851D01*
X81204196Y-49657089D01*
X81219979Y-49715989D01*
X81253760Y-49774499D01*
X81257400Y-49780804D01*
X81257403Y-49780811D01*
X81259540Y-49784511D01*
X81259541Y-49784513D01*
X81599272Y-50124243D01*
X81632757Y-50185566D01*
X81627773Y-50255257D01*
X81585902Y-50311191D01*
X81530989Y-50334397D01*
X81499700Y-50339352D01*
X81499699Y-50339352D01*
X81456797Y-50361212D01*
X81386658Y-50396950D01*
X81386657Y-50396951D01*
X81386652Y-50396954D01*
X81296954Y-50486652D01*
X81296951Y-50486657D01*
X81239352Y-50599698D01*
X81224500Y-50693475D01*
X81224500Y-51306517D01*
X81235292Y-51374657D01*
X81239354Y-51400304D01*
X81296950Y-51513342D01*
X81296952Y-51513344D01*
X81296954Y-51513347D01*
X81386652Y-51603045D01*
X81386654Y-51603046D01*
X81386658Y-51603050D01*
X81499694Y-51660645D01*
X81499698Y-51660647D01*
X81593475Y-51675499D01*
X81593481Y-51675500D01*
X81975167Y-51675499D01*
X81996413Y-51681737D01*
X82018501Y-51683317D01*
X82029283Y-51691388D01*
X82042206Y-51695183D01*
X82056707Y-51711919D01*
X82074434Y-51725189D01*
X82079140Y-51737807D01*
X82087961Y-51747987D01*
X82091112Y-51769905D01*
X82098851Y-51790653D01*
X82095988Y-51803813D01*
X82097905Y-51817146D01*
X82088705Y-51837288D01*
X82083999Y-51858926D01*
X82070728Y-51876654D01*
X82068880Y-51880701D01*
X82062855Y-51887172D01*
X81980762Y-51969266D01*
X81911846Y-52038182D01*
X81850523Y-52071666D01*
X81824165Y-52074500D01*
X81393482Y-52074500D01*
X81312519Y-52087323D01*
X81299696Y-52089354D01*
X81186658Y-52146950D01*
X81186657Y-52146951D01*
X81186652Y-52146954D01*
X81096954Y-52236652D01*
X81096951Y-52236657D01*
X81039352Y-52349698D01*
X81024500Y-52443475D01*
X81024500Y-52906517D01*
X81034180Y-52967635D01*
X81039354Y-53000304D01*
X81096950Y-53113342D01*
X81096952Y-53113344D01*
X81096954Y-53113347D01*
X81186652Y-53203045D01*
X81186654Y-53203046D01*
X81186658Y-53203050D01*
X81299694Y-53260645D01*
X81299698Y-53260647D01*
X81393475Y-53275499D01*
X81393481Y-53275500D01*
X82006518Y-53275499D01*
X82100304Y-53260646D01*
X82213342Y-53203050D01*
X82303050Y-53113342D01*
X82360646Y-53000304D01*
X82360646Y-53000302D01*
X82360647Y-53000301D01*
X82371282Y-52933147D01*
X82375500Y-52906519D01*
X82375499Y-52476739D01*
X83554500Y-52476739D01*
X83554500Y-53568260D01*
X83564426Y-53636391D01*
X83615803Y-53741485D01*
X83698514Y-53824196D01*
X83698515Y-53824196D01*
X83698517Y-53824198D01*
X83803607Y-53875573D01*
X83837673Y-53880536D01*
X83871739Y-53885500D01*
X83871740Y-53885500D01*
X84238261Y-53885500D01*
X84260971Y-53882191D01*
X84306393Y-53875573D01*
X84411483Y-53824198D01*
X84494198Y-53741483D01*
X84545573Y-53636393D01*
X84549911Y-53606622D01*
X84579055Y-53543121D01*
X84637904Y-53505457D01*
X84672615Y-53500500D01*
X84765890Y-53500500D01*
X84765892Y-53500500D01*
X84893186Y-53466392D01*
X85007314Y-53400500D01*
X85100500Y-53307314D01*
X85166392Y-53193186D01*
X85200500Y-53065892D01*
X85200500Y-52934108D01*
X85166392Y-52806814D01*
X85100500Y-52692686D01*
X85007314Y-52599500D01*
X84937069Y-52558944D01*
X84893187Y-52533608D01*
X84777043Y-52502488D01*
X84765892Y-52499500D01*
X84665128Y-52499500D01*
X84598089Y-52479815D01*
X84552334Y-52427011D01*
X84546655Y-52412109D01*
X84545573Y-52408613D01*
X84545573Y-52408607D01*
X84494198Y-52303517D01*
X84494196Y-52303515D01*
X84494196Y-52303514D01*
X84411485Y-52220803D01*
X84306391Y-52169426D01*
X84238261Y-52159500D01*
X84238260Y-52159500D01*
X83871740Y-52159500D01*
X83871739Y-52159500D01*
X83803608Y-52169426D01*
X83698514Y-52220803D01*
X83615803Y-52303514D01*
X83564426Y-52408608D01*
X83554500Y-52476739D01*
X82375499Y-52476739D01*
X82375499Y-52475832D01*
X82380798Y-52457785D01*
X82380341Y-52454606D01*
X82384190Y-52446175D01*
X82390667Y-52416406D01*
X82394419Y-52411392D01*
X82395183Y-52408794D01*
X82409213Y-52391383D01*
X82409366Y-52391050D01*
X82410232Y-52390119D01*
X82411818Y-52388152D01*
X82605673Y-52194297D01*
X82840460Y-51959511D01*
X82851963Y-51939587D01*
X82880021Y-51890989D01*
X82900500Y-51814562D01*
X82900500Y-50060438D01*
X82880021Y-49984011D01*
X82866622Y-49960803D01*
X82840464Y-49915495D01*
X82840458Y-49915487D01*
X82386818Y-49461847D01*
X82353333Y-49400524D01*
X82350499Y-49374166D01*
X82350499Y-49057870D01*
X82350499Y-49057868D01*
X82334515Y-48977505D01*
X82328758Y-48968890D01*
X82307881Y-48902214D01*
X82326365Y-48834833D01*
X82328731Y-48831149D01*
X82334515Y-48822495D01*
X82335307Y-48818516D01*
X82350499Y-48742137D01*
X82350500Y-48742133D01*
X82350500Y-48593475D01*
X83574500Y-48593475D01*
X83574500Y-49206517D01*
X83584885Y-49272083D01*
X83589354Y-49300304D01*
X83646950Y-49413342D01*
X83646952Y-49413344D01*
X83646954Y-49413347D01*
X83736652Y-49503045D01*
X83736654Y-49503046D01*
X83736658Y-49503050D01*
X83838959Y-49555175D01*
X83849698Y-49560647D01*
X83943475Y-49575499D01*
X83943481Y-49575500D01*
X84180131Y-49575499D01*
X84247170Y-49595183D01*
X84292925Y-49647987D01*
X84299904Y-49667402D01*
X84313233Y-49717145D01*
X84333608Y-49793187D01*
X84357466Y-49834510D01*
X84399500Y-49907314D01*
X84399502Y-49907316D01*
X84488390Y-49996204D01*
X84521875Y-50057527D01*
X84517095Y-50124354D01*
X84517270Y-50124408D01*
X84517038Y-50125157D01*
X84516891Y-50127219D01*
X84515146Y-50131280D01*
X84514425Y-50133611D01*
X84504500Y-50201739D01*
X84504500Y-51293260D01*
X84514426Y-51361391D01*
X84565803Y-51466485D01*
X84648514Y-51549196D01*
X84648515Y-51549196D01*
X84648517Y-51549198D01*
X84753607Y-51600573D01*
X84770594Y-51603048D01*
X84821739Y-51610500D01*
X84821740Y-51610500D01*
X84834167Y-51610500D01*
X84901206Y-51630185D01*
X84921848Y-51646819D01*
X85344540Y-52069511D01*
X85400489Y-52125460D01*
X85400490Y-52125461D01*
X85400492Y-52125462D01*
X85458072Y-52158706D01*
X85506288Y-52209273D01*
X85519511Y-52277880D01*
X85507473Y-52320552D01*
X85464426Y-52408606D01*
X85464426Y-52408607D01*
X85454500Y-52476739D01*
X85454500Y-53568260D01*
X85464426Y-53636391D01*
X85515801Y-53741482D01*
X85515802Y-53741483D01*
X85518178Y-53743859D01*
X85520391Y-53747911D01*
X85521773Y-53749847D01*
X85521539Y-53750013D01*
X85551665Y-53805179D01*
X85554500Y-53831543D01*
X85554500Y-54112576D01*
X85534815Y-54179615D01*
X85482011Y-54225370D01*
X85449900Y-54235049D01*
X85416877Y-54240279D01*
X85296778Y-54301473D01*
X85296774Y-54301476D01*
X85201476Y-54396774D01*
X85201473Y-54396778D01*
X85140279Y-54516878D01*
X85124500Y-54616506D01*
X85124500Y-55183493D01*
X85140279Y-55283121D01*
X85140280Y-55283124D01*
X85140281Y-55283126D01*
X85191940Y-55384512D01*
X85201473Y-55403221D01*
X85201476Y-55403225D01*
X85255880Y-55457629D01*
X85289365Y-55518952D01*
X85284381Y-55588644D01*
X85275587Y-55607309D01*
X85240423Y-55668215D01*
X85240423Y-55668216D01*
X85199500Y-55820943D01*
X85199500Y-55979057D01*
X85219604Y-56054084D01*
X85240423Y-56131783D01*
X85240426Y-56131790D01*
X85319475Y-56268709D01*
X85319479Y-56268714D01*
X85319480Y-56268716D01*
X85431284Y-56380520D01*
X85431286Y-56380521D01*
X85431290Y-56380524D01*
X85552002Y-56450216D01*
X85568216Y-56459577D01*
X85720943Y-56500500D01*
X85720945Y-56500500D01*
X85879055Y-56500500D01*
X85879057Y-56500500D01*
X86031784Y-56459577D01*
X86168716Y-56380520D01*
X86280520Y-56268716D01*
X86359577Y-56131784D01*
X86400500Y-55979057D01*
X86400500Y-55820943D01*
X86359577Y-55668216D01*
X86306112Y-55575611D01*
X86289639Y-55507710D01*
X86312492Y-55441684D01*
X86325813Y-55425934D01*
X86348528Y-55403220D01*
X86409719Y-55283126D01*
X86409720Y-55283121D01*
X86425500Y-55183493D01*
X86425500Y-54616506D01*
X88724500Y-54616506D01*
X88724500Y-55183493D01*
X88740279Y-55283121D01*
X88740280Y-55283124D01*
X88740281Y-55283126D01*
X88791940Y-55384512D01*
X88801473Y-55403221D01*
X88801476Y-55403225D01*
X88855880Y-55457629D01*
X88889365Y-55518952D01*
X88884381Y-55588644D01*
X88875587Y-55607309D01*
X88840423Y-55668215D01*
X88840423Y-55668216D01*
X88799500Y-55820943D01*
X88799500Y-55979057D01*
X88819604Y-56054084D01*
X88840423Y-56131783D01*
X88840423Y-56131784D01*
X88910027Y-56252344D01*
X88910028Y-56252346D01*
X88919480Y-56268716D01*
X89031284Y-56380520D01*
X89031286Y-56380521D01*
X89031290Y-56380524D01*
X89152002Y-56450216D01*
X89168216Y-56459577D01*
X89320943Y-56500500D01*
X89320945Y-56500500D01*
X89479055Y-56500500D01*
X89479057Y-56500500D01*
X89631784Y-56459577D01*
X89768716Y-56380520D01*
X89812417Y-56336819D01*
X89873740Y-56303334D01*
X89900098Y-56300500D01*
X91452725Y-56300500D01*
X91452727Y-56300500D01*
X91554588Y-56273207D01*
X91645913Y-56220480D01*
X92554573Y-55311818D01*
X92615896Y-55278334D01*
X92642254Y-55275500D01*
X93039251Y-55275500D01*
X93137417Y-55259952D01*
X93137418Y-55259951D01*
X93137420Y-55259951D01*
X93255751Y-55199658D01*
X93349658Y-55105751D01*
X93409951Y-54987420D01*
X93409951Y-54987418D01*
X93409952Y-54987417D01*
X93425500Y-54889251D01*
X93425500Y-54310748D01*
X93409952Y-54212582D01*
X93393154Y-54179615D01*
X93349658Y-54094249D01*
X93349654Y-54094245D01*
X93349653Y-54094243D01*
X93255756Y-54000346D01*
X93255753Y-54000344D01*
X93255751Y-54000342D01*
X93137420Y-53940049D01*
X93137419Y-53940048D01*
X93137416Y-53940047D01*
X93137417Y-53940047D01*
X93039251Y-53924500D01*
X93039246Y-53924500D01*
X92535754Y-53924500D01*
X92535749Y-53924500D01*
X92437582Y-53940047D01*
X92359704Y-53979729D01*
X92319249Y-54000342D01*
X92319248Y-54000343D01*
X92319243Y-54000346D01*
X92225346Y-54094243D01*
X92225343Y-54094248D01*
X92225342Y-54094249D01*
X92205244Y-54133692D01*
X92165047Y-54212582D01*
X92149500Y-54310748D01*
X92149500Y-54532745D01*
X92140855Y-54562185D01*
X92134332Y-54592172D01*
X92130577Y-54597187D01*
X92129815Y-54599784D01*
X92113181Y-54620426D01*
X92062181Y-54671426D01*
X92000858Y-54704911D01*
X91931166Y-54699927D01*
X91875233Y-54658055D01*
X91850816Y-54592591D01*
X91850500Y-54583745D01*
X91850500Y-54310748D01*
X91834952Y-54212582D01*
X91818154Y-54179615D01*
X91774658Y-54094249D01*
X91774654Y-54094245D01*
X91774653Y-54094243D01*
X91680756Y-54000346D01*
X91680753Y-54000344D01*
X91680751Y-54000342D01*
X91562420Y-53940049D01*
X91562419Y-53940048D01*
X91562414Y-53940046D01*
X91561173Y-53939643D01*
X91559859Y-53938744D01*
X91553725Y-53935619D01*
X91554129Y-53934825D01*
X91503501Y-53900202D01*
X91476307Y-53835841D01*
X91475500Y-53821715D01*
X91475500Y-53549271D01*
X91495185Y-53482232D01*
X91543203Y-53438787D01*
X91613342Y-53403050D01*
X91703050Y-53313342D01*
X91760646Y-53200304D01*
X91760646Y-53200302D01*
X91760647Y-53200301D01*
X91771282Y-53133147D01*
X91775500Y-53106519D01*
X91775499Y-52493482D01*
X91760646Y-52399696D01*
X91703050Y-52286658D01*
X91703046Y-52286654D01*
X91703045Y-52286652D01*
X91613347Y-52196954D01*
X91613344Y-52196952D01*
X91613342Y-52196950D01*
X91515212Y-52146950D01*
X91500301Y-52139352D01*
X91406524Y-52124500D01*
X90943482Y-52124500D01*
X90862519Y-52137323D01*
X90849696Y-52139354D01*
X90736658Y-52196950D01*
X90736657Y-52196951D01*
X90736652Y-52196954D01*
X90646954Y-52286652D01*
X90646951Y-52286657D01*
X90646950Y-52286658D01*
X90629680Y-52320552D01*
X90589352Y-52399698D01*
X90574500Y-52493475D01*
X90574500Y-53106517D01*
X90585292Y-53174657D01*
X90589354Y-53200304D01*
X90646950Y-53313342D01*
X90646952Y-53313344D01*
X90646954Y-53313347D01*
X90736652Y-53403045D01*
X90736654Y-53403046D01*
X90736658Y-53403050D01*
X90806796Y-53438787D01*
X90857591Y-53486761D01*
X90874500Y-53549271D01*
X90874500Y-53857988D01*
X90854815Y-53925027D01*
X90806796Y-53968472D01*
X90744250Y-54000341D01*
X90744243Y-54000346D01*
X90650346Y-54094243D01*
X90650343Y-54094248D01*
X90650342Y-54094249D01*
X90630244Y-54133692D01*
X90590047Y-54212582D01*
X90574500Y-54310748D01*
X90574500Y-54889251D01*
X90590047Y-54987417D01*
X90590049Y-54987420D01*
X90650342Y-55105751D01*
X90650344Y-55105753D01*
X90650346Y-55105756D01*
X90744243Y-55199653D01*
X90744245Y-55199654D01*
X90744249Y-55199658D01*
X90862580Y-55259951D01*
X90862581Y-55259951D01*
X90871275Y-55264381D01*
X90869708Y-55267454D01*
X90912928Y-55297010D01*
X90940123Y-55361370D01*
X90928206Y-55430216D01*
X90880960Y-55481690D01*
X90816931Y-55499500D01*
X90101820Y-55499500D01*
X90034781Y-55479815D01*
X89989026Y-55427011D01*
X89979082Y-55357853D01*
X89991333Y-55319209D01*
X90009719Y-55283126D01*
X90009720Y-55283121D01*
X90025500Y-55183493D01*
X90025500Y-54616506D01*
X90009720Y-54516876D01*
X89964015Y-54427174D01*
X89950500Y-54370880D01*
X89950500Y-53846543D01*
X89970185Y-53779504D01*
X89986818Y-53758862D01*
X89989198Y-53756483D01*
X90040573Y-53651393D01*
X90050500Y-53583260D01*
X90050500Y-52491740D01*
X90048314Y-52476740D01*
X90042436Y-52436395D01*
X90040573Y-52423607D01*
X89989198Y-52318517D01*
X89989196Y-52318515D01*
X89989196Y-52318514D01*
X89906485Y-52235803D01*
X89906012Y-52235572D01*
X89813863Y-52190523D01*
X89801391Y-52184426D01*
X89733261Y-52174500D01*
X89733260Y-52174500D01*
X89366740Y-52174500D01*
X89366739Y-52174500D01*
X89298608Y-52184426D01*
X89203384Y-52230978D01*
X89203383Y-52230978D01*
X89193517Y-52235802D01*
X89110802Y-52318517D01*
X89094617Y-52351623D01*
X89094614Y-52351627D01*
X89059426Y-52423606D01*
X89059426Y-52423607D01*
X89049500Y-52491739D01*
X89049500Y-53583260D01*
X89059426Y-53651391D01*
X89110801Y-53756482D01*
X89110802Y-53756483D01*
X89113178Y-53758859D01*
X89115391Y-53762911D01*
X89116773Y-53764847D01*
X89116539Y-53765013D01*
X89146665Y-53820179D01*
X89149500Y-53846543D01*
X89149500Y-54113368D01*
X89129815Y-54180407D01*
X89077011Y-54226162D01*
X89044900Y-54235841D01*
X89016877Y-54240279D01*
X88896778Y-54301473D01*
X88896774Y-54301476D01*
X88801476Y-54396774D01*
X88801473Y-54396778D01*
X88740279Y-54516878D01*
X88724500Y-54616506D01*
X86425500Y-54616506D01*
X86409720Y-54516876D01*
X86369015Y-54436987D01*
X86355500Y-54380693D01*
X86355500Y-53831543D01*
X86375185Y-53764504D01*
X86391818Y-53743862D01*
X86394198Y-53741483D01*
X86445573Y-53636393D01*
X86455500Y-53568260D01*
X86455500Y-52476740D01*
X86453836Y-52465322D01*
X86445573Y-52408607D01*
X86423747Y-52363961D01*
X86423461Y-52362290D01*
X86422353Y-52361011D01*
X86417605Y-52327991D01*
X86411987Y-52295088D01*
X86412649Y-52293528D01*
X86412409Y-52291853D01*
X86426266Y-52261509D01*
X86439330Y-52230790D01*
X86440730Y-52229836D01*
X86441434Y-52228297D01*
X86469504Y-52210257D01*
X86497095Y-52191483D01*
X86499243Y-52191145D01*
X86500212Y-52190523D01*
X86535147Y-52185500D01*
X86729167Y-52185500D01*
X86796206Y-52205185D01*
X86816848Y-52221819D01*
X87113181Y-52518152D01*
X87146666Y-52579475D01*
X87149500Y-52605833D01*
X87149500Y-53583260D01*
X87159426Y-53651391D01*
X87210803Y-53756485D01*
X87293514Y-53839196D01*
X87293515Y-53839196D01*
X87293517Y-53839198D01*
X87398607Y-53890573D01*
X87432673Y-53895536D01*
X87466739Y-53900500D01*
X87466740Y-53900500D01*
X87833261Y-53900500D01*
X87855971Y-53897191D01*
X87901393Y-53890573D01*
X88006483Y-53839198D01*
X88089198Y-53756483D01*
X88140573Y-53651393D01*
X88150500Y-53583260D01*
X88150500Y-52491740D01*
X88148314Y-52476740D01*
X88140573Y-52423607D01*
X88140572Y-52423604D01*
X88096872Y-52334213D01*
X88096870Y-52334211D01*
X88089198Y-52318517D01*
X88006483Y-52235802D01*
X87909756Y-52188515D01*
X87901391Y-52184426D01*
X87833261Y-52174500D01*
X87833260Y-52174500D01*
X87670833Y-52174500D01*
X87603794Y-52154815D01*
X87583152Y-52138181D01*
X87113043Y-51668072D01*
X87079558Y-51606749D01*
X87084542Y-51537057D01*
X87096951Y-51514649D01*
X87096436Y-51514352D01*
X87100498Y-51507315D01*
X87100500Y-51507314D01*
X87166392Y-51393186D01*
X87200500Y-51265892D01*
X87200500Y-51134108D01*
X87166392Y-51006814D01*
X87100500Y-50892686D01*
X87007314Y-50799500D01*
X86938070Y-50759522D01*
X86893187Y-50733608D01*
X86811416Y-50711698D01*
X86765892Y-50699500D01*
X86634108Y-50699500D01*
X86611592Y-50705532D01*
X86541743Y-50703870D01*
X86483880Y-50664707D01*
X86456377Y-50600478D01*
X86455500Y-50585758D01*
X86455500Y-50216739D01*
X88099500Y-50216739D01*
X88099500Y-51308260D01*
X88109426Y-51376391D01*
X88150843Y-51461112D01*
X88162601Y-51529986D01*
X88146833Y-51577566D01*
X88138609Y-51591811D01*
X88138608Y-51591814D01*
X88104500Y-51719108D01*
X88104500Y-51850892D01*
X88136220Y-51969275D01*
X88138609Y-51978188D01*
X88138609Y-51978189D01*
X88193194Y-52072733D01*
X88193196Y-52072735D01*
X88204500Y-52092314D01*
X88297686Y-52185500D01*
X88411814Y-52251392D01*
X88539108Y-52285500D01*
X88539110Y-52285500D01*
X88670890Y-52285500D01*
X88670892Y-52285500D01*
X88798186Y-52251392D01*
X88912314Y-52185500D01*
X89005500Y-52092314D01*
X89071392Y-51978186D01*
X89105500Y-51850892D01*
X89105500Y-51719813D01*
X89125185Y-51652774D01*
X89177989Y-51607019D01*
X89247147Y-51597075D01*
X89283958Y-51608412D01*
X89298607Y-51615573D01*
X89332673Y-51620536D01*
X89366739Y-51625500D01*
X89366740Y-51625500D01*
X89733261Y-51625500D01*
X89755971Y-51622191D01*
X89801393Y-51615573D01*
X89906483Y-51564198D01*
X89989198Y-51481483D01*
X90040573Y-51376393D01*
X90050500Y-51308260D01*
X90050500Y-50216740D01*
X90048314Y-50201740D01*
X90040573Y-50148608D01*
X90036589Y-50140458D01*
X89989198Y-50043517D01*
X89989196Y-50043515D01*
X89989196Y-50043514D01*
X89906485Y-49960803D01*
X89801391Y-49909426D01*
X89733261Y-49899500D01*
X89733260Y-49899500D01*
X89366740Y-49899500D01*
X89366739Y-49899500D01*
X89298608Y-49909426D01*
X89193514Y-49960803D01*
X89162681Y-49991637D01*
X89101358Y-50025122D01*
X89031666Y-50020138D01*
X88987319Y-49991637D01*
X88956485Y-49960803D01*
X88851391Y-49909426D01*
X88783261Y-49899500D01*
X88783260Y-49899500D01*
X88416740Y-49899500D01*
X88416739Y-49899500D01*
X88348608Y-49909426D01*
X88243514Y-49960803D01*
X88160803Y-50043514D01*
X88109426Y-50148608D01*
X88099500Y-50216739D01*
X86455500Y-50216739D01*
X86455500Y-50201739D01*
X86445573Y-50133607D01*
X86430539Y-50102854D01*
X86418779Y-50033981D01*
X86446123Y-49969683D01*
X86454249Y-49960721D01*
X87043463Y-49371506D01*
X87104784Y-49338023D01*
X87174475Y-49343007D01*
X87230409Y-49384878D01*
X87241625Y-49402892D01*
X87246044Y-49411563D01*
X87246949Y-49413340D01*
X87246954Y-49413347D01*
X87336652Y-49503045D01*
X87336654Y-49503046D01*
X87336658Y-49503050D01*
X87438959Y-49555175D01*
X87449698Y-49560647D01*
X87543475Y-49575499D01*
X87543481Y-49575500D01*
X88006518Y-49575499D01*
X88100304Y-49560646D01*
X88213342Y-49503050D01*
X88303050Y-49413342D01*
X88360646Y-49300304D01*
X88360646Y-49300302D01*
X88360647Y-49300301D01*
X88375499Y-49206524D01*
X88375500Y-49206519D01*
X88375499Y-48941252D01*
X88395183Y-48874215D01*
X88447987Y-48828460D01*
X88517146Y-48818516D01*
X88580701Y-48847541D01*
X88587180Y-48853573D01*
X88788181Y-49054574D01*
X88821666Y-49115897D01*
X88824500Y-49142253D01*
X88824500Y-49206516D01*
X88834350Y-49268709D01*
X88839354Y-49300304D01*
X88896950Y-49413342D01*
X88896952Y-49413344D01*
X88896954Y-49413347D01*
X88986652Y-49503045D01*
X88986654Y-49503046D01*
X88986658Y-49503050D01*
X89088959Y-49555175D01*
X89099698Y-49560647D01*
X89193475Y-49575499D01*
X89193481Y-49575500D01*
X89656518Y-49575499D01*
X89750304Y-49560646D01*
X89863342Y-49503050D01*
X89953050Y-49413342D01*
X90010646Y-49300304D01*
X90010646Y-49300302D01*
X90010647Y-49300301D01*
X90025499Y-49206524D01*
X90025500Y-49206519D01*
X90025499Y-48593482D01*
X90010646Y-48499696D01*
X89953050Y-48386658D01*
X89953046Y-48386654D01*
X89953045Y-48386652D01*
X89931178Y-48364785D01*
X89920309Y-48344881D01*
X89905611Y-48327610D01*
X89903885Y-48314803D01*
X89897693Y-48303462D01*
X89899310Y-48280841D01*
X89896283Y-48258366D01*
X89902103Y-48241787D01*
X89902677Y-48233770D01*
X89906527Y-48224591D01*
X89908788Y-48219752D01*
X89958235Y-48134108D01*
X90499500Y-48134108D01*
X90499500Y-48265892D01*
X90505389Y-48287870D01*
X90533608Y-48393187D01*
X90553588Y-48427792D01*
X90599500Y-48507314D01*
X90599502Y-48507316D01*
X90632724Y-48540538D01*
X90666209Y-48601861D01*
X90661225Y-48671553D01*
X90653940Y-48685129D01*
X90654773Y-48685554D01*
X90650343Y-48694247D01*
X90650342Y-48694249D01*
X90647157Y-48700500D01*
X90590047Y-48812582D01*
X90574500Y-48910748D01*
X90574500Y-49489251D01*
X90590047Y-49587417D01*
X90603581Y-49613978D01*
X90650342Y-49705751D01*
X90650344Y-49705753D01*
X90650346Y-49705756D01*
X90744243Y-49799653D01*
X90744247Y-49799656D01*
X90744249Y-49799658D01*
X90806797Y-49831528D01*
X90857591Y-49879500D01*
X90874500Y-49942011D01*
X90874500Y-50250728D01*
X90854815Y-50317767D01*
X90806796Y-50361212D01*
X90736659Y-50396949D01*
X90736652Y-50396954D01*
X90646954Y-50486652D01*
X90646951Y-50486657D01*
X90589352Y-50599698D01*
X90574500Y-50693475D01*
X90574500Y-51306517D01*
X90585292Y-51374657D01*
X90589354Y-51400304D01*
X90646950Y-51513342D01*
X90646952Y-51513344D01*
X90646954Y-51513347D01*
X90736652Y-51603045D01*
X90736654Y-51603046D01*
X90736658Y-51603050D01*
X90849694Y-51660645D01*
X90849698Y-51660647D01*
X90943475Y-51675499D01*
X90943481Y-51675500D01*
X91406518Y-51675499D01*
X91500304Y-51660646D01*
X91613342Y-51603050D01*
X91703050Y-51513342D01*
X91760646Y-51400304D01*
X91760646Y-51400302D01*
X91760647Y-51400301D01*
X91775499Y-51306524D01*
X91775500Y-51306519D01*
X91775499Y-50693482D01*
X91760646Y-50599696D01*
X91703050Y-50486658D01*
X91703046Y-50486654D01*
X91703045Y-50486652D01*
X91613347Y-50396954D01*
X91613343Y-50396951D01*
X91613342Y-50396950D01*
X91611582Y-50396053D01*
X91543204Y-50361212D01*
X91492408Y-50313237D01*
X91475500Y-50250728D01*
X91475500Y-49978284D01*
X91495185Y-49911245D01*
X91547989Y-49865490D01*
X91561180Y-49860354D01*
X91562414Y-49859952D01*
X91562414Y-49859951D01*
X91562420Y-49859951D01*
X91680751Y-49799658D01*
X91774658Y-49705751D01*
X91834951Y-49587420D01*
X91834951Y-49587418D01*
X91834952Y-49587417D01*
X91850500Y-49489251D01*
X91850500Y-48987333D01*
X91856738Y-48966087D01*
X91858318Y-48943999D01*
X91866390Y-48933215D01*
X91870185Y-48920294D01*
X91886918Y-48905794D01*
X91900190Y-48888066D01*
X91912810Y-48883358D01*
X91922989Y-48874539D01*
X91944906Y-48871387D01*
X91965654Y-48863649D01*
X91978814Y-48866511D01*
X91992147Y-48864595D01*
X92012290Y-48873794D01*
X92033927Y-48878501D01*
X92051652Y-48891769D01*
X92055703Y-48893620D01*
X92062181Y-48899652D01*
X92113181Y-48950652D01*
X92146666Y-49011975D01*
X92149500Y-49038333D01*
X92149500Y-49489251D01*
X92165047Y-49587417D01*
X92178581Y-49613978D01*
X92225342Y-49705751D01*
X92225344Y-49705753D01*
X92225346Y-49705756D01*
X92319243Y-49799653D01*
X92319245Y-49799654D01*
X92319249Y-49799658D01*
X92437580Y-49859951D01*
X92437581Y-49859951D01*
X92437583Y-49859952D01*
X92437582Y-49859952D01*
X92535749Y-49875500D01*
X92535754Y-49875500D01*
X93039251Y-49875500D01*
X93137417Y-49859952D01*
X93137418Y-49859951D01*
X93137420Y-49859951D01*
X93255751Y-49799658D01*
X93349658Y-49705751D01*
X93409951Y-49587420D01*
X93409951Y-49587418D01*
X93409952Y-49587417D01*
X93425500Y-49489251D01*
X93425500Y-48910748D01*
X93409952Y-48812582D01*
X93387343Y-48768210D01*
X93349658Y-48694249D01*
X93349654Y-48694245D01*
X93349653Y-48694243D01*
X93255756Y-48600346D01*
X93255753Y-48600344D01*
X93255751Y-48600342D01*
X93137420Y-48540049D01*
X93137419Y-48540048D01*
X93137416Y-48540047D01*
X93137417Y-48540047D01*
X93039251Y-48524500D01*
X93039246Y-48524500D01*
X92588333Y-48524500D01*
X92521294Y-48504815D01*
X92500652Y-48488181D01*
X92172012Y-48159541D01*
X92172007Y-48159537D01*
X92138962Y-48140459D01*
X92138962Y-48140458D01*
X92138960Y-48140458D01*
X92116807Y-48127668D01*
X92103490Y-48119979D01*
X92103491Y-48119979D01*
X92062396Y-48108968D01*
X92027062Y-48099500D01*
X92027060Y-48099500D01*
X91586375Y-48099500D01*
X91519336Y-48079815D01*
X91473581Y-48027011D01*
X91466599Y-48007588D01*
X91466392Y-48006814D01*
X91465290Y-48004906D01*
X91444397Y-47968718D01*
X91400500Y-47892686D01*
X91307314Y-47799500D01*
X91234629Y-47757535D01*
X91193187Y-47733608D01*
X91129539Y-47716554D01*
X91065892Y-47699500D01*
X90934108Y-47699500D01*
X90806812Y-47733608D01*
X90692686Y-47799500D01*
X90692683Y-47799502D01*
X90599502Y-47892683D01*
X90599500Y-47892686D01*
X90533608Y-48006812D01*
X90508773Y-48099500D01*
X90499500Y-48134108D01*
X89958235Y-48134108D01*
X89959577Y-48131784D01*
X90000500Y-47979057D01*
X90000500Y-47820943D01*
X89959577Y-47668216D01*
X89919904Y-47599500D01*
X89880524Y-47531290D01*
X89880518Y-47531282D01*
X89768717Y-47419481D01*
X89768709Y-47419475D01*
X89631790Y-47340426D01*
X89631786Y-47340424D01*
X89631784Y-47340423D01*
X89479057Y-47299500D01*
X89320943Y-47299500D01*
X89168216Y-47340423D01*
X89168209Y-47340426D01*
X89031290Y-47419475D01*
X89031282Y-47419481D01*
X88919481Y-47531282D01*
X88919475Y-47531290D01*
X88840426Y-47668209D01*
X88840422Y-47668217D01*
X88831383Y-47701951D01*
X88795017Y-47761610D01*
X88732169Y-47792138D01*
X88662793Y-47783841D01*
X88623928Y-47757535D01*
X88545915Y-47679522D01*
X88545913Y-47679520D01*
X88486835Y-47645411D01*
X88454589Y-47626793D01*
X88387413Y-47608794D01*
X88352727Y-47599500D01*
X87315227Y-47599500D01*
X87209773Y-47599500D01*
X87107910Y-47626793D01*
X87016587Y-47679520D01*
X87016584Y-47679522D01*
X86416891Y-48279214D01*
X86355568Y-48312699D01*
X86285876Y-48307715D01*
X86272472Y-48300525D01*
X86272037Y-48301381D01*
X86263343Y-48296951D01*
X86263342Y-48296950D01*
X86181484Y-48255241D01*
X86150301Y-48239352D01*
X86056524Y-48224500D01*
X85593482Y-48224500D01*
X85512519Y-48237323D01*
X85499696Y-48239354D01*
X85386658Y-48296950D01*
X85386657Y-48296951D01*
X85386652Y-48296954D01*
X85296954Y-48386652D01*
X85296951Y-48386657D01*
X85296950Y-48386658D01*
X85290902Y-48398528D01*
X85239352Y-48499698D01*
X85224500Y-48593475D01*
X85224500Y-49052383D01*
X85204815Y-49119422D01*
X85152011Y-49165177D01*
X85082853Y-49175121D01*
X85058554Y-49169073D01*
X85048111Y-49165319D01*
X84993186Y-49133608D01*
X84865892Y-49099500D01*
X84865006Y-49099500D01*
X84857553Y-49096821D01*
X84833343Y-49079144D01*
X84807745Y-49063541D01*
X84805420Y-49058755D01*
X84801125Y-49055619D01*
X84790315Y-49027659D01*
X84777216Y-49000694D01*
X84776479Y-48991875D01*
X84775929Y-48990451D01*
X84776235Y-48988955D01*
X84775499Y-48980140D01*
X84775499Y-48593482D01*
X84760646Y-48499696D01*
X84703050Y-48386658D01*
X84703046Y-48386654D01*
X84703045Y-48386652D01*
X84613347Y-48296954D01*
X84613344Y-48296952D01*
X84613342Y-48296950D01*
X84531484Y-48255241D01*
X84500301Y-48239352D01*
X84406524Y-48224500D01*
X83943482Y-48224500D01*
X83862519Y-48237323D01*
X83849696Y-48239354D01*
X83736658Y-48296950D01*
X83736657Y-48296951D01*
X83736652Y-48296954D01*
X83646954Y-48386652D01*
X83646951Y-48386657D01*
X83646950Y-48386658D01*
X83640902Y-48398528D01*
X83589352Y-48499698D01*
X83574500Y-48593475D01*
X82350500Y-48593475D01*
X82350499Y-48362627D01*
X82370183Y-48295589D01*
X82412497Y-48255242D01*
X82507314Y-48200500D01*
X82598079Y-48109734D01*
X82659398Y-48076252D01*
X82729090Y-48081236D01*
X82747755Y-48090029D01*
X82868216Y-48159577D01*
X83020943Y-48200500D01*
X83020945Y-48200500D01*
X83179055Y-48200500D01*
X83179057Y-48200500D01*
X83331784Y-48159577D01*
X83468716Y-48080520D01*
X83580520Y-47968716D01*
X83659577Y-47831784D01*
X83700500Y-47679057D01*
X83700500Y-47520943D01*
X83659577Y-47368216D01*
X83630578Y-47317987D01*
X83580524Y-47231290D01*
X83580518Y-47231282D01*
X83468717Y-47119481D01*
X83468709Y-47119475D01*
X83331790Y-47040426D01*
X83331786Y-47040424D01*
X83331784Y-47040423D01*
X83179057Y-46999500D01*
X83074500Y-46999500D01*
X83007461Y-46979815D01*
X82961706Y-46927011D01*
X82950500Y-46875500D01*
X82950500Y-45455252D01*
X82950372Y-45454609D01*
X82950402Y-45454263D01*
X82949903Y-45449187D01*
X82950865Y-45449092D01*
X82956596Y-45385017D01*
X82999455Y-45329838D01*
X83039890Y-45310638D01*
X83112135Y-45291281D01*
X83243365Y-45215515D01*
X83350515Y-45108365D01*
X83426281Y-44977135D01*
X83465500Y-44830766D01*
X83465500Y-44679234D01*
X83426281Y-44532865D01*
X83350515Y-44401635D01*
X83243365Y-44294485D01*
X83177750Y-44256602D01*
X83112136Y-44218719D01*
X83038950Y-44199109D01*
X82965766Y-44179500D01*
X82814234Y-44179500D01*
X82667863Y-44218719D01*
X82536635Y-44294485D01*
X82536632Y-44294487D01*
X82429487Y-44401632D01*
X82429485Y-44401635D01*
X82353719Y-44532863D01*
X82324431Y-44642170D01*
X82314500Y-44679234D01*
X82314500Y-44830766D01*
X82320385Y-44852729D01*
X82353719Y-44977136D01*
X82366116Y-44998607D01*
X82418016Y-45088501D01*
X82434489Y-45156399D01*
X82411637Y-45222426D01*
X82356716Y-45265617D01*
X82310629Y-45274500D01*
X82130249Y-45274500D01*
X82059791Y-45288515D01*
X82059537Y-45287239D01*
X82002977Y-45293317D01*
X81979089Y-45286303D01*
X81919751Y-45274500D01*
X81919748Y-45274500D01*
X81580252Y-45274500D01*
X81524190Y-45285651D01*
X81475810Y-45285651D01*
X81419748Y-45274500D01*
X81124989Y-45274500D01*
X81057950Y-45254815D01*
X81028119Y-45227909D01*
X81022277Y-45220599D01*
X80990460Y-45165489D01*
X80934511Y-45109540D01*
X80814296Y-44989325D01*
X80684513Y-44859541D01*
X80684511Y-44859540D01*
X80672713Y-44852729D01*
X80672710Y-44852727D01*
X80615989Y-44819979D01*
X80539562Y-44799500D01*
X79960438Y-44799500D01*
X79918256Y-44810803D01*
X79884010Y-44819979D01*
X79865331Y-44830764D01*
X79827290Y-44852727D01*
X79827287Y-44852729D01*
X79815488Y-44859540D01*
X79815486Y-44859541D01*
X79570370Y-45104658D01*
X79570366Y-45104662D01*
X79565489Y-45109540D01*
X79509540Y-45165489D01*
X79477722Y-45220598D01*
X79471881Y-45227909D01*
X79450616Y-45242803D01*
X79431831Y-45260715D01*
X79421447Y-45263234D01*
X79414653Y-45267993D01*
X79399314Y-45268603D01*
X79375011Y-45274500D01*
X79080252Y-45274500D01*
X79024190Y-45285651D01*
X78975810Y-45285651D01*
X78919748Y-45274500D01*
X78580252Y-45274500D01*
X78524190Y-45285651D01*
X78475810Y-45285651D01*
X78419748Y-45274500D01*
X78080252Y-45274500D01*
X78080249Y-45274500D01*
X78009791Y-45288515D01*
X78009537Y-45287239D01*
X77952977Y-45293317D01*
X77929089Y-45286303D01*
X77869751Y-45274500D01*
X77869748Y-45274500D01*
X77689371Y-45274500D01*
X77622332Y-45254815D01*
X77576577Y-45202011D01*
X77566633Y-45132853D01*
X77581982Y-45088501D01*
X77646281Y-44977135D01*
X77685500Y-44830766D01*
X77685500Y-44679234D01*
X77646281Y-44532865D01*
X77570515Y-44401635D01*
X77463365Y-44294485D01*
X77397750Y-44256602D01*
X77332136Y-44218719D01*
X77258950Y-44199109D01*
X77185766Y-44179500D01*
X77034234Y-44179500D01*
X76887863Y-44218719D01*
X76756635Y-44294485D01*
X76756632Y-44294487D01*
X76649487Y-44401632D01*
X76649485Y-44401635D01*
X76573719Y-44532863D01*
X76544431Y-44642170D01*
X76534500Y-44679234D01*
X76534500Y-44830766D01*
X76540385Y-44852729D01*
X76573719Y-44977136D01*
X76586116Y-44998607D01*
X76649485Y-45108365D01*
X76756635Y-45215515D01*
X76887865Y-45291281D01*
X76960105Y-45310637D01*
X77019764Y-45347000D01*
X77050294Y-45409847D01*
X77049710Y-45449148D01*
X77050097Y-45449187D01*
X77049641Y-45453811D01*
X77049630Y-45454592D01*
X77049500Y-45455242D01*
X77049500Y-46944752D01*
X77061131Y-47003229D01*
X77061132Y-47003230D01*
X77105448Y-47069553D01*
X77106712Y-47070817D01*
X77108585Y-47074248D01*
X77112233Y-47079707D01*
X77111744Y-47080033D01*
X77140197Y-47132140D01*
X77135213Y-47201832D01*
X77122982Y-47223921D01*
X77123543Y-47224245D01*
X77040426Y-47368209D01*
X77040423Y-47368216D01*
X76999500Y-47520943D01*
X76999500Y-47679057D01*
X77033867Y-47807314D01*
X77040423Y-47831783D01*
X77040426Y-47831790D01*
X77119475Y-47968709D01*
X77119479Y-47968714D01*
X77119480Y-47968716D01*
X77231284Y-48080520D01*
X77231286Y-48080521D01*
X77231290Y-48080524D01*
X77335102Y-48140459D01*
X77368216Y-48159577D01*
X77520943Y-48200500D01*
X77520945Y-48200500D01*
X77679055Y-48200500D01*
X77679057Y-48200500D01*
X77831784Y-48159577D01*
X77968716Y-48080520D01*
X78080520Y-47968716D01*
X78080524Y-47968708D01*
X78085028Y-47962840D01*
X78141455Y-47921636D01*
X78211201Y-47917481D01*
X78245405Y-47930938D01*
X78306810Y-47966390D01*
X78306811Y-47966390D01*
X78306814Y-47966392D01*
X78434108Y-48000500D01*
X78434110Y-48000500D01*
X78565890Y-48000500D01*
X78565892Y-48000500D01*
X78693186Y-47966392D01*
X78807314Y-47900500D01*
X78900500Y-47807314D01*
X78966392Y-47693186D01*
X79000500Y-47565892D01*
X79000500Y-47524833D01*
X79020185Y-47457794D01*
X79072989Y-47412039D01*
X79142147Y-47402095D01*
X79205703Y-47431120D01*
X79212181Y-47437152D01*
X79259540Y-47484511D01*
X79315489Y-47540460D01*
X79315491Y-47540461D01*
X79315495Y-47540464D01*
X79384004Y-47580017D01*
X79384011Y-47580021D01*
X79460438Y-47600500D01*
X79539562Y-47600500D01*
X79575500Y-47600500D01*
X79642539Y-47620185D01*
X79688294Y-47672989D01*
X79699500Y-47724500D01*
X79699500Y-48118983D01*
X79679815Y-48186022D01*
X79678617Y-48187850D01*
X79665487Y-48207503D01*
X79665484Y-48207507D01*
X79665483Y-48207507D01*
X79649500Y-48287862D01*
X79649500Y-48742129D01*
X79665485Y-48822495D01*
X79665485Y-48822496D01*
X79671243Y-48831113D01*
X79692118Y-48897791D01*
X79688633Y-48929274D01*
X79683445Y-48950624D01*
X79665485Y-48977505D01*
X79649500Y-49057867D01*
X79649500Y-49090347D01*
X79645995Y-49104774D01*
X79635643Y-49122689D01*
X79629815Y-49142539D01*
X79618519Y-49152326D01*
X79611040Y-49165272D01*
X79592644Y-49174747D01*
X79577011Y-49188294D01*
X79558548Y-49192310D01*
X79548926Y-49197267D01*
X79539789Y-49196391D01*
X79525500Y-49199500D01*
X79275833Y-49199500D01*
X79208794Y-49179815D01*
X79188152Y-49163181D01*
X78584512Y-48559541D01*
X78584511Y-48559540D01*
X78550751Y-48540049D01*
X78550751Y-48540048D01*
X78550747Y-48540047D01*
X78523820Y-48524500D01*
X78515990Y-48519979D01*
X78515991Y-48519979D01*
X78468731Y-48507316D01*
X78439562Y-48499500D01*
X78439560Y-48499500D01*
X77275833Y-48499500D01*
X77208794Y-48479815D01*
X77188152Y-48463181D01*
X76384512Y-47659541D01*
X76384511Y-47659540D01*
X76360040Y-47645412D01*
X76360040Y-47645410D01*
X76360037Y-47645410D01*
X76315994Y-47619981D01*
X76315991Y-47619979D01*
X76274247Y-47608794D01*
X76239562Y-47599500D01*
X75160438Y-47599500D01*
X75109486Y-47613152D01*
X75084010Y-47619979D01*
X75049270Y-47640036D01*
X75039964Y-47645410D01*
X75039962Y-47645411D01*
X75039960Y-47645412D01*
X75015490Y-47659539D01*
X75015487Y-47659541D01*
X74359541Y-48315487D01*
X74359535Y-48315495D01*
X74319984Y-48384001D01*
X74319979Y-48384009D01*
X74299500Y-48460439D01*
X74299500Y-51940853D01*
X74279815Y-52007892D01*
X74227011Y-52053647D01*
X74157853Y-52063591D01*
X74094297Y-52034566D01*
X74087819Y-52028534D01*
X73531407Y-51472122D01*
X73497922Y-51410799D01*
X73502906Y-51341107D01*
X73544778Y-51285174D01*
X73571633Y-51269881D01*
X73593269Y-51260920D01*
X73715420Y-51179301D01*
X73819301Y-51075420D01*
X73900920Y-50953269D01*
X73957140Y-50817542D01*
X73985800Y-50673455D01*
X73985800Y-50526545D01*
X73957140Y-50382458D01*
X73900920Y-50246731D01*
X73900919Y-50246730D01*
X73900916Y-50246724D01*
X73819301Y-50124580D01*
X73819298Y-50124576D01*
X73715423Y-50020701D01*
X73715419Y-50020698D01*
X73593275Y-49939083D01*
X73593266Y-49939078D01*
X73457544Y-49882861D01*
X73457545Y-49882861D01*
X73457542Y-49882860D01*
X73457538Y-49882859D01*
X73457534Y-49882858D01*
X73313459Y-49854200D01*
X73313455Y-49854200D01*
X73166545Y-49854200D01*
X73166540Y-49854200D01*
X73022465Y-49882858D01*
X73022455Y-49882861D01*
X72886733Y-49939078D01*
X72886724Y-49939083D01*
X72759515Y-50024083D01*
X72758403Y-50022419D01*
X72702545Y-50046137D01*
X72633678Y-50034341D01*
X72582122Y-49987184D01*
X72564200Y-49922970D01*
X72564200Y-49886774D01*
X72564200Y-49886772D01*
X72523706Y-49735647D01*
X72445478Y-49600153D01*
X72436819Y-49591494D01*
X72422115Y-49564566D01*
X72405523Y-49538748D01*
X72404631Y-49532547D01*
X72403334Y-49530171D01*
X72400500Y-49503813D01*
X72400500Y-49367334D01*
X72417113Y-49305334D01*
X72420019Y-49300301D01*
X72459577Y-49231784D01*
X72500500Y-49079057D01*
X72500500Y-48920943D01*
X72459577Y-48768216D01*
X72446543Y-48745641D01*
X72432284Y-48720943D01*
X72799500Y-48720943D01*
X72799500Y-48879057D01*
X72838732Y-49025471D01*
X72840423Y-49031783D01*
X72840426Y-49031790D01*
X72919475Y-49168709D01*
X72919479Y-49168714D01*
X72919480Y-49168716D01*
X73031284Y-49280520D01*
X73031286Y-49280521D01*
X73031290Y-49280524D01*
X73168209Y-49359573D01*
X73168216Y-49359577D01*
X73320943Y-49400500D01*
X73320945Y-49400500D01*
X73479055Y-49400500D01*
X73479057Y-49400500D01*
X73631784Y-49359577D01*
X73768716Y-49280520D01*
X73880520Y-49168716D01*
X73959577Y-49031784D01*
X74000500Y-48879057D01*
X74000500Y-48720943D01*
X73959577Y-48568216D01*
X73942713Y-48539006D01*
X73926241Y-48471110D01*
X73949093Y-48405083D01*
X73962414Y-48389333D01*
X74048528Y-48303220D01*
X74109719Y-48183126D01*
X74109720Y-48183121D01*
X74125499Y-48083498D01*
X74125548Y-48082877D01*
X74125632Y-48082654D01*
X74126263Y-48078676D01*
X74127098Y-48078808D01*
X74150422Y-48017585D01*
X74161479Y-48004913D01*
X74720480Y-47445913D01*
X74773207Y-47354588D01*
X74800500Y-47252727D01*
X74800500Y-47249230D01*
X74801334Y-47246388D01*
X74801561Y-47244667D01*
X74801829Y-47244702D01*
X74820185Y-47182191D01*
X74862499Y-47141843D01*
X74968716Y-47080520D01*
X75080520Y-46968716D01*
X75159577Y-46831784D01*
X75200500Y-46679057D01*
X75200500Y-46520943D01*
X75159577Y-46368216D01*
X75101452Y-46267539D01*
X75080524Y-46231290D01*
X75080518Y-46231282D01*
X74968717Y-46119481D01*
X74968709Y-46119475D01*
X74831790Y-46040426D01*
X74831786Y-46040424D01*
X74831784Y-46040423D01*
X74679057Y-45999500D01*
X74520943Y-45999500D01*
X74368216Y-46040423D01*
X74368213Y-46040424D01*
X74336497Y-46058735D01*
X74268597Y-46075205D01*
X74202571Y-46052352D01*
X74159381Y-45997429D01*
X74150500Y-45951346D01*
X74150500Y-45391739D01*
X74140573Y-45323608D01*
X74137530Y-45317383D01*
X74089198Y-45218517D01*
X74089196Y-45218515D01*
X74089196Y-45218514D01*
X74006485Y-45135803D01*
X73901391Y-45084426D01*
X73833261Y-45074500D01*
X73833260Y-45074500D01*
X73466740Y-45074500D01*
X73466739Y-45074500D01*
X73398608Y-45084426D01*
X73293514Y-45135803D01*
X73210803Y-45218514D01*
X73159426Y-45323608D01*
X73149500Y-45391739D01*
X73149500Y-46332745D01*
X73129815Y-46399784D01*
X73113181Y-46420426D01*
X72979522Y-46554084D01*
X72979518Y-46554090D01*
X72926793Y-46645411D01*
X72918386Y-46676791D01*
X72918385Y-46676793D01*
X72899500Y-46747273D01*
X72899500Y-47270880D01*
X72885985Y-47327174D01*
X72840279Y-47416876D01*
X72824500Y-47516506D01*
X72824500Y-48083493D01*
X72840279Y-48183121D01*
X72840280Y-48183124D01*
X72840281Y-48183126D01*
X72901472Y-48303220D01*
X72901473Y-48303221D01*
X72901475Y-48303224D01*
X72905375Y-48308593D01*
X72928852Y-48374400D01*
X72913024Y-48442453D01*
X72912442Y-48443473D01*
X72840423Y-48568215D01*
X72840423Y-48568216D01*
X72799500Y-48720943D01*
X72432284Y-48720943D01*
X72380522Y-48631287D01*
X72380521Y-48631285D01*
X72380520Y-48631284D01*
X72268716Y-48519480D01*
X72268714Y-48519479D01*
X72268709Y-48519475D01*
X72131790Y-48440426D01*
X72131786Y-48440424D01*
X72131784Y-48440423D01*
X71979057Y-48399500D01*
X71820943Y-48399500D01*
X71668216Y-48440423D01*
X71668209Y-48440426D01*
X71531290Y-48519475D01*
X71531282Y-48519481D01*
X71419478Y-48631285D01*
X71414964Y-48637168D01*
X71358533Y-48678366D01*
X71288787Y-48682516D01*
X71254594Y-48669061D01*
X71193189Y-48633609D01*
X71193186Y-48633608D01*
X71065892Y-48599500D01*
X70934108Y-48599500D01*
X70827366Y-48628100D01*
X70827360Y-48628102D01*
X70806814Y-48633608D01*
X70746298Y-48668546D01*
X70746290Y-48668551D01*
X70692686Y-48699500D01*
X70692683Y-48699502D01*
X70599502Y-48792683D01*
X70599500Y-48792686D01*
X70533608Y-48906812D01*
X70505430Y-49011975D01*
X70499500Y-49034108D01*
X70499500Y-49165892D01*
X70527051Y-49268716D01*
X70527954Y-49272083D01*
X70526291Y-49341933D01*
X70487128Y-49399795D01*
X70470180Y-49411563D01*
X70335153Y-49489522D01*
X70335150Y-49489524D01*
X70224524Y-49600150D01*
X70224522Y-49600153D01*
X70146294Y-49735645D01*
X70135307Y-49776650D01*
X70109464Y-49873095D01*
X70073101Y-49932754D01*
X70010254Y-49963283D01*
X69989691Y-49965000D01*
X69430000Y-49965000D01*
X69430000Y-50524690D01*
X69410315Y-50591729D01*
X69357511Y-50637484D01*
X69338093Y-50644465D01*
X69200647Y-50681294D01*
X69200645Y-50681294D01*
X69200645Y-50681295D01*
X69065153Y-50759522D01*
X69065150Y-50759524D01*
X68954524Y-50870150D01*
X68954522Y-50870153D01*
X68876294Y-51005645D01*
X68874416Y-51012656D01*
X68838048Y-51072315D01*
X68775200Y-51102842D01*
X68705825Y-51094544D01*
X68666961Y-51068239D01*
X68635423Y-51036701D01*
X68635419Y-51036698D01*
X68513275Y-50955083D01*
X68513266Y-50955078D01*
X68377544Y-50898861D01*
X68377545Y-50898861D01*
X68377542Y-50898860D01*
X68377538Y-50898859D01*
X68377534Y-50898858D01*
X68233459Y-50870200D01*
X68233455Y-50870200D01*
X68086545Y-50870200D01*
X68086540Y-50870200D01*
X67942465Y-50898858D01*
X67942455Y-50898861D01*
X67806733Y-50955078D01*
X67806724Y-50955083D01*
X67684580Y-51036698D01*
X67684576Y-51036701D01*
X67580701Y-51140576D01*
X67580698Y-51140580D01*
X67499083Y-51262724D01*
X67499078Y-51262733D01*
X67442861Y-51398455D01*
X67442858Y-51398465D01*
X67414200Y-51542540D01*
X67414200Y-51689459D01*
X67442858Y-51833534D01*
X67442861Y-51833544D01*
X67499078Y-51969266D01*
X67499083Y-51969275D01*
X67580698Y-52091419D01*
X67580701Y-52091423D01*
X67684576Y-52195298D01*
X67684580Y-52195301D01*
X67806724Y-52276916D01*
X67806733Y-52276921D01*
X67827445Y-52285500D01*
X67942458Y-52333140D01*
X67975626Y-52339737D01*
X68013539Y-52347279D01*
X68075450Y-52379663D01*
X68110024Y-52440379D01*
X68106285Y-52510149D01*
X68077029Y-52556577D01*
X67129522Y-53504084D01*
X67129520Y-53504087D01*
X67076793Y-53595410D01*
X67051566Y-53689563D01*
X67051565Y-53689565D01*
X67049500Y-53697268D01*
X67049500Y-55032745D01*
X67029815Y-55099784D01*
X67013181Y-55120426D01*
X66079522Y-56054084D01*
X66079520Y-56054087D01*
X66026791Y-56145413D01*
X66018433Y-56176612D01*
X66018433Y-56176613D01*
X65999500Y-56247273D01*
X65999500Y-56875500D01*
X65979815Y-56942539D01*
X65927011Y-56988294D01*
X65875500Y-56999500D01*
X65745730Y-56999500D01*
X65715300Y-57002353D01*
X65715299Y-57002353D01*
X65665453Y-57019795D01*
X65595674Y-57023356D01*
X65535047Y-56988626D01*
X65502821Y-56926632D01*
X65500500Y-56902753D01*
X65500500Y-46720730D01*
X66474500Y-46720730D01*
X66474500Y-48079269D01*
X66477353Y-48109699D01*
X66477353Y-48109701D01*
X66517556Y-48224591D01*
X66522207Y-48237882D01*
X66602849Y-48347149D01*
X66602851Y-48347151D01*
X66609421Y-48353721D01*
X66608417Y-48354724D01*
X66644680Y-48402492D01*
X66650134Y-48472149D01*
X66622582Y-48523424D01*
X66624426Y-48524839D01*
X66619475Y-48531290D01*
X66540426Y-48668209D01*
X66540423Y-48668216D01*
X66499500Y-48820943D01*
X66499500Y-48979057D01*
X66534205Y-49108576D01*
X66540423Y-49131783D01*
X66540426Y-49131790D01*
X66619475Y-49268709D01*
X66619479Y-49268714D01*
X66619480Y-49268716D01*
X66731284Y-49380520D01*
X66731286Y-49380521D01*
X66731290Y-49380524D01*
X66832298Y-49438840D01*
X66868216Y-49459577D01*
X67020943Y-49500500D01*
X67020945Y-49500500D01*
X67179054Y-49500500D01*
X67179057Y-49500500D01*
X67258109Y-49479318D01*
X67327956Y-49480981D01*
X67385819Y-49520143D01*
X67413323Y-49584372D01*
X67414200Y-49599093D01*
X67414200Y-49657459D01*
X67442858Y-49801534D01*
X67442861Y-49801544D01*
X67499078Y-49937266D01*
X67499083Y-49937275D01*
X67580698Y-50059419D01*
X67580701Y-50059423D01*
X67684576Y-50163298D01*
X67684580Y-50163301D01*
X67806724Y-50244916D01*
X67806730Y-50244919D01*
X67806731Y-50244920D01*
X67942458Y-50301140D01*
X68086540Y-50329799D01*
X68086544Y-50329800D01*
X68086545Y-50329800D01*
X68233456Y-50329800D01*
X68233457Y-50329799D01*
X68377542Y-50301140D01*
X68513269Y-50244920D01*
X68635420Y-50163301D01*
X68739301Y-50059420D01*
X68820920Y-49937269D01*
X68877140Y-49801542D01*
X68905800Y-49657455D01*
X68905800Y-49510545D01*
X68877140Y-49366458D01*
X68820920Y-49230731D01*
X68820919Y-49230730D01*
X68820916Y-49230724D01*
X68739301Y-49108580D01*
X68739298Y-49108576D01*
X68635423Y-49004701D01*
X68635419Y-49004698D01*
X68513275Y-48923083D01*
X68513266Y-48923078D01*
X68396081Y-48874539D01*
X68377542Y-48866860D01*
X68377538Y-48866859D01*
X68377534Y-48866858D01*
X68233459Y-48838200D01*
X68233455Y-48838200D01*
X68086545Y-48838200D01*
X68086540Y-48838200D01*
X67942465Y-48866858D01*
X67942459Y-48866859D01*
X67866376Y-48898374D01*
X67851533Y-48899969D01*
X67838032Y-48906331D01*
X67817499Y-48903628D01*
X67796906Y-48905842D01*
X67783557Y-48899159D01*
X67768760Y-48897212D01*
X67752947Y-48883837D01*
X67734427Y-48874566D01*
X67725919Y-48860975D01*
X67715415Y-48852090D01*
X67702822Y-48824076D01*
X67700372Y-48820162D01*
X67699727Y-48818060D01*
X67659577Y-48668216D01*
X67647221Y-48646815D01*
X67643095Y-48633357D01*
X67642839Y-48611934D01*
X67637787Y-48591108D01*
X67642431Y-48577689D01*
X67642262Y-48563492D01*
X67653630Y-48545329D01*
X67660639Y-48525081D01*
X67671800Y-48516303D01*
X67679334Y-48504268D01*
X67698717Y-48495134D01*
X67715560Y-48481890D01*
X67738699Y-48476297D01*
X67742539Y-48474488D01*
X67744898Y-48474798D01*
X67750068Y-48473549D01*
X67759699Y-48472646D01*
X67759701Y-48472645D01*
X67759703Y-48472645D01*
X67820805Y-48451264D01*
X67887882Y-48427793D01*
X67997150Y-48347150D01*
X68077793Y-48237882D01*
X68105193Y-48159577D01*
X68122646Y-48109701D01*
X68122646Y-48109699D01*
X68125500Y-48079269D01*
X68125500Y-46720730D01*
X69274500Y-46720730D01*
X69274500Y-48079269D01*
X69277353Y-48109699D01*
X69277353Y-48109701D01*
X69317556Y-48224591D01*
X69322207Y-48237882D01*
X69402850Y-48347150D01*
X69512118Y-48427793D01*
X69531560Y-48434596D01*
X69640299Y-48472646D01*
X69670730Y-48475500D01*
X69670734Y-48475500D01*
X70529270Y-48475500D01*
X70553612Y-48473216D01*
X70559699Y-48472646D01*
X70687882Y-48427793D01*
X70797150Y-48347150D01*
X70877793Y-48237882D01*
X70905193Y-48159577D01*
X70922646Y-48109701D01*
X70922646Y-48109699D01*
X70925500Y-48079269D01*
X70925500Y-46720730D01*
X70922646Y-46690300D01*
X70922646Y-46690298D01*
X70877793Y-46562119D01*
X70877792Y-46562117D01*
X70871866Y-46554087D01*
X70797150Y-46452850D01*
X70687882Y-46372207D01*
X70683542Y-46370688D01*
X70626768Y-46329966D01*
X70601022Y-46265013D01*
X70600500Y-46253648D01*
X70600500Y-45796543D01*
X70620185Y-45729504D01*
X70636818Y-45708862D01*
X70639198Y-45706483D01*
X70690573Y-45601393D01*
X70700500Y-45533260D01*
X70700500Y-45417253D01*
X70720185Y-45350214D01*
X70736815Y-45329576D01*
X70945910Y-45120481D01*
X70945913Y-45120480D01*
X71020480Y-45045913D01*
X71047792Y-44998607D01*
X71073207Y-44954588D01*
X71100500Y-44852727D01*
X71100500Y-44747273D01*
X71100500Y-43400098D01*
X71120185Y-43333059D01*
X71136819Y-43312417D01*
X71180520Y-43268716D01*
X71259577Y-43131784D01*
X71300500Y-42979057D01*
X71300500Y-42820943D01*
X71259577Y-42668216D01*
X71259573Y-42668209D01*
X71180524Y-42531290D01*
X71180518Y-42531282D01*
X71145495Y-42496259D01*
X71141156Y-42488312D01*
X71133907Y-42482886D01*
X71124673Y-42458126D01*
X71112010Y-42434936D01*
X71112655Y-42425904D01*
X71109492Y-42417421D01*
X71115108Y-42391602D01*
X71116994Y-42365244D01*
X71122813Y-42356189D01*
X71124345Y-42349149D01*
X71145494Y-42320898D01*
X71169643Y-42296750D01*
X71230966Y-42263266D01*
X71300658Y-42268252D01*
X71345003Y-42296752D01*
X71446774Y-42398523D01*
X71446778Y-42398526D01*
X71446780Y-42398528D01*
X71566874Y-42459719D01*
X71566876Y-42459719D01*
X71566878Y-42459720D01*
X71666507Y-42475500D01*
X71666512Y-42475500D01*
X71982746Y-42475500D01*
X72049785Y-42495185D01*
X72070427Y-42511819D01*
X72263181Y-42704573D01*
X72277884Y-42731500D01*
X72294477Y-42757319D01*
X72295368Y-42763519D01*
X72296666Y-42765896D01*
X72299500Y-42792254D01*
X72299500Y-42853456D01*
X72279815Y-42920495D01*
X72263181Y-42941137D01*
X72260803Y-42943514D01*
X72209426Y-43048608D01*
X72199500Y-43116739D01*
X72199500Y-44208260D01*
X72209426Y-44276391D01*
X72260803Y-44381485D01*
X72343514Y-44464196D01*
X72343515Y-44464196D01*
X72343517Y-44464198D01*
X72448607Y-44515573D01*
X72482673Y-44520536D01*
X72516739Y-44525500D01*
X72516740Y-44525500D01*
X72883261Y-44525500D01*
X72905971Y-44522191D01*
X72951393Y-44515573D01*
X73056483Y-44464198D01*
X73139198Y-44381483D01*
X73190573Y-44276393D01*
X73200500Y-44208260D01*
X73200500Y-43116740D01*
X73190573Y-43048607D01*
X73139198Y-42943517D01*
X73139196Y-42943515D01*
X73139196Y-42943514D01*
X73136819Y-42941137D01*
X73134606Y-42937085D01*
X73133227Y-42935153D01*
X73133460Y-42934986D01*
X73122115Y-42914209D01*
X73105523Y-42888391D01*
X73104631Y-42882190D01*
X73103334Y-42879814D01*
X73100500Y-42853456D01*
X73100500Y-42637729D01*
X73100501Y-42637716D01*
X73100501Y-42522276D01*
X73100501Y-42522274D01*
X73073207Y-42420413D01*
X73035203Y-42354588D01*
X73020480Y-42329087D01*
X72964074Y-42272681D01*
X72964069Y-42272675D01*
X72941594Y-42250200D01*
X72941571Y-42250179D01*
X72885105Y-42193713D01*
X91349500Y-42193713D01*
X91349500Y-42406287D01*
X91382754Y-42616243D01*
X91431379Y-42765896D01*
X91448444Y-42818414D01*
X91544951Y-43007820D01*
X91669890Y-43179786D01*
X91820213Y-43330109D01*
X91992179Y-43455048D01*
X91992181Y-43455049D01*
X91992184Y-43455051D01*
X92181588Y-43551557D01*
X92383757Y-43617246D01*
X92593713Y-43650500D01*
X92593714Y-43650500D01*
X92806286Y-43650500D01*
X92806287Y-43650500D01*
X93016243Y-43617246D01*
X93218412Y-43551557D01*
X93407816Y-43455051D01*
X93519732Y-43373740D01*
X93579786Y-43330109D01*
X93579788Y-43330106D01*
X93579792Y-43330104D01*
X93730104Y-43179792D01*
X93730106Y-43179788D01*
X93730109Y-43179786D01*
X93855048Y-43007820D01*
X93855047Y-43007820D01*
X93855051Y-43007816D01*
X93951557Y-42818412D01*
X94017246Y-42616243D01*
X94050500Y-42406287D01*
X94050500Y-42193713D01*
X94017246Y-41983757D01*
X93951557Y-41781588D01*
X93855051Y-41592184D01*
X93855049Y-41592181D01*
X93855048Y-41592179D01*
X93730109Y-41420213D01*
X93579786Y-41269890D01*
X93407820Y-41144951D01*
X93218414Y-41048444D01*
X93218413Y-41048443D01*
X93218412Y-41048443D01*
X93016243Y-40982754D01*
X93016241Y-40982753D01*
X93016240Y-40982753D01*
X92854957Y-40957208D01*
X92806287Y-40949500D01*
X92593713Y-40949500D01*
X92545042Y-40957208D01*
X92383760Y-40982753D01*
X92181585Y-41048444D01*
X91992179Y-41144951D01*
X91820213Y-41269890D01*
X91669890Y-41420213D01*
X91544951Y-41592179D01*
X91448444Y-41781585D01*
X91382753Y-41983760D01*
X91368584Y-42073221D01*
X91349500Y-42193713D01*
X72885105Y-42193713D01*
X72611819Y-41920426D01*
X72578334Y-41859103D01*
X72575500Y-41832745D01*
X72575500Y-41516506D01*
X72559720Y-41416878D01*
X72559719Y-41416876D01*
X72559719Y-41416874D01*
X72498528Y-41296780D01*
X72498526Y-41296778D01*
X72498523Y-41296774D01*
X72403225Y-41201476D01*
X72403221Y-41201473D01*
X72403220Y-41201472D01*
X72283126Y-41140281D01*
X72283124Y-41140280D01*
X72283121Y-41140279D01*
X72183493Y-41124500D01*
X72183488Y-41124500D01*
X71666512Y-41124500D01*
X71666507Y-41124500D01*
X71566878Y-41140279D01*
X71446778Y-41201473D01*
X71446774Y-41201476D01*
X71351476Y-41296774D01*
X71351471Y-41296781D01*
X71333632Y-41331794D01*
X71285658Y-41382590D01*
X71223147Y-41399500D01*
X71047273Y-41399500D01*
X70945413Y-41426793D01*
X70945410Y-41426794D01*
X70854085Y-41479521D01*
X70379522Y-41954084D01*
X70379518Y-41954090D01*
X70326792Y-42045412D01*
X70326793Y-42045413D01*
X70299500Y-42147273D01*
X70299500Y-42399902D01*
X70279815Y-42466941D01*
X70263181Y-42487583D01*
X70219481Y-42531282D01*
X70219475Y-42531290D01*
X70140426Y-42668209D01*
X70140423Y-42668216D01*
X70099500Y-42820943D01*
X70099500Y-42979056D01*
X70140423Y-43131783D01*
X70140426Y-43131790D01*
X70219475Y-43268709D01*
X70219481Y-43268717D01*
X70263181Y-43312417D01*
X70296666Y-43373740D01*
X70299500Y-43400098D01*
X70299500Y-44582744D01*
X70290856Y-44612181D01*
X70284333Y-44642170D01*
X70280577Y-44647186D01*
X70279815Y-44649783D01*
X70263182Y-44670424D01*
X70220427Y-44713180D01*
X70159105Y-44746666D01*
X70132745Y-44749500D01*
X70016739Y-44749500D01*
X69948608Y-44759426D01*
X69843514Y-44810803D01*
X69760803Y-44893514D01*
X69709426Y-44998608D01*
X69699500Y-45066739D01*
X69699500Y-45533260D01*
X69709426Y-45601391D01*
X69760801Y-45706482D01*
X69760802Y-45706483D01*
X69763178Y-45708859D01*
X69765391Y-45712911D01*
X69766773Y-45714847D01*
X69766539Y-45715013D01*
X69796665Y-45770179D01*
X69799500Y-45796543D01*
X69799500Y-46200500D01*
X69779815Y-46267539D01*
X69727011Y-46313294D01*
X69675500Y-46324500D01*
X69670730Y-46324500D01*
X69640300Y-46327353D01*
X69640298Y-46327353D01*
X69512119Y-46372206D01*
X69512117Y-46372207D01*
X69402850Y-46452850D01*
X69322207Y-46562117D01*
X69322206Y-46562119D01*
X69277353Y-46690298D01*
X69277353Y-46690300D01*
X69274500Y-46720730D01*
X68125500Y-46720730D01*
X68122646Y-46690300D01*
X68122646Y-46690298D01*
X68077793Y-46562119D01*
X68077792Y-46562117D01*
X68071866Y-46554087D01*
X67997150Y-46452850D01*
X67887882Y-46372207D01*
X67887880Y-46372206D01*
X67759700Y-46327353D01*
X67729270Y-46324500D01*
X67729266Y-46324500D01*
X66870734Y-46324500D01*
X66870730Y-46324500D01*
X66840300Y-46327353D01*
X66840298Y-46327353D01*
X66712119Y-46372206D01*
X66712117Y-46372207D01*
X66602850Y-46452850D01*
X66522207Y-46562117D01*
X66522206Y-46562119D01*
X66477353Y-46690298D01*
X66477353Y-46690300D01*
X66474500Y-46720730D01*
X65500500Y-46720730D01*
X65500500Y-42304066D01*
X65500765Y-42295956D01*
X65504819Y-42234108D01*
X65507466Y-42193713D01*
X65949500Y-42193713D01*
X65949500Y-42406287D01*
X65982754Y-42616243D01*
X66031379Y-42765896D01*
X66048444Y-42818414D01*
X66144951Y-43007820D01*
X66269890Y-43179786D01*
X66420213Y-43330109D01*
X66592179Y-43455048D01*
X66592181Y-43455049D01*
X66592184Y-43455051D01*
X66781588Y-43551557D01*
X66983757Y-43617246D01*
X67193713Y-43650500D01*
X67193714Y-43650500D01*
X67406286Y-43650500D01*
X67406287Y-43650500D01*
X67616243Y-43617246D01*
X67818412Y-43551557D01*
X68007816Y-43455051D01*
X68119732Y-43373740D01*
X68179786Y-43330109D01*
X68179788Y-43330106D01*
X68179792Y-43330104D01*
X68330104Y-43179792D01*
X68330106Y-43179788D01*
X68330109Y-43179786D01*
X68455048Y-43007820D01*
X68455047Y-43007820D01*
X68455051Y-43007816D01*
X68551557Y-42818412D01*
X68617246Y-42616243D01*
X68650500Y-42406287D01*
X68650500Y-42193713D01*
X68617246Y-41983757D01*
X68551557Y-41781588D01*
X68455051Y-41592184D01*
X68455049Y-41592181D01*
X68455048Y-41592179D01*
X68330109Y-41420213D01*
X68179786Y-41269890D01*
X68007820Y-41144951D01*
X67818414Y-41048444D01*
X67818413Y-41048443D01*
X67818412Y-41048443D01*
X67616243Y-40982754D01*
X67616241Y-40982753D01*
X67616240Y-40982753D01*
X67454957Y-40957208D01*
X67406287Y-40949500D01*
X67193713Y-40949500D01*
X67145042Y-40957208D01*
X66983760Y-40982753D01*
X66781585Y-41048444D01*
X66592179Y-41144951D01*
X66420213Y-41269890D01*
X66269890Y-41420213D01*
X66144951Y-41592179D01*
X66048444Y-41781585D01*
X65982753Y-41983760D01*
X65968584Y-42073221D01*
X65949500Y-42193713D01*
X65507466Y-42193713D01*
X65515364Y-42073209D01*
X65517479Y-42057153D01*
X65560230Y-41842226D01*
X65564428Y-41826561D01*
X65584606Y-41767118D01*
X65634868Y-41619049D01*
X65641067Y-41604083D01*
X65737995Y-41407533D01*
X65746098Y-41393498D01*
X65867853Y-41211279D01*
X65877710Y-41198433D01*
X66022207Y-41033665D01*
X66033665Y-41022207D01*
X66198433Y-40877710D01*
X66211279Y-40867853D01*
X66393498Y-40746098D01*
X66407533Y-40737995D01*
X66604083Y-40641067D01*
X66619049Y-40634868D01*
X66767118Y-40584606D01*
X66826561Y-40564428D01*
X66842228Y-40560230D01*
X67057153Y-40517479D01*
X67073209Y-40515364D01*
X67278058Y-40501938D01*
X67295958Y-40500765D01*
X67304067Y-40500500D01*
X67365892Y-40500500D01*
X92634108Y-40500500D01*
X92695933Y-40500500D01*
X92704043Y-40500765D01*
G37*
%TD.AperFunction*%
%TD*%
M02*
