%TF.GenerationSoftware,KiCad,Pcbnew,9.0.6*%
%TF.CreationDate,2026-01-06T09:07:43+09:00*%
%TF.ProjectId,VVDAP,56564441-502e-46b6-9963-61645f706362,rev?*%
%TF.SameCoordinates,Original*%
%TF.FileFunction,Drillmap*%
%TF.FilePolarity,Positive*%
%FSLAX45Y45*%
G04 Gerber Fmt 4.5, Leading zero omitted, Abs format (unit mm)*
G04 Created by KiCad (PCBNEW 9.0.6) date 2026-01-06 09:07:43*
%MOMM*%
%LPD*%
G01*
G04 APERTURE LIST*
%ADD10C,0.050000*%
%ADD11C,0.200000*%
%ADD12C,0.100000*%
G04 APERTURE END LIST*
D10*
X6793500Y-8150000D02*
X9206500Y-8150000D01*
X6506013Y-7960704D02*
X6505749Y-7959179D01*
X6505490Y-7957643D01*
X6505237Y-7956094D01*
X6504991Y-7954534D01*
X6504751Y-7952960D01*
X6504516Y-7951374D01*
X6504288Y-7949773D01*
X6504065Y-7948159D01*
X6503849Y-7946529D01*
X6503639Y-7944884D01*
X6503434Y-7943224D01*
X6503236Y-7941546D01*
X6503043Y-7939852D01*
X6502857Y-7938139D01*
X6502676Y-7936407D01*
X6502502Y-7934656D01*
X6502333Y-7932884D01*
X6502170Y-7931091D01*
X6502014Y-7929275D01*
X6501863Y-7927435D01*
X6501718Y-7925570D01*
X6501579Y-7923679D01*
X6501446Y-7921759D01*
X6501319Y-7919810D01*
X6501197Y-7917830D01*
X6501082Y-7915815D01*
X6500972Y-7913765D01*
X6500869Y-7911677D01*
X6500771Y-7909547D01*
X6500679Y-7907373D01*
X6500593Y-7905150D01*
X6500513Y-7902874D01*
X6500439Y-7900540D01*
X6500370Y-7898142D01*
X6500308Y-7895673D01*
X6500251Y-7893123D01*
X6500200Y-7890483D01*
X6500155Y-7887738D01*
X6500116Y-7884870D01*
X6500083Y-7881855D01*
X6500055Y-7878660D01*
X6500033Y-7875236D01*
X6500017Y-7871504D01*
X6500006Y-7867323D01*
X6500001Y-7862388D01*
X6500000Y-7856500D01*
X6534001Y-8039411D02*
X6533348Y-8038283D01*
X6532701Y-8037151D01*
X6532062Y-8036014D01*
X6531429Y-8034873D01*
X6530802Y-8033728D01*
X6530182Y-8032578D01*
X6529569Y-8031424D01*
X6528963Y-8030265D01*
X6528363Y-8029102D01*
X6527770Y-8027934D01*
X6527183Y-8026761D01*
X6526603Y-8025584D01*
X6526030Y-8024402D01*
X6525463Y-8023216D01*
X6524903Y-8022024D01*
X6524349Y-8020828D01*
X6523801Y-8019626D01*
X6523261Y-8018420D01*
X6522726Y-8017209D01*
X6522198Y-8015993D01*
X6521677Y-8014772D01*
X6521162Y-8013545D01*
X6520653Y-8012313D01*
X6520151Y-8011076D01*
X6519656Y-8009834D01*
X6519167Y-8008586D01*
X6518684Y-8007333D01*
X6518208Y-8006074D01*
X6517738Y-8004810D01*
X6517274Y-8003540D01*
X6516817Y-8002264D01*
X6516366Y-8000983D01*
X6515921Y-7999695D01*
X6515483Y-7998402D01*
X6515052Y-7997102D01*
X6514626Y-7995797D01*
X6514207Y-7994485D01*
X6513794Y-7993166D01*
X6513388Y-7991842D01*
X6512988Y-7990510D01*
X6512594Y-7989172D01*
X6512206Y-7987827D01*
X6511825Y-7986476D01*
X6511450Y-7985117D01*
X6511081Y-7983751D01*
X6510719Y-7982377D01*
X6510363Y-7980997D01*
X6510013Y-7979608D01*
X6509669Y-7978212D01*
X6509331Y-7976807D01*
X6509000Y-7975394D01*
X6508675Y-7973973D01*
X6508356Y-7972544D01*
X6508043Y-7971105D01*
X6507736Y-7969657D01*
X6507435Y-7968200D01*
X6507141Y-7966733D01*
X6506852Y-7965256D01*
X6506570Y-7963768D01*
X6506294Y-7962270D01*
X6506023Y-7960760D01*
X6506013Y-7960704D01*
X6588362Y-8101084D02*
X6587844Y-8100686D01*
X6587327Y-8100285D01*
X6586811Y-8099884D01*
X6586296Y-8099480D01*
X6585783Y-8099075D01*
X6585270Y-8098668D01*
X6584759Y-8098260D01*
X6584249Y-8097850D01*
X6583741Y-8097438D01*
X6583233Y-8097025D01*
X6582727Y-8096611D01*
X6582222Y-8096194D01*
X6581719Y-8095777D01*
X6581216Y-8095357D01*
X6580715Y-8094937D01*
X6580215Y-8094514D01*
X6579717Y-8094091D01*
X6579220Y-8093665D01*
X6578724Y-8093238D01*
X6578229Y-8092810D01*
X6577736Y-8092380D01*
X6577244Y-8091949D01*
X6576754Y-8091516D01*
X6576265Y-8091081D01*
X6575777Y-8090646D01*
X6575290Y-8090208D01*
X6574806Y-8089770D01*
X6574322Y-8089329D01*
X6573839Y-8088888D01*
X6573358Y-8088444D01*
X6572879Y-8088000D01*
X6572400Y-8087553D01*
X6571924Y-8087106D01*
X6571448Y-8086657D01*
X6570975Y-8086207D01*
X6570502Y-8085755D01*
X6570031Y-8085302D01*
X6569561Y-8084847D01*
X6569093Y-8084391D01*
X6568626Y-8083934D01*
X6568160Y-8083475D01*
X6567696Y-8083015D01*
X6567234Y-8082553D01*
X6566773Y-8082090D01*
X6566313Y-8081626D01*
X6565855Y-8081160D01*
X6565398Y-8080693D01*
X6564943Y-8080224D01*
X6564489Y-8079755D01*
X6564037Y-8079283D01*
X6563586Y-8078811D01*
X6563137Y-8078337D01*
X6562689Y-8077862D01*
X6562242Y-8077385D01*
X6561798Y-8076907D01*
X6561354Y-8076428D01*
X6560913Y-8075947D01*
X6560472Y-8075465D01*
X6560033Y-8074982D01*
X6559596Y-8074498D01*
X6559160Y-8074012D01*
X6558726Y-8073525D01*
X6558293Y-8073037D01*
X6557862Y-8072547D01*
X6557432Y-8072056D01*
X6557004Y-8071563D01*
X6556578Y-8071070D01*
X6556152Y-8070575D01*
X6555729Y-8070079D01*
X6555307Y-8069581D01*
X6554887Y-8069083D01*
X6554467Y-8068583D01*
X6554050Y-8068082D01*
X6553634Y-8067579D01*
X6553220Y-8067075D01*
X6552808Y-8066570D01*
X6552397Y-8066064D01*
X6551987Y-8065556D01*
X6551579Y-8065048D01*
X6551173Y-8064538D01*
X6550768Y-8064027D01*
X6550365Y-8063514D01*
X6549963Y-8063001D01*
X6549563Y-8062486D01*
X6549165Y-8061970D01*
X6548768Y-8061452D01*
X6548373Y-8060934D01*
X6547979Y-8060414D01*
X6547587Y-8059893D01*
X6547197Y-8059371D01*
X6546808Y-8058848D01*
X6546421Y-8058323D01*
X6546035Y-8057797D01*
X6545651Y-8057270D01*
X6545269Y-8056742D01*
X6544888Y-8056213D01*
X6544509Y-8055682D01*
X6544131Y-8055150D01*
X6543755Y-8054618D01*
X6543381Y-8054083D01*
X6543008Y-8053548D01*
X6542637Y-8053012D01*
X6542268Y-8052474D01*
X6541900Y-8051935D01*
X6541534Y-8051396D01*
X6541169Y-8050854D01*
X6540806Y-8050312D01*
X6540445Y-8049768D01*
X6540085Y-8049224D01*
X6539727Y-8048678D01*
X6539371Y-8048132D01*
X6539016Y-8047583D01*
X6538663Y-8047034D01*
X6538311Y-8046484D01*
X6537962Y-8045932D01*
X6537613Y-8045380D01*
X6537267Y-8044826D01*
X6536922Y-8044271D01*
X6536579Y-8043715D01*
X6536237Y-8043158D01*
X6535898Y-8042600D01*
X6535559Y-8042040D01*
X6535223Y-8041480D01*
X6534888Y-8040918D01*
X6534555Y-8040355D01*
X6534223Y-8039791D01*
X6534001Y-8039411D01*
X6666502Y-8138987D02*
X6665811Y-8138802D01*
X6665117Y-8138614D01*
X6664430Y-8138427D01*
X6663740Y-8138236D01*
X6663058Y-8138045D01*
X6662373Y-8137852D01*
X6661695Y-8137658D01*
X6661013Y-8137461D01*
X6660339Y-8137264D01*
X6659662Y-8137064D01*
X6658992Y-8136865D01*
X6658318Y-8136662D01*
X6657651Y-8136459D01*
X6656982Y-8136253D01*
X6656318Y-8136046D01*
X6655652Y-8135837D01*
X6654992Y-8135628D01*
X6654330Y-8135415D01*
X6653673Y-8135203D01*
X6653014Y-8134987D01*
X6652360Y-8134772D01*
X6651704Y-8134553D01*
X6651054Y-8134334D01*
X6650401Y-8134112D01*
X6649753Y-8133890D01*
X6649104Y-8133664D01*
X6648459Y-8133439D01*
X6647813Y-8133211D01*
X6647171Y-8132982D01*
X6646527Y-8132750D01*
X6645889Y-8132518D01*
X6645248Y-8132283D01*
X6644612Y-8132048D01*
X6643974Y-8131810D01*
X6643341Y-8131571D01*
X6642706Y-8131330D01*
X6642076Y-8131088D01*
X6641444Y-8130844D01*
X6640816Y-8130599D01*
X6640187Y-8130351D01*
X6639562Y-8130102D01*
X6638935Y-8129851D01*
X6638313Y-8129600D01*
X6637689Y-8129345D01*
X6637069Y-8129090D01*
X6636448Y-8128833D01*
X6635831Y-8128575D01*
X6635212Y-8128314D01*
X6634598Y-8128052D01*
X6633982Y-8127788D01*
X6633370Y-8127523D01*
X6632757Y-8127256D01*
X6632147Y-8126988D01*
X6631537Y-8126717D01*
X6630930Y-8126446D01*
X6630322Y-8126172D01*
X6629717Y-8125897D01*
X6629112Y-8125620D01*
X6628510Y-8125342D01*
X6627907Y-8125062D01*
X6627307Y-8124780D01*
X6626707Y-8124497D01*
X6626110Y-8124212D01*
X6625512Y-8123925D01*
X6624917Y-8123637D01*
X6624322Y-8123347D01*
X6623730Y-8123056D01*
X6623137Y-8122762D01*
X6622547Y-8122468D01*
X6621957Y-8122171D01*
X6621369Y-8121874D01*
X6620781Y-8121573D01*
X6620196Y-8121273D01*
X6619611Y-8120969D01*
X6619028Y-8120665D01*
X6618445Y-8120358D01*
X6617865Y-8120051D01*
X6617285Y-8119741D01*
X6616707Y-8119430D01*
X6616129Y-8119117D01*
X6615553Y-8118803D01*
X6614977Y-8118486D01*
X6614404Y-8118169D01*
X6613831Y-8117849D01*
X6613260Y-8117529D01*
X6612689Y-8117206D01*
X6612121Y-8116882D01*
X6611552Y-8116555D01*
X6610986Y-8116228D01*
X6610420Y-8115899D01*
X6609857Y-8115568D01*
X6609293Y-8115235D01*
X6608731Y-8114901D01*
X6608170Y-8114565D01*
X6607611Y-8114228D01*
X6607052Y-8113889D01*
X6606495Y-8113548D01*
X6605938Y-8113206D01*
X6605384Y-8112862D01*
X6604829Y-8112516D01*
X6604277Y-8112169D01*
X6603725Y-8111820D01*
X6603175Y-8111470D01*
X6602625Y-8111117D01*
X6602078Y-8110763D01*
X6601530Y-8110407D01*
X6600985Y-8110051D01*
X6600440Y-8109691D01*
X6599897Y-8109331D01*
X6599354Y-8108969D01*
X6598813Y-8108605D01*
X6598273Y-8108239D01*
X6597734Y-8107873D01*
X6597196Y-8107504D01*
X6596660Y-8107134D01*
X6596124Y-8106761D01*
X6595590Y-8106388D01*
X6595056Y-8106012D01*
X6594525Y-8105635D01*
X6593993Y-8105256D01*
X6593464Y-8104876D01*
X6592935Y-8104494D01*
X6592408Y-8104110D01*
X6591880Y-8103725D01*
X6591356Y-8103338D01*
X6590831Y-8102949D01*
X6590308Y-8102559D01*
X6589786Y-8102166D01*
X6589266Y-8101773D01*
X6588745Y-8101377D01*
X6588362Y-8101084D01*
X6793500Y-8150000D02*
X6789452Y-8150000D01*
X6785410Y-8149997D01*
X6781372Y-8149991D01*
X6777339Y-8149978D01*
X6775325Y-8149969D01*
X6773311Y-8149958D01*
X6771299Y-8149944D01*
X6769289Y-8149927D01*
X6767279Y-8149908D01*
X6765271Y-8149885D01*
X6763264Y-8149858D01*
X6761258Y-8149828D01*
X6759254Y-8149794D01*
X6757251Y-8149755D01*
X6755249Y-8149712D01*
X6753248Y-8149664D01*
X6751249Y-8149611D01*
X6749251Y-8149553D01*
X6747254Y-8149489D01*
X6745259Y-8149419D01*
X6743265Y-8149344D01*
X6741272Y-8149262D01*
X6739280Y-8149173D01*
X6737290Y-8149078D01*
X6735301Y-8148975D01*
X6733313Y-8148866D01*
X6731326Y-8148748D01*
X6730333Y-8148687D01*
X6729341Y-8148623D01*
X6728349Y-8148558D01*
X6727357Y-8148490D01*
X6726366Y-8148420D01*
X6725374Y-8148349D01*
X6724384Y-8148275D01*
X6723393Y-8148199D01*
X6722403Y-8148120D01*
X6721413Y-8148040D01*
X6720423Y-8147957D01*
X6719434Y-8147872D01*
X6718445Y-8147784D01*
X6717457Y-8147695D01*
X6716468Y-8147602D01*
X6715480Y-8147508D01*
X6714493Y-8147411D01*
X6713506Y-8147311D01*
X6712519Y-8147209D01*
X6711532Y-8147104D01*
X6710546Y-8146997D01*
X6709560Y-8146887D01*
X6708574Y-8146775D01*
X6707589Y-8146660D01*
X6706604Y-8146542D01*
X6705619Y-8146421D01*
X6704635Y-8146298D01*
X6703651Y-8146172D01*
X6702667Y-8146043D01*
X6701684Y-8145911D01*
X6700701Y-8145776D01*
X6699718Y-8145638D01*
X6698736Y-8145497D01*
X6697754Y-8145354D01*
X6696772Y-8145207D01*
X6695790Y-8145057D01*
X6694809Y-8144904D01*
X6693829Y-8144748D01*
X6692848Y-8144589D01*
X6691868Y-8144427D01*
X6690888Y-8144261D01*
X6689909Y-8144093D01*
X6688930Y-8143921D01*
X6687951Y-8143745D01*
X6686973Y-8143567D01*
X6685995Y-8143385D01*
X6685017Y-8143199D01*
X6684039Y-8143010D01*
X6683062Y-8142818D01*
X6682085Y-8142622D01*
X6681109Y-8142423D01*
X6680133Y-8142220D01*
X6679157Y-8142013D01*
X6678182Y-8141803D01*
X6677207Y-8141589D01*
X6676232Y-8141371D01*
X6675257Y-8141150D01*
X6674283Y-8140925D01*
X6673309Y-8140697D01*
X6672336Y-8140464D01*
X6671363Y-8140228D01*
X6670390Y-8139987D01*
X6669418Y-8139743D01*
X6668445Y-8139495D01*
X6667474Y-8139243D01*
X6666502Y-8138987D01*
X6500000Y-4293500D02*
X6500000Y-7856500D01*
X6689296Y-4006013D02*
X6690821Y-4005749D01*
X6692357Y-4005490D01*
X6693906Y-4005237D01*
X6695466Y-4004991D01*
X6697040Y-4004751D01*
X6698626Y-4004516D01*
X6700227Y-4004288D01*
X6701841Y-4004065D01*
X6703471Y-4003849D01*
X6705116Y-4003639D01*
X6706776Y-4003434D01*
X6708454Y-4003236D01*
X6710148Y-4003043D01*
X6711861Y-4002857D01*
X6713592Y-4002676D01*
X6715344Y-4002502D01*
X6717115Y-4002333D01*
X6718909Y-4002170D01*
X6720725Y-4002014D01*
X6722565Y-4001863D01*
X6724430Y-4001718D01*
X6726321Y-4001579D01*
X6728241Y-4001446D01*
X6730190Y-4001319D01*
X6732170Y-4001197D01*
X6734185Y-4001082D01*
X6736235Y-4000972D01*
X6738323Y-4000869D01*
X6740453Y-4000771D01*
X6742627Y-4000679D01*
X6744850Y-4000593D01*
X6747126Y-4000513D01*
X6749460Y-4000439D01*
X6751858Y-4000370D01*
X6754327Y-4000308D01*
X6756876Y-4000251D01*
X6759517Y-4000200D01*
X6762262Y-4000155D01*
X6765130Y-4000116D01*
X6768145Y-4000083D01*
X6771340Y-4000055D01*
X6774764Y-4000033D01*
X6778496Y-4000017D01*
X6782677Y-4000006D01*
X6787612Y-4000001D01*
X6793500Y-4000000D01*
X6610589Y-4034001D02*
X6611717Y-4033348D01*
X6612849Y-4032701D01*
X6613986Y-4032062D01*
X6615127Y-4031429D01*
X6616272Y-4030802D01*
X6617422Y-4030182D01*
X6618576Y-4029569D01*
X6619735Y-4028963D01*
X6620898Y-4028363D01*
X6622066Y-4027770D01*
X6623238Y-4027183D01*
X6624416Y-4026603D01*
X6625598Y-4026030D01*
X6626784Y-4025463D01*
X6627976Y-4024903D01*
X6629172Y-4024349D01*
X6630373Y-4023801D01*
X6631580Y-4023261D01*
X6632791Y-4022726D01*
X6634007Y-4022198D01*
X6635228Y-4021677D01*
X6636455Y-4021162D01*
X6637687Y-4020653D01*
X6638924Y-4020151D01*
X6640166Y-4019656D01*
X6641414Y-4019167D01*
X6642667Y-4018684D01*
X6643926Y-4018208D01*
X6645190Y-4017738D01*
X6646460Y-4017274D01*
X6647736Y-4016817D01*
X6649017Y-4016366D01*
X6650305Y-4015921D01*
X6651598Y-4015483D01*
X6652897Y-4015052D01*
X6654203Y-4014626D01*
X6655515Y-4014207D01*
X6656833Y-4013794D01*
X6658158Y-4013388D01*
X6659490Y-4012988D01*
X6660828Y-4012594D01*
X6662172Y-4012206D01*
X6663524Y-4011825D01*
X6664883Y-4011450D01*
X6666249Y-4011081D01*
X6667622Y-4010719D01*
X6669003Y-4010363D01*
X6670392Y-4010013D01*
X6671788Y-4009669D01*
X6673193Y-4009331D01*
X6674605Y-4009000D01*
X6676027Y-4008675D01*
X6677456Y-4008356D01*
X6678895Y-4008043D01*
X6680343Y-4007736D01*
X6681800Y-4007435D01*
X6683267Y-4007141D01*
X6684744Y-4006852D01*
X6686232Y-4006570D01*
X6687730Y-4006294D01*
X6689240Y-4006023D01*
X6689296Y-4006013D01*
X6548915Y-4088362D02*
X6549314Y-4087844D01*
X6549715Y-4087327D01*
X6550116Y-4086811D01*
X6550520Y-4086296D01*
X6550925Y-4085783D01*
X6551332Y-4085270D01*
X6551740Y-4084759D01*
X6552150Y-4084249D01*
X6552561Y-4083741D01*
X6552975Y-4083233D01*
X6553389Y-4082727D01*
X6553805Y-4082222D01*
X6554223Y-4081719D01*
X6554642Y-4081216D01*
X6555063Y-4080715D01*
X6555486Y-4080215D01*
X6555909Y-4079717D01*
X6556335Y-4079220D01*
X6556761Y-4078724D01*
X6557190Y-4078229D01*
X6557620Y-4077736D01*
X6558051Y-4077244D01*
X6558484Y-4076754D01*
X6558919Y-4076265D01*
X6559354Y-4075777D01*
X6559792Y-4075290D01*
X6560230Y-4074806D01*
X6560671Y-4074322D01*
X6561112Y-4073839D01*
X6561556Y-4073358D01*
X6562000Y-4072879D01*
X6562446Y-4072400D01*
X6562894Y-4071924D01*
X6563343Y-4071448D01*
X6563793Y-4070975D01*
X6564245Y-4070502D01*
X6564698Y-4070031D01*
X6565153Y-4069561D01*
X6565609Y-4069093D01*
X6566066Y-4068626D01*
X6566525Y-4068160D01*
X6566985Y-4067696D01*
X6567447Y-4067234D01*
X6567910Y-4066773D01*
X6568374Y-4066313D01*
X6568840Y-4065855D01*
X6569307Y-4065398D01*
X6569776Y-4064943D01*
X6570245Y-4064489D01*
X6570717Y-4064037D01*
X6571189Y-4063586D01*
X6571663Y-4063137D01*
X6572138Y-4062689D01*
X6572615Y-4062242D01*
X6573093Y-4061798D01*
X6573572Y-4061354D01*
X6574052Y-4060913D01*
X6574535Y-4060472D01*
X6575018Y-4060033D01*
X6575502Y-4059596D01*
X6575988Y-4059160D01*
X6576475Y-4058726D01*
X6576963Y-4058293D01*
X6577453Y-4057862D01*
X6577944Y-4057432D01*
X6578437Y-4057004D01*
X6578930Y-4056578D01*
X6579425Y-4056152D01*
X6579921Y-4055729D01*
X6580419Y-4055307D01*
X6580917Y-4054887D01*
X6581417Y-4054467D01*
X6581918Y-4054050D01*
X6582421Y-4053634D01*
X6582925Y-4053220D01*
X6583430Y-4052808D01*
X6583936Y-4052397D01*
X6584444Y-4051987D01*
X6584952Y-4051579D01*
X6585462Y-4051173D01*
X6585973Y-4050768D01*
X6586486Y-4050365D01*
X6586999Y-4049963D01*
X6587514Y-4049563D01*
X6588030Y-4049165D01*
X6588548Y-4048768D01*
X6589066Y-4048373D01*
X6589586Y-4047979D01*
X6590107Y-4047587D01*
X6590629Y-4047197D01*
X6591152Y-4046808D01*
X6591677Y-4046421D01*
X6592203Y-4046035D01*
X6592730Y-4045651D01*
X6593258Y-4045269D01*
X6593787Y-4044888D01*
X6594318Y-4044509D01*
X6594850Y-4044131D01*
X6595382Y-4043755D01*
X6595917Y-4043381D01*
X6596452Y-4043008D01*
X6596988Y-4042637D01*
X6597526Y-4042268D01*
X6598065Y-4041900D01*
X6598604Y-4041534D01*
X6599146Y-4041169D01*
X6599688Y-4040806D01*
X6600231Y-4040445D01*
X6600776Y-4040085D01*
X6601322Y-4039727D01*
X6601868Y-4039371D01*
X6602417Y-4039016D01*
X6602966Y-4038663D01*
X6603516Y-4038311D01*
X6604067Y-4037962D01*
X6604620Y-4037613D01*
X6605174Y-4037267D01*
X6605729Y-4036922D01*
X6606285Y-4036579D01*
X6606842Y-4036237D01*
X6607400Y-4035898D01*
X6607960Y-4035559D01*
X6608520Y-4035223D01*
X6609082Y-4034888D01*
X6609645Y-4034555D01*
X6610209Y-4034223D01*
X6610589Y-4034001D01*
X6511013Y-4166502D02*
X6511198Y-4165811D01*
X6511386Y-4165117D01*
X6511573Y-4164430D01*
X6511764Y-4163740D01*
X6511955Y-4163058D01*
X6512148Y-4162373D01*
X6512342Y-4161695D01*
X6512539Y-4161013D01*
X6512736Y-4160339D01*
X6512935Y-4159662D01*
X6513135Y-4158992D01*
X6513338Y-4158318D01*
X6513541Y-4157651D01*
X6513747Y-4156982D01*
X6513954Y-4156318D01*
X6514163Y-4155652D01*
X6514372Y-4154992D01*
X6514584Y-4154330D01*
X6514797Y-4153673D01*
X6515013Y-4153014D01*
X6515228Y-4152360D01*
X6515447Y-4151704D01*
X6515666Y-4151054D01*
X6515888Y-4150401D01*
X6516110Y-4149753D01*
X6516335Y-4149104D01*
X6516561Y-4148459D01*
X6516789Y-4147813D01*
X6517018Y-4147171D01*
X6517250Y-4146527D01*
X6517482Y-4145889D01*
X6517717Y-4145248D01*
X6517952Y-4144612D01*
X6518190Y-4143974D01*
X6518428Y-4143341D01*
X6518670Y-4142706D01*
X6518912Y-4142076D01*
X6519156Y-4141444D01*
X6519401Y-4140816D01*
X6519649Y-4140187D01*
X6519897Y-4139562D01*
X6520149Y-4138935D01*
X6520400Y-4138313D01*
X6520655Y-4137689D01*
X6520909Y-4137069D01*
X6521167Y-4136448D01*
X6521425Y-4135831D01*
X6521686Y-4135212D01*
X6521948Y-4134598D01*
X6522212Y-4133982D01*
X6522477Y-4133370D01*
X6522744Y-4132757D01*
X6523012Y-4132147D01*
X6523283Y-4131537D01*
X6523554Y-4130930D01*
X6523828Y-4130322D01*
X6524103Y-4129717D01*
X6524380Y-4129112D01*
X6524658Y-4128510D01*
X6524938Y-4127907D01*
X6525219Y-4127307D01*
X6525503Y-4126707D01*
X6525788Y-4126110D01*
X6526075Y-4125512D01*
X6526363Y-4124917D01*
X6526653Y-4124322D01*
X6526944Y-4123730D01*
X6527238Y-4123137D01*
X6527532Y-4122547D01*
X6527829Y-4121957D01*
X6528126Y-4121369D01*
X6528426Y-4120781D01*
X6528727Y-4120196D01*
X6529031Y-4119611D01*
X6529335Y-4119028D01*
X6529642Y-4118445D01*
X6529949Y-4117865D01*
X6530259Y-4117285D01*
X6530570Y-4116707D01*
X6530883Y-4116129D01*
X6531197Y-4115553D01*
X6531514Y-4114977D01*
X6531831Y-4114404D01*
X6532151Y-4113831D01*
X6532471Y-4113260D01*
X6532794Y-4112689D01*
X6533118Y-4112121D01*
X6533445Y-4111552D01*
X6533772Y-4110986D01*
X6534101Y-4110420D01*
X6534432Y-4109857D01*
X6534765Y-4109293D01*
X6535098Y-4108731D01*
X6535435Y-4108170D01*
X6535772Y-4107611D01*
X6536111Y-4107052D01*
X6536451Y-4106495D01*
X6536794Y-4105938D01*
X6537138Y-4105384D01*
X6537484Y-4104829D01*
X6537831Y-4104277D01*
X6538180Y-4103725D01*
X6538530Y-4103175D01*
X6538883Y-4102625D01*
X6539237Y-4102078D01*
X6539593Y-4101530D01*
X6539949Y-4100985D01*
X6540309Y-4100440D01*
X6540669Y-4099897D01*
X6541031Y-4099354D01*
X6541395Y-4098813D01*
X6541760Y-4098273D01*
X6542127Y-4097734D01*
X6542496Y-4097196D01*
X6542866Y-4096660D01*
X6543239Y-4096124D01*
X6543612Y-4095590D01*
X6543988Y-4095056D01*
X6544365Y-4094525D01*
X6544744Y-4093993D01*
X6545124Y-4093464D01*
X6545506Y-4092935D01*
X6545890Y-4092408D01*
X6546275Y-4091880D01*
X6546662Y-4091356D01*
X6547051Y-4090831D01*
X6547441Y-4090308D01*
X6547833Y-4089786D01*
X6548227Y-4089266D01*
X6548622Y-4088745D01*
X6548915Y-4088362D01*
X6500000Y-4293500D02*
X6500000Y-4289452D01*
X6500003Y-4285410D01*
X6500009Y-4281372D01*
X6500021Y-4277339D01*
X6500031Y-4275325D01*
X6500042Y-4273311D01*
X6500056Y-4271300D01*
X6500073Y-4269289D01*
X6500092Y-4267279D01*
X6500115Y-4265271D01*
X6500142Y-4263264D01*
X6500172Y-4261259D01*
X6500206Y-4259254D01*
X6500245Y-4257251D01*
X6500288Y-4255249D01*
X6500336Y-4253249D01*
X6500389Y-4251249D01*
X6500447Y-4249251D01*
X6500511Y-4247254D01*
X6500581Y-4245259D01*
X6500656Y-4243265D01*
X6500738Y-4241272D01*
X6500827Y-4239280D01*
X6500922Y-4237290D01*
X6501025Y-4235301D01*
X6501134Y-4233313D01*
X6501252Y-4231326D01*
X6501313Y-4230334D01*
X6501377Y-4229341D01*
X6501442Y-4228349D01*
X6501510Y-4227357D01*
X6501579Y-4226366D01*
X6501651Y-4225374D01*
X6501725Y-4224384D01*
X6501801Y-4223393D01*
X6501880Y-4222403D01*
X6501960Y-4221413D01*
X6502043Y-4220423D01*
X6502128Y-4219434D01*
X6502215Y-4218445D01*
X6502305Y-4217457D01*
X6502397Y-4216469D01*
X6502492Y-4215481D01*
X6502589Y-4214493D01*
X6502689Y-4213506D01*
X6502791Y-4212519D01*
X6502895Y-4211532D01*
X6503003Y-4210546D01*
X6503113Y-4209560D01*
X6503225Y-4208574D01*
X6503340Y-4207589D01*
X6503458Y-4206604D01*
X6503579Y-4205619D01*
X6503702Y-4204635D01*
X6503828Y-4203651D01*
X6503957Y-4202667D01*
X6504089Y-4201684D01*
X6504224Y-4200701D01*
X6504362Y-4199718D01*
X6504502Y-4198736D01*
X6504646Y-4197754D01*
X6504793Y-4196772D01*
X6504943Y-4195790D01*
X6505096Y-4194809D01*
X6505252Y-4193829D01*
X6505411Y-4192848D01*
X6505573Y-4191868D01*
X6505738Y-4190888D01*
X6505907Y-4189909D01*
X6506079Y-4188930D01*
X6506255Y-4187951D01*
X6506433Y-4186973D01*
X6506615Y-4185995D01*
X6506801Y-4185017D01*
X6506990Y-4184039D01*
X6507182Y-4183062D01*
X6507378Y-4182085D01*
X6507577Y-4181109D01*
X6507780Y-4180133D01*
X6507987Y-4179157D01*
X6508197Y-4178182D01*
X6508411Y-4177207D01*
X6508628Y-4176232D01*
X6508850Y-4175257D01*
X6509075Y-4174283D01*
X6509303Y-4173309D01*
X6509536Y-4172336D01*
X6509772Y-4171363D01*
X6510013Y-4170390D01*
X6510257Y-4169418D01*
X6510505Y-4168445D01*
X6510757Y-4167474D01*
X6511013Y-4166502D01*
X9206500Y-4000000D02*
X6793500Y-4000000D01*
X9493987Y-4189296D02*
X9494251Y-4190821D01*
X9494510Y-4192357D01*
X9494763Y-4193906D01*
X9495009Y-4195466D01*
X9495249Y-4197040D01*
X9495484Y-4198626D01*
X9495712Y-4200227D01*
X9495935Y-4201841D01*
X9496151Y-4203471D01*
X9496361Y-4205116D01*
X9496566Y-4206776D01*
X9496764Y-4208454D01*
X9496957Y-4210148D01*
X9497143Y-4211861D01*
X9497324Y-4213593D01*
X9497498Y-4215344D01*
X9497667Y-4217116D01*
X9497830Y-4218909D01*
X9497986Y-4220725D01*
X9498137Y-4222565D01*
X9498282Y-4224430D01*
X9498421Y-4226321D01*
X9498554Y-4228241D01*
X9498681Y-4230190D01*
X9498803Y-4232170D01*
X9498918Y-4234185D01*
X9499028Y-4236235D01*
X9499131Y-4238323D01*
X9499229Y-4240453D01*
X9499321Y-4242627D01*
X9499407Y-4244850D01*
X9499487Y-4247126D01*
X9499561Y-4249460D01*
X9499630Y-4251858D01*
X9499692Y-4254327D01*
X9499749Y-4256877D01*
X9499800Y-4259517D01*
X9499845Y-4262262D01*
X9499884Y-4265130D01*
X9499917Y-4268145D01*
X9499945Y-4271340D01*
X9499967Y-4274764D01*
X9499983Y-4278496D01*
X9499994Y-4282677D01*
X9499999Y-4287612D01*
X9500000Y-4293500D01*
X9465999Y-4110589D02*
X9466652Y-4111717D01*
X9467299Y-4112849D01*
X9467938Y-4113986D01*
X9468571Y-4115127D01*
X9469198Y-4116272D01*
X9469818Y-4117422D01*
X9470431Y-4118576D01*
X9471037Y-4119735D01*
X9471637Y-4120898D01*
X9472230Y-4122066D01*
X9472817Y-4123238D01*
X9473397Y-4124416D01*
X9473970Y-4125598D01*
X9474537Y-4126784D01*
X9475097Y-4127976D01*
X9475651Y-4129172D01*
X9476199Y-4130373D01*
X9476739Y-4131580D01*
X9477274Y-4132791D01*
X9477802Y-4134007D01*
X9478323Y-4135228D01*
X9478838Y-4136455D01*
X9479347Y-4137687D01*
X9479849Y-4138924D01*
X9480344Y-4140166D01*
X9480833Y-4141414D01*
X9481316Y-4142667D01*
X9481792Y-4143926D01*
X9482262Y-4145190D01*
X9482726Y-4146460D01*
X9483183Y-4147736D01*
X9483634Y-4149017D01*
X9484079Y-4150305D01*
X9484517Y-4151598D01*
X9484948Y-4152897D01*
X9485374Y-4154203D01*
X9485793Y-4155515D01*
X9486206Y-4156833D01*
X9486612Y-4158158D01*
X9487012Y-4159490D01*
X9487406Y-4160828D01*
X9487794Y-4162172D01*
X9488175Y-4163524D01*
X9488550Y-4164883D01*
X9488919Y-4166249D01*
X9489281Y-4167622D01*
X9489637Y-4169003D01*
X9489987Y-4170392D01*
X9490331Y-4171788D01*
X9490669Y-4173193D01*
X9491000Y-4174605D01*
X9491325Y-4176027D01*
X9491644Y-4177456D01*
X9491957Y-4178895D01*
X9492264Y-4180343D01*
X9492565Y-4181800D01*
X9492859Y-4183267D01*
X9493148Y-4184744D01*
X9493430Y-4186232D01*
X9493706Y-4187730D01*
X9493977Y-4189240D01*
X9493987Y-4189296D01*
X9411638Y-4048915D02*
X9412156Y-4049314D01*
X9412673Y-4049715D01*
X9413189Y-4050116D01*
X9413704Y-4050520D01*
X9414217Y-4050925D01*
X9414730Y-4051332D01*
X9415241Y-4051740D01*
X9415751Y-4052150D01*
X9416259Y-4052561D01*
X9416767Y-4052975D01*
X9417273Y-4053389D01*
X9417778Y-4053805D01*
X9418281Y-4054223D01*
X9418784Y-4054642D01*
X9419285Y-4055063D01*
X9419785Y-4055486D01*
X9420283Y-4055909D01*
X9420780Y-4056335D01*
X9421276Y-4056761D01*
X9421771Y-4057190D01*
X9422264Y-4057620D01*
X9422756Y-4058051D01*
X9423246Y-4058484D01*
X9423735Y-4058919D01*
X9424223Y-4059354D01*
X9424710Y-4059792D01*
X9425194Y-4060230D01*
X9425678Y-4060671D01*
X9426161Y-4061112D01*
X9426642Y-4061556D01*
X9427121Y-4062000D01*
X9427600Y-4062446D01*
X9428076Y-4062894D01*
X9428552Y-4063343D01*
X9429025Y-4063793D01*
X9429498Y-4064245D01*
X9429969Y-4064698D01*
X9430439Y-4065153D01*
X9430907Y-4065609D01*
X9431374Y-4066066D01*
X9431840Y-4066525D01*
X9432304Y-4066985D01*
X9432766Y-4067447D01*
X9433227Y-4067910D01*
X9433687Y-4068374D01*
X9434145Y-4068840D01*
X9434602Y-4069307D01*
X9435057Y-4069776D01*
X9435511Y-4070245D01*
X9435963Y-4070717D01*
X9436414Y-4071189D01*
X9436863Y-4071663D01*
X9437311Y-4072138D01*
X9437758Y-4072615D01*
X9438202Y-4073093D01*
X9438646Y-4073572D01*
X9439087Y-4074052D01*
X9439528Y-4074535D01*
X9439967Y-4075018D01*
X9440404Y-4075502D01*
X9440840Y-4075988D01*
X9441274Y-4076475D01*
X9441707Y-4076963D01*
X9442138Y-4077453D01*
X9442568Y-4077944D01*
X9442996Y-4078437D01*
X9443422Y-4078930D01*
X9443848Y-4079425D01*
X9444271Y-4079921D01*
X9444693Y-4080419D01*
X9445113Y-4080917D01*
X9445533Y-4081417D01*
X9445950Y-4081918D01*
X9446366Y-4082421D01*
X9446780Y-4082925D01*
X9447192Y-4083430D01*
X9447603Y-4083936D01*
X9448013Y-4084444D01*
X9448421Y-4084952D01*
X9448827Y-4085462D01*
X9449232Y-4085973D01*
X9449635Y-4086486D01*
X9450037Y-4086999D01*
X9450437Y-4087514D01*
X9450835Y-4088030D01*
X9451232Y-4088548D01*
X9451627Y-4089066D01*
X9452021Y-4089586D01*
X9452413Y-4090107D01*
X9452803Y-4090629D01*
X9453192Y-4091152D01*
X9453579Y-4091677D01*
X9453965Y-4092203D01*
X9454349Y-4092730D01*
X9454731Y-4093258D01*
X9455112Y-4093787D01*
X9455491Y-4094318D01*
X9455869Y-4094850D01*
X9456245Y-4095382D01*
X9456619Y-4095917D01*
X9456992Y-4096452D01*
X9457363Y-4096988D01*
X9457732Y-4097526D01*
X9458100Y-4098065D01*
X9458466Y-4098604D01*
X9458831Y-4099146D01*
X9459194Y-4099688D01*
X9459555Y-4100231D01*
X9459915Y-4100776D01*
X9460273Y-4101322D01*
X9460629Y-4101868D01*
X9460984Y-4102417D01*
X9461337Y-4102966D01*
X9461689Y-4103516D01*
X9462038Y-4104067D01*
X9462387Y-4104620D01*
X9462733Y-4105174D01*
X9463078Y-4105729D01*
X9463421Y-4106285D01*
X9463763Y-4106842D01*
X9464102Y-4107400D01*
X9464441Y-4107960D01*
X9464777Y-4108520D01*
X9465112Y-4109082D01*
X9465445Y-4109645D01*
X9465777Y-4110209D01*
X9465999Y-4110589D01*
X9333498Y-4011013D02*
X9334189Y-4011198D01*
X9334883Y-4011386D01*
X9335570Y-4011573D01*
X9336260Y-4011764D01*
X9336942Y-4011955D01*
X9337627Y-4012148D01*
X9338305Y-4012342D01*
X9338987Y-4012539D01*
X9339661Y-4012736D01*
X9340338Y-4012935D01*
X9341008Y-4013135D01*
X9341682Y-4013338D01*
X9342349Y-4013541D01*
X9343018Y-4013747D01*
X9343682Y-4013954D01*
X9344348Y-4014163D01*
X9345008Y-4014372D01*
X9345670Y-4014584D01*
X9346327Y-4014797D01*
X9346986Y-4015013D01*
X9347640Y-4015228D01*
X9348296Y-4015447D01*
X9348946Y-4015666D01*
X9349599Y-4015888D01*
X9350247Y-4016110D01*
X9350896Y-4016335D01*
X9351541Y-4016561D01*
X9352187Y-4016789D01*
X9352829Y-4017018D01*
X9353473Y-4017250D01*
X9354111Y-4017482D01*
X9354752Y-4017717D01*
X9355388Y-4017952D01*
X9356026Y-4018190D01*
X9356659Y-4018428D01*
X9357294Y-4018670D01*
X9357924Y-4018912D01*
X9358556Y-4019156D01*
X9359184Y-4019401D01*
X9359813Y-4019649D01*
X9360438Y-4019897D01*
X9361065Y-4020149D01*
X9361687Y-4020400D01*
X9362311Y-4020655D01*
X9362931Y-4020909D01*
X9363552Y-4021167D01*
X9364169Y-4021425D01*
X9364788Y-4021686D01*
X9365402Y-4021948D01*
X9366018Y-4022212D01*
X9366630Y-4022477D01*
X9367243Y-4022744D01*
X9367853Y-4023012D01*
X9368463Y-4023283D01*
X9369070Y-4023554D01*
X9369678Y-4023828D01*
X9370283Y-4024103D01*
X9370888Y-4024380D01*
X9371490Y-4024658D01*
X9372093Y-4024938D01*
X9372693Y-4025219D01*
X9373293Y-4025503D01*
X9373890Y-4025788D01*
X9374488Y-4026075D01*
X9375083Y-4026363D01*
X9375678Y-4026653D01*
X9376270Y-4026944D01*
X9376863Y-4027238D01*
X9377453Y-4027532D01*
X9378043Y-4027829D01*
X9378631Y-4028126D01*
X9379219Y-4028426D01*
X9379804Y-4028727D01*
X9380389Y-4029031D01*
X9380972Y-4029335D01*
X9381555Y-4029642D01*
X9382135Y-4029949D01*
X9382715Y-4030259D01*
X9383293Y-4030570D01*
X9383871Y-4030883D01*
X9384447Y-4031197D01*
X9385023Y-4031514D01*
X9385596Y-4031831D01*
X9386169Y-4032151D01*
X9386740Y-4032471D01*
X9387311Y-4032794D01*
X9387879Y-4033118D01*
X9388448Y-4033445D01*
X9389014Y-4033772D01*
X9389580Y-4034101D01*
X9390143Y-4034432D01*
X9390707Y-4034765D01*
X9391269Y-4035098D01*
X9391830Y-4035435D01*
X9392389Y-4035772D01*
X9392948Y-4036111D01*
X9393505Y-4036451D01*
X9394062Y-4036794D01*
X9394616Y-4037138D01*
X9395171Y-4037484D01*
X9395723Y-4037831D01*
X9396275Y-4038180D01*
X9396825Y-4038530D01*
X9397375Y-4038883D01*
X9397922Y-4039237D01*
X9398470Y-4039593D01*
X9399015Y-4039949D01*
X9399560Y-4040309D01*
X9400103Y-4040669D01*
X9400646Y-4041031D01*
X9401187Y-4041395D01*
X9401727Y-4041760D01*
X9402266Y-4042127D01*
X9402804Y-4042496D01*
X9403340Y-4042866D01*
X9403876Y-4043239D01*
X9404410Y-4043612D01*
X9404944Y-4043988D01*
X9405475Y-4044365D01*
X9406007Y-4044744D01*
X9406536Y-4045124D01*
X9407065Y-4045506D01*
X9407592Y-4045890D01*
X9408120Y-4046275D01*
X9408644Y-4046662D01*
X9409169Y-4047051D01*
X9409692Y-4047441D01*
X9410214Y-4047833D01*
X9410734Y-4048227D01*
X9411255Y-4048622D01*
X9411638Y-4048915D01*
X9206500Y-4000000D02*
X9210548Y-4000000D01*
X9214590Y-4000003D01*
X9218628Y-4000009D01*
X9222661Y-4000021D01*
X9224675Y-4000031D01*
X9226689Y-4000042D01*
X9228701Y-4000056D01*
X9230711Y-4000073D01*
X9232721Y-4000092D01*
X9234729Y-4000115D01*
X9236736Y-4000142D01*
X9238742Y-4000172D01*
X9240746Y-4000206D01*
X9242749Y-4000245D01*
X9244751Y-4000288D01*
X9246752Y-4000336D01*
X9248751Y-4000389D01*
X9250749Y-4000447D01*
X9252746Y-4000511D01*
X9254741Y-4000581D01*
X9256735Y-4000656D01*
X9258728Y-4000738D01*
X9260720Y-4000827D01*
X9262710Y-4000922D01*
X9264699Y-4001025D01*
X9266687Y-4001134D01*
X9268674Y-4001252D01*
X9269667Y-4001313D01*
X9270659Y-4001377D01*
X9271651Y-4001442D01*
X9272643Y-4001510D01*
X9273634Y-4001579D01*
X9274626Y-4001651D01*
X9275616Y-4001725D01*
X9276607Y-4001801D01*
X9277597Y-4001880D01*
X9278587Y-4001960D01*
X9279577Y-4002043D01*
X9280566Y-4002128D01*
X9281555Y-4002215D01*
X9282543Y-4002305D01*
X9283532Y-4002397D01*
X9284520Y-4002492D01*
X9285507Y-4002589D01*
X9286494Y-4002689D01*
X9287481Y-4002791D01*
X9288468Y-4002895D01*
X9289454Y-4003003D01*
X9290440Y-4003113D01*
X9291426Y-4003225D01*
X9292411Y-4003340D01*
X9293396Y-4003458D01*
X9294381Y-4003579D01*
X9295365Y-4003702D01*
X9296349Y-4003828D01*
X9297333Y-4003957D01*
X9298316Y-4004089D01*
X9299299Y-4004224D01*
X9300282Y-4004362D01*
X9301264Y-4004502D01*
X9302246Y-4004646D01*
X9303228Y-4004793D01*
X9304210Y-4004943D01*
X9305191Y-4005096D01*
X9306171Y-4005252D01*
X9307152Y-4005411D01*
X9308132Y-4005573D01*
X9309112Y-4005738D01*
X9310091Y-4005907D01*
X9311070Y-4006079D01*
X9312049Y-4006255D01*
X9313027Y-4006433D01*
X9314005Y-4006615D01*
X9314983Y-4006801D01*
X9315961Y-4006990D01*
X9316938Y-4007182D01*
X9317915Y-4007378D01*
X9318891Y-4007577D01*
X9319867Y-4007780D01*
X9320843Y-4007987D01*
X9321818Y-4008197D01*
X9322793Y-4008411D01*
X9323768Y-4008628D01*
X9324743Y-4008850D01*
X9325717Y-4009075D01*
X9326691Y-4009303D01*
X9327664Y-4009536D01*
X9328637Y-4009772D01*
X9329610Y-4010013D01*
X9330582Y-4010257D01*
X9331555Y-4010505D01*
X9332526Y-4010757D01*
X9333498Y-4011013D01*
X9500000Y-7856500D02*
X9500000Y-4293500D01*
X9310704Y-8143987D02*
X9309179Y-8144251D01*
X9307643Y-8144510D01*
X9306094Y-8144762D01*
X9304534Y-8145009D01*
X9302960Y-8145249D01*
X9301374Y-8145484D01*
X9299773Y-8145712D01*
X9298159Y-8145935D01*
X9296529Y-8146151D01*
X9294884Y-8146361D01*
X9293224Y-8146566D01*
X9291546Y-8146764D01*
X9289852Y-8146957D01*
X9288139Y-8147143D01*
X9286408Y-8147324D01*
X9284656Y-8147498D01*
X9282885Y-8147667D01*
X9281091Y-8147829D01*
X9279275Y-8147986D01*
X9277435Y-8148137D01*
X9275570Y-8148282D01*
X9273679Y-8148421D01*
X9271759Y-8148554D01*
X9269810Y-8148681D01*
X9267830Y-8148803D01*
X9265815Y-8148918D01*
X9263765Y-8149028D01*
X9261677Y-8149131D01*
X9259547Y-8149229D01*
X9257373Y-8149321D01*
X9255150Y-8149407D01*
X9252874Y-8149487D01*
X9250540Y-8149561D01*
X9248142Y-8149630D01*
X9245673Y-8149692D01*
X9243124Y-8149749D01*
X9240483Y-8149800D01*
X9237738Y-8149845D01*
X9234870Y-8149884D01*
X9231855Y-8149917D01*
X9228660Y-8149945D01*
X9225236Y-8149967D01*
X9221504Y-8149983D01*
X9217323Y-8149994D01*
X9212388Y-8149999D01*
X9206500Y-8150000D01*
X9389411Y-8115999D02*
X9388283Y-8116652D01*
X9387151Y-8117299D01*
X9386014Y-8117938D01*
X9384873Y-8118571D01*
X9383728Y-8119198D01*
X9382578Y-8119817D01*
X9381424Y-8120430D01*
X9380265Y-8121037D01*
X9379102Y-8121637D01*
X9377934Y-8122230D01*
X9376762Y-8122816D01*
X9375584Y-8123397D01*
X9374402Y-8123970D01*
X9373216Y-8124537D01*
X9372024Y-8125097D01*
X9370828Y-8125651D01*
X9369627Y-8126199D01*
X9368420Y-8126739D01*
X9367209Y-8127274D01*
X9365993Y-8127802D01*
X9364772Y-8128323D01*
X9363545Y-8128838D01*
X9362313Y-8129346D01*
X9361076Y-8129848D01*
X9359834Y-8130344D01*
X9358586Y-8130833D01*
X9357333Y-8131316D01*
X9356074Y-8131792D01*
X9354810Y-8132262D01*
X9353540Y-8132726D01*
X9352264Y-8133183D01*
X9350983Y-8133634D01*
X9349695Y-8134078D01*
X9348402Y-8134517D01*
X9347103Y-8134948D01*
X9345797Y-8135374D01*
X9344485Y-8135793D01*
X9343167Y-8136206D01*
X9341842Y-8136612D01*
X9340510Y-8137012D01*
X9339172Y-8137406D01*
X9337828Y-8137794D01*
X9336476Y-8138175D01*
X9335117Y-8138550D01*
X9333751Y-8138919D01*
X9332378Y-8139281D01*
X9330997Y-8139637D01*
X9329608Y-8139987D01*
X9328212Y-8140331D01*
X9326807Y-8140669D01*
X9325395Y-8141000D01*
X9323973Y-8141325D01*
X9322544Y-8141644D01*
X9321105Y-8141957D01*
X9319657Y-8142264D01*
X9318200Y-8142564D01*
X9316733Y-8142859D01*
X9315256Y-8143147D01*
X9313768Y-8143430D01*
X9312270Y-8143706D01*
X9310760Y-8143977D01*
X9310704Y-8143987D01*
X9451085Y-8061638D02*
X9450686Y-8062156D01*
X9450285Y-8062673D01*
X9449884Y-8063189D01*
X9449480Y-8063704D01*
X9449075Y-8064217D01*
X9448668Y-8064730D01*
X9448260Y-8065241D01*
X9447850Y-8065751D01*
X9447439Y-8066259D01*
X9447025Y-8066767D01*
X9446611Y-8067273D01*
X9446195Y-8067778D01*
X9445777Y-8068281D01*
X9445358Y-8068784D01*
X9444937Y-8069285D01*
X9444514Y-8069785D01*
X9444091Y-8070283D01*
X9443665Y-8070780D01*
X9443239Y-8071276D01*
X9442810Y-8071771D01*
X9442380Y-8072263D01*
X9441949Y-8072756D01*
X9441516Y-8073246D01*
X9441081Y-8073735D01*
X9440646Y-8074223D01*
X9440208Y-8074710D01*
X9439770Y-8075194D01*
X9439329Y-8075678D01*
X9438888Y-8076160D01*
X9438444Y-8076642D01*
X9438000Y-8077121D01*
X9437554Y-8077599D01*
X9437106Y-8078076D01*
X9436657Y-8078552D01*
X9436207Y-8079025D01*
X9435755Y-8079498D01*
X9435302Y-8079969D01*
X9434847Y-8080439D01*
X9434391Y-8080907D01*
X9433934Y-8081374D01*
X9433475Y-8081839D01*
X9433015Y-8082304D01*
X9432553Y-8082766D01*
X9432090Y-8083227D01*
X9431626Y-8083687D01*
X9431160Y-8084145D01*
X9430693Y-8084602D01*
X9430224Y-8085057D01*
X9429755Y-8085511D01*
X9429283Y-8085963D01*
X9428811Y-8086414D01*
X9428337Y-8086863D01*
X9427862Y-8087311D01*
X9427385Y-8087758D01*
X9426907Y-8088202D01*
X9426428Y-8088646D01*
X9425948Y-8089087D01*
X9425465Y-8089528D01*
X9424982Y-8089967D01*
X9424498Y-8090404D01*
X9424012Y-8090840D01*
X9423525Y-8091274D01*
X9423037Y-8091707D01*
X9422547Y-8092138D01*
X9422056Y-8092568D01*
X9421563Y-8092996D01*
X9421070Y-8093422D01*
X9420575Y-8093848D01*
X9420079Y-8094271D01*
X9419581Y-8094693D01*
X9419083Y-8095113D01*
X9418583Y-8095532D01*
X9418082Y-8095950D01*
X9417579Y-8096365D01*
X9417075Y-8096779D01*
X9416570Y-8097192D01*
X9416064Y-8097603D01*
X9415556Y-8098013D01*
X9415048Y-8098421D01*
X9414538Y-8098827D01*
X9414027Y-8099232D01*
X9413514Y-8099635D01*
X9413001Y-8100036D01*
X9412486Y-8100437D01*
X9411970Y-8100835D01*
X9411452Y-8101232D01*
X9410934Y-8101627D01*
X9410414Y-8102021D01*
X9409893Y-8102413D01*
X9409371Y-8102803D01*
X9408848Y-8103192D01*
X9408323Y-8103579D01*
X9407797Y-8103965D01*
X9407270Y-8104349D01*
X9406742Y-8104731D01*
X9406213Y-8105112D01*
X9405682Y-8105491D01*
X9405150Y-8105869D01*
X9404618Y-8106245D01*
X9404083Y-8106619D01*
X9403548Y-8106992D01*
X9403012Y-8107363D01*
X9402474Y-8107732D01*
X9401935Y-8108100D01*
X9401396Y-8108466D01*
X9400854Y-8108831D01*
X9400312Y-8109194D01*
X9399769Y-8109555D01*
X9399224Y-8109915D01*
X9398678Y-8110273D01*
X9398132Y-8110629D01*
X9397583Y-8110984D01*
X9397034Y-8111337D01*
X9396484Y-8111689D01*
X9395933Y-8112038D01*
X9395380Y-8112387D01*
X9394826Y-8112733D01*
X9394271Y-8113078D01*
X9393715Y-8113421D01*
X9393158Y-8113763D01*
X9392600Y-8114102D01*
X9392040Y-8114441D01*
X9391480Y-8114777D01*
X9390918Y-8115112D01*
X9390355Y-8115445D01*
X9389791Y-8115777D01*
X9389411Y-8115999D01*
X9488987Y-7983498D02*
X9488802Y-7984189D01*
X9488614Y-7984883D01*
X9488427Y-7985570D01*
X9488236Y-7986260D01*
X9488045Y-7986942D01*
X9487852Y-7987627D01*
X9487658Y-7988305D01*
X9487461Y-7988987D01*
X9487264Y-7989661D01*
X9487065Y-7990338D01*
X9486865Y-7991008D01*
X9486662Y-7991682D01*
X9486459Y-7992348D01*
X9486253Y-7993018D01*
X9486046Y-7993681D01*
X9485837Y-7994348D01*
X9485628Y-7995008D01*
X9485416Y-7995670D01*
X9485203Y-7996327D01*
X9484987Y-7996986D01*
X9484772Y-7997640D01*
X9484553Y-7998296D01*
X9484334Y-7998946D01*
X9484112Y-7999599D01*
X9483890Y-8000246D01*
X9483665Y-8000896D01*
X9483439Y-8001541D01*
X9483211Y-8002187D01*
X9482982Y-8002829D01*
X9482750Y-8003472D01*
X9482518Y-8004111D01*
X9482283Y-8004752D01*
X9482048Y-8005388D01*
X9481810Y-8006025D01*
X9481572Y-8006659D01*
X9481330Y-8007294D01*
X9481088Y-8007924D01*
X9480844Y-8008556D01*
X9480599Y-8009184D01*
X9480351Y-8009813D01*
X9480103Y-8010438D01*
X9479851Y-8011065D01*
X9479600Y-8011687D01*
X9479345Y-8012311D01*
X9479091Y-8012931D01*
X9478833Y-8013552D01*
X9478575Y-8014169D01*
X9478314Y-8014787D01*
X9478052Y-8015402D01*
X9477788Y-8016018D01*
X9477523Y-8016630D01*
X9477256Y-8017243D01*
X9476988Y-8017853D01*
X9476717Y-8018463D01*
X9476446Y-8019070D01*
X9476172Y-8019678D01*
X9475897Y-8020283D01*
X9475620Y-8020888D01*
X9475342Y-8021490D01*
X9475062Y-8022093D01*
X9474781Y-8022693D01*
X9474497Y-8023293D01*
X9474212Y-8023890D01*
X9473925Y-8024488D01*
X9473637Y-8025083D01*
X9473347Y-8025678D01*
X9473056Y-8026270D01*
X9472762Y-8026863D01*
X9472468Y-8027453D01*
X9472171Y-8028043D01*
X9471874Y-8028631D01*
X9471574Y-8029219D01*
X9471273Y-8029803D01*
X9470969Y-8030389D01*
X9470665Y-8030971D01*
X9470358Y-8031555D01*
X9470051Y-8032135D01*
X9469741Y-8032715D01*
X9469430Y-8033293D01*
X9469117Y-8033871D01*
X9468803Y-8034447D01*
X9468486Y-8035022D01*
X9468169Y-8035595D01*
X9467849Y-8036169D01*
X9467529Y-8036740D01*
X9467206Y-8037311D01*
X9466882Y-8037879D01*
X9466555Y-8038448D01*
X9466228Y-8039013D01*
X9465899Y-8039580D01*
X9465568Y-8040143D01*
X9465235Y-8040707D01*
X9464902Y-8041269D01*
X9464565Y-8041830D01*
X9464228Y-8042389D01*
X9463889Y-8042948D01*
X9463549Y-8043505D01*
X9463206Y-8044062D01*
X9462862Y-8044616D01*
X9462516Y-8045171D01*
X9462169Y-8045723D01*
X9461820Y-8046275D01*
X9461470Y-8046825D01*
X9461117Y-8047375D01*
X9460763Y-8047922D01*
X9460407Y-8048470D01*
X9460051Y-8049015D01*
X9459691Y-8049560D01*
X9459331Y-8050103D01*
X9458969Y-8050646D01*
X9458605Y-8051187D01*
X9458240Y-8051727D01*
X9457873Y-8052266D01*
X9457504Y-8052804D01*
X9457134Y-8053340D01*
X9456761Y-8053876D01*
X9456388Y-8054410D01*
X9456012Y-8054944D01*
X9455635Y-8055475D01*
X9455256Y-8056007D01*
X9454876Y-8056536D01*
X9454494Y-8057065D01*
X9454110Y-8057592D01*
X9453725Y-8058119D01*
X9453338Y-8058644D01*
X9452949Y-8059169D01*
X9452559Y-8059692D01*
X9452167Y-8060214D01*
X9451773Y-8060734D01*
X9451378Y-8061255D01*
X9451085Y-8061638D01*
X9500000Y-7856500D02*
X9500000Y-7860548D01*
X9499997Y-7864590D01*
X9499991Y-7868628D01*
X9499979Y-7872661D01*
X9499969Y-7874675D01*
X9499958Y-7876689D01*
X9499944Y-7878700D01*
X9499927Y-7880711D01*
X9499908Y-7882721D01*
X9499885Y-7884729D01*
X9499858Y-7886736D01*
X9499828Y-7888741D01*
X9499794Y-7890746D01*
X9499755Y-7892749D01*
X9499712Y-7894751D01*
X9499664Y-7896751D01*
X9499611Y-7898751D01*
X9499553Y-7900749D01*
X9499489Y-7902746D01*
X9499419Y-7904741D01*
X9499344Y-7906735D01*
X9499262Y-7908728D01*
X9499173Y-7910720D01*
X9499078Y-7912710D01*
X9498975Y-7914699D01*
X9498866Y-7916687D01*
X9498748Y-7918674D01*
X9498687Y-7919666D01*
X9498623Y-7920659D01*
X9498558Y-7921651D01*
X9498490Y-7922643D01*
X9498421Y-7923634D01*
X9498349Y-7924626D01*
X9498275Y-7925616D01*
X9498199Y-7926607D01*
X9498120Y-7927597D01*
X9498040Y-7928587D01*
X9497957Y-7929577D01*
X9497872Y-7930566D01*
X9497785Y-7931555D01*
X9497695Y-7932543D01*
X9497603Y-7933531D01*
X9497508Y-7934519D01*
X9497411Y-7935507D01*
X9497311Y-7936494D01*
X9497209Y-7937481D01*
X9497105Y-7938468D01*
X9496997Y-7939454D01*
X9496887Y-7940440D01*
X9496775Y-7941426D01*
X9496660Y-7942411D01*
X9496542Y-7943396D01*
X9496421Y-7944381D01*
X9496298Y-7945365D01*
X9496172Y-7946349D01*
X9496043Y-7947333D01*
X9495911Y-7948316D01*
X9495776Y-7949299D01*
X9495638Y-7950282D01*
X9495498Y-7951264D01*
X9495354Y-7952246D01*
X9495207Y-7953228D01*
X9495057Y-7954210D01*
X9494904Y-7955191D01*
X9494748Y-7956171D01*
X9494589Y-7957152D01*
X9494427Y-7958132D01*
X9494262Y-7959112D01*
X9494093Y-7960091D01*
X9493921Y-7961070D01*
X9493745Y-7962049D01*
X9493567Y-7963027D01*
X9493385Y-7964005D01*
X9493199Y-7964983D01*
X9493010Y-7965961D01*
X9492818Y-7966938D01*
X9492622Y-7967914D01*
X9492423Y-7968891D01*
X9492220Y-7969867D01*
X9492013Y-7970843D01*
X9491803Y-7971818D01*
X9491589Y-7972793D01*
X9491372Y-7973768D01*
X9491150Y-7974743D01*
X9490925Y-7975717D01*
X9490697Y-7976691D01*
X9490464Y-7977664D01*
X9490228Y-7978637D01*
X9489987Y-7979610D01*
X9489743Y-7980582D01*
X9489495Y-7981555D01*
X9489243Y-7982526D01*
X9488987Y-7983498D01*
D11*
D12*
X6935000Y-5335000D02*
X6965000Y-5365000D01*
X6965000Y-5335000D02*
X6935000Y-5365000D01*
X6975000Y-7105000D02*
X7005000Y-7135000D01*
X7005000Y-7105000D02*
X6975000Y-7135000D01*
X6975000Y-7465000D02*
X7005000Y-7495000D01*
X7005000Y-7465000D02*
X6975000Y-7495000D01*
X7075000Y-6935000D02*
X7105000Y-6965000D01*
X7105000Y-6935000D02*
X7075000Y-6965000D01*
X7085000Y-4895000D02*
X7115000Y-4925000D01*
X7115000Y-4895000D02*
X7085000Y-4925000D01*
X7195000Y-7325000D02*
X7225000Y-7355000D01*
X7225000Y-7325000D02*
X7195000Y-7355000D01*
X7295000Y-6955000D02*
X7325000Y-6985000D01*
X7325000Y-6955000D02*
X7295000Y-6985000D01*
X7295000Y-7315000D02*
X7325000Y-7345000D01*
X7325000Y-7315000D02*
X7295000Y-7345000D01*
X7555000Y-7435000D02*
X7585000Y-7465000D01*
X7585000Y-7435000D02*
X7555000Y-7465000D01*
X7625000Y-5635000D02*
X7655000Y-5665000D01*
X7655000Y-5635000D02*
X7625000Y-5665000D01*
X7635000Y-7115000D02*
X7665000Y-7145000D01*
X7665000Y-7115000D02*
X7635000Y-7145000D01*
X7685000Y-5805000D02*
X7715000Y-5835000D01*
X7715000Y-5805000D02*
X7685000Y-5835000D01*
X7705000Y-7285000D02*
X7735000Y-7315000D01*
X7735000Y-7285000D02*
X7705000Y-7315000D01*
X7775000Y-6225000D02*
X7805000Y-6255000D01*
X7805000Y-6225000D02*
X7775000Y-6255000D01*
X7815000Y-5805000D02*
X7845000Y-5835000D01*
X7845000Y-5805000D02*
X7815000Y-5835000D01*
X7835000Y-4735000D02*
X7865000Y-4765000D01*
X7865000Y-4735000D02*
X7835000Y-4765000D01*
X7855000Y-7115000D02*
X7885000Y-7145000D01*
X7885000Y-7115000D02*
X7855000Y-7145000D01*
X7895000Y-5805000D02*
X7925000Y-5835000D01*
X7925000Y-5805000D02*
X7895000Y-5835000D01*
X7905000Y-6045000D02*
X7935000Y-6075000D01*
X7935000Y-6045000D02*
X7905000Y-6075000D01*
X7915000Y-4865000D02*
X7945000Y-4895000D01*
X7945000Y-4865000D02*
X7915000Y-4895000D01*
X7925000Y-5085000D02*
X7955000Y-5115000D01*
X7955000Y-5085000D02*
X7925000Y-5115000D01*
X7925000Y-6785000D02*
X7955000Y-6815000D01*
X7955000Y-6785000D02*
X7925000Y-6815000D01*
X7955000Y-5475000D02*
X7985000Y-5505000D01*
X7985000Y-5475000D02*
X7955000Y-5505000D01*
X8025000Y-5605000D02*
X8055000Y-5635000D01*
X8055000Y-5605000D02*
X8025000Y-5635000D01*
X8045000Y-7055000D02*
X8075000Y-7085000D01*
X8075000Y-7055000D02*
X8045000Y-7085000D01*
X8055000Y-6025000D02*
X8085000Y-6055000D01*
X8085000Y-6025000D02*
X8055000Y-6055000D01*
X8085000Y-4765000D02*
X8115000Y-4795000D01*
X8115000Y-4765000D02*
X8085000Y-4795000D01*
X8085000Y-4985000D02*
X8115000Y-5015000D01*
X8115000Y-4985000D02*
X8085000Y-5015000D01*
X8085000Y-5725000D02*
X8115000Y-5755000D01*
X8115000Y-5725000D02*
X8085000Y-5755000D01*
X8085000Y-5945000D02*
X8115000Y-5975000D01*
X8115000Y-5945000D02*
X8085000Y-5975000D01*
X8125000Y-7065000D02*
X8155000Y-7095000D01*
X8155000Y-7065000D02*
X8125000Y-7095000D01*
X8125000Y-7285000D02*
X8155000Y-7315000D01*
X8155000Y-7285000D02*
X8125000Y-7315000D01*
X8165000Y-6865000D02*
X8195000Y-6895000D01*
X8195000Y-6865000D02*
X8165000Y-6895000D01*
X8205000Y-4765000D02*
X8235000Y-4795000D01*
X8235000Y-4765000D02*
X8205000Y-4795000D01*
X8205000Y-5935000D02*
X8235000Y-5965000D01*
X8235000Y-5935000D02*
X8205000Y-5965000D01*
X8235000Y-6015000D02*
X8265000Y-6045000D01*
X8265000Y-6015000D02*
X8235000Y-6045000D01*
X8235000Y-6815000D02*
X8265000Y-6845000D01*
X8265000Y-6815000D02*
X8235000Y-6845000D01*
X8275000Y-5725000D02*
X8305000Y-5755000D01*
X8305000Y-5725000D02*
X8275000Y-5755000D01*
X8275000Y-7095000D02*
X8305000Y-7125000D01*
X8305000Y-7095000D02*
X8275000Y-7125000D01*
X8285000Y-5605000D02*
X8315000Y-5635000D01*
X8315000Y-5605000D02*
X8285000Y-5635000D01*
X8295000Y-5945000D02*
X8325000Y-5975000D01*
X8325000Y-5945000D02*
X8295000Y-5975000D01*
X8315000Y-5055000D02*
X8345000Y-5085000D01*
X8345000Y-5055000D02*
X8315000Y-5085000D01*
X8315000Y-5485000D02*
X8345000Y-5515000D01*
X8345000Y-5485000D02*
X8315000Y-5515000D01*
X8455000Y-5285000D02*
X8485000Y-5315000D01*
X8485000Y-5285000D02*
X8455000Y-5315000D01*
X8455000Y-5905000D02*
X8485000Y-5935000D01*
X8485000Y-5905000D02*
X8455000Y-5935000D01*
X8455000Y-6005000D02*
X8485000Y-6035000D01*
X8485000Y-6005000D02*
X8455000Y-6035000D01*
X8465000Y-4945000D02*
X8495000Y-4975000D01*
X8495000Y-4945000D02*
X8465000Y-4975000D01*
X8485000Y-5755000D02*
X8515000Y-5785000D01*
X8515000Y-5755000D02*
X8485000Y-5785000D01*
X8495000Y-6815000D02*
X8525000Y-6845000D01*
X8525000Y-6815000D02*
X8495000Y-6845000D01*
X8655000Y-5105000D02*
X8685000Y-5135000D01*
X8685000Y-5105000D02*
X8655000Y-5135000D01*
X8665000Y-6835000D02*
X8695000Y-6865000D01*
X8695000Y-6835000D02*
X8665000Y-6865000D01*
X8675000Y-5025000D02*
X8705000Y-5055000D01*
X8705000Y-5025000D02*
X8675000Y-5055000D01*
X8675000Y-5475000D02*
X8705000Y-5505000D01*
X8705000Y-5475000D02*
X8675000Y-5505000D01*
X8825000Y-5665000D02*
X8855000Y-5695000D01*
X8855000Y-5665000D02*
X8825000Y-5695000D01*
X8845500Y-5163500D02*
X8875500Y-5193500D01*
X8875500Y-5163500D02*
X8845500Y-5193500D01*
X9085000Y-4805000D02*
X9115000Y-4835000D01*
X9115000Y-4805000D02*
X9085000Y-4835000D01*
X6610000Y-6240000D02*
G75*
G02*
X6570000Y-6240000I-20000J0D01*
G01*
X6570000Y-6240000D02*
G75*
G02*
X6610000Y-6240000I20000J0D01*
G01*
X6610000Y-6620000D02*
G75*
G02*
X6570000Y-6620000I-20000J0D01*
G01*
X6570000Y-6620000D02*
G75*
G02*
X6610000Y-6620000I20000J0D01*
G01*
X6730000Y-4890000D02*
G75*
G02*
X6690000Y-4890000I-20000J0D01*
G01*
X6690000Y-4890000D02*
G75*
G02*
X6730000Y-4890000I20000J0D01*
G01*
X6820000Y-6770000D02*
G75*
G02*
X6780000Y-6770000I-20000J0D01*
G01*
X6780000Y-6770000D02*
G75*
G02*
X6820000Y-6770000I20000J0D01*
G01*
X6900000Y-4620000D02*
G75*
G02*
X6860000Y-4620000I-20000J0D01*
G01*
X6860000Y-4620000D02*
G75*
G02*
X6900000Y-4620000I20000J0D01*
G01*
X6960000Y-4890000D02*
G75*
G02*
X6920000Y-4890000I-20000J0D01*
G01*
X6920000Y-4890000D02*
G75*
G02*
X6960000Y-4890000I20000J0D01*
G01*
X7090000Y-4290000D02*
G75*
G02*
X7050000Y-4290000I-20000J0D01*
G01*
X7050000Y-4290000D02*
G75*
G02*
X7090000Y-4290000I20000J0D01*
G01*
X7150000Y-5280000D02*
G75*
G02*
X7110000Y-5280000I-20000J0D01*
G01*
X7110000Y-5280000D02*
G75*
G02*
X7150000Y-5280000I20000J0D01*
G01*
X7200000Y-4470000D02*
G75*
G02*
X7160000Y-4470000I-20000J0D01*
G01*
X7160000Y-4470000D02*
G75*
G02*
X7200000Y-4470000I20000J0D01*
G01*
X7210000Y-4900000D02*
G75*
G02*
X7170000Y-4900000I-20000J0D01*
G01*
X7170000Y-4900000D02*
G75*
G02*
X7210000Y-4900000I20000J0D01*
G01*
X7270000Y-4680000D02*
G75*
G02*
X7230000Y-4680000I-20000J0D01*
G01*
X7230000Y-4680000D02*
G75*
G02*
X7270000Y-4680000I20000J0D01*
G01*
X7350000Y-6130000D02*
G75*
G02*
X7310000Y-6130000I-20000J0D01*
G01*
X7310000Y-6130000D02*
G75*
G02*
X7350000Y-6130000I20000J0D01*
G01*
X7360000Y-4880000D02*
G75*
G02*
X7320000Y-4880000I-20000J0D01*
G01*
X7320000Y-4880000D02*
G75*
G02*
X7360000Y-4880000I20000J0D01*
G01*
X7420000Y-7140000D02*
G75*
G02*
X7380000Y-7140000I-20000J0D01*
G01*
X7380000Y-7140000D02*
G75*
G02*
X7420000Y-7140000I20000J0D01*
G01*
X7450000Y-5650000D02*
G75*
G02*
X7410000Y-5650000I-20000J0D01*
G01*
X7410000Y-5650000D02*
G75*
G02*
X7450000Y-5650000I20000J0D01*
G01*
X7470000Y-4180000D02*
G75*
G02*
X7430000Y-4180000I-20000J0D01*
G01*
X7430000Y-4180000D02*
G75*
G02*
X7470000Y-4180000I20000J0D01*
G01*
X7480000Y-4660000D02*
G75*
G02*
X7440000Y-4660000I-20000J0D01*
G01*
X7440000Y-4660000D02*
G75*
G02*
X7480000Y-4660000I20000J0D01*
G01*
X7520000Y-6880000D02*
G75*
G02*
X7480000Y-6880000I-20000J0D01*
G01*
X7480000Y-6880000D02*
G75*
G02*
X7520000Y-6880000I20000J0D01*
G01*
X7570000Y-7750000D02*
G75*
G02*
X7530000Y-7750000I-20000J0D01*
G01*
X7530000Y-7750000D02*
G75*
G02*
X7570000Y-7750000I20000J0D01*
G01*
X7570000Y-8060000D02*
G75*
G02*
X7530000Y-8060000I-20000J0D01*
G01*
X7530000Y-8060000D02*
G75*
G02*
X7570000Y-8060000I20000J0D01*
G01*
X7590000Y-4900000D02*
G75*
G02*
X7550000Y-4900000I-20000J0D01*
G01*
X7550000Y-4900000D02*
G75*
G02*
X7590000Y-4900000I20000J0D01*
G01*
X7590000Y-5085000D02*
G75*
G02*
X7550000Y-5085000I-20000J0D01*
G01*
X7550000Y-5085000D02*
G75*
G02*
X7590000Y-5085000I20000J0D01*
G01*
X7720000Y-6080000D02*
G75*
G02*
X7680000Y-6080000I-20000J0D01*
G01*
X7680000Y-6080000D02*
G75*
G02*
X7720000Y-6080000I20000J0D01*
G01*
X7770000Y-5085000D02*
G75*
G02*
X7730000Y-5085000I-20000J0D01*
G01*
X7730000Y-5085000D02*
G75*
G02*
X7770000Y-5085000I20000J0D01*
G01*
X7780000Y-4760000D02*
G75*
G02*
X7740000Y-4760000I-20000J0D01*
G01*
X7740000Y-4760000D02*
G75*
G02*
X7780000Y-4760000I20000J0D01*
G01*
X7790000Y-6620000D02*
G75*
G02*
X7750000Y-6620000I-20000J0D01*
G01*
X7750000Y-6620000D02*
G75*
G02*
X7790000Y-6620000I20000J0D01*
G01*
X7840000Y-5650000D02*
G75*
G02*
X7800000Y-5650000I-20000J0D01*
G01*
X7800000Y-5650000D02*
G75*
G02*
X7840000Y-5650000I20000J0D01*
G01*
X7950000Y-7700000D02*
G75*
G02*
X7910000Y-7700000I-20000J0D01*
G01*
X7910000Y-7700000D02*
G75*
G02*
X7950000Y-7700000I20000J0D01*
G01*
X8050000Y-7700000D02*
G75*
G02*
X8010000Y-7700000I-20000J0D01*
G01*
X8010000Y-7700000D02*
G75*
G02*
X8050000Y-7700000I20000J0D01*
G01*
X8330000Y-4760000D02*
G75*
G02*
X8290000Y-4760000I-20000J0D01*
G01*
X8290000Y-4760000D02*
G75*
G02*
X8330000Y-4760000I20000J0D01*
G01*
X8480000Y-7110000D02*
G75*
G02*
X8440000Y-7110000I-20000J0D01*
G01*
X8440000Y-7110000D02*
G75*
G02*
X8480000Y-7110000I20000J0D01*
G01*
X8600000Y-5590000D02*
G75*
G02*
X8560000Y-5590000I-20000J0D01*
G01*
X8560000Y-5590000D02*
G75*
G02*
X8600000Y-5590000I20000J0D01*
G01*
X8600000Y-7490000D02*
G75*
G02*
X8560000Y-7490000I-20000J0D01*
G01*
X8560000Y-7490000D02*
G75*
G02*
X8600000Y-7490000I20000J0D01*
G01*
X8610000Y-7760000D02*
G75*
G02*
X8570000Y-7760000I-20000J0D01*
G01*
X8570000Y-7760000D02*
G75*
G02*
X8610000Y-7760000I20000J0D01*
G01*
X8610000Y-7950000D02*
G75*
G02*
X8570000Y-7950000I-20000J0D01*
G01*
X8570000Y-7950000D02*
G75*
G02*
X8610000Y-7950000I20000J0D01*
G01*
X8630000Y-7120000D02*
G75*
G02*
X8590000Y-7120000I-20000J0D01*
G01*
X8590000Y-7120000D02*
G75*
G02*
X8630000Y-7120000I20000J0D01*
G01*
X8710000Y-7040000D02*
G75*
G02*
X8670000Y-7040000I-20000J0D01*
G01*
X8670000Y-7040000D02*
G75*
G02*
X8710000Y-7040000I20000J0D01*
G01*
X8780000Y-7520000D02*
G75*
G02*
X8740000Y-7520000I-20000J0D01*
G01*
X8740000Y-7520000D02*
G75*
G02*
X8780000Y-7520000I20000J0D01*
G01*
X8790000Y-5960000D02*
G75*
G02*
X8750000Y-5960000I-20000J0D01*
G01*
X8750000Y-5960000D02*
G75*
G02*
X8790000Y-5960000I20000J0D01*
G01*
X8800000Y-7320000D02*
G75*
G02*
X8760000Y-7320000I-20000J0D01*
G01*
X8760000Y-7320000D02*
G75*
G02*
X8800000Y-7320000I20000J0D01*
G01*
X8910000Y-5820000D02*
G75*
G02*
X8870000Y-5820000I-20000J0D01*
G01*
X8870000Y-5820000D02*
G75*
G02*
X8910000Y-5820000I20000J0D01*
G01*
X8910000Y-6830000D02*
G75*
G02*
X8870000Y-6830000I-20000J0D01*
G01*
X8870000Y-6830000D02*
G75*
G02*
X8910000Y-6830000I20000J0D01*
G01*
X8960000Y-4790000D02*
G75*
G02*
X8920000Y-4790000I-20000J0D01*
G01*
X8920000Y-4790000D02*
G75*
G02*
X8960000Y-4790000I20000J0D01*
G01*
X8960000Y-5590000D02*
G75*
G02*
X8920000Y-5590000I-20000J0D01*
G01*
X8920000Y-5590000D02*
G75*
G02*
X8960000Y-5590000I20000J0D01*
G01*
X8970000Y-6230000D02*
G75*
G02*
X8930000Y-6230000I-20000J0D01*
G01*
X8930000Y-6230000D02*
G75*
G02*
X8970000Y-6230000I20000J0D01*
G01*
X8970000Y-6630000D02*
G75*
G02*
X8930000Y-6630000I-20000J0D01*
G01*
X8930000Y-6630000D02*
G75*
G02*
X8970000Y-6630000I20000J0D01*
G01*
X8970000Y-7930000D02*
G75*
G02*
X8930000Y-7930000I-20000J0D01*
G01*
X8930000Y-7930000D02*
G75*
G02*
X8970000Y-7930000I20000J0D01*
G01*
X9040000Y-5900000D02*
G75*
G02*
X9000000Y-5900000I-20000J0D01*
G01*
X9000000Y-5900000D02*
G75*
G02*
X9040000Y-5900000I20000J0D01*
G01*
X9040000Y-6070000D02*
G75*
G02*
X9000000Y-6070000I-20000J0D01*
G01*
X9000000Y-6070000D02*
G75*
G02*
X9040000Y-6070000I20000J0D01*
G01*
X9040000Y-6790000D02*
G75*
G02*
X9000000Y-6790000I-20000J0D01*
G01*
X9000000Y-6790000D02*
G75*
G02*
X9040000Y-6790000I20000J0D01*
G01*
X9100000Y-7000000D02*
G75*
G02*
X9060000Y-7000000I-20000J0D01*
G01*
X9060000Y-7000000D02*
G75*
G02*
X9100000Y-7000000I20000J0D01*
G01*
X9300000Y-5800000D02*
G75*
G02*
X9260000Y-5800000I-20000J0D01*
G01*
X9260000Y-5800000D02*
G75*
G02*
X9300000Y-5800000I20000J0D01*
G01*
X7568000Y-4080500D02*
X7568000Y-4140500D01*
X7538000Y-4110500D02*
X7598000Y-4110500D01*
X7598000Y-4140500D02*
X7598000Y-4080500D01*
X7538000Y-4080500D02*
G75*
G02*
X7598000Y-4080500I30000J0D01*
G01*
X7538000Y-4080500D02*
X7538000Y-4140500D01*
X7538000Y-4140500D02*
G75*
G03*
X7598000Y-4140500I30000J0D01*
G01*
X7568000Y-4498500D02*
X7568000Y-4558500D01*
X7538000Y-4528500D02*
X7598000Y-4528500D01*
X7598000Y-4583500D02*
X7598000Y-4473500D01*
X7538000Y-4473500D02*
G75*
G02*
X7598000Y-4473500I30000J0D01*
G01*
X7538000Y-4473500D02*
X7538000Y-4583500D01*
X7538000Y-4583500D02*
G75*
G03*
X7598000Y-4583500I30000J0D01*
G01*
X8432000Y-4080500D02*
X8432000Y-4140500D01*
X8402000Y-4110500D02*
X8462000Y-4110500D01*
X8462000Y-4140500D02*
X8462000Y-4080500D01*
X8402000Y-4080500D02*
G75*
G02*
X8462000Y-4080500I30000J0D01*
G01*
X8402000Y-4080500D02*
X8402000Y-4140500D01*
X8402000Y-4140500D02*
G75*
G03*
X8462000Y-4140500I30000J0D01*
G01*
X8432000Y-4498500D02*
X8432000Y-4558500D01*
X8402000Y-4528500D02*
X8462000Y-4528500D01*
X8462000Y-4583500D02*
X8462000Y-4473500D01*
X8402000Y-4473500D02*
G75*
G02*
X8462000Y-4473500I30000J0D01*
G01*
X8402000Y-4473500D02*
X8402000Y-4583500D01*
X8402000Y-4583500D02*
G75*
G03*
X8462000Y-4583500I30000J0D01*
G01*
D11*
X6758277Y-8463984D02*
X6758277Y-8263984D01*
X6758277Y-8263984D02*
X6805896Y-8263984D01*
X6805896Y-8263984D02*
X6834467Y-8273508D01*
X6834467Y-8273508D02*
X6853515Y-8292555D01*
X6853515Y-8292555D02*
X6863039Y-8311603D01*
X6863039Y-8311603D02*
X6872562Y-8349698D01*
X6872562Y-8349698D02*
X6872562Y-8378269D01*
X6872562Y-8378269D02*
X6863039Y-8416365D01*
X6863039Y-8416365D02*
X6853515Y-8435412D01*
X6853515Y-8435412D02*
X6834467Y-8454460D01*
X6834467Y-8454460D02*
X6805896Y-8463984D01*
X6805896Y-8463984D02*
X6758277Y-8463984D01*
X6958277Y-8463984D02*
X6958277Y-8330650D01*
X6958277Y-8368746D02*
X6967801Y-8349698D01*
X6967801Y-8349698D02*
X6977324Y-8340174D01*
X6977324Y-8340174D02*
X6996372Y-8330650D01*
X6996372Y-8330650D02*
X7015420Y-8330650D01*
X7082086Y-8463984D02*
X7082086Y-8330650D01*
X7082086Y-8263984D02*
X7072562Y-8273508D01*
X7072562Y-8273508D02*
X7082086Y-8283031D01*
X7082086Y-8283031D02*
X7091610Y-8273508D01*
X7091610Y-8273508D02*
X7082086Y-8263984D01*
X7082086Y-8263984D02*
X7082086Y-8283031D01*
X7205896Y-8463984D02*
X7186848Y-8454460D01*
X7186848Y-8454460D02*
X7177324Y-8435412D01*
X7177324Y-8435412D02*
X7177324Y-8263984D01*
X7310658Y-8463984D02*
X7291610Y-8454460D01*
X7291610Y-8454460D02*
X7282086Y-8435412D01*
X7282086Y-8435412D02*
X7282086Y-8263984D01*
X7539229Y-8463984D02*
X7539229Y-8263984D01*
X7539229Y-8263984D02*
X7605896Y-8406841D01*
X7605896Y-8406841D02*
X7672562Y-8263984D01*
X7672562Y-8263984D02*
X7672562Y-8463984D01*
X7853515Y-8463984D02*
X7853515Y-8359222D01*
X7853515Y-8359222D02*
X7843991Y-8340174D01*
X7843991Y-8340174D02*
X7824943Y-8330650D01*
X7824943Y-8330650D02*
X7786848Y-8330650D01*
X7786848Y-8330650D02*
X7767801Y-8340174D01*
X7853515Y-8454460D02*
X7834467Y-8463984D01*
X7834467Y-8463984D02*
X7786848Y-8463984D01*
X7786848Y-8463984D02*
X7767801Y-8454460D01*
X7767801Y-8454460D02*
X7758277Y-8435412D01*
X7758277Y-8435412D02*
X7758277Y-8416365D01*
X7758277Y-8416365D02*
X7767801Y-8397317D01*
X7767801Y-8397317D02*
X7786848Y-8387793D01*
X7786848Y-8387793D02*
X7834467Y-8387793D01*
X7834467Y-8387793D02*
X7853515Y-8378269D01*
X7948753Y-8330650D02*
X7948753Y-8530650D01*
X7948753Y-8340174D02*
X7967801Y-8330650D01*
X7967801Y-8330650D02*
X8005896Y-8330650D01*
X8005896Y-8330650D02*
X8024943Y-8340174D01*
X8024943Y-8340174D02*
X8034467Y-8349698D01*
X8034467Y-8349698D02*
X8043991Y-8368746D01*
X8043991Y-8368746D02*
X8043991Y-8425889D01*
X8043991Y-8425889D02*
X8034467Y-8444936D01*
X8034467Y-8444936D02*
X8024943Y-8454460D01*
X8024943Y-8454460D02*
X8005896Y-8463984D01*
X8005896Y-8463984D02*
X7967801Y-8463984D01*
X7967801Y-8463984D02*
X7948753Y-8454460D01*
X8129705Y-8444936D02*
X8139229Y-8454460D01*
X8139229Y-8454460D02*
X8129705Y-8463984D01*
X8129705Y-8463984D02*
X8120182Y-8454460D01*
X8120182Y-8454460D02*
X8129705Y-8444936D01*
X8129705Y-8444936D02*
X8129705Y-8463984D01*
X8129705Y-8340174D02*
X8139229Y-8349698D01*
X8139229Y-8349698D02*
X8129705Y-8359222D01*
X8129705Y-8359222D02*
X8120182Y-8349698D01*
X8120182Y-8349698D02*
X8129705Y-8340174D01*
X8129705Y-8340174D02*
X8129705Y-8359222D01*
D12*
X6467500Y-8777500D02*
X6497500Y-8807500D01*
X6497500Y-8777500D02*
X6467500Y-8807500D01*
D11*
X6796372Y-8683984D02*
X6815420Y-8683984D01*
X6815420Y-8683984D02*
X6834467Y-8693508D01*
X6834467Y-8693508D02*
X6843991Y-8703031D01*
X6843991Y-8703031D02*
X6853515Y-8722079D01*
X6853515Y-8722079D02*
X6863039Y-8760174D01*
X6863039Y-8760174D02*
X6863039Y-8807793D01*
X6863039Y-8807793D02*
X6853515Y-8845889D01*
X6853515Y-8845889D02*
X6843991Y-8864936D01*
X6843991Y-8864936D02*
X6834467Y-8874460D01*
X6834467Y-8874460D02*
X6815420Y-8883984D01*
X6815420Y-8883984D02*
X6796372Y-8883984D01*
X6796372Y-8883984D02*
X6777324Y-8874460D01*
X6777324Y-8874460D02*
X6767801Y-8864936D01*
X6767801Y-8864936D02*
X6758277Y-8845889D01*
X6758277Y-8845889D02*
X6748753Y-8807793D01*
X6748753Y-8807793D02*
X6748753Y-8760174D01*
X6748753Y-8760174D02*
X6758277Y-8722079D01*
X6758277Y-8722079D02*
X6767801Y-8703031D01*
X6767801Y-8703031D02*
X6777324Y-8693508D01*
X6777324Y-8693508D02*
X6796372Y-8683984D01*
X6948753Y-8864936D02*
X6958277Y-8874460D01*
X6958277Y-8874460D02*
X6948753Y-8883984D01*
X6948753Y-8883984D02*
X6939229Y-8874460D01*
X6939229Y-8874460D02*
X6948753Y-8864936D01*
X6948753Y-8864936D02*
X6948753Y-8883984D01*
X7024943Y-8683984D02*
X7148753Y-8683984D01*
X7148753Y-8683984D02*
X7082086Y-8760174D01*
X7082086Y-8760174D02*
X7110658Y-8760174D01*
X7110658Y-8760174D02*
X7129705Y-8769698D01*
X7129705Y-8769698D02*
X7139229Y-8779222D01*
X7139229Y-8779222D02*
X7148753Y-8798270D01*
X7148753Y-8798270D02*
X7148753Y-8845889D01*
X7148753Y-8845889D02*
X7139229Y-8864936D01*
X7139229Y-8864936D02*
X7129705Y-8874460D01*
X7129705Y-8874460D02*
X7110658Y-8883984D01*
X7110658Y-8883984D02*
X7053515Y-8883984D01*
X7053515Y-8883984D02*
X7034467Y-8874460D01*
X7034467Y-8874460D02*
X7024943Y-8864936D01*
X7272562Y-8683984D02*
X7291610Y-8683984D01*
X7291610Y-8683984D02*
X7310658Y-8693508D01*
X7310658Y-8693508D02*
X7320182Y-8703031D01*
X7320182Y-8703031D02*
X7329705Y-8722079D01*
X7329705Y-8722079D02*
X7339229Y-8760174D01*
X7339229Y-8760174D02*
X7339229Y-8807793D01*
X7339229Y-8807793D02*
X7329705Y-8845889D01*
X7329705Y-8845889D02*
X7320182Y-8864936D01*
X7320182Y-8864936D02*
X7310658Y-8874460D01*
X7310658Y-8874460D02*
X7291610Y-8883984D01*
X7291610Y-8883984D02*
X7272562Y-8883984D01*
X7272562Y-8883984D02*
X7253515Y-8874460D01*
X7253515Y-8874460D02*
X7243991Y-8864936D01*
X7243991Y-8864936D02*
X7234467Y-8845889D01*
X7234467Y-8845889D02*
X7224943Y-8807793D01*
X7224943Y-8807793D02*
X7224943Y-8760174D01*
X7224943Y-8760174D02*
X7234467Y-8722079D01*
X7234467Y-8722079D02*
X7243991Y-8703031D01*
X7243991Y-8703031D02*
X7253515Y-8693508D01*
X7253515Y-8693508D02*
X7272562Y-8683984D01*
X7463039Y-8683984D02*
X7482086Y-8683984D01*
X7482086Y-8683984D02*
X7501134Y-8693508D01*
X7501134Y-8693508D02*
X7510658Y-8703031D01*
X7510658Y-8703031D02*
X7520182Y-8722079D01*
X7520182Y-8722079D02*
X7529705Y-8760174D01*
X7529705Y-8760174D02*
X7529705Y-8807793D01*
X7529705Y-8807793D02*
X7520182Y-8845889D01*
X7520182Y-8845889D02*
X7510658Y-8864936D01*
X7510658Y-8864936D02*
X7501134Y-8874460D01*
X7501134Y-8874460D02*
X7482086Y-8883984D01*
X7482086Y-8883984D02*
X7463039Y-8883984D01*
X7463039Y-8883984D02*
X7443991Y-8874460D01*
X7443991Y-8874460D02*
X7434467Y-8864936D01*
X7434467Y-8864936D02*
X7424943Y-8845889D01*
X7424943Y-8845889D02*
X7415420Y-8807793D01*
X7415420Y-8807793D02*
X7415420Y-8760174D01*
X7415420Y-8760174D02*
X7424943Y-8722079D01*
X7424943Y-8722079D02*
X7434467Y-8703031D01*
X7434467Y-8703031D02*
X7443991Y-8693508D01*
X7443991Y-8693508D02*
X7463039Y-8683984D01*
X7615420Y-8883984D02*
X7615420Y-8750650D01*
X7615420Y-8769698D02*
X7624943Y-8760174D01*
X7624943Y-8760174D02*
X7643991Y-8750650D01*
X7643991Y-8750650D02*
X7672563Y-8750650D01*
X7672563Y-8750650D02*
X7691610Y-8760174D01*
X7691610Y-8760174D02*
X7701134Y-8779222D01*
X7701134Y-8779222D02*
X7701134Y-8883984D01*
X7701134Y-8779222D02*
X7710658Y-8760174D01*
X7710658Y-8760174D02*
X7729705Y-8750650D01*
X7729705Y-8750650D02*
X7758277Y-8750650D01*
X7758277Y-8750650D02*
X7777324Y-8760174D01*
X7777324Y-8760174D02*
X7786848Y-8779222D01*
X7786848Y-8779222D02*
X7786848Y-8883984D01*
X7882086Y-8883984D02*
X7882086Y-8750650D01*
X7882086Y-8769698D02*
X7891610Y-8760174D01*
X7891610Y-8760174D02*
X7910658Y-8750650D01*
X7910658Y-8750650D02*
X7939229Y-8750650D01*
X7939229Y-8750650D02*
X7958277Y-8760174D01*
X7958277Y-8760174D02*
X7967801Y-8779222D01*
X7967801Y-8779222D02*
X7967801Y-8883984D01*
X7967801Y-8779222D02*
X7977324Y-8760174D01*
X7977324Y-8760174D02*
X7996372Y-8750650D01*
X7996372Y-8750650D02*
X8024943Y-8750650D01*
X8024943Y-8750650D02*
X8043991Y-8760174D01*
X8043991Y-8760174D02*
X8053515Y-8779222D01*
X8053515Y-8779222D02*
X8053515Y-8883984D01*
X8443991Y-8674460D02*
X8272563Y-8931603D01*
X8701134Y-8683984D02*
X8720182Y-8683984D01*
X8720182Y-8683984D02*
X8739229Y-8693508D01*
X8739229Y-8693508D02*
X8748753Y-8703031D01*
X8748753Y-8703031D02*
X8758277Y-8722079D01*
X8758277Y-8722079D02*
X8767801Y-8760174D01*
X8767801Y-8760174D02*
X8767801Y-8807793D01*
X8767801Y-8807793D02*
X8758277Y-8845889D01*
X8758277Y-8845889D02*
X8748753Y-8864936D01*
X8748753Y-8864936D02*
X8739229Y-8874460D01*
X8739229Y-8874460D02*
X8720182Y-8883984D01*
X8720182Y-8883984D02*
X8701134Y-8883984D01*
X8701134Y-8883984D02*
X8682087Y-8874460D01*
X8682087Y-8874460D02*
X8672563Y-8864936D01*
X8672563Y-8864936D02*
X8663039Y-8845889D01*
X8663039Y-8845889D02*
X8653515Y-8807793D01*
X8653515Y-8807793D02*
X8653515Y-8760174D01*
X8653515Y-8760174D02*
X8663039Y-8722079D01*
X8663039Y-8722079D02*
X8672563Y-8703031D01*
X8672563Y-8703031D02*
X8682087Y-8693508D01*
X8682087Y-8693508D02*
X8701134Y-8683984D01*
X8853515Y-8864936D02*
X8863039Y-8874460D01*
X8863039Y-8874460D02*
X8853515Y-8883984D01*
X8853515Y-8883984D02*
X8843991Y-8874460D01*
X8843991Y-8874460D02*
X8853515Y-8864936D01*
X8853515Y-8864936D02*
X8853515Y-8883984D01*
X8986848Y-8683984D02*
X9005896Y-8683984D01*
X9005896Y-8683984D02*
X9024944Y-8693508D01*
X9024944Y-8693508D02*
X9034468Y-8703031D01*
X9034468Y-8703031D02*
X9043991Y-8722079D01*
X9043991Y-8722079D02*
X9053515Y-8760174D01*
X9053515Y-8760174D02*
X9053515Y-8807793D01*
X9053515Y-8807793D02*
X9043991Y-8845889D01*
X9043991Y-8845889D02*
X9034468Y-8864936D01*
X9034468Y-8864936D02*
X9024944Y-8874460D01*
X9024944Y-8874460D02*
X9005896Y-8883984D01*
X9005896Y-8883984D02*
X8986848Y-8883984D01*
X8986848Y-8883984D02*
X8967801Y-8874460D01*
X8967801Y-8874460D02*
X8958277Y-8864936D01*
X8958277Y-8864936D02*
X8948753Y-8845889D01*
X8948753Y-8845889D02*
X8939229Y-8807793D01*
X8939229Y-8807793D02*
X8939229Y-8760174D01*
X8939229Y-8760174D02*
X8948753Y-8722079D01*
X8948753Y-8722079D02*
X8958277Y-8703031D01*
X8958277Y-8703031D02*
X8967801Y-8693508D01*
X8967801Y-8693508D02*
X8986848Y-8683984D01*
X9243991Y-8883984D02*
X9129706Y-8883984D01*
X9186848Y-8883984D02*
X9186848Y-8683984D01*
X9186848Y-8683984D02*
X9167801Y-8712555D01*
X9167801Y-8712555D02*
X9148753Y-8731603D01*
X9148753Y-8731603D02*
X9129706Y-8741127D01*
X9434468Y-8883984D02*
X9320182Y-8883984D01*
X9377325Y-8883984D02*
X9377325Y-8683984D01*
X9377325Y-8683984D02*
X9358277Y-8712555D01*
X9358277Y-8712555D02*
X9339229Y-8731603D01*
X9339229Y-8731603D02*
X9320182Y-8741127D01*
X9548753Y-8769698D02*
X9529706Y-8760174D01*
X9529706Y-8760174D02*
X9520182Y-8750650D01*
X9520182Y-8750650D02*
X9510658Y-8731603D01*
X9510658Y-8731603D02*
X9510658Y-8722079D01*
X9510658Y-8722079D02*
X9520182Y-8703031D01*
X9520182Y-8703031D02*
X9529706Y-8693508D01*
X9529706Y-8693508D02*
X9548753Y-8683984D01*
X9548753Y-8683984D02*
X9586849Y-8683984D01*
X9586849Y-8683984D02*
X9605896Y-8693508D01*
X9605896Y-8693508D02*
X9615420Y-8703031D01*
X9615420Y-8703031D02*
X9624944Y-8722079D01*
X9624944Y-8722079D02*
X9624944Y-8731603D01*
X9624944Y-8731603D02*
X9615420Y-8750650D01*
X9615420Y-8750650D02*
X9605896Y-8760174D01*
X9605896Y-8760174D02*
X9586849Y-8769698D01*
X9586849Y-8769698D02*
X9548753Y-8769698D01*
X9548753Y-8769698D02*
X9529706Y-8779222D01*
X9529706Y-8779222D02*
X9520182Y-8788746D01*
X9520182Y-8788746D02*
X9510658Y-8807793D01*
X9510658Y-8807793D02*
X9510658Y-8845889D01*
X9510658Y-8845889D02*
X9520182Y-8864936D01*
X9520182Y-8864936D02*
X9529706Y-8874460D01*
X9529706Y-8874460D02*
X9548753Y-8883984D01*
X9548753Y-8883984D02*
X9586849Y-8883984D01*
X9586849Y-8883984D02*
X9605896Y-8874460D01*
X9605896Y-8874460D02*
X9615420Y-8864936D01*
X9615420Y-8864936D02*
X9624944Y-8845889D01*
X9624944Y-8845889D02*
X9624944Y-8807793D01*
X9624944Y-8807793D02*
X9615420Y-8788746D01*
X9615420Y-8788746D02*
X9605896Y-8779222D01*
X9605896Y-8779222D02*
X9586849Y-8769698D01*
X9701134Y-8683984D02*
X9701134Y-8722079D01*
X9777325Y-8683984D02*
X9777325Y-8722079D01*
X10072563Y-8960174D02*
X10063039Y-8950650D01*
X10063039Y-8950650D02*
X10043991Y-8922079D01*
X10043991Y-8922079D02*
X10034468Y-8903031D01*
X10034468Y-8903031D02*
X10024944Y-8874460D01*
X10024944Y-8874460D02*
X10015420Y-8826841D01*
X10015420Y-8826841D02*
X10015420Y-8788746D01*
X10015420Y-8788746D02*
X10024944Y-8741127D01*
X10024944Y-8741127D02*
X10034468Y-8712555D01*
X10034468Y-8712555D02*
X10043991Y-8693508D01*
X10043991Y-8693508D02*
X10063039Y-8664936D01*
X10063039Y-8664936D02*
X10072563Y-8655412D01*
X10243991Y-8683984D02*
X10148753Y-8683984D01*
X10148753Y-8683984D02*
X10139230Y-8779222D01*
X10139230Y-8779222D02*
X10148753Y-8769698D01*
X10148753Y-8769698D02*
X10167801Y-8760174D01*
X10167801Y-8760174D02*
X10215420Y-8760174D01*
X10215420Y-8760174D02*
X10234468Y-8769698D01*
X10234468Y-8769698D02*
X10243991Y-8779222D01*
X10243991Y-8779222D02*
X10253515Y-8798270D01*
X10253515Y-8798270D02*
X10253515Y-8845889D01*
X10253515Y-8845889D02*
X10243991Y-8864936D01*
X10243991Y-8864936D02*
X10234468Y-8874460D01*
X10234468Y-8874460D02*
X10215420Y-8883984D01*
X10215420Y-8883984D02*
X10167801Y-8883984D01*
X10167801Y-8883984D02*
X10148753Y-8874460D01*
X10148753Y-8874460D02*
X10139230Y-8864936D01*
X10424944Y-8683984D02*
X10386849Y-8683984D01*
X10386849Y-8683984D02*
X10367801Y-8693508D01*
X10367801Y-8693508D02*
X10358277Y-8703031D01*
X10358277Y-8703031D02*
X10339230Y-8731603D01*
X10339230Y-8731603D02*
X10329706Y-8769698D01*
X10329706Y-8769698D02*
X10329706Y-8845889D01*
X10329706Y-8845889D02*
X10339230Y-8864936D01*
X10339230Y-8864936D02*
X10348753Y-8874460D01*
X10348753Y-8874460D02*
X10367801Y-8883984D01*
X10367801Y-8883984D02*
X10405896Y-8883984D01*
X10405896Y-8883984D02*
X10424944Y-8874460D01*
X10424944Y-8874460D02*
X10434468Y-8864936D01*
X10434468Y-8864936D02*
X10443991Y-8845889D01*
X10443991Y-8845889D02*
X10443991Y-8798270D01*
X10443991Y-8798270D02*
X10434468Y-8779222D01*
X10434468Y-8779222D02*
X10424944Y-8769698D01*
X10424944Y-8769698D02*
X10405896Y-8760174D01*
X10405896Y-8760174D02*
X10367801Y-8760174D01*
X10367801Y-8760174D02*
X10348753Y-8769698D01*
X10348753Y-8769698D02*
X10339230Y-8779222D01*
X10339230Y-8779222D02*
X10329706Y-8798270D01*
X10682087Y-8883984D02*
X10682087Y-8683984D01*
X10767801Y-8883984D02*
X10767801Y-8779222D01*
X10767801Y-8779222D02*
X10758277Y-8760174D01*
X10758277Y-8760174D02*
X10739230Y-8750650D01*
X10739230Y-8750650D02*
X10710658Y-8750650D01*
X10710658Y-8750650D02*
X10691611Y-8760174D01*
X10691611Y-8760174D02*
X10682087Y-8769698D01*
X10891611Y-8883984D02*
X10872563Y-8874460D01*
X10872563Y-8874460D02*
X10863039Y-8864936D01*
X10863039Y-8864936D02*
X10853515Y-8845889D01*
X10853515Y-8845889D02*
X10853515Y-8788746D01*
X10853515Y-8788746D02*
X10863039Y-8769698D01*
X10863039Y-8769698D02*
X10872563Y-8760174D01*
X10872563Y-8760174D02*
X10891611Y-8750650D01*
X10891611Y-8750650D02*
X10920182Y-8750650D01*
X10920182Y-8750650D02*
X10939230Y-8760174D01*
X10939230Y-8760174D02*
X10948753Y-8769698D01*
X10948753Y-8769698D02*
X10958277Y-8788746D01*
X10958277Y-8788746D02*
X10958277Y-8845889D01*
X10958277Y-8845889D02*
X10948753Y-8864936D01*
X10948753Y-8864936D02*
X10939230Y-8874460D01*
X10939230Y-8874460D02*
X10920182Y-8883984D01*
X10920182Y-8883984D02*
X10891611Y-8883984D01*
X11072563Y-8883984D02*
X11053515Y-8874460D01*
X11053515Y-8874460D02*
X11043992Y-8855412D01*
X11043992Y-8855412D02*
X11043992Y-8683984D01*
X11224944Y-8874460D02*
X11205896Y-8883984D01*
X11205896Y-8883984D02*
X11167801Y-8883984D01*
X11167801Y-8883984D02*
X11148753Y-8874460D01*
X11148753Y-8874460D02*
X11139230Y-8855412D01*
X11139230Y-8855412D02*
X11139230Y-8779222D01*
X11139230Y-8779222D02*
X11148753Y-8760174D01*
X11148753Y-8760174D02*
X11167801Y-8750650D01*
X11167801Y-8750650D02*
X11205896Y-8750650D01*
X11205896Y-8750650D02*
X11224944Y-8760174D01*
X11224944Y-8760174D02*
X11234468Y-8779222D01*
X11234468Y-8779222D02*
X11234468Y-8798270D01*
X11234468Y-8798270D02*
X11139230Y-8817317D01*
X11310658Y-8874460D02*
X11329706Y-8883984D01*
X11329706Y-8883984D02*
X11367801Y-8883984D01*
X11367801Y-8883984D02*
X11386849Y-8874460D01*
X11386849Y-8874460D02*
X11396372Y-8855412D01*
X11396372Y-8855412D02*
X11396372Y-8845889D01*
X11396372Y-8845889D02*
X11386849Y-8826841D01*
X11386849Y-8826841D02*
X11367801Y-8817317D01*
X11367801Y-8817317D02*
X11339230Y-8817317D01*
X11339230Y-8817317D02*
X11320182Y-8807793D01*
X11320182Y-8807793D02*
X11310658Y-8788746D01*
X11310658Y-8788746D02*
X11310658Y-8779222D01*
X11310658Y-8779222D02*
X11320182Y-8760174D01*
X11320182Y-8760174D02*
X11339230Y-8750650D01*
X11339230Y-8750650D02*
X11367801Y-8750650D01*
X11367801Y-8750650D02*
X11386849Y-8760174D01*
X11463039Y-8960174D02*
X11472563Y-8950650D01*
X11472563Y-8950650D02*
X11491611Y-8922079D01*
X11491611Y-8922079D02*
X11501134Y-8903031D01*
X11501134Y-8903031D02*
X11510658Y-8874460D01*
X11510658Y-8874460D02*
X11520182Y-8826841D01*
X11520182Y-8826841D02*
X11520182Y-8788746D01*
X11520182Y-8788746D02*
X11510658Y-8741127D01*
X11510658Y-8741127D02*
X11501134Y-8712555D01*
X11501134Y-8712555D02*
X11491611Y-8693508D01*
X11491611Y-8693508D02*
X11472563Y-8664936D01*
X11472563Y-8664936D02*
X11463039Y-8655412D01*
D12*
X6497500Y-9056500D02*
G75*
G02*
X6457500Y-9056500I-20000J0D01*
G01*
X6457500Y-9056500D02*
G75*
G02*
X6497500Y-9056500I20000J0D01*
G01*
D11*
X6796372Y-8947984D02*
X6815420Y-8947984D01*
X6815420Y-8947984D02*
X6834467Y-8957508D01*
X6834467Y-8957508D02*
X6843991Y-8967031D01*
X6843991Y-8967031D02*
X6853515Y-8986079D01*
X6853515Y-8986079D02*
X6863039Y-9024174D01*
X6863039Y-9024174D02*
X6863039Y-9071793D01*
X6863039Y-9071793D02*
X6853515Y-9109889D01*
X6853515Y-9109889D02*
X6843991Y-9128936D01*
X6843991Y-9128936D02*
X6834467Y-9138460D01*
X6834467Y-9138460D02*
X6815420Y-9147984D01*
X6815420Y-9147984D02*
X6796372Y-9147984D01*
X6796372Y-9147984D02*
X6777324Y-9138460D01*
X6777324Y-9138460D02*
X6767801Y-9128936D01*
X6767801Y-9128936D02*
X6758277Y-9109889D01*
X6758277Y-9109889D02*
X6748753Y-9071793D01*
X6748753Y-9071793D02*
X6748753Y-9024174D01*
X6748753Y-9024174D02*
X6758277Y-8986079D01*
X6758277Y-8986079D02*
X6767801Y-8967031D01*
X6767801Y-8967031D02*
X6777324Y-8957508D01*
X6777324Y-8957508D02*
X6796372Y-8947984D01*
X6948753Y-9128936D02*
X6958277Y-9138460D01*
X6958277Y-9138460D02*
X6948753Y-9147984D01*
X6948753Y-9147984D02*
X6939229Y-9138460D01*
X6939229Y-9138460D02*
X6948753Y-9128936D01*
X6948753Y-9128936D02*
X6948753Y-9147984D01*
X7129705Y-9014650D02*
X7129705Y-9147984D01*
X7082086Y-8938460D02*
X7034467Y-9081317D01*
X7034467Y-9081317D02*
X7158277Y-9081317D01*
X7272562Y-8947984D02*
X7291610Y-8947984D01*
X7291610Y-8947984D02*
X7310658Y-8957508D01*
X7310658Y-8957508D02*
X7320182Y-8967031D01*
X7320182Y-8967031D02*
X7329705Y-8986079D01*
X7329705Y-8986079D02*
X7339229Y-9024174D01*
X7339229Y-9024174D02*
X7339229Y-9071793D01*
X7339229Y-9071793D02*
X7329705Y-9109889D01*
X7329705Y-9109889D02*
X7320182Y-9128936D01*
X7320182Y-9128936D02*
X7310658Y-9138460D01*
X7310658Y-9138460D02*
X7291610Y-9147984D01*
X7291610Y-9147984D02*
X7272562Y-9147984D01*
X7272562Y-9147984D02*
X7253515Y-9138460D01*
X7253515Y-9138460D02*
X7243991Y-9128936D01*
X7243991Y-9128936D02*
X7234467Y-9109889D01*
X7234467Y-9109889D02*
X7224943Y-9071793D01*
X7224943Y-9071793D02*
X7224943Y-9024174D01*
X7224943Y-9024174D02*
X7234467Y-8986079D01*
X7234467Y-8986079D02*
X7243991Y-8967031D01*
X7243991Y-8967031D02*
X7253515Y-8957508D01*
X7253515Y-8957508D02*
X7272562Y-8947984D01*
X7463039Y-8947984D02*
X7482086Y-8947984D01*
X7482086Y-8947984D02*
X7501134Y-8957508D01*
X7501134Y-8957508D02*
X7510658Y-8967031D01*
X7510658Y-8967031D02*
X7520182Y-8986079D01*
X7520182Y-8986079D02*
X7529705Y-9024174D01*
X7529705Y-9024174D02*
X7529705Y-9071793D01*
X7529705Y-9071793D02*
X7520182Y-9109889D01*
X7520182Y-9109889D02*
X7510658Y-9128936D01*
X7510658Y-9128936D02*
X7501134Y-9138460D01*
X7501134Y-9138460D02*
X7482086Y-9147984D01*
X7482086Y-9147984D02*
X7463039Y-9147984D01*
X7463039Y-9147984D02*
X7443991Y-9138460D01*
X7443991Y-9138460D02*
X7434467Y-9128936D01*
X7434467Y-9128936D02*
X7424943Y-9109889D01*
X7424943Y-9109889D02*
X7415420Y-9071793D01*
X7415420Y-9071793D02*
X7415420Y-9024174D01*
X7415420Y-9024174D02*
X7424943Y-8986079D01*
X7424943Y-8986079D02*
X7434467Y-8967031D01*
X7434467Y-8967031D02*
X7443991Y-8957508D01*
X7443991Y-8957508D02*
X7463039Y-8947984D01*
X7615420Y-9147984D02*
X7615420Y-9014650D01*
X7615420Y-9033698D02*
X7624943Y-9024174D01*
X7624943Y-9024174D02*
X7643991Y-9014650D01*
X7643991Y-9014650D02*
X7672563Y-9014650D01*
X7672563Y-9014650D02*
X7691610Y-9024174D01*
X7691610Y-9024174D02*
X7701134Y-9043222D01*
X7701134Y-9043222D02*
X7701134Y-9147984D01*
X7701134Y-9043222D02*
X7710658Y-9024174D01*
X7710658Y-9024174D02*
X7729705Y-9014650D01*
X7729705Y-9014650D02*
X7758277Y-9014650D01*
X7758277Y-9014650D02*
X7777324Y-9024174D01*
X7777324Y-9024174D02*
X7786848Y-9043222D01*
X7786848Y-9043222D02*
X7786848Y-9147984D01*
X7882086Y-9147984D02*
X7882086Y-9014650D01*
X7882086Y-9033698D02*
X7891610Y-9024174D01*
X7891610Y-9024174D02*
X7910658Y-9014650D01*
X7910658Y-9014650D02*
X7939229Y-9014650D01*
X7939229Y-9014650D02*
X7958277Y-9024174D01*
X7958277Y-9024174D02*
X7967801Y-9043222D01*
X7967801Y-9043222D02*
X7967801Y-9147984D01*
X7967801Y-9043222D02*
X7977324Y-9024174D01*
X7977324Y-9024174D02*
X7996372Y-9014650D01*
X7996372Y-9014650D02*
X8024943Y-9014650D01*
X8024943Y-9014650D02*
X8043991Y-9024174D01*
X8043991Y-9024174D02*
X8053515Y-9043222D01*
X8053515Y-9043222D02*
X8053515Y-9147984D01*
X8443991Y-8938460D02*
X8272563Y-9195603D01*
X8701134Y-8947984D02*
X8720182Y-8947984D01*
X8720182Y-8947984D02*
X8739229Y-8957508D01*
X8739229Y-8957508D02*
X8748753Y-8967031D01*
X8748753Y-8967031D02*
X8758277Y-8986079D01*
X8758277Y-8986079D02*
X8767801Y-9024174D01*
X8767801Y-9024174D02*
X8767801Y-9071793D01*
X8767801Y-9071793D02*
X8758277Y-9109889D01*
X8758277Y-9109889D02*
X8748753Y-9128936D01*
X8748753Y-9128936D02*
X8739229Y-9138460D01*
X8739229Y-9138460D02*
X8720182Y-9147984D01*
X8720182Y-9147984D02*
X8701134Y-9147984D01*
X8701134Y-9147984D02*
X8682087Y-9138460D01*
X8682087Y-9138460D02*
X8672563Y-9128936D01*
X8672563Y-9128936D02*
X8663039Y-9109889D01*
X8663039Y-9109889D02*
X8653515Y-9071793D01*
X8653515Y-9071793D02*
X8653515Y-9024174D01*
X8653515Y-9024174D02*
X8663039Y-8986079D01*
X8663039Y-8986079D02*
X8672563Y-8967031D01*
X8672563Y-8967031D02*
X8682087Y-8957508D01*
X8682087Y-8957508D02*
X8701134Y-8947984D01*
X8853515Y-9128936D02*
X8863039Y-9138460D01*
X8863039Y-9138460D02*
X8853515Y-9147984D01*
X8853515Y-9147984D02*
X8843991Y-9138460D01*
X8843991Y-9138460D02*
X8853515Y-9128936D01*
X8853515Y-9128936D02*
X8853515Y-9147984D01*
X8986848Y-8947984D02*
X9005896Y-8947984D01*
X9005896Y-8947984D02*
X9024944Y-8957508D01*
X9024944Y-8957508D02*
X9034468Y-8967031D01*
X9034468Y-8967031D02*
X9043991Y-8986079D01*
X9043991Y-8986079D02*
X9053515Y-9024174D01*
X9053515Y-9024174D02*
X9053515Y-9071793D01*
X9053515Y-9071793D02*
X9043991Y-9109889D01*
X9043991Y-9109889D02*
X9034468Y-9128936D01*
X9034468Y-9128936D02*
X9024944Y-9138460D01*
X9024944Y-9138460D02*
X9005896Y-9147984D01*
X9005896Y-9147984D02*
X8986848Y-9147984D01*
X8986848Y-9147984D02*
X8967801Y-9138460D01*
X8967801Y-9138460D02*
X8958277Y-9128936D01*
X8958277Y-9128936D02*
X8948753Y-9109889D01*
X8948753Y-9109889D02*
X8939229Y-9071793D01*
X8939229Y-9071793D02*
X8939229Y-9024174D01*
X8939229Y-9024174D02*
X8948753Y-8986079D01*
X8948753Y-8986079D02*
X8958277Y-8967031D01*
X8958277Y-8967031D02*
X8967801Y-8957508D01*
X8967801Y-8957508D02*
X8986848Y-8947984D01*
X9243991Y-9147984D02*
X9129706Y-9147984D01*
X9186848Y-9147984D02*
X9186848Y-8947984D01*
X9186848Y-8947984D02*
X9167801Y-8976555D01*
X9167801Y-8976555D02*
X9148753Y-8995603D01*
X9148753Y-8995603D02*
X9129706Y-9005127D01*
X9424944Y-8947984D02*
X9329706Y-8947984D01*
X9329706Y-8947984D02*
X9320182Y-9043222D01*
X9320182Y-9043222D02*
X9329706Y-9033698D01*
X9329706Y-9033698D02*
X9348753Y-9024174D01*
X9348753Y-9024174D02*
X9396372Y-9024174D01*
X9396372Y-9024174D02*
X9415420Y-9033698D01*
X9415420Y-9033698D02*
X9424944Y-9043222D01*
X9424944Y-9043222D02*
X9434468Y-9062270D01*
X9434468Y-9062270D02*
X9434468Y-9109889D01*
X9434468Y-9109889D02*
X9424944Y-9128936D01*
X9424944Y-9128936D02*
X9415420Y-9138460D01*
X9415420Y-9138460D02*
X9396372Y-9147984D01*
X9396372Y-9147984D02*
X9348753Y-9147984D01*
X9348753Y-9147984D02*
X9329706Y-9138460D01*
X9329706Y-9138460D02*
X9320182Y-9128936D01*
X9501134Y-8947984D02*
X9634468Y-8947984D01*
X9634468Y-8947984D02*
X9548753Y-9147984D01*
X9701134Y-8947984D02*
X9701134Y-8986079D01*
X9777325Y-8947984D02*
X9777325Y-8986079D01*
X10072563Y-9224174D02*
X10063039Y-9214650D01*
X10063039Y-9214650D02*
X10043991Y-9186079D01*
X10043991Y-9186079D02*
X10034468Y-9167031D01*
X10034468Y-9167031D02*
X10024944Y-9138460D01*
X10024944Y-9138460D02*
X10015420Y-9090841D01*
X10015420Y-9090841D02*
X10015420Y-9052746D01*
X10015420Y-9052746D02*
X10024944Y-9005127D01*
X10024944Y-9005127D02*
X10034468Y-8976555D01*
X10034468Y-8976555D02*
X10043991Y-8957508D01*
X10043991Y-8957508D02*
X10063039Y-8928936D01*
X10063039Y-8928936D02*
X10072563Y-8919412D01*
X10243991Y-8947984D02*
X10148753Y-8947984D01*
X10148753Y-8947984D02*
X10139230Y-9043222D01*
X10139230Y-9043222D02*
X10148753Y-9033698D01*
X10148753Y-9033698D02*
X10167801Y-9024174D01*
X10167801Y-9024174D02*
X10215420Y-9024174D01*
X10215420Y-9024174D02*
X10234468Y-9033698D01*
X10234468Y-9033698D02*
X10243991Y-9043222D01*
X10243991Y-9043222D02*
X10253515Y-9062270D01*
X10253515Y-9062270D02*
X10253515Y-9109889D01*
X10253515Y-9109889D02*
X10243991Y-9128936D01*
X10243991Y-9128936D02*
X10234468Y-9138460D01*
X10234468Y-9138460D02*
X10215420Y-9147984D01*
X10215420Y-9147984D02*
X10167801Y-9147984D01*
X10167801Y-9147984D02*
X10148753Y-9138460D01*
X10148753Y-9138460D02*
X10139230Y-9128936D01*
X10329706Y-8967031D02*
X10339230Y-8957508D01*
X10339230Y-8957508D02*
X10358277Y-8947984D01*
X10358277Y-8947984D02*
X10405896Y-8947984D01*
X10405896Y-8947984D02*
X10424944Y-8957508D01*
X10424944Y-8957508D02*
X10434468Y-8967031D01*
X10434468Y-8967031D02*
X10443991Y-8986079D01*
X10443991Y-8986079D02*
X10443991Y-9005127D01*
X10443991Y-9005127D02*
X10434468Y-9033698D01*
X10434468Y-9033698D02*
X10320182Y-9147984D01*
X10320182Y-9147984D02*
X10443991Y-9147984D01*
X10682087Y-9147984D02*
X10682087Y-8947984D01*
X10767801Y-9147984D02*
X10767801Y-9043222D01*
X10767801Y-9043222D02*
X10758277Y-9024174D01*
X10758277Y-9024174D02*
X10739230Y-9014650D01*
X10739230Y-9014650D02*
X10710658Y-9014650D01*
X10710658Y-9014650D02*
X10691611Y-9024174D01*
X10691611Y-9024174D02*
X10682087Y-9033698D01*
X10891611Y-9147984D02*
X10872563Y-9138460D01*
X10872563Y-9138460D02*
X10863039Y-9128936D01*
X10863039Y-9128936D02*
X10853515Y-9109889D01*
X10853515Y-9109889D02*
X10853515Y-9052746D01*
X10853515Y-9052746D02*
X10863039Y-9033698D01*
X10863039Y-9033698D02*
X10872563Y-9024174D01*
X10872563Y-9024174D02*
X10891611Y-9014650D01*
X10891611Y-9014650D02*
X10920182Y-9014650D01*
X10920182Y-9014650D02*
X10939230Y-9024174D01*
X10939230Y-9024174D02*
X10948753Y-9033698D01*
X10948753Y-9033698D02*
X10958277Y-9052746D01*
X10958277Y-9052746D02*
X10958277Y-9109889D01*
X10958277Y-9109889D02*
X10948753Y-9128936D01*
X10948753Y-9128936D02*
X10939230Y-9138460D01*
X10939230Y-9138460D02*
X10920182Y-9147984D01*
X10920182Y-9147984D02*
X10891611Y-9147984D01*
X11072563Y-9147984D02*
X11053515Y-9138460D01*
X11053515Y-9138460D02*
X11043992Y-9119412D01*
X11043992Y-9119412D02*
X11043992Y-8947984D01*
X11224944Y-9138460D02*
X11205896Y-9147984D01*
X11205896Y-9147984D02*
X11167801Y-9147984D01*
X11167801Y-9147984D02*
X11148753Y-9138460D01*
X11148753Y-9138460D02*
X11139230Y-9119412D01*
X11139230Y-9119412D02*
X11139230Y-9043222D01*
X11139230Y-9043222D02*
X11148753Y-9024174D01*
X11148753Y-9024174D02*
X11167801Y-9014650D01*
X11167801Y-9014650D02*
X11205896Y-9014650D01*
X11205896Y-9014650D02*
X11224944Y-9024174D01*
X11224944Y-9024174D02*
X11234468Y-9043222D01*
X11234468Y-9043222D02*
X11234468Y-9062270D01*
X11234468Y-9062270D02*
X11139230Y-9081317D01*
X11310658Y-9138460D02*
X11329706Y-9147984D01*
X11329706Y-9147984D02*
X11367801Y-9147984D01*
X11367801Y-9147984D02*
X11386849Y-9138460D01*
X11386849Y-9138460D02*
X11396372Y-9119412D01*
X11396372Y-9119412D02*
X11396372Y-9109889D01*
X11396372Y-9109889D02*
X11386849Y-9090841D01*
X11386849Y-9090841D02*
X11367801Y-9081317D01*
X11367801Y-9081317D02*
X11339230Y-9081317D01*
X11339230Y-9081317D02*
X11320182Y-9071793D01*
X11320182Y-9071793D02*
X11310658Y-9052746D01*
X11310658Y-9052746D02*
X11310658Y-9043222D01*
X11310658Y-9043222D02*
X11320182Y-9024174D01*
X11320182Y-9024174D02*
X11339230Y-9014650D01*
X11339230Y-9014650D02*
X11367801Y-9014650D01*
X11367801Y-9014650D02*
X11386849Y-9024174D01*
X11463039Y-9224174D02*
X11472563Y-9214650D01*
X11472563Y-9214650D02*
X11491611Y-9186079D01*
X11491611Y-9186079D02*
X11501134Y-9167031D01*
X11501134Y-9167031D02*
X11510658Y-9138460D01*
X11510658Y-9138460D02*
X11520182Y-9090841D01*
X11520182Y-9090841D02*
X11520182Y-9052746D01*
X11520182Y-9052746D02*
X11510658Y-9005127D01*
X11510658Y-9005127D02*
X11501134Y-8976555D01*
X11501134Y-8976555D02*
X11491611Y-8957508D01*
X11491611Y-8957508D02*
X11472563Y-8928936D01*
X11472563Y-8928936D02*
X11463039Y-8919412D01*
D12*
X6467500Y-9290500D02*
X6467500Y-9350500D01*
X6437500Y-9320500D02*
X6497500Y-9320500D01*
D11*
X6796372Y-9211984D02*
X6815420Y-9211984D01*
X6815420Y-9211984D02*
X6834467Y-9221508D01*
X6834467Y-9221508D02*
X6843991Y-9231031D01*
X6843991Y-9231031D02*
X6853515Y-9250079D01*
X6853515Y-9250079D02*
X6863039Y-9288174D01*
X6863039Y-9288174D02*
X6863039Y-9335793D01*
X6863039Y-9335793D02*
X6853515Y-9373889D01*
X6853515Y-9373889D02*
X6843991Y-9392936D01*
X6843991Y-9392936D02*
X6834467Y-9402460D01*
X6834467Y-9402460D02*
X6815420Y-9411984D01*
X6815420Y-9411984D02*
X6796372Y-9411984D01*
X6796372Y-9411984D02*
X6777324Y-9402460D01*
X6777324Y-9402460D02*
X6767801Y-9392936D01*
X6767801Y-9392936D02*
X6758277Y-9373889D01*
X6758277Y-9373889D02*
X6748753Y-9335793D01*
X6748753Y-9335793D02*
X6748753Y-9288174D01*
X6748753Y-9288174D02*
X6758277Y-9250079D01*
X6758277Y-9250079D02*
X6767801Y-9231031D01*
X6767801Y-9231031D02*
X6777324Y-9221508D01*
X6777324Y-9221508D02*
X6796372Y-9211984D01*
X6948753Y-9392936D02*
X6958277Y-9402460D01*
X6958277Y-9402460D02*
X6948753Y-9411984D01*
X6948753Y-9411984D02*
X6939229Y-9402460D01*
X6939229Y-9402460D02*
X6948753Y-9392936D01*
X6948753Y-9392936D02*
X6948753Y-9411984D01*
X7129705Y-9211984D02*
X7091610Y-9211984D01*
X7091610Y-9211984D02*
X7072562Y-9221508D01*
X7072562Y-9221508D02*
X7063039Y-9231031D01*
X7063039Y-9231031D02*
X7043991Y-9259603D01*
X7043991Y-9259603D02*
X7034467Y-9297698D01*
X7034467Y-9297698D02*
X7034467Y-9373889D01*
X7034467Y-9373889D02*
X7043991Y-9392936D01*
X7043991Y-9392936D02*
X7053515Y-9402460D01*
X7053515Y-9402460D02*
X7072562Y-9411984D01*
X7072562Y-9411984D02*
X7110658Y-9411984D01*
X7110658Y-9411984D02*
X7129705Y-9402460D01*
X7129705Y-9402460D02*
X7139229Y-9392936D01*
X7139229Y-9392936D02*
X7148753Y-9373889D01*
X7148753Y-9373889D02*
X7148753Y-9326270D01*
X7148753Y-9326270D02*
X7139229Y-9307222D01*
X7139229Y-9307222D02*
X7129705Y-9297698D01*
X7129705Y-9297698D02*
X7110658Y-9288174D01*
X7110658Y-9288174D02*
X7072562Y-9288174D01*
X7072562Y-9288174D02*
X7053515Y-9297698D01*
X7053515Y-9297698D02*
X7043991Y-9307222D01*
X7043991Y-9307222D02*
X7034467Y-9326270D01*
X7272562Y-9211984D02*
X7291610Y-9211984D01*
X7291610Y-9211984D02*
X7310658Y-9221508D01*
X7310658Y-9221508D02*
X7320182Y-9231031D01*
X7320182Y-9231031D02*
X7329705Y-9250079D01*
X7329705Y-9250079D02*
X7339229Y-9288174D01*
X7339229Y-9288174D02*
X7339229Y-9335793D01*
X7339229Y-9335793D02*
X7329705Y-9373889D01*
X7329705Y-9373889D02*
X7320182Y-9392936D01*
X7320182Y-9392936D02*
X7310658Y-9402460D01*
X7310658Y-9402460D02*
X7291610Y-9411984D01*
X7291610Y-9411984D02*
X7272562Y-9411984D01*
X7272562Y-9411984D02*
X7253515Y-9402460D01*
X7253515Y-9402460D02*
X7243991Y-9392936D01*
X7243991Y-9392936D02*
X7234467Y-9373889D01*
X7234467Y-9373889D02*
X7224943Y-9335793D01*
X7224943Y-9335793D02*
X7224943Y-9288174D01*
X7224943Y-9288174D02*
X7234467Y-9250079D01*
X7234467Y-9250079D02*
X7243991Y-9231031D01*
X7243991Y-9231031D02*
X7253515Y-9221508D01*
X7253515Y-9221508D02*
X7272562Y-9211984D01*
X7463039Y-9211984D02*
X7482086Y-9211984D01*
X7482086Y-9211984D02*
X7501134Y-9221508D01*
X7501134Y-9221508D02*
X7510658Y-9231031D01*
X7510658Y-9231031D02*
X7520182Y-9250079D01*
X7520182Y-9250079D02*
X7529705Y-9288174D01*
X7529705Y-9288174D02*
X7529705Y-9335793D01*
X7529705Y-9335793D02*
X7520182Y-9373889D01*
X7520182Y-9373889D02*
X7510658Y-9392936D01*
X7510658Y-9392936D02*
X7501134Y-9402460D01*
X7501134Y-9402460D02*
X7482086Y-9411984D01*
X7482086Y-9411984D02*
X7463039Y-9411984D01*
X7463039Y-9411984D02*
X7443991Y-9402460D01*
X7443991Y-9402460D02*
X7434467Y-9392936D01*
X7434467Y-9392936D02*
X7424943Y-9373889D01*
X7424943Y-9373889D02*
X7415420Y-9335793D01*
X7415420Y-9335793D02*
X7415420Y-9288174D01*
X7415420Y-9288174D02*
X7424943Y-9250079D01*
X7424943Y-9250079D02*
X7434467Y-9231031D01*
X7434467Y-9231031D02*
X7443991Y-9221508D01*
X7443991Y-9221508D02*
X7463039Y-9211984D01*
X7615420Y-9411984D02*
X7615420Y-9278650D01*
X7615420Y-9297698D02*
X7624943Y-9288174D01*
X7624943Y-9288174D02*
X7643991Y-9278650D01*
X7643991Y-9278650D02*
X7672563Y-9278650D01*
X7672563Y-9278650D02*
X7691610Y-9288174D01*
X7691610Y-9288174D02*
X7701134Y-9307222D01*
X7701134Y-9307222D02*
X7701134Y-9411984D01*
X7701134Y-9307222D02*
X7710658Y-9288174D01*
X7710658Y-9288174D02*
X7729705Y-9278650D01*
X7729705Y-9278650D02*
X7758277Y-9278650D01*
X7758277Y-9278650D02*
X7777324Y-9288174D01*
X7777324Y-9288174D02*
X7786848Y-9307222D01*
X7786848Y-9307222D02*
X7786848Y-9411984D01*
X7882086Y-9411984D02*
X7882086Y-9278650D01*
X7882086Y-9297698D02*
X7891610Y-9288174D01*
X7891610Y-9288174D02*
X7910658Y-9278650D01*
X7910658Y-9278650D02*
X7939229Y-9278650D01*
X7939229Y-9278650D02*
X7958277Y-9288174D01*
X7958277Y-9288174D02*
X7967801Y-9307222D01*
X7967801Y-9307222D02*
X7967801Y-9411984D01*
X7967801Y-9307222D02*
X7977324Y-9288174D01*
X7977324Y-9288174D02*
X7996372Y-9278650D01*
X7996372Y-9278650D02*
X8024943Y-9278650D01*
X8024943Y-9278650D02*
X8043991Y-9288174D01*
X8043991Y-9288174D02*
X8053515Y-9307222D01*
X8053515Y-9307222D02*
X8053515Y-9411984D01*
X8443991Y-9202460D02*
X8272563Y-9459603D01*
X8701134Y-9211984D02*
X8720182Y-9211984D01*
X8720182Y-9211984D02*
X8739229Y-9221508D01*
X8739229Y-9221508D02*
X8748753Y-9231031D01*
X8748753Y-9231031D02*
X8758277Y-9250079D01*
X8758277Y-9250079D02*
X8767801Y-9288174D01*
X8767801Y-9288174D02*
X8767801Y-9335793D01*
X8767801Y-9335793D02*
X8758277Y-9373889D01*
X8758277Y-9373889D02*
X8748753Y-9392936D01*
X8748753Y-9392936D02*
X8739229Y-9402460D01*
X8739229Y-9402460D02*
X8720182Y-9411984D01*
X8720182Y-9411984D02*
X8701134Y-9411984D01*
X8701134Y-9411984D02*
X8682087Y-9402460D01*
X8682087Y-9402460D02*
X8672563Y-9392936D01*
X8672563Y-9392936D02*
X8663039Y-9373889D01*
X8663039Y-9373889D02*
X8653515Y-9335793D01*
X8653515Y-9335793D02*
X8653515Y-9288174D01*
X8653515Y-9288174D02*
X8663039Y-9250079D01*
X8663039Y-9250079D02*
X8672563Y-9231031D01*
X8672563Y-9231031D02*
X8682087Y-9221508D01*
X8682087Y-9221508D02*
X8701134Y-9211984D01*
X8853515Y-9392936D02*
X8863039Y-9402460D01*
X8863039Y-9402460D02*
X8853515Y-9411984D01*
X8853515Y-9411984D02*
X8843991Y-9402460D01*
X8843991Y-9402460D02*
X8853515Y-9392936D01*
X8853515Y-9392936D02*
X8853515Y-9411984D01*
X8986848Y-9211984D02*
X9005896Y-9211984D01*
X9005896Y-9211984D02*
X9024944Y-9221508D01*
X9024944Y-9221508D02*
X9034468Y-9231031D01*
X9034468Y-9231031D02*
X9043991Y-9250079D01*
X9043991Y-9250079D02*
X9053515Y-9288174D01*
X9053515Y-9288174D02*
X9053515Y-9335793D01*
X9053515Y-9335793D02*
X9043991Y-9373889D01*
X9043991Y-9373889D02*
X9034468Y-9392936D01*
X9034468Y-9392936D02*
X9024944Y-9402460D01*
X9024944Y-9402460D02*
X9005896Y-9411984D01*
X9005896Y-9411984D02*
X8986848Y-9411984D01*
X8986848Y-9411984D02*
X8967801Y-9402460D01*
X8967801Y-9402460D02*
X8958277Y-9392936D01*
X8958277Y-9392936D02*
X8948753Y-9373889D01*
X8948753Y-9373889D02*
X8939229Y-9335793D01*
X8939229Y-9335793D02*
X8939229Y-9288174D01*
X8939229Y-9288174D02*
X8948753Y-9250079D01*
X8948753Y-9250079D02*
X8958277Y-9231031D01*
X8958277Y-9231031D02*
X8967801Y-9221508D01*
X8967801Y-9221508D02*
X8986848Y-9211984D01*
X9129706Y-9231031D02*
X9139229Y-9221508D01*
X9139229Y-9221508D02*
X9158277Y-9211984D01*
X9158277Y-9211984D02*
X9205896Y-9211984D01*
X9205896Y-9211984D02*
X9224944Y-9221508D01*
X9224944Y-9221508D02*
X9234468Y-9231031D01*
X9234468Y-9231031D02*
X9243991Y-9250079D01*
X9243991Y-9250079D02*
X9243991Y-9269127D01*
X9243991Y-9269127D02*
X9234468Y-9297698D01*
X9234468Y-9297698D02*
X9120182Y-9411984D01*
X9120182Y-9411984D02*
X9243991Y-9411984D01*
X9310658Y-9211984D02*
X9434468Y-9211984D01*
X9434468Y-9211984D02*
X9367801Y-9288174D01*
X9367801Y-9288174D02*
X9396372Y-9288174D01*
X9396372Y-9288174D02*
X9415420Y-9297698D01*
X9415420Y-9297698D02*
X9424944Y-9307222D01*
X9424944Y-9307222D02*
X9434468Y-9326270D01*
X9434468Y-9326270D02*
X9434468Y-9373889D01*
X9434468Y-9373889D02*
X9424944Y-9392936D01*
X9424944Y-9392936D02*
X9415420Y-9402460D01*
X9415420Y-9402460D02*
X9396372Y-9411984D01*
X9396372Y-9411984D02*
X9339229Y-9411984D01*
X9339229Y-9411984D02*
X9320182Y-9402460D01*
X9320182Y-9402460D02*
X9310658Y-9392936D01*
X9605896Y-9211984D02*
X9567801Y-9211984D01*
X9567801Y-9211984D02*
X9548753Y-9221508D01*
X9548753Y-9221508D02*
X9539229Y-9231031D01*
X9539229Y-9231031D02*
X9520182Y-9259603D01*
X9520182Y-9259603D02*
X9510658Y-9297698D01*
X9510658Y-9297698D02*
X9510658Y-9373889D01*
X9510658Y-9373889D02*
X9520182Y-9392936D01*
X9520182Y-9392936D02*
X9529706Y-9402460D01*
X9529706Y-9402460D02*
X9548753Y-9411984D01*
X9548753Y-9411984D02*
X9586849Y-9411984D01*
X9586849Y-9411984D02*
X9605896Y-9402460D01*
X9605896Y-9402460D02*
X9615420Y-9392936D01*
X9615420Y-9392936D02*
X9624944Y-9373889D01*
X9624944Y-9373889D02*
X9624944Y-9326270D01*
X9624944Y-9326270D02*
X9615420Y-9307222D01*
X9615420Y-9307222D02*
X9605896Y-9297698D01*
X9605896Y-9297698D02*
X9586849Y-9288174D01*
X9586849Y-9288174D02*
X9548753Y-9288174D01*
X9548753Y-9288174D02*
X9529706Y-9297698D01*
X9529706Y-9297698D02*
X9520182Y-9307222D01*
X9520182Y-9307222D02*
X9510658Y-9326270D01*
X9701134Y-9211984D02*
X9701134Y-9250079D01*
X9777325Y-9211984D02*
X9777325Y-9250079D01*
X10072563Y-9488174D02*
X10063039Y-9478650D01*
X10063039Y-9478650D02*
X10043991Y-9450079D01*
X10043991Y-9450079D02*
X10034468Y-9431031D01*
X10034468Y-9431031D02*
X10024944Y-9402460D01*
X10024944Y-9402460D02*
X10015420Y-9354841D01*
X10015420Y-9354841D02*
X10015420Y-9316746D01*
X10015420Y-9316746D02*
X10024944Y-9269127D01*
X10024944Y-9269127D02*
X10034468Y-9240555D01*
X10034468Y-9240555D02*
X10043991Y-9221508D01*
X10043991Y-9221508D02*
X10063039Y-9192936D01*
X10063039Y-9192936D02*
X10072563Y-9183412D01*
X10186849Y-9211984D02*
X10205896Y-9211984D01*
X10205896Y-9211984D02*
X10224944Y-9221508D01*
X10224944Y-9221508D02*
X10234468Y-9231031D01*
X10234468Y-9231031D02*
X10243991Y-9250079D01*
X10243991Y-9250079D02*
X10253515Y-9288174D01*
X10253515Y-9288174D02*
X10253515Y-9335793D01*
X10253515Y-9335793D02*
X10243991Y-9373889D01*
X10243991Y-9373889D02*
X10234468Y-9392936D01*
X10234468Y-9392936D02*
X10224944Y-9402460D01*
X10224944Y-9402460D02*
X10205896Y-9411984D01*
X10205896Y-9411984D02*
X10186849Y-9411984D01*
X10186849Y-9411984D02*
X10167801Y-9402460D01*
X10167801Y-9402460D02*
X10158277Y-9392936D01*
X10158277Y-9392936D02*
X10148753Y-9373889D01*
X10148753Y-9373889D02*
X10139230Y-9335793D01*
X10139230Y-9335793D02*
X10139230Y-9288174D01*
X10139230Y-9288174D02*
X10148753Y-9250079D01*
X10148753Y-9250079D02*
X10158277Y-9231031D01*
X10158277Y-9231031D02*
X10167801Y-9221508D01*
X10167801Y-9221508D02*
X10186849Y-9211984D01*
X10491611Y-9411984D02*
X10491611Y-9211984D01*
X10577325Y-9411984D02*
X10577325Y-9307222D01*
X10577325Y-9307222D02*
X10567801Y-9288174D01*
X10567801Y-9288174D02*
X10548753Y-9278650D01*
X10548753Y-9278650D02*
X10520182Y-9278650D01*
X10520182Y-9278650D02*
X10501134Y-9288174D01*
X10501134Y-9288174D02*
X10491611Y-9297698D01*
X10701134Y-9411984D02*
X10682087Y-9402460D01*
X10682087Y-9402460D02*
X10672563Y-9392936D01*
X10672563Y-9392936D02*
X10663039Y-9373889D01*
X10663039Y-9373889D02*
X10663039Y-9316746D01*
X10663039Y-9316746D02*
X10672563Y-9297698D01*
X10672563Y-9297698D02*
X10682087Y-9288174D01*
X10682087Y-9288174D02*
X10701134Y-9278650D01*
X10701134Y-9278650D02*
X10729706Y-9278650D01*
X10729706Y-9278650D02*
X10748753Y-9288174D01*
X10748753Y-9288174D02*
X10758277Y-9297698D01*
X10758277Y-9297698D02*
X10767801Y-9316746D01*
X10767801Y-9316746D02*
X10767801Y-9373889D01*
X10767801Y-9373889D02*
X10758277Y-9392936D01*
X10758277Y-9392936D02*
X10748753Y-9402460D01*
X10748753Y-9402460D02*
X10729706Y-9411984D01*
X10729706Y-9411984D02*
X10701134Y-9411984D01*
X10882087Y-9411984D02*
X10863039Y-9402460D01*
X10863039Y-9402460D02*
X10853515Y-9383412D01*
X10853515Y-9383412D02*
X10853515Y-9211984D01*
X11034468Y-9402460D02*
X11015420Y-9411984D01*
X11015420Y-9411984D02*
X10977325Y-9411984D01*
X10977325Y-9411984D02*
X10958277Y-9402460D01*
X10958277Y-9402460D02*
X10948753Y-9383412D01*
X10948753Y-9383412D02*
X10948753Y-9307222D01*
X10948753Y-9307222D02*
X10958277Y-9288174D01*
X10958277Y-9288174D02*
X10977325Y-9278650D01*
X10977325Y-9278650D02*
X11015420Y-9278650D01*
X11015420Y-9278650D02*
X11034468Y-9288174D01*
X11034468Y-9288174D02*
X11043992Y-9307222D01*
X11043992Y-9307222D02*
X11043992Y-9326270D01*
X11043992Y-9326270D02*
X10948753Y-9345317D01*
X11120182Y-9402460D02*
X11139230Y-9411984D01*
X11139230Y-9411984D02*
X11177325Y-9411984D01*
X11177325Y-9411984D02*
X11196372Y-9402460D01*
X11196372Y-9402460D02*
X11205896Y-9383412D01*
X11205896Y-9383412D02*
X11205896Y-9373889D01*
X11205896Y-9373889D02*
X11196372Y-9354841D01*
X11196372Y-9354841D02*
X11177325Y-9345317D01*
X11177325Y-9345317D02*
X11148753Y-9345317D01*
X11148753Y-9345317D02*
X11129706Y-9335793D01*
X11129706Y-9335793D02*
X11120182Y-9316746D01*
X11120182Y-9316746D02*
X11120182Y-9307222D01*
X11120182Y-9307222D02*
X11129706Y-9288174D01*
X11129706Y-9288174D02*
X11148753Y-9278650D01*
X11148753Y-9278650D02*
X11177325Y-9278650D01*
X11177325Y-9278650D02*
X11196372Y-9288174D01*
X11443992Y-9335793D02*
X11596373Y-9335793D01*
X11520182Y-9411984D02*
X11520182Y-9259603D01*
X11929706Y-9278650D02*
X11929706Y-9411984D01*
X11882087Y-9202460D02*
X11834468Y-9345317D01*
X11834468Y-9345317D02*
X11958277Y-9345317D01*
X12177325Y-9402460D02*
X12196373Y-9411984D01*
X12196373Y-9411984D02*
X12234468Y-9411984D01*
X12234468Y-9411984D02*
X12253515Y-9402460D01*
X12253515Y-9402460D02*
X12263039Y-9383412D01*
X12263039Y-9383412D02*
X12263039Y-9373889D01*
X12263039Y-9373889D02*
X12253515Y-9354841D01*
X12253515Y-9354841D02*
X12234468Y-9345317D01*
X12234468Y-9345317D02*
X12205896Y-9345317D01*
X12205896Y-9345317D02*
X12186849Y-9335793D01*
X12186849Y-9335793D02*
X12177325Y-9316746D01*
X12177325Y-9316746D02*
X12177325Y-9307222D01*
X12177325Y-9307222D02*
X12186849Y-9288174D01*
X12186849Y-9288174D02*
X12205896Y-9278650D01*
X12205896Y-9278650D02*
X12234468Y-9278650D01*
X12234468Y-9278650D02*
X12253515Y-9288174D01*
X12377325Y-9411984D02*
X12358277Y-9402460D01*
X12358277Y-9402460D02*
X12348754Y-9383412D01*
X12348754Y-9383412D02*
X12348754Y-9211984D01*
X12482087Y-9411984D02*
X12463039Y-9402460D01*
X12463039Y-9402460D02*
X12453515Y-9392936D01*
X12453515Y-9392936D02*
X12443992Y-9373889D01*
X12443992Y-9373889D02*
X12443992Y-9316746D01*
X12443992Y-9316746D02*
X12453515Y-9297698D01*
X12453515Y-9297698D02*
X12463039Y-9288174D01*
X12463039Y-9288174D02*
X12482087Y-9278650D01*
X12482087Y-9278650D02*
X12510658Y-9278650D01*
X12510658Y-9278650D02*
X12529706Y-9288174D01*
X12529706Y-9288174D02*
X12539230Y-9297698D01*
X12539230Y-9297698D02*
X12548754Y-9316746D01*
X12548754Y-9316746D02*
X12548754Y-9373889D01*
X12548754Y-9373889D02*
X12539230Y-9392936D01*
X12539230Y-9392936D02*
X12529706Y-9402460D01*
X12529706Y-9402460D02*
X12510658Y-9411984D01*
X12510658Y-9411984D02*
X12482087Y-9411984D01*
X12605896Y-9278650D02*
X12682087Y-9278650D01*
X12634468Y-9211984D02*
X12634468Y-9383412D01*
X12634468Y-9383412D02*
X12643992Y-9402460D01*
X12643992Y-9402460D02*
X12663039Y-9411984D01*
X12663039Y-9411984D02*
X12682087Y-9411984D01*
X12739230Y-9402460D02*
X12758277Y-9411984D01*
X12758277Y-9411984D02*
X12796373Y-9411984D01*
X12796373Y-9411984D02*
X12815420Y-9402460D01*
X12815420Y-9402460D02*
X12824944Y-9383412D01*
X12824944Y-9383412D02*
X12824944Y-9373889D01*
X12824944Y-9373889D02*
X12815420Y-9354841D01*
X12815420Y-9354841D02*
X12796373Y-9345317D01*
X12796373Y-9345317D02*
X12767801Y-9345317D01*
X12767801Y-9345317D02*
X12748754Y-9335793D01*
X12748754Y-9335793D02*
X12739230Y-9316746D01*
X12739230Y-9316746D02*
X12739230Y-9307222D01*
X12739230Y-9307222D02*
X12748754Y-9288174D01*
X12748754Y-9288174D02*
X12767801Y-9278650D01*
X12767801Y-9278650D02*
X12796373Y-9278650D01*
X12796373Y-9278650D02*
X12815420Y-9288174D01*
X12891611Y-9488174D02*
X12901135Y-9478650D01*
X12901135Y-9478650D02*
X12920182Y-9450079D01*
X12920182Y-9450079D02*
X12929706Y-9431031D01*
X12929706Y-9431031D02*
X12939230Y-9402460D01*
X12939230Y-9402460D02*
X12948754Y-9354841D01*
X12948754Y-9354841D02*
X12948754Y-9316746D01*
X12948754Y-9316746D02*
X12939230Y-9269127D01*
X12939230Y-9269127D02*
X12929706Y-9240555D01*
X12929706Y-9240555D02*
X12920182Y-9221508D01*
X12920182Y-9221508D02*
X12901135Y-9192936D01*
X12901135Y-9192936D02*
X12891611Y-9183412D01*
M02*
