%TF.GenerationSoftware,KiCad,Pcbnew,9.0.6*%
%TF.CreationDate,2026-01-06T10:29:40+09:00*%
%TF.ProjectId,VVDAP,56564441-502e-46b6-9963-61645f706362,rev?*%
%TF.SameCoordinates,Original*%
%TF.FileFunction,Legend,Bot*%
%TF.FilePolarity,Positive*%
%FSLAX46Y46*%
G04 Gerber Fmt 4.6, Leading zero omitted, Abs format (unit mm)*
G04 Created by KiCad (PCBNEW 9.0.6) date 2026-01-06 10:29:40*
%MOMM*%
%LPD*%
G01*
G04 APERTURE LIST*
%ADD10C,0.268000*%
%ADD11C,0.200000*%
%ADD12C,0.281250*%
%ADD13C,0.225000*%
%ADD14C,2.250000*%
%ADD15C,2.200000*%
%ADD16C,1.020000*%
%ADD17C,0.990600*%
%ADD18C,0.650000*%
%ADD19O,1.000000X2.100000*%
%ADD20O,1.000000X1.600000*%
%ADD21C,1.500000*%
G04 APERTURE END LIST*
G36*
X90100000Y-75000000D02*
G01*
X90300000Y-75000000D01*
X90300000Y-75200000D01*
X90100000Y-75200000D01*
X90100000Y-75000000D01*
G37*
G36*
X90900000Y-74200000D02*
G01*
X91100000Y-74200000D01*
X91100000Y-74400000D01*
X90900000Y-74400000D01*
X90900000Y-74200000D01*
G37*
G36*
X90500000Y-74200000D02*
G01*
X90700000Y-74200000D01*
X90700000Y-74400000D01*
X90500000Y-74400000D01*
X90500000Y-74200000D01*
G37*
G36*
X91100000Y-74600000D02*
G01*
X91300000Y-74600000D01*
X91300000Y-74800000D01*
X91100000Y-74800000D01*
X91100000Y-74600000D01*
G37*
D10*
X92166000Y-74500000D02*
G75*
G02*
X89434000Y-74500000I-1366000J0D01*
G01*
X89434000Y-74500000D02*
G75*
G02*
X92166000Y-74500000I1366000J0D01*
G01*
G36*
X91300000Y-75000000D02*
G01*
X91500000Y-75000000D01*
X91500000Y-75200000D01*
X91300000Y-75200000D01*
X91300000Y-75000000D01*
G37*
G36*
X90300000Y-74600000D02*
G01*
X90500000Y-74600000D01*
X90500000Y-74800000D01*
X90300000Y-74800000D01*
X90300000Y-74600000D01*
G37*
G36*
X90700000Y-74600000D02*
G01*
X90900000Y-74600000D01*
X90900000Y-74800000D01*
X90700000Y-74800000D01*
X90700000Y-74600000D01*
G37*
G36*
X90700000Y-73800000D02*
G01*
X90900000Y-73800000D01*
X90900000Y-74000000D01*
X90700000Y-74000000D01*
X90700000Y-73800000D01*
G37*
D11*
G36*
X73121135Y-58715000D02*
G01*
X72936548Y-58715000D01*
X72936548Y-58322623D01*
X72799833Y-58322623D01*
X72616651Y-58715000D01*
X72404710Y-58715000D01*
X72615308Y-58295329D01*
X72583585Y-58281359D01*
X72554894Y-58264426D01*
X72529779Y-58245083D01*
X72507555Y-58223048D01*
X72488119Y-58198243D01*
X72461677Y-58146212D01*
X72447082Y-58083135D01*
X72444399Y-58036920D01*
X72627581Y-58036920D01*
X72629517Y-58064803D01*
X72635255Y-58089890D01*
X72644002Y-58110708D01*
X72655916Y-58128713D01*
X72663119Y-58136693D01*
X72695913Y-58158696D01*
X72740729Y-58169801D01*
X72762953Y-58170887D01*
X72936548Y-58170887D01*
X72936548Y-57908387D01*
X72762953Y-57908387D01*
X72735421Y-57910324D01*
X72711055Y-57916061D01*
X72690743Y-57924840D01*
X72672723Y-57936803D01*
X72664523Y-57943925D01*
X72650017Y-57960359D01*
X72639107Y-57978962D01*
X72628256Y-58021361D01*
X72627581Y-58036920D01*
X72444399Y-58036920D01*
X72446358Y-57997130D01*
X72452254Y-57960049D01*
X72461379Y-57927736D01*
X72474011Y-57897752D01*
X72489565Y-57870979D01*
X72508435Y-57846334D01*
X72527808Y-57826383D01*
X72552956Y-57805735D01*
X72580437Y-57788255D01*
X72642442Y-57762792D01*
X72715953Y-57749851D01*
X72753366Y-57748408D01*
X73121135Y-57748408D01*
X73121135Y-58715000D01*
G37*
G36*
X72057702Y-58211920D02*
G01*
X72358487Y-58715000D01*
X72149293Y-58715000D01*
X71952433Y-58358222D01*
X71758260Y-58715000D01*
X71539540Y-58715000D01*
X71844417Y-58205081D01*
X71570987Y-57748408D01*
X71780181Y-57748408D01*
X71948342Y-58062871D01*
X72119251Y-57748408D01*
X72336627Y-57748408D01*
X72057702Y-58211920D01*
G37*
G36*
X71452468Y-58150371D02*
G01*
X71452468Y-58311693D01*
X71066930Y-58311693D01*
X71066930Y-58150371D01*
X71452468Y-58150371D01*
G37*
G36*
X70847356Y-58665785D02*
G01*
X70797755Y-58698438D01*
X70736482Y-58719799D01*
X70659622Y-58729626D01*
X70636819Y-58730081D01*
X70597533Y-58728107D01*
X70559961Y-58722102D01*
X70526596Y-58712738D01*
X70495116Y-58699645D01*
X70487770Y-58695887D01*
X70459314Y-58678516D01*
X70434113Y-58658351D01*
X70394292Y-58611293D01*
X70386592Y-58598801D01*
X70372435Y-58570517D01*
X70361692Y-58540259D01*
X70350402Y-58472940D01*
X70349711Y-58449813D01*
X70349711Y-58423801D01*
X70351665Y-58385443D01*
X70357527Y-58350257D01*
X70366542Y-58320020D01*
X70378974Y-58292159D01*
X70382501Y-58285743D01*
X70398584Y-58261559D01*
X70417624Y-58240329D01*
X70438592Y-58222939D01*
X70462409Y-58208388D01*
X70478244Y-58200990D01*
X70453658Y-58186074D01*
X70432174Y-58168637D01*
X70397412Y-58125978D01*
X70394835Y-58121673D01*
X70381340Y-58094611D01*
X70371644Y-58065644D01*
X70364732Y-58009565D01*
X70364732Y-57989049D01*
X70366670Y-57953286D01*
X70372415Y-57919952D01*
X70381521Y-57889934D01*
X70394019Y-57862140D01*
X70428632Y-57813322D01*
X70438555Y-57803119D01*
X70485855Y-57768066D01*
X70543522Y-57744966D01*
X70613765Y-57734057D01*
X70638162Y-57733387D01*
X70679906Y-57735335D01*
X70718619Y-57741151D01*
X70752395Y-57750169D01*
X70783399Y-57762576D01*
X70810550Y-57777657D01*
X70835088Y-57795806D01*
X70841861Y-57801775D01*
X70861781Y-57822631D01*
X70878576Y-57845871D01*
X70902852Y-57899469D01*
X70914739Y-57964238D01*
X70915744Y-57991796D01*
X70915744Y-58015000D01*
X70747583Y-58015000D01*
X70747583Y-57991796D01*
X70745654Y-57968364D01*
X70739966Y-57947445D01*
X70720228Y-57916570D01*
X70705780Y-57904926D01*
X70688699Y-57896419D01*
X70646772Y-57889285D01*
X70645001Y-57889275D01*
X70621508Y-57891256D01*
X70600557Y-57897301D01*
X70584362Y-57906172D01*
X70570586Y-57918463D01*
X70569835Y-57919317D01*
X70558181Y-57935803D01*
X70549653Y-57954917D01*
X70542486Y-58001152D01*
X70542480Y-58002726D01*
X70542480Y-58023243D01*
X70544395Y-58048797D01*
X70549983Y-58071432D01*
X70558621Y-58090461D01*
X70570240Y-58106751D01*
X70572583Y-58109338D01*
X70586379Y-58121297D01*
X70602561Y-58130173D01*
X70643366Y-58139104D01*
X70654588Y-58139441D01*
X70702459Y-58139441D01*
X70702459Y-58295329D01*
X70653244Y-58295329D01*
X70625109Y-58297283D01*
X70600648Y-58303145D01*
X70581561Y-58311773D01*
X70565094Y-58323572D01*
X70560249Y-58328119D01*
X70538874Y-58360445D01*
X70528301Y-58405571D01*
X70527459Y-58425205D01*
X70527459Y-58449813D01*
X70529439Y-58478394D01*
X70535484Y-58503875D01*
X70544244Y-58523417D01*
X70556350Y-58540155D01*
X70557501Y-58541404D01*
X70573307Y-58555352D01*
X70591435Y-58565837D01*
X70610839Y-58572391D01*
X70632344Y-58575410D01*
X70639567Y-58575598D01*
X70668438Y-58573615D01*
X70692964Y-58567554D01*
X70722914Y-58549586D01*
X70734960Y-58535722D01*
X70743756Y-58519320D01*
X70751579Y-58478828D01*
X70751674Y-58473016D01*
X70751674Y-58451156D01*
X70922583Y-58451156D01*
X70922583Y-58481259D01*
X70920624Y-58518491D01*
X70914725Y-58552915D01*
X70905673Y-58582416D01*
X70893158Y-58609482D01*
X70877845Y-58633194D01*
X70859289Y-58654652D01*
X70847356Y-58665785D01*
G37*
G36*
X70226735Y-58516796D02*
G01*
X70226735Y-58715000D01*
X70032623Y-58715000D01*
X70032623Y-58516796D01*
X70226735Y-58516796D01*
G37*
G36*
X69842053Y-58665785D02*
G01*
X69792452Y-58698438D01*
X69731178Y-58719799D01*
X69654319Y-58729626D01*
X69631515Y-58730081D01*
X69592229Y-58728107D01*
X69554657Y-58722102D01*
X69521293Y-58712738D01*
X69489813Y-58699645D01*
X69482466Y-58695887D01*
X69454011Y-58678516D01*
X69428809Y-58658351D01*
X69388989Y-58611293D01*
X69381288Y-58598801D01*
X69367131Y-58570517D01*
X69356389Y-58540259D01*
X69345099Y-58472940D01*
X69344408Y-58449813D01*
X69344408Y-58423801D01*
X69346362Y-58385443D01*
X69352224Y-58350257D01*
X69361239Y-58320020D01*
X69373670Y-58292159D01*
X69377197Y-58285743D01*
X69393280Y-58261559D01*
X69412321Y-58240329D01*
X69433289Y-58222939D01*
X69457105Y-58208388D01*
X69472941Y-58200990D01*
X69448355Y-58186074D01*
X69426870Y-58168637D01*
X69392108Y-58125978D01*
X69389532Y-58121673D01*
X69376036Y-58094611D01*
X69366341Y-58065644D01*
X69359429Y-58009565D01*
X69359429Y-57989049D01*
X69361366Y-57953286D01*
X69367111Y-57919952D01*
X69376218Y-57889934D01*
X69388715Y-57862140D01*
X69423328Y-57813322D01*
X69433251Y-57803119D01*
X69480552Y-57768066D01*
X69538218Y-57744966D01*
X69608462Y-57734057D01*
X69632859Y-57733387D01*
X69674603Y-57735335D01*
X69713316Y-57741151D01*
X69747091Y-57750169D01*
X69778095Y-57762576D01*
X69805246Y-57777657D01*
X69829784Y-57795806D01*
X69836557Y-57801775D01*
X69856477Y-57822631D01*
X69873272Y-57845871D01*
X69897548Y-57899469D01*
X69909436Y-57964238D01*
X69910441Y-57991796D01*
X69910441Y-58015000D01*
X69742279Y-58015000D01*
X69742279Y-57991796D01*
X69740350Y-57968364D01*
X69734663Y-57947445D01*
X69714924Y-57916570D01*
X69700477Y-57904926D01*
X69683396Y-57896419D01*
X69641469Y-57889285D01*
X69639697Y-57889275D01*
X69616204Y-57891256D01*
X69595254Y-57897301D01*
X69579058Y-57906172D01*
X69565282Y-57918463D01*
X69564532Y-57919317D01*
X69552877Y-57935803D01*
X69544349Y-57954917D01*
X69537183Y-58001152D01*
X69537176Y-58002726D01*
X69537176Y-58023243D01*
X69539091Y-58048797D01*
X69544680Y-58071432D01*
X69553317Y-58090461D01*
X69564937Y-58106751D01*
X69567279Y-58109338D01*
X69581076Y-58121297D01*
X69597258Y-58130173D01*
X69638062Y-58139104D01*
X69649284Y-58139441D01*
X69697156Y-58139441D01*
X69697156Y-58295329D01*
X69647941Y-58295329D01*
X69619806Y-58297283D01*
X69595344Y-58303145D01*
X69576257Y-58311773D01*
X69559790Y-58323572D01*
X69554945Y-58328119D01*
X69533571Y-58360445D01*
X69522998Y-58405571D01*
X69522156Y-58425205D01*
X69522156Y-58449813D01*
X69524136Y-58478394D01*
X69530181Y-58503875D01*
X69538941Y-58523417D01*
X69551047Y-58540155D01*
X69552197Y-58541404D01*
X69568003Y-58555352D01*
X69586132Y-58565837D01*
X69605535Y-58572391D01*
X69627041Y-58575410D01*
X69634263Y-58575598D01*
X69663134Y-58573615D01*
X69687660Y-58567554D01*
X69717611Y-58549586D01*
X69729656Y-58535722D01*
X69738453Y-58519320D01*
X69746275Y-58478828D01*
X69746370Y-58473016D01*
X69746370Y-58451156D01*
X69917279Y-58451156D01*
X69917279Y-58481259D01*
X69915320Y-58518491D01*
X69909422Y-58552915D01*
X69900369Y-58582416D01*
X69887854Y-58609482D01*
X69872542Y-58633194D01*
X69853986Y-58654652D01*
X69842053Y-58665785D01*
G37*
G36*
X69269303Y-57748408D02*
G01*
X68961679Y-58715000D01*
X68814034Y-58715000D01*
X68505067Y-57748408D01*
X68696432Y-57748408D01*
X68886514Y-58416962D01*
X69077878Y-57748408D01*
X69269303Y-57748408D01*
G37*
G36*
X70995855Y-60941796D02*
G01*
X70993902Y-60997019D01*
X70988044Y-61047934D01*
X70979111Y-61091364D01*
X70966818Y-61131089D01*
X70952214Y-61165030D01*
X70934650Y-61195714D01*
X70915048Y-61222061D01*
X70892732Y-61245426D01*
X70840840Y-61282744D01*
X70777429Y-61308828D01*
X70699894Y-61323397D01*
X70644451Y-61325990D01*
X70595582Y-61324036D01*
X70550402Y-61318171D01*
X70511647Y-61309190D01*
X70476090Y-61296814D01*
X70445389Y-61281972D01*
X70417553Y-61264086D01*
X70393283Y-61243821D01*
X70371709Y-61220686D01*
X70336647Y-61165790D01*
X70311820Y-61097251D01*
X70298041Y-61011913D01*
X70295855Y-60955474D01*
X70295855Y-60790000D01*
X70645855Y-60790000D01*
X70645855Y-60941796D01*
X70474946Y-60941796D01*
X70474946Y-60986920D01*
X70476918Y-61025339D01*
X70482905Y-61059195D01*
X70491459Y-61084780D01*
X70503201Y-61106649D01*
X70513231Y-61119544D01*
X70546025Y-61144218D01*
X70591736Y-61158511D01*
X70636269Y-61161920D01*
X70670117Y-61159945D01*
X70699932Y-61153935D01*
X70722944Y-61145227D01*
X70743125Y-61133223D01*
X70767488Y-61109958D01*
X70791563Y-61067626D01*
X70806818Y-61007300D01*
X70811269Y-60939049D01*
X70811269Y-60729855D01*
X70809351Y-60680933D01*
X70803744Y-60638273D01*
X70795424Y-60604130D01*
X70784285Y-60575128D01*
X70770236Y-60550764D01*
X70756211Y-60534221D01*
X70739558Y-60520701D01*
X70698582Y-60502641D01*
X70643107Y-60496114D01*
X70612081Y-60498056D01*
X70583974Y-60503833D01*
X70560339Y-60512669D01*
X70539401Y-60524753D01*
X70521413Y-60539834D01*
X70506056Y-60557933D01*
X70494203Y-60577920D01*
X70480743Y-60623396D01*
X70479037Y-60649193D01*
X70479037Y-60658780D01*
X70295855Y-60658780D01*
X70295855Y-60649193D01*
X70297818Y-60607132D01*
X70303743Y-60567888D01*
X70312874Y-60533840D01*
X70325535Y-60502195D01*
X70341033Y-60474081D01*
X70359855Y-60448140D01*
X70388790Y-60418140D01*
X70444292Y-60379092D01*
X70509920Y-60352129D01*
X70587773Y-60337306D01*
X70641703Y-60334731D01*
X70690412Y-60336685D01*
X70735507Y-60342547D01*
X70774333Y-60351542D01*
X70810017Y-60363941D01*
X70840960Y-60378845D01*
X70869080Y-60396809D01*
X70893713Y-60417208D01*
X70915683Y-60440499D01*
X70951684Y-60495848D01*
X70977621Y-60564995D01*
X70992721Y-60651076D01*
X70995855Y-60720329D01*
X70995855Y-60941796D01*
G37*
G36*
X69421038Y-60348408D02*
G01*
X69604282Y-60348408D01*
X69604282Y-60954070D01*
X69959716Y-60348408D01*
X70144303Y-60348408D01*
X70144303Y-61315000D01*
X69959716Y-61315000D01*
X69959716Y-60712086D01*
X69604282Y-61315000D01*
X69421038Y-61315000D01*
X69421038Y-60348408D01*
G37*
G36*
X69257213Y-61315000D02*
G01*
X68922233Y-61315000D01*
X68875867Y-61313045D01*
X68832250Y-61307182D01*
X68793559Y-61298028D01*
X68757471Y-61285367D01*
X68725415Y-61269957D01*
X68695867Y-61251331D01*
X68663886Y-61224813D01*
X68625547Y-61177337D01*
X68596540Y-61116024D01*
X68577312Y-61037694D01*
X68569591Y-60938259D01*
X68569547Y-60929462D01*
X68569547Y-60742189D01*
X68752729Y-60742189D01*
X68752729Y-60928119D01*
X68754683Y-60976202D01*
X68760545Y-61018433D01*
X68769006Y-61050961D01*
X68780536Y-61078883D01*
X68793762Y-61100371D01*
X68808614Y-61117210D01*
X68825896Y-61130909D01*
X68867582Y-61149083D01*
X68918142Y-61155081D01*
X69072626Y-61155081D01*
X69072626Y-60508387D01*
X68918142Y-60508387D01*
X68888627Y-60510333D01*
X68862134Y-60516139D01*
X68840168Y-60524958D01*
X68820735Y-60537034D01*
X68793762Y-60564441D01*
X68771164Y-60608146D01*
X68756739Y-60672012D01*
X68752729Y-60742189D01*
X68569547Y-60742189D01*
X68569547Y-60732602D01*
X68571497Y-60676030D01*
X68577329Y-60624335D01*
X68586165Y-60580794D01*
X68598285Y-60541350D01*
X68612580Y-60508127D01*
X68629716Y-60478425D01*
X68662481Y-60438656D01*
X68687953Y-60416498D01*
X68715830Y-60397455D01*
X68778786Y-60368721D01*
X68853355Y-60352196D01*
X68916799Y-60348408D01*
X69257213Y-60348408D01*
X69257213Y-61315000D01*
G37*
G36*
X89556982Y-50533750D02*
G01*
X88819765Y-50533750D01*
X88716825Y-50529353D01*
X88618100Y-50516161D01*
X88526995Y-50495089D01*
X88440137Y-50465823D01*
X88359660Y-50429380D01*
X88283521Y-50385135D01*
X88209082Y-50330829D01*
X88096810Y-50217016D01*
X88000296Y-50068136D01*
X87919742Y-49877477D01*
X87863279Y-49666290D01*
X87771230Y-49223356D01*
X87748685Y-49093222D01*
X87747285Y-49078427D01*
X88154109Y-49078427D01*
X88178857Y-49244926D01*
X88265822Y-49663268D01*
X88293215Y-49773560D01*
X88326725Y-49870132D01*
X88362139Y-49945376D01*
X88402489Y-50009455D01*
X88436594Y-50050836D01*
X88479823Y-50090809D01*
X88527384Y-50122834D01*
X88634265Y-50163340D01*
X88736097Y-50173934D01*
X89075991Y-50173934D01*
X88773466Y-48718872D01*
X88433571Y-48718872D01*
X88369520Y-48723251D01*
X88313925Y-48736313D01*
X88270876Y-48755476D01*
X88234504Y-48781550D01*
X88185863Y-48844993D01*
X88157250Y-48939006D01*
X88154109Y-49078427D01*
X87747285Y-49078427D01*
X87737455Y-48974577D01*
X87736994Y-48876686D01*
X87745745Y-48788088D01*
X87761791Y-48715032D01*
X87785468Y-48649630D01*
X87838138Y-48561977D01*
X87881597Y-48514242D01*
X87931216Y-48472890D01*
X88048997Y-48409316D01*
X88196956Y-48370440D01*
X88355673Y-48358920D01*
X89104842Y-48358920D01*
X89556982Y-50533750D01*
G37*
G36*
X87837313Y-50533750D02*
G01*
X87413064Y-50533750D01*
X87195993Y-50112385D01*
X86464821Y-50112385D01*
X86423056Y-50533750D01*
X85995921Y-50533750D01*
X86102658Y-49767819D01*
X86501503Y-49767819D01*
X87016154Y-49767819D01*
X86586958Y-48934157D01*
X86501503Y-49767819D01*
X86102658Y-49767819D01*
X86298996Y-48358920D01*
X86629960Y-48358920D01*
X87837313Y-50533750D01*
G37*
G36*
X85762913Y-50533750D02*
G01*
X85356661Y-50533750D01*
X85185340Y-49709430D01*
X84794338Y-49709430D01*
X84696513Y-49705045D01*
X84603713Y-49691937D01*
X84518858Y-49671079D01*
X84438580Y-49642221D01*
X84363958Y-49606054D01*
X84293673Y-49562253D01*
X84248088Y-49527942D01*
X84184184Y-49470616D01*
X84127477Y-49407697D01*
X84079034Y-49340698D01*
X84037578Y-49268236D01*
X83975767Y-49106469D01*
X83960950Y-49044891D01*
X83949696Y-48974758D01*
X84354219Y-48974758D01*
X84364318Y-49044891D01*
X84381285Y-49105445D01*
X84405484Y-49159560D01*
X84435996Y-49206590D01*
X84472737Y-49247408D01*
X84494560Y-49266495D01*
X84589650Y-49320497D01*
X84705116Y-49345222D01*
X84739795Y-49346454D01*
X85109777Y-49346454D01*
X84979397Y-48718872D01*
X84609415Y-48718872D01*
X84545236Y-48723267D01*
X84489778Y-48736445D01*
X84448073Y-48755455D01*
X84413499Y-48781349D01*
X84394817Y-48801991D01*
X84361038Y-48874335D01*
X84354219Y-48974758D01*
X83949696Y-48974758D01*
X83945752Y-48950180D01*
X83940815Y-48861961D01*
X83945350Y-48785782D01*
X83958602Y-48715092D01*
X83979212Y-48652959D01*
X84007579Y-48595689D01*
X84043382Y-48543567D01*
X84085314Y-48497876D01*
X84133374Y-48458669D01*
X84247613Y-48399875D01*
X84392423Y-48366095D01*
X84513519Y-48358920D01*
X85310774Y-48358920D01*
X85762913Y-50533750D01*
G37*
G36*
X91335908Y-49058920D02*
G01*
X91111006Y-51233750D01*
X90786086Y-51233750D01*
X89654021Y-49058920D01*
X90075111Y-49058920D01*
X90806145Y-50563165D01*
X90914543Y-49058920D01*
X91335908Y-49058920D01*
G37*
D12*
G36*
X92186902Y-51986562D02*
G01*
X91754516Y-53315625D01*
X91639829Y-53315625D01*
X91207442Y-51986562D01*
X91352187Y-51986562D01*
X91696249Y-53088181D01*
X92040227Y-51986562D01*
X92186902Y-51986562D01*
G37*
G36*
X90869735Y-52329546D02*
G01*
X90922760Y-52337701D01*
X90966802Y-52349965D01*
X91006720Y-52366898D01*
X91059927Y-52402072D01*
X91088685Y-52429873D01*
X91112230Y-52460464D01*
X91129574Y-52491973D01*
X91142057Y-52526069D01*
X91152030Y-52601306D01*
X91152030Y-52610709D01*
X91024161Y-52610709D01*
X91024161Y-52605084D01*
X91021475Y-52572230D01*
X91013421Y-52542595D01*
X91001058Y-52517833D01*
X90984022Y-52495887D01*
X90967825Y-52480993D01*
X90914836Y-52452109D01*
X90841730Y-52437153D01*
X90809899Y-52435908D01*
X90765547Y-52438574D01*
X90726035Y-52446494D01*
X90693733Y-52458419D01*
X90665581Y-52474656D01*
X90646348Y-52490397D01*
X90627097Y-52512375D01*
X90611849Y-52538036D01*
X90593225Y-52601624D01*
X90589928Y-52650170D01*
X90589928Y-52761079D01*
X90853138Y-52761079D01*
X90907979Y-52763741D01*
X90958163Y-52771632D01*
X91001378Y-52783811D01*
X91040277Y-52800438D01*
X91093763Y-52836306D01*
X91119538Y-52862217D01*
X91140910Y-52891416D01*
X91169767Y-52958336D01*
X91180228Y-53038265D01*
X91180240Y-53041164D01*
X91177553Y-53089115D01*
X91169493Y-53132529D01*
X91157289Y-53168683D01*
X91140509Y-53201193D01*
X91095610Y-53253663D01*
X91032658Y-53293907D01*
X90952946Y-53318674D01*
X90856916Y-53326959D01*
X90801721Y-53324272D01*
X90751478Y-53316212D01*
X90697059Y-53298749D01*
X90661324Y-53280216D01*
X90628641Y-53256786D01*
X90586150Y-53212272D01*
X90586150Y-53315625D01*
X90458365Y-53315625D01*
X90458365Y-52984828D01*
X90589928Y-52984828D01*
X90592634Y-53033798D01*
X90600828Y-53077294D01*
X90612742Y-53111101D01*
X90629120Y-53140441D01*
X90648195Y-53163408D01*
X90696729Y-53196743D01*
X90764994Y-53216563D01*
X90836178Y-53221675D01*
X90885198Y-53218985D01*
X90927710Y-53210903D01*
X90959787Y-53199306D01*
X90986880Y-53183501D01*
X91007456Y-53165203D01*
X91023848Y-53143309D01*
X91044109Y-53089000D01*
X91048593Y-53039317D01*
X91045906Y-53001083D01*
X91037844Y-52967268D01*
X91025874Y-52940430D01*
X91009474Y-52917282D01*
X90965338Y-52883151D01*
X90902185Y-52862531D01*
X90834331Y-52856959D01*
X90589928Y-52856959D01*
X90589928Y-52984828D01*
X90458365Y-52984828D01*
X90458365Y-52652101D01*
X90461035Y-52600438D01*
X90468976Y-52553222D01*
X90481198Y-52512777D01*
X90497928Y-52476271D01*
X90518268Y-52444775D01*
X90542649Y-52416936D01*
X90550467Y-52409545D01*
X90614125Y-52366456D01*
X90694716Y-52338603D01*
X90796818Y-52327008D01*
X90811746Y-52326845D01*
X90869735Y-52329546D01*
G37*
G36*
X90171898Y-52340027D02*
G01*
X90171898Y-53315625D01*
X90042183Y-53315625D01*
X90042183Y-52697186D01*
X90039525Y-52654142D01*
X90031665Y-52614876D01*
X90019328Y-52580351D01*
X90002473Y-52548840D01*
X89978290Y-52516676D01*
X89953956Y-52493067D01*
X89926964Y-52474415D01*
X89866237Y-52451887D01*
X89816670Y-52447158D01*
X89735673Y-52456966D01*
X89717011Y-52462187D01*
X89717011Y-52332471D01*
X89786529Y-52326845D01*
X89831760Y-52329576D01*
X89874921Y-52337939D01*
X89936983Y-52362528D01*
X89970938Y-52384156D01*
X90000919Y-52410377D01*
X90044114Y-52469743D01*
X90044114Y-52340027D01*
X90171898Y-52340027D01*
G37*
G36*
X89520717Y-52340027D02*
G01*
X89520717Y-53315625D01*
X89389070Y-53315625D01*
X89389070Y-52340027D01*
X89520717Y-52340027D01*
G37*
G36*
X89524411Y-51986562D02*
G01*
X89524411Y-52159516D01*
X89385375Y-52159516D01*
X89385375Y-51986562D01*
X89524411Y-51986562D01*
G37*
G36*
X88839954Y-52329546D02*
G01*
X88892979Y-52337701D01*
X88937022Y-52349965D01*
X88976940Y-52366898D01*
X89030147Y-52402072D01*
X89058904Y-52429873D01*
X89082450Y-52460464D01*
X89099794Y-52491973D01*
X89112277Y-52526069D01*
X89122250Y-52601306D01*
X89122250Y-52610709D01*
X88994381Y-52610709D01*
X88994381Y-52605084D01*
X88991695Y-52572230D01*
X88983641Y-52542595D01*
X88971278Y-52517833D01*
X88954241Y-52495887D01*
X88938045Y-52480993D01*
X88885056Y-52452109D01*
X88811950Y-52437153D01*
X88780119Y-52435908D01*
X88735767Y-52438574D01*
X88696255Y-52446494D01*
X88663953Y-52458419D01*
X88635800Y-52474656D01*
X88616568Y-52490397D01*
X88597317Y-52512375D01*
X88582069Y-52538036D01*
X88563445Y-52601624D01*
X88560148Y-52650170D01*
X88560148Y-52761079D01*
X88823357Y-52761079D01*
X88878199Y-52763741D01*
X88928382Y-52771632D01*
X88971597Y-52783811D01*
X89010497Y-52800438D01*
X89063982Y-52836306D01*
X89089758Y-52862217D01*
X89111130Y-52891416D01*
X89139987Y-52958336D01*
X89150448Y-53038265D01*
X89150460Y-53041164D01*
X89147773Y-53089115D01*
X89139713Y-53132529D01*
X89127509Y-53168683D01*
X89110729Y-53201193D01*
X89065829Y-53253663D01*
X89002878Y-53293907D01*
X88923166Y-53318674D01*
X88827136Y-53326959D01*
X88771941Y-53324272D01*
X88721698Y-53316212D01*
X88667279Y-53298749D01*
X88631544Y-53280216D01*
X88598861Y-53256786D01*
X88556369Y-53212272D01*
X88556369Y-53315625D01*
X88428585Y-53315625D01*
X88428585Y-52984828D01*
X88560148Y-52984828D01*
X88562853Y-53033798D01*
X88571048Y-53077294D01*
X88582962Y-53111101D01*
X88599340Y-53140441D01*
X88618415Y-53163408D01*
X88666948Y-53196743D01*
X88735214Y-53216563D01*
X88806398Y-53221675D01*
X88855418Y-53218985D01*
X88897930Y-53210903D01*
X88930007Y-53199306D01*
X88957100Y-53183501D01*
X88977676Y-53165203D01*
X88994068Y-53143309D01*
X89014329Y-53089000D01*
X89018813Y-53039317D01*
X89016126Y-53001083D01*
X89008064Y-52967268D01*
X88996094Y-52940430D01*
X88979694Y-52917282D01*
X88935558Y-52883151D01*
X88872405Y-52862531D01*
X88804551Y-52856959D01*
X88560148Y-52856959D01*
X88560148Y-52984828D01*
X88428585Y-52984828D01*
X88428585Y-52652101D01*
X88431254Y-52600438D01*
X88439195Y-52553222D01*
X88451417Y-52512777D01*
X88468148Y-52476271D01*
X88488488Y-52444775D01*
X88512869Y-52416936D01*
X88520687Y-52409545D01*
X88584345Y-52366456D01*
X88664936Y-52338603D01*
X88767037Y-52327008D01*
X88781966Y-52326845D01*
X88839954Y-52329546D01*
G37*
G36*
X88142118Y-53315625D02*
G01*
X88012402Y-53315625D01*
X88012402Y-53185993D01*
X87989395Y-53220306D01*
X87962944Y-53249844D01*
X87934309Y-53273707D01*
X87902499Y-53293166D01*
X87829334Y-53318871D01*
X87747346Y-53326959D01*
X87701895Y-53324288D01*
X87659136Y-53316342D01*
X87620133Y-53303648D01*
X87583670Y-53286146D01*
X87518265Y-53236986D01*
X87510499Y-53229231D01*
X87467182Y-53169205D01*
X87436696Y-53089398D01*
X87420319Y-52984285D01*
X87418396Y-52926561D01*
X87418396Y-52734800D01*
X87549959Y-52734800D01*
X87549959Y-52919005D01*
X87552643Y-52979660D01*
X87560684Y-53033285D01*
X87572422Y-53075337D01*
X87588435Y-53111723D01*
X87606769Y-53139976D01*
X87628646Y-53163489D01*
X87652830Y-53181509D01*
X87680227Y-53195193D01*
X87745661Y-53209600D01*
X87768083Y-53210425D01*
X87808484Y-53207748D01*
X87845313Y-53199761D01*
X87876722Y-53187442D01*
X87904954Y-53170522D01*
X87948510Y-53127641D01*
X87970302Y-53094465D01*
X87987732Y-53057860D01*
X88008764Y-52975018D01*
X88012402Y-52917158D01*
X88012402Y-52746050D01*
X88009732Y-52691891D01*
X88001789Y-52642244D01*
X87989569Y-52599683D01*
X87972840Y-52561300D01*
X87952288Y-52528010D01*
X87930428Y-52502384D01*
X87905222Y-52481432D01*
X87847184Y-52454473D01*
X87775556Y-52445311D01*
X87734438Y-52447994D01*
X87697452Y-52456032D01*
X87666991Y-52468180D01*
X87640049Y-52484854D01*
X87597846Y-52530009D01*
X87568242Y-52593992D01*
X87552012Y-52682496D01*
X87549959Y-52734800D01*
X87418396Y-52734800D01*
X87418396Y-52727243D01*
X87421074Y-52661242D01*
X87429071Y-52601072D01*
X87441165Y-52550720D01*
X87457726Y-52505633D01*
X87477072Y-52468587D01*
X87500198Y-52436297D01*
X87512430Y-52422726D01*
X87542778Y-52395276D01*
X87576046Y-52372442D01*
X87650674Y-52340714D01*
X87737962Y-52327233D01*
X87756749Y-52326845D01*
X87803117Y-52329619D01*
X87846538Y-52338286D01*
X87907202Y-52364459D01*
X87938954Y-52386918D01*
X87967535Y-52413843D01*
X88012402Y-52477215D01*
X88012402Y-51986562D01*
X88142118Y-51986562D01*
X88142118Y-53315625D01*
G37*
G36*
X87099522Y-53249885D02*
G01*
X87074975Y-53271606D01*
X87046866Y-53289062D01*
X86980549Y-53310711D01*
X86920858Y-53315625D01*
X86828756Y-53315625D01*
X86828756Y-53197243D01*
X86907761Y-53197243D01*
X86939230Y-53194623D01*
X86965892Y-53187032D01*
X86985980Y-53176026D01*
X87001710Y-53161477D01*
X87023804Y-53117521D01*
X87031767Y-53052499D01*
X87031767Y-51986562D01*
X87161483Y-51986562D01*
X87161483Y-53059971D01*
X87158797Y-53109212D01*
X87150737Y-53153443D01*
X87138720Y-53189287D01*
X87122246Y-53220824D01*
X87099522Y-53249885D01*
G37*
G36*
X86351311Y-52329549D02*
G01*
X86401716Y-52337731D01*
X86445322Y-52350324D01*
X86485798Y-52367813D01*
X86521530Y-52389188D01*
X86554325Y-52415188D01*
X86566218Y-52426504D01*
X86613931Y-52489414D01*
X86647895Y-52570521D01*
X86666718Y-52672989D01*
X86669571Y-52738578D01*
X86669571Y-52907754D01*
X86666899Y-52972933D01*
X86658941Y-53032657D01*
X86646770Y-53083577D01*
X86630110Y-53129549D01*
X86610370Y-53168268D01*
X86586770Y-53202461D01*
X86566218Y-53225453D01*
X86534274Y-53253591D01*
X86499251Y-53277172D01*
X86420861Y-53310364D01*
X86327774Y-53325913D01*
X86293604Y-53326959D01*
X86236482Y-53324283D01*
X86183721Y-53316300D01*
X86138004Y-53303963D01*
X86096272Y-53287017D01*
X86030395Y-53244260D01*
X86002671Y-53217068D01*
X85979664Y-53186962D01*
X85948016Y-53119198D01*
X85934835Y-53039806D01*
X85934514Y-53024289D01*
X85934514Y-53014885D01*
X86062383Y-53014885D01*
X86062383Y-53020510D01*
X86065089Y-53057028D01*
X86073283Y-53090211D01*
X86085675Y-53117527D01*
X86102838Y-53141863D01*
X86120650Y-53159630D01*
X86174891Y-53191986D01*
X86245842Y-53208552D01*
X86284201Y-53210425D01*
X86329340Y-53207739D01*
X86370465Y-53199683D01*
X86405043Y-53187405D01*
X86436162Y-53170507D01*
X86470337Y-53142754D01*
X86505846Y-53091790D01*
X86528976Y-53019010D01*
X86538008Y-52911532D01*
X86538008Y-52853181D01*
X85927042Y-52853181D01*
X85927042Y-52738578D01*
X85927741Y-52721618D01*
X86058605Y-52721618D01*
X86058605Y-52755454D01*
X86538008Y-52755454D01*
X86538008Y-52734800D01*
X86535336Y-52674596D01*
X86527383Y-52621988D01*
X86515832Y-52581268D01*
X86500173Y-52546664D01*
X86472184Y-52509203D01*
X86446863Y-52487670D01*
X86418506Y-52470628D01*
X86352246Y-52449657D01*
X86297383Y-52445311D01*
X86252784Y-52447998D01*
X86212774Y-52456064D01*
X86179756Y-52468237D01*
X86150126Y-52484969D01*
X86122497Y-52507356D01*
X86088782Y-52554371D01*
X86066774Y-52623425D01*
X86058605Y-52721618D01*
X85927741Y-52721618D01*
X85929728Y-52673381D01*
X85937788Y-52613655D01*
X85949990Y-52563487D01*
X85966766Y-52518137D01*
X85986553Y-52480217D01*
X86010327Y-52446624D01*
X86028548Y-52426504D01*
X86059945Y-52398889D01*
X86094250Y-52375856D01*
X86171669Y-52343187D01*
X86263819Y-52327865D01*
X86297383Y-52326845D01*
X86351311Y-52329549D01*
G37*
G36*
X85372412Y-52340027D02*
G01*
X85034059Y-53315625D01*
X84917441Y-53315625D01*
X84581019Y-52340027D01*
X84721986Y-52340027D01*
X84975792Y-53123947D01*
X85229515Y-52340027D01*
X85372412Y-52340027D01*
G37*
G36*
X84121880Y-52329532D02*
G01*
X84173353Y-52337589D01*
X84218040Y-52350041D01*
X84259244Y-52367224D01*
X84295760Y-52388300D01*
X84329108Y-52413782D01*
X84338967Y-52422726D01*
X84386641Y-52482587D01*
X84420401Y-52560358D01*
X84439281Y-52659943D01*
X84442320Y-52727243D01*
X84442320Y-52926561D01*
X84439648Y-52989848D01*
X84431691Y-53047471D01*
X84419582Y-53096114D01*
X84403023Y-53139829D01*
X84383366Y-53176585D01*
X84359865Y-53208947D01*
X84338967Y-53231078D01*
X84306512Y-53258020D01*
X84270881Y-53280531D01*
X84190401Y-53312132D01*
X84093967Y-53326319D01*
X84066354Y-53326959D01*
X84012425Y-53324273D01*
X83962020Y-53316215D01*
X83917664Y-53303664D01*
X83876551Y-53286317D01*
X83839955Y-53265008D01*
X83806469Y-53239228D01*
X83797519Y-53231078D01*
X83750680Y-53172075D01*
X83717629Y-53095127D01*
X83699068Y-52995569D01*
X83696013Y-52926561D01*
X83696013Y-52734800D01*
X83827576Y-52734800D01*
X83827576Y-52919005D01*
X83830279Y-52981659D01*
X83838449Y-53036042D01*
X83849987Y-53076371D01*
X83865740Y-53110517D01*
X83891552Y-53144601D01*
X83917591Y-53166827D01*
X83946830Y-53184577D01*
X84014011Y-53206188D01*
X84066354Y-53210425D01*
X84109482Y-53207753D01*
X84148931Y-53199800D01*
X84182760Y-53187510D01*
X84213157Y-53170660D01*
X84244934Y-53144601D01*
X84279153Y-53095128D01*
X84302056Y-53022352D01*
X84310757Y-52919005D01*
X84310757Y-52734800D01*
X84308086Y-52674596D01*
X84300132Y-52621988D01*
X84288582Y-52581268D01*
X84272922Y-52546664D01*
X84244934Y-52509203D01*
X84192037Y-52471335D01*
X84125209Y-52450081D01*
X84066354Y-52445311D01*
X84022521Y-52448015D01*
X83982599Y-52456197D01*
X83949567Y-52468538D01*
X83919795Y-52485611D01*
X83891552Y-52509203D01*
X83858226Y-52557675D01*
X83836098Y-52629446D01*
X83827576Y-52734800D01*
X83696013Y-52734800D01*
X83696013Y-52727243D01*
X83698700Y-52662330D01*
X83706760Y-52603390D01*
X83718859Y-52554641D01*
X83735466Y-52510904D01*
X83755005Y-52474653D01*
X83778461Y-52442755D01*
X83797519Y-52422726D01*
X83829961Y-52395784D01*
X83865498Y-52373273D01*
X83945842Y-52341513D01*
X84041046Y-52327417D01*
X84066354Y-52326845D01*
X84121880Y-52329532D01*
G37*
G36*
X83377139Y-53249885D02*
G01*
X83352592Y-53271606D01*
X83324483Y-53289062D01*
X83258165Y-53310711D01*
X83198475Y-53315625D01*
X83106373Y-53315625D01*
X83106373Y-53197243D01*
X83185378Y-53197243D01*
X83216847Y-53194623D01*
X83243509Y-53187032D01*
X83263597Y-53176026D01*
X83279327Y-53161477D01*
X83301421Y-53117521D01*
X83309384Y-53052499D01*
X83309384Y-51986562D01*
X83439100Y-51986562D01*
X83439100Y-53059971D01*
X83436413Y-53109212D01*
X83428353Y-53153443D01*
X83416337Y-53189287D01*
X83399863Y-53220824D01*
X83377139Y-53249885D01*
G37*
G36*
X82710341Y-52443380D02*
G01*
X82490369Y-52443380D01*
X82490369Y-52340027D01*
X82710341Y-52340027D01*
X82710341Y-52054232D01*
X82841904Y-52116278D01*
X82841904Y-52340027D01*
X82994204Y-52340027D01*
X82994204Y-52443380D01*
X82841904Y-52443380D01*
X82841904Y-53073152D01*
X82839216Y-53118164D01*
X82831151Y-53159149D01*
X82818905Y-53193377D01*
X82802055Y-53224005D01*
X82779858Y-53251732D01*
X82756006Y-53272821D01*
X82728884Y-53289621D01*
X82663983Y-53310773D01*
X82605057Y-53315625D01*
X82507329Y-53315625D01*
X82507329Y-53201021D01*
X82584403Y-53201021D01*
X82616979Y-53198340D01*
X82644798Y-53190319D01*
X82665538Y-53178693D01*
X82682401Y-53162871D01*
X82703925Y-53120181D01*
X82710341Y-53067527D01*
X82710341Y-52443380D01*
G37*
G36*
X82005063Y-52329546D02*
G01*
X82058088Y-52337701D01*
X82102130Y-52349965D01*
X82142048Y-52366898D01*
X82195255Y-52402072D01*
X82224013Y-52429873D01*
X82247558Y-52460464D01*
X82264902Y-52491973D01*
X82277385Y-52526069D01*
X82287358Y-52601306D01*
X82287358Y-52610709D01*
X82159489Y-52610709D01*
X82159489Y-52605084D01*
X82156803Y-52572230D01*
X82148749Y-52542595D01*
X82136386Y-52517833D01*
X82119350Y-52495887D01*
X82103153Y-52480993D01*
X82050164Y-52452109D01*
X81977058Y-52437153D01*
X81945227Y-52435908D01*
X81900875Y-52438574D01*
X81861363Y-52446494D01*
X81829061Y-52458419D01*
X81800909Y-52474656D01*
X81781676Y-52490397D01*
X81762425Y-52512375D01*
X81747177Y-52538036D01*
X81728553Y-52601624D01*
X81725256Y-52650170D01*
X81725256Y-52761079D01*
X81988466Y-52761079D01*
X82043307Y-52763741D01*
X82093491Y-52771632D01*
X82136706Y-52783811D01*
X82175605Y-52800438D01*
X82229091Y-52836306D01*
X82254866Y-52862217D01*
X82276238Y-52891416D01*
X82305095Y-52958336D01*
X82315556Y-53038265D01*
X82315568Y-53041164D01*
X82312881Y-53089115D01*
X82304821Y-53132529D01*
X82292617Y-53168683D01*
X82275837Y-53201193D01*
X82230938Y-53253663D01*
X82167986Y-53293907D01*
X82088274Y-53318674D01*
X81992244Y-53326959D01*
X81937049Y-53324272D01*
X81886806Y-53316212D01*
X81832387Y-53298749D01*
X81796652Y-53280216D01*
X81763969Y-53256786D01*
X81721478Y-53212272D01*
X81721478Y-53315625D01*
X81593693Y-53315625D01*
X81593693Y-52984828D01*
X81725256Y-52984828D01*
X81727962Y-53033798D01*
X81736156Y-53077294D01*
X81748070Y-53111101D01*
X81764448Y-53140441D01*
X81783523Y-53163408D01*
X81832057Y-53196743D01*
X81900322Y-53216563D01*
X81971506Y-53221675D01*
X82020526Y-53218985D01*
X82063038Y-53210903D01*
X82095115Y-53199306D01*
X82122208Y-53183501D01*
X82142784Y-53165203D01*
X82159176Y-53143309D01*
X82179437Y-53089000D01*
X82183921Y-53039317D01*
X82181234Y-53001083D01*
X82173172Y-52967268D01*
X82161202Y-52940430D01*
X82144802Y-52917282D01*
X82100666Y-52883151D01*
X82037513Y-52862531D01*
X81969659Y-52856959D01*
X81725256Y-52856959D01*
X81725256Y-52984828D01*
X81593693Y-52984828D01*
X81593693Y-52652101D01*
X81596362Y-52600438D01*
X81604304Y-52553222D01*
X81616526Y-52512777D01*
X81633256Y-52476271D01*
X81653596Y-52444775D01*
X81677977Y-52416936D01*
X81685795Y-52409545D01*
X81749453Y-52366456D01*
X81830044Y-52338603D01*
X81932145Y-52327008D01*
X81947074Y-52326845D01*
X82005063Y-52329546D01*
G37*
G36*
X81054039Y-52323908D02*
G01*
X81098488Y-52331973D01*
X81137853Y-52344609D01*
X81174509Y-52362098D01*
X81238945Y-52410752D01*
X81245265Y-52417101D01*
X81289410Y-52478063D01*
X81320631Y-52558833D01*
X81337321Y-52663959D01*
X81339215Y-52719771D01*
X81339215Y-52853181D01*
X81336537Y-52919999D01*
X81328543Y-52980715D01*
X81316487Y-53031274D01*
X81299989Y-53076450D01*
X81280726Y-53113513D01*
X81257705Y-53145789D01*
X81245265Y-53159630D01*
X81213905Y-53188067D01*
X81179897Y-53211518D01*
X81105890Y-53242920D01*
X81020824Y-53255326D01*
X81008334Y-53255510D01*
X80958395Y-53252780D01*
X80913088Y-53244417D01*
X80850408Y-53219828D01*
X80819498Y-53199988D01*
X80792252Y-53176183D01*
X80746755Y-53115352D01*
X80745208Y-53112613D01*
X80745208Y-53249885D01*
X80747893Y-53302181D01*
X80755936Y-53348468D01*
X80767749Y-53385011D01*
X80783885Y-53416703D01*
X80802745Y-53441815D01*
X80825319Y-53462753D01*
X80880490Y-53491776D01*
X80953236Y-53504961D01*
X80974499Y-53505539D01*
X81020364Y-53502853D01*
X81061060Y-53494804D01*
X81093753Y-53482835D01*
X81122496Y-53466444D01*
X81123022Y-53466078D01*
X81150677Y-53443218D01*
X81171801Y-53417198D01*
X81183676Y-53393274D01*
X81190437Y-53366433D01*
X81190692Y-53364572D01*
X81320408Y-53364572D01*
X81314904Y-53404168D01*
X81304315Y-53440523D01*
X81289353Y-53472657D01*
X81269774Y-53502098D01*
X81220749Y-53550624D01*
X81154219Y-53589132D01*
X81069603Y-53612858D01*
X80974499Y-53620226D01*
X80920608Y-53617539D01*
X80870855Y-53609479D01*
X80828012Y-53597075D01*
X80788705Y-53579968D01*
X80754124Y-53559027D01*
X80722754Y-53533717D01*
X80707595Y-53518720D01*
X80660456Y-53453280D01*
X80629368Y-53373186D01*
X80614534Y-53274552D01*
X80613562Y-53238551D01*
X80613562Y-52738578D01*
X80745208Y-52738578D01*
X80745208Y-52843778D01*
X80747896Y-52895828D01*
X80755961Y-52943868D01*
X80768335Y-52984973D01*
X80785394Y-53022421D01*
X80807254Y-53056277D01*
X80829543Y-53081230D01*
X80855042Y-53101514D01*
X80914213Y-53127856D01*
X80989528Y-53137045D01*
X81028649Y-53134360D01*
X81063923Y-53126311D01*
X81093110Y-53114100D01*
X81118974Y-53097316D01*
X81159795Y-53051460D01*
X81188551Y-52985788D01*
X81204048Y-52894217D01*
X81205721Y-52845709D01*
X81205721Y-52729175D01*
X81203036Y-52669172D01*
X81194992Y-52616045D01*
X81183229Y-52574253D01*
X81167174Y-52538015D01*
X81148734Y-52509731D01*
X81126718Y-52486113D01*
X81074607Y-52453932D01*
X81008291Y-52438835D01*
X80982055Y-52437755D01*
X80941789Y-52440430D01*
X80905408Y-52448414D01*
X80874819Y-52460636D01*
X80847521Y-52477397D01*
X80805323Y-52520454D01*
X80769362Y-52588567D01*
X80749003Y-52674487D01*
X80745208Y-52738578D01*
X80613562Y-52738578D01*
X80613562Y-52332471D01*
X80745208Y-52332471D01*
X80745208Y-52467812D01*
X80767732Y-52432223D01*
X80793520Y-52401707D01*
X80821381Y-52377065D01*
X80852181Y-52356996D01*
X80922594Y-52330298D01*
X81006487Y-52321220D01*
X81054039Y-52323908D01*
G37*
G36*
X80038977Y-52329549D02*
G01*
X80089382Y-52337731D01*
X80132987Y-52350324D01*
X80173464Y-52367813D01*
X80209196Y-52389188D01*
X80241990Y-52415188D01*
X80253883Y-52426504D01*
X80301596Y-52489414D01*
X80335561Y-52570521D01*
X80354384Y-52672989D01*
X80357236Y-52738578D01*
X80357236Y-52907754D01*
X80354564Y-52972933D01*
X80346607Y-53032657D01*
X80334436Y-53083577D01*
X80317775Y-53129549D01*
X80298035Y-53168268D01*
X80274435Y-53202461D01*
X80253883Y-53225453D01*
X80221940Y-53253591D01*
X80186917Y-53277172D01*
X80108527Y-53310364D01*
X80015440Y-53325913D01*
X79981270Y-53326959D01*
X79924148Y-53324283D01*
X79871387Y-53316300D01*
X79825670Y-53303963D01*
X79783938Y-53287017D01*
X79718060Y-53244260D01*
X79690337Y-53217068D01*
X79667330Y-53186962D01*
X79635681Y-53119198D01*
X79622501Y-53039806D01*
X79622180Y-53024289D01*
X79622180Y-53014885D01*
X79750049Y-53014885D01*
X79750049Y-53020510D01*
X79752754Y-53057028D01*
X79760949Y-53090211D01*
X79773341Y-53117527D01*
X79790504Y-53141863D01*
X79808316Y-53159630D01*
X79862557Y-53191986D01*
X79933507Y-53208552D01*
X79971867Y-53210425D01*
X80017006Y-53207739D01*
X80058130Y-53199683D01*
X80092709Y-53187405D01*
X80123828Y-53170507D01*
X80158003Y-53142754D01*
X80193512Y-53091790D01*
X80216642Y-53019010D01*
X80225673Y-52911532D01*
X80225673Y-52853181D01*
X79614707Y-52853181D01*
X79614707Y-52738578D01*
X79615406Y-52721618D01*
X79746270Y-52721618D01*
X79746270Y-52755454D01*
X80225673Y-52755454D01*
X80225673Y-52734800D01*
X80223002Y-52674596D01*
X80215049Y-52621988D01*
X80203498Y-52581268D01*
X80187838Y-52546664D01*
X80159850Y-52509203D01*
X80134529Y-52487670D01*
X80106172Y-52470628D01*
X80039912Y-52449657D01*
X79985048Y-52445311D01*
X79940450Y-52447998D01*
X79900440Y-52456064D01*
X79867422Y-52468237D01*
X79837792Y-52484969D01*
X79810163Y-52507356D01*
X79776448Y-52554371D01*
X79754439Y-52623425D01*
X79746270Y-52721618D01*
X79615406Y-52721618D01*
X79617394Y-52673381D01*
X79625454Y-52613655D01*
X79637656Y-52563487D01*
X79654432Y-52518137D01*
X79674219Y-52480217D01*
X79697992Y-52446624D01*
X79716213Y-52426504D01*
X79747610Y-52398889D01*
X79781916Y-52375856D01*
X79859335Y-52343187D01*
X79951485Y-52327865D01*
X79985048Y-52326845D01*
X80038977Y-52329549D01*
G37*
G36*
X78937918Y-52340027D02*
G01*
X78937918Y-53315625D01*
X78806271Y-53315625D01*
X78806271Y-52340027D01*
X78937918Y-52340027D01*
G37*
G36*
X78941612Y-51986562D02*
G01*
X78941612Y-52159516D01*
X78802577Y-52159516D01*
X78802577Y-51986562D01*
X78941612Y-51986562D01*
G37*
G36*
X78471781Y-53249885D02*
G01*
X78401470Y-53291950D01*
X78314925Y-53318153D01*
X78214196Y-53326959D01*
X78152799Y-53324259D01*
X78096116Y-53316104D01*
X78048394Y-53303757D01*
X78004884Y-53286690D01*
X77947292Y-53251732D01*
X77918523Y-53226171D01*
X77894578Y-53197513D01*
X77876074Y-53166897D01*
X77862150Y-53133396D01*
X77848164Y-53057129D01*
X77847633Y-53037470D01*
X77850319Y-52993649D01*
X77858375Y-52954210D01*
X77870530Y-52921708D01*
X77887227Y-52892769D01*
X77915304Y-52860737D01*
X77974398Y-52820905D01*
X78063824Y-52787373D01*
X78127719Y-52772413D01*
X78255588Y-52749828D01*
X78305226Y-52739073D01*
X78346502Y-52724085D01*
X78385303Y-52699033D01*
X78402524Y-52679294D01*
X78414846Y-52656404D01*
X78424742Y-52602467D01*
X78424764Y-52599459D01*
X78422077Y-52567805D01*
X78414017Y-52539269D01*
X78384381Y-52493706D01*
X78368344Y-52479146D01*
X78315470Y-52450258D01*
X78242115Y-52435295D01*
X78208571Y-52433977D01*
X78160335Y-52436664D01*
X78117457Y-52444733D01*
X78083365Y-52456643D01*
X78053661Y-52472950D01*
X78045020Y-52479146D01*
X78022724Y-52499511D01*
X78005874Y-52522513D01*
X77988512Y-52573669D01*
X77986753Y-52599459D01*
X77986753Y-52605084D01*
X77858884Y-52605084D01*
X77858884Y-52593750D01*
X77861570Y-52555252D01*
X77869627Y-52519063D01*
X77882399Y-52486625D01*
X77900106Y-52456505D01*
X77950015Y-52403851D01*
X77954764Y-52400141D01*
X78025174Y-52359836D01*
X78112869Y-52334868D01*
X78212349Y-52326845D01*
X78267876Y-52329546D01*
X78319768Y-52337701D01*
X78364364Y-52350206D01*
X78405319Y-52367536D01*
X78458599Y-52402072D01*
X78487143Y-52428879D01*
X78510611Y-52458520D01*
X78528302Y-52489619D01*
X78541223Y-52523325D01*
X78552570Y-52598636D01*
X78552633Y-52605084D01*
X78549961Y-52647960D01*
X78542008Y-52686741D01*
X78529876Y-52719205D01*
X78513283Y-52747923D01*
X78486809Y-52778038D01*
X78427828Y-52817309D01*
X78338523Y-52849569D01*
X78278172Y-52862585D01*
X78157860Y-52885169D01*
X78101230Y-52897863D01*
X78055621Y-52914117D01*
X78018741Y-52935964D01*
X77988723Y-52973711D01*
X77974307Y-53027696D01*
X77973571Y-53044942D01*
X77976228Y-53075982D01*
X77984079Y-53103960D01*
X78013316Y-53149724D01*
X78037547Y-53170880D01*
X78096403Y-53200438D01*
X78175322Y-53214940D01*
X78208571Y-53216050D01*
X78258207Y-53213335D01*
X78302463Y-53205078D01*
X78337028Y-53193061D01*
X78367396Y-53176484D01*
X78377747Y-53169033D01*
X78401210Y-53147468D01*
X78419122Y-53123183D01*
X78430756Y-53098090D01*
X78437643Y-53070298D01*
X78439793Y-53041164D01*
X78439793Y-53033692D01*
X78567661Y-53033692D01*
X78567661Y-53043095D01*
X78564975Y-53085071D01*
X78556918Y-53124149D01*
X78544313Y-53158493D01*
X78526880Y-53190142D01*
X78478414Y-53244448D01*
X78471781Y-53249885D01*
G37*
G36*
X77336691Y-52329532D02*
G01*
X77388165Y-52337589D01*
X77432852Y-52350041D01*
X77474055Y-52367224D01*
X77510572Y-52388300D01*
X77543919Y-52413782D01*
X77553779Y-52422726D01*
X77601453Y-52482587D01*
X77635213Y-52560358D01*
X77654093Y-52659943D01*
X77657132Y-52727243D01*
X77657132Y-52926561D01*
X77654460Y-52989848D01*
X77646502Y-53047471D01*
X77634394Y-53096114D01*
X77617835Y-53139829D01*
X77598178Y-53176585D01*
X77574676Y-53208947D01*
X77553779Y-53231078D01*
X77521323Y-53258020D01*
X77485693Y-53280531D01*
X77405213Y-53312132D01*
X77308779Y-53326319D01*
X77281166Y-53326959D01*
X77227237Y-53324273D01*
X77176832Y-53316215D01*
X77132476Y-53303664D01*
X77091362Y-53286317D01*
X77054766Y-53265008D01*
X77021281Y-53239228D01*
X77012330Y-53231078D01*
X76965492Y-53172075D01*
X76932440Y-53095127D01*
X76913880Y-52995569D01*
X76910825Y-52926561D01*
X76910825Y-52734800D01*
X77042388Y-52734800D01*
X77042388Y-52919005D01*
X77045090Y-52981659D01*
X77053261Y-53036042D01*
X77064799Y-53076371D01*
X77080552Y-53110517D01*
X77106364Y-53144601D01*
X77132403Y-53166827D01*
X77161642Y-53184577D01*
X77228823Y-53206188D01*
X77281166Y-53210425D01*
X77324294Y-53207753D01*
X77363743Y-53199800D01*
X77397571Y-53187510D01*
X77427968Y-53170660D01*
X77459745Y-53144601D01*
X77493965Y-53095128D01*
X77516867Y-53022352D01*
X77525569Y-52919005D01*
X77525569Y-52734800D01*
X77522897Y-52674596D01*
X77514944Y-52621988D01*
X77503393Y-52581268D01*
X77487734Y-52546664D01*
X77459745Y-52509203D01*
X77406849Y-52471335D01*
X77340020Y-52450081D01*
X77281166Y-52445311D01*
X77237333Y-52448015D01*
X77197410Y-52456197D01*
X77164379Y-52468538D01*
X77134606Y-52485611D01*
X77106364Y-52509203D01*
X77073038Y-52557675D01*
X77050909Y-52629446D01*
X77042388Y-52734800D01*
X76910825Y-52734800D01*
X76910825Y-52727243D01*
X76913511Y-52662330D01*
X76921571Y-52603390D01*
X76933670Y-52554641D01*
X76950278Y-52510904D01*
X76969817Y-52474653D01*
X76993272Y-52442755D01*
X77012330Y-52422726D01*
X77044773Y-52395784D01*
X77080310Y-52373273D01*
X77160653Y-52341513D01*
X77255857Y-52327417D01*
X77281166Y-52326845D01*
X77336691Y-52329532D01*
G37*
G36*
X76591950Y-53249885D02*
G01*
X76567403Y-53271606D01*
X76539295Y-53289062D01*
X76472977Y-53310711D01*
X76413287Y-53315625D01*
X76321184Y-53315625D01*
X76321184Y-53197243D01*
X76400189Y-53197243D01*
X76431659Y-53194623D01*
X76458321Y-53187032D01*
X76478408Y-53176026D01*
X76494139Y-53161477D01*
X76516233Y-53117521D01*
X76524196Y-53052499D01*
X76524196Y-51986562D01*
X76653912Y-51986562D01*
X76653912Y-53059971D01*
X76651225Y-53109212D01*
X76643165Y-53153443D01*
X76631149Y-53189287D01*
X76614675Y-53220824D01*
X76591950Y-53249885D01*
G37*
G36*
X75874079Y-52329546D02*
G01*
X75927104Y-52337701D01*
X75971146Y-52349965D01*
X76011064Y-52366898D01*
X76064271Y-52402072D01*
X76093029Y-52429873D01*
X76116574Y-52460464D01*
X76133918Y-52491973D01*
X76146401Y-52526069D01*
X76156374Y-52601306D01*
X76156374Y-52610709D01*
X76028505Y-52610709D01*
X76028505Y-52605084D01*
X76025819Y-52572230D01*
X76017765Y-52542595D01*
X76005402Y-52517833D01*
X75988366Y-52495887D01*
X75972169Y-52480993D01*
X75919180Y-52452109D01*
X75846074Y-52437153D01*
X75814243Y-52435908D01*
X75769891Y-52438574D01*
X75730379Y-52446494D01*
X75698077Y-52458419D01*
X75669925Y-52474656D01*
X75650692Y-52490397D01*
X75631441Y-52512375D01*
X75616193Y-52538036D01*
X75597569Y-52601624D01*
X75594272Y-52650170D01*
X75594272Y-52761079D01*
X75857482Y-52761079D01*
X75912323Y-52763741D01*
X75962507Y-52771632D01*
X76005722Y-52783811D01*
X76044621Y-52800438D01*
X76098107Y-52836306D01*
X76123882Y-52862217D01*
X76145254Y-52891416D01*
X76174111Y-52958336D01*
X76184573Y-53038265D01*
X76184584Y-53041164D01*
X76181897Y-53089115D01*
X76173837Y-53132529D01*
X76161633Y-53168683D01*
X76144853Y-53201193D01*
X76099954Y-53253663D01*
X76037002Y-53293907D01*
X75957290Y-53318674D01*
X75861260Y-53326959D01*
X75806065Y-53324272D01*
X75755822Y-53316212D01*
X75701403Y-53298749D01*
X75665668Y-53280216D01*
X75632986Y-53256786D01*
X75590494Y-53212272D01*
X75590494Y-53315625D01*
X75462709Y-53315625D01*
X75462709Y-52984828D01*
X75594272Y-52984828D01*
X75596978Y-53033798D01*
X75605172Y-53077294D01*
X75617086Y-53111101D01*
X75633464Y-53140441D01*
X75652539Y-53163408D01*
X75701073Y-53196743D01*
X75769338Y-53216563D01*
X75840522Y-53221675D01*
X75889542Y-53218985D01*
X75932054Y-53210903D01*
X75964131Y-53199306D01*
X75991224Y-53183501D01*
X76011800Y-53165203D01*
X76028192Y-53143309D01*
X76048453Y-53089000D01*
X76052937Y-53039317D01*
X76050250Y-53001083D01*
X76042188Y-52967268D01*
X76030218Y-52940430D01*
X76013818Y-52917282D01*
X75969682Y-52883151D01*
X75906529Y-52862531D01*
X75838675Y-52856959D01*
X75594272Y-52856959D01*
X75594272Y-52984828D01*
X75462709Y-52984828D01*
X75462709Y-52652101D01*
X75465379Y-52600438D01*
X75473320Y-52553222D01*
X75485542Y-52512777D01*
X75502273Y-52476271D01*
X75522612Y-52444775D01*
X75546993Y-52416936D01*
X75554811Y-52409545D01*
X75618469Y-52366456D01*
X75699060Y-52338603D01*
X75801162Y-52327008D01*
X75816090Y-52326845D01*
X75874079Y-52329546D01*
G37*
G36*
X74971384Y-52443380D02*
G01*
X74751413Y-52443380D01*
X74751413Y-52340027D01*
X74971384Y-52340027D01*
X74971384Y-52054232D01*
X75102947Y-52116278D01*
X75102947Y-52340027D01*
X75255247Y-52340027D01*
X75255247Y-52443380D01*
X75102947Y-52443380D01*
X75102947Y-53073152D01*
X75100259Y-53118164D01*
X75092194Y-53159149D01*
X75079948Y-53193377D01*
X75063098Y-53224005D01*
X75040901Y-53251732D01*
X75017050Y-53272821D01*
X74989927Y-53289621D01*
X74925026Y-53310773D01*
X74866100Y-53315625D01*
X74768372Y-53315625D01*
X74768372Y-53201021D01*
X74845446Y-53201021D01*
X74878022Y-53198340D01*
X74905841Y-53190319D01*
X74926581Y-53178693D01*
X74943444Y-53162871D01*
X74964968Y-53120181D01*
X74971384Y-53067527D01*
X74971384Y-52443380D01*
G37*
G36*
X74235767Y-52329549D02*
G01*
X74286172Y-52337731D01*
X74329777Y-52350324D01*
X74370253Y-52367813D01*
X74405986Y-52389188D01*
X74438780Y-52415188D01*
X74450673Y-52426504D01*
X74498386Y-52489414D01*
X74532351Y-52570521D01*
X74551173Y-52672989D01*
X74554026Y-52738578D01*
X74554026Y-52907754D01*
X74551354Y-52972933D01*
X74543397Y-53032657D01*
X74531226Y-53083577D01*
X74514565Y-53129549D01*
X74494825Y-53168268D01*
X74471225Y-53202461D01*
X74450673Y-53225453D01*
X74418730Y-53253591D01*
X74383707Y-53277172D01*
X74305317Y-53310364D01*
X74212230Y-53325913D01*
X74178060Y-53326959D01*
X74120938Y-53324283D01*
X74068177Y-53316300D01*
X74022460Y-53303963D01*
X73980727Y-53287017D01*
X73914850Y-53244260D01*
X73887127Y-53217068D01*
X73864120Y-53186962D01*
X73832471Y-53119198D01*
X73819291Y-53039806D01*
X73818970Y-53024289D01*
X73818970Y-53014885D01*
X73946839Y-53014885D01*
X73946839Y-53020510D01*
X73949544Y-53057028D01*
X73957739Y-53090211D01*
X73970131Y-53117527D01*
X73987294Y-53141863D01*
X74005106Y-53159630D01*
X74059347Y-53191986D01*
X74130297Y-53208552D01*
X74168657Y-53210425D01*
X74213796Y-53207739D01*
X74254920Y-53199683D01*
X74289499Y-53187405D01*
X74320618Y-53170507D01*
X74354793Y-53142754D01*
X74390302Y-53091790D01*
X74413432Y-53019010D01*
X74422463Y-52911532D01*
X74422463Y-52853181D01*
X73811497Y-52853181D01*
X73811497Y-52738578D01*
X73812196Y-52721618D01*
X73943060Y-52721618D01*
X73943060Y-52755454D01*
X74422463Y-52755454D01*
X74422463Y-52734800D01*
X74419792Y-52674596D01*
X74411839Y-52621988D01*
X74400288Y-52581268D01*
X74384628Y-52546664D01*
X74356640Y-52509203D01*
X74331319Y-52487670D01*
X74302962Y-52470628D01*
X74236702Y-52449657D01*
X74181838Y-52445311D01*
X74137240Y-52447998D01*
X74097230Y-52456064D01*
X74064212Y-52468237D01*
X74034582Y-52484969D01*
X74006953Y-52507356D01*
X73973238Y-52554371D01*
X73951229Y-52623425D01*
X73943060Y-52721618D01*
X73812196Y-52721618D01*
X73814184Y-52673381D01*
X73822244Y-52613655D01*
X73834446Y-52563487D01*
X73851222Y-52518137D01*
X73871009Y-52480217D01*
X73894782Y-52446624D01*
X73913003Y-52426504D01*
X73944400Y-52398889D01*
X73978706Y-52375856D01*
X74056125Y-52343187D01*
X74148275Y-52327865D01*
X74181838Y-52326845D01*
X74235767Y-52329549D01*
G37*
G36*
X72992818Y-52477215D02*
G01*
X73016996Y-52439950D01*
X73044422Y-52407929D01*
X73073300Y-52382553D01*
X73105116Y-52361895D01*
X73176175Y-52335162D01*
X73254097Y-52326845D01*
X73301589Y-52329532D01*
X73345985Y-52337589D01*
X73385358Y-52350224D01*
X73422021Y-52367706D01*
X73486529Y-52416360D01*
X73492875Y-52422726D01*
X73536504Y-52483078D01*
X73567815Y-52563968D01*
X73584795Y-52669472D01*
X73586825Y-52727243D01*
X73586825Y-52926561D01*
X73584147Y-52992419D01*
X73576153Y-53052231D01*
X73564089Y-53102082D01*
X73547578Y-53146685D01*
X73528206Y-53183525D01*
X73505040Y-53215730D01*
X73492875Y-53229231D01*
X73460885Y-53258301D01*
X73426145Y-53282391D01*
X73390016Y-53300822D01*
X73351330Y-53314432D01*
X73266669Y-53326816D01*
X73255944Y-53326959D01*
X73206181Y-53324233D01*
X73161019Y-53315899D01*
X73098018Y-53291193D01*
X73065501Y-53270487D01*
X73037046Y-53245700D01*
X72992818Y-53185993D01*
X72992818Y-53315625D01*
X72861171Y-53315625D01*
X72861171Y-52746050D01*
X72992818Y-52746050D01*
X72992818Y-52917158D01*
X72995506Y-52969198D01*
X73003571Y-53017217D01*
X73015943Y-53058293D01*
X73033001Y-53095719D01*
X73054864Y-53129573D01*
X73077172Y-53154550D01*
X73102694Y-53174860D01*
X73161898Y-53201233D01*
X73237137Y-53210425D01*
X73276243Y-53207740D01*
X73311505Y-53199692D01*
X73340688Y-53187480D01*
X73366550Y-53170696D01*
X73407378Y-53124835D01*
X73436145Y-53059156D01*
X73451653Y-52967584D01*
X73453331Y-52919005D01*
X73453331Y-52734800D01*
X73450646Y-52675363D01*
X73442602Y-52622679D01*
X73430824Y-52581152D01*
X73414746Y-52545113D01*
X73396261Y-52516946D01*
X73374187Y-52493414D01*
X73321900Y-52461337D01*
X73255358Y-52446345D01*
X73229665Y-52445311D01*
X73189342Y-52447988D01*
X73152915Y-52455981D01*
X73122339Y-52468205D01*
X73095054Y-52484974D01*
X73052933Y-52528010D01*
X73017000Y-52595985D01*
X72996629Y-52681829D01*
X72992818Y-52746050D01*
X72861171Y-52746050D01*
X72861171Y-51986562D01*
X72992818Y-51986562D01*
X72992818Y-52477215D01*
G37*
G36*
X92045852Y-55625625D02*
G01*
X91590965Y-55625625D01*
X91530645Y-55622943D01*
X91474198Y-55614923D01*
X91424088Y-55602376D01*
X91377413Y-55585062D01*
X91335373Y-55563729D01*
X91296510Y-55537961D01*
X91256306Y-55503465D01*
X91204024Y-55437295D01*
X91165332Y-55352934D01*
X91140663Y-55245951D01*
X91132300Y-55118095D01*
X91132300Y-54811647D01*
X91273266Y-54811647D01*
X91273266Y-55125652D01*
X91275952Y-55191132D01*
X91284012Y-55250283D01*
X91296037Y-55298676D01*
X91312524Y-55341811D01*
X91331788Y-55377093D01*
X91354885Y-55407860D01*
X91380595Y-55433091D01*
X91409821Y-55454180D01*
X91478850Y-55483942D01*
X91565781Y-55497312D01*
X91589118Y-55497840D01*
X91903038Y-55497840D01*
X91903038Y-54424431D01*
X91589118Y-54424431D01*
X91538692Y-54427127D01*
X91492589Y-54435257D01*
X91453961Y-54447578D01*
X91418892Y-54464589D01*
X91388603Y-54485317D01*
X91361495Y-54510429D01*
X91355965Y-54516533D01*
X91315512Y-54578980D01*
X91287511Y-54663317D01*
X91273961Y-54775740D01*
X91273266Y-54811647D01*
X91132300Y-54811647D01*
X91132300Y-54806022D01*
X91134986Y-54731023D01*
X91143048Y-54662184D01*
X91155263Y-54604129D01*
X91172062Y-54551376D01*
X91191854Y-54506989D01*
X91215633Y-54467252D01*
X91256306Y-54418805D01*
X91291854Y-54387852D01*
X91330587Y-54361357D01*
X91416622Y-54322221D01*
X91517041Y-54300655D01*
X91590965Y-54296562D01*
X92045852Y-54296562D01*
X92045852Y-55625625D01*
G37*
G36*
X90994020Y-55625625D02*
G01*
X90845497Y-55625625D01*
X90734588Y-55306079D01*
X90170639Y-55306079D01*
X90057799Y-55625625D01*
X89909276Y-55625625D01*
X90068515Y-55187613D01*
X90210100Y-55187613D01*
X90693197Y-55187613D01*
X90452572Y-54493948D01*
X90210100Y-55187613D01*
X90068515Y-55187613D01*
X90392457Y-54296562D01*
X90510839Y-54296562D01*
X90994020Y-55625625D01*
G37*
G36*
X89744718Y-55625625D02*
G01*
X89603751Y-55625625D01*
X89603751Y-55076704D01*
X89267246Y-55076704D01*
X89206964Y-55074017D01*
X89150856Y-55065957D01*
X89101932Y-55053485D01*
X89056694Y-55036268D01*
X89016769Y-55015297D01*
X88980234Y-54989961D01*
X88962728Y-54975198D01*
X88933495Y-54945303D01*
X88908644Y-54912218D01*
X88872050Y-54836758D01*
X88852723Y-54747102D01*
X88849972Y-54693266D01*
X88990939Y-54693266D01*
X88993638Y-54740465D01*
X89001789Y-54782779D01*
X89013886Y-54816834D01*
X89030543Y-54847036D01*
X89066081Y-54886874D01*
X89126361Y-54924012D01*
X89203213Y-54945387D01*
X89278580Y-54950766D01*
X89603751Y-54950766D01*
X89603751Y-54424431D01*
X89278580Y-54424431D01*
X89223905Y-54427152D01*
X89174914Y-54435456D01*
X89136269Y-54447573D01*
X89101728Y-54464335D01*
X89066081Y-54490254D01*
X89043561Y-54513864D01*
X89025107Y-54541008D01*
X88999994Y-54606807D01*
X88990939Y-54693266D01*
X88849972Y-54693266D01*
X88852674Y-54634879D01*
X88860842Y-54581176D01*
X88873223Y-54535905D01*
X88890355Y-54494359D01*
X88911150Y-54458164D01*
X88936380Y-54425164D01*
X88960881Y-54399999D01*
X88994596Y-54372432D01*
X89031550Y-54349185D01*
X89115674Y-54315411D01*
X89217113Y-54298352D01*
X89267246Y-54296562D01*
X89744718Y-54296562D01*
X89744718Y-55625625D01*
G37*
G36*
X88636466Y-54296562D02*
G01*
X88636466Y-55625625D01*
X87833823Y-55625625D01*
X87833823Y-55497840D01*
X88495500Y-55497840D01*
X88495500Y-54296562D01*
X88636466Y-54296562D01*
G37*
G36*
X87685720Y-54650027D02*
G01*
X87685720Y-55625625D01*
X87554073Y-55625625D01*
X87554073Y-54650027D01*
X87685720Y-54650027D01*
G37*
G36*
X87689414Y-54296562D02*
G01*
X87689414Y-54469516D01*
X87550379Y-54469516D01*
X87550379Y-54296562D01*
X87689414Y-54296562D01*
G37*
G36*
X87260890Y-54650027D02*
G01*
X87260890Y-55625625D01*
X87131174Y-55625625D01*
X87131174Y-55003408D01*
X87128516Y-54958204D01*
X87120657Y-54917122D01*
X87108520Y-54881972D01*
X87091985Y-54850711D01*
X87067282Y-54819203D01*
X87042491Y-54797142D01*
X87014804Y-54779820D01*
X86951291Y-54759221D01*
X86901884Y-54755311D01*
X86859438Y-54758015D01*
X86821295Y-54766197D01*
X86790396Y-54778411D01*
X86762850Y-54795273D01*
X86736401Y-54819203D01*
X86716127Y-54845444D01*
X86699925Y-54875429D01*
X86680035Y-54947264D01*
X86676287Y-55003408D01*
X86676287Y-55625625D01*
X86544724Y-55625625D01*
X86544724Y-54984602D01*
X86547412Y-54928434D01*
X86555479Y-54876694D01*
X86567793Y-54832721D01*
X86584756Y-54792780D01*
X86604954Y-54758992D01*
X86629270Y-54728948D01*
X86657278Y-54703042D01*
X86688605Y-54681502D01*
X86760680Y-54651730D01*
X86849428Y-54639028D01*
X86868048Y-54638693D01*
X86919039Y-54641490D01*
X86967252Y-54650328D01*
X87022196Y-54670681D01*
X87057891Y-54691629D01*
X87089901Y-54717122D01*
X87133105Y-54768408D01*
X87133105Y-54650027D01*
X87260890Y-54650027D01*
G37*
G36*
X85943498Y-55119943D02*
G01*
X85648384Y-55625625D01*
X85488611Y-55625625D01*
X85857020Y-55018437D01*
X85543100Y-54650027D01*
X85701026Y-54650027D01*
X86127703Y-55168890D01*
X86127703Y-54296562D01*
X86257418Y-54296562D01*
X86257418Y-55625625D01*
X86127703Y-55625625D01*
X86127703Y-55334289D01*
X85943498Y-55119943D01*
G37*
G36*
X84550158Y-54641345D02*
G01*
X84590597Y-54649166D01*
X84657674Y-54676306D01*
X84715103Y-54720998D01*
X84761380Y-54784468D01*
X84762873Y-54787215D01*
X84762873Y-54650027D01*
X84892589Y-54650027D01*
X84892589Y-55918891D01*
X84762873Y-55918891D01*
X84762873Y-55495993D01*
X84739866Y-55530306D01*
X84713415Y-55559844D01*
X84684780Y-55583707D01*
X84652970Y-55603166D01*
X84579805Y-55628871D01*
X84497817Y-55636959D01*
X84451112Y-55634273D01*
X84407254Y-55626215D01*
X84368059Y-55613523D01*
X84331451Y-55595945D01*
X84266813Y-55546952D01*
X84260970Y-55541078D01*
X84217676Y-55481109D01*
X84187249Y-55401314D01*
X84170844Y-55295787D01*
X84168867Y-55236561D01*
X84168867Y-55046647D01*
X84300430Y-55046647D01*
X84300430Y-55229005D01*
X84303114Y-55289660D01*
X84311155Y-55343285D01*
X84322893Y-55385337D01*
X84338906Y-55421723D01*
X84357240Y-55449976D01*
X84379117Y-55473489D01*
X84403301Y-55491509D01*
X84430698Y-55505193D01*
X84496132Y-55519600D01*
X84518554Y-55520425D01*
X84558955Y-55517748D01*
X84595784Y-55509761D01*
X84627193Y-55497442D01*
X84655425Y-55480522D01*
X84698981Y-55437641D01*
X84720773Y-55404465D01*
X84738204Y-55367860D01*
X84759235Y-55285018D01*
X84762873Y-55227158D01*
X84762873Y-55056050D01*
X84760204Y-55001891D01*
X84752260Y-54952244D01*
X84740040Y-54909683D01*
X84723311Y-54871300D01*
X84702759Y-54838010D01*
X84680899Y-54812384D01*
X84655693Y-54791432D01*
X84597655Y-54764473D01*
X84526027Y-54755311D01*
X84484909Y-54757996D01*
X84447923Y-54766045D01*
X84417507Y-54778198D01*
X84390599Y-54794887D01*
X84348453Y-54840092D01*
X84318847Y-54904234D01*
X84302543Y-54993138D01*
X84300430Y-55046647D01*
X84168867Y-55046647D01*
X84168867Y-55037243D01*
X84171545Y-54971385D01*
X84179542Y-54911573D01*
X84191607Y-54861741D01*
X84208121Y-54817153D01*
X84227495Y-54780330D01*
X84250667Y-54748137D01*
X84262901Y-54734573D01*
X84293249Y-54707123D01*
X84326517Y-54684289D01*
X84401145Y-54652561D01*
X84488433Y-54639080D01*
X84507220Y-54638693D01*
X84550158Y-54641345D01*
G37*
G36*
X83911954Y-54650027D02*
G01*
X83911954Y-55625625D01*
X83782238Y-55625625D01*
X83782238Y-55007186D01*
X83779580Y-54964142D01*
X83771721Y-54924876D01*
X83759384Y-54890351D01*
X83742529Y-54858840D01*
X83718346Y-54826676D01*
X83694011Y-54803067D01*
X83667020Y-54784415D01*
X83606293Y-54761887D01*
X83556726Y-54757158D01*
X83475728Y-54766966D01*
X83457067Y-54772187D01*
X83457067Y-54642471D01*
X83526585Y-54636845D01*
X83571816Y-54639576D01*
X83614977Y-54647939D01*
X83677038Y-54672528D01*
X83710994Y-54694156D01*
X83740974Y-54720377D01*
X83784170Y-54779743D01*
X83784170Y-54650027D01*
X83911954Y-54650027D01*
G37*
G36*
X82976014Y-54639532D02*
G01*
X83027488Y-54647589D01*
X83072175Y-54660041D01*
X83113378Y-54677224D01*
X83149895Y-54698300D01*
X83183243Y-54723782D01*
X83193102Y-54732726D01*
X83240776Y-54792587D01*
X83274536Y-54870358D01*
X83293416Y-54969943D01*
X83296455Y-55037243D01*
X83296455Y-55236561D01*
X83293783Y-55299848D01*
X83285826Y-55357471D01*
X83273717Y-55406114D01*
X83257158Y-55449829D01*
X83237501Y-55486585D01*
X83213999Y-55518947D01*
X83193102Y-55541078D01*
X83160646Y-55568020D01*
X83125016Y-55590531D01*
X83044536Y-55622132D01*
X82948102Y-55636319D01*
X82920489Y-55636959D01*
X82866560Y-55634273D01*
X82816155Y-55626215D01*
X82771799Y-55613664D01*
X82730685Y-55596317D01*
X82694089Y-55575008D01*
X82660604Y-55549228D01*
X82651654Y-55541078D01*
X82604815Y-55482075D01*
X82571763Y-55405127D01*
X82553203Y-55305569D01*
X82550148Y-55236561D01*
X82550148Y-55044800D01*
X82681711Y-55044800D01*
X82681711Y-55229005D01*
X82684413Y-55291659D01*
X82692584Y-55346042D01*
X82704122Y-55386371D01*
X82719875Y-55420517D01*
X82745687Y-55454601D01*
X82771726Y-55476827D01*
X82800965Y-55494577D01*
X82868146Y-55516188D01*
X82920489Y-55520425D01*
X82963617Y-55517753D01*
X83003066Y-55509800D01*
X83036895Y-55497510D01*
X83067291Y-55480660D01*
X83099068Y-55454601D01*
X83133288Y-55405128D01*
X83156191Y-55332352D01*
X83164892Y-55229005D01*
X83164892Y-55044800D01*
X83162220Y-54984596D01*
X83154267Y-54931988D01*
X83142716Y-54891268D01*
X83127057Y-54856664D01*
X83099068Y-54819203D01*
X83046172Y-54781335D01*
X82979343Y-54760081D01*
X82920489Y-54755311D01*
X82876656Y-54758015D01*
X82836733Y-54766197D01*
X82803702Y-54778538D01*
X82773929Y-54795611D01*
X82745687Y-54819203D01*
X82712361Y-54867675D01*
X82690233Y-54939446D01*
X82681711Y-55044800D01*
X82550148Y-55044800D01*
X82550148Y-55037243D01*
X82552834Y-54972330D01*
X82560894Y-54913390D01*
X82572993Y-54864641D01*
X82589601Y-54820904D01*
X82609140Y-54784653D01*
X82632595Y-54752755D01*
X82651654Y-54732726D01*
X82684096Y-54705784D01*
X82719633Y-54683273D01*
X82799976Y-54651513D01*
X82895180Y-54637417D01*
X82920489Y-54636845D01*
X82976014Y-54639532D01*
G37*
G36*
X82040048Y-54633908D02*
G01*
X82084496Y-54641973D01*
X82123861Y-54654609D01*
X82160517Y-54672098D01*
X82224953Y-54720752D01*
X82231273Y-54727101D01*
X82275418Y-54788063D01*
X82306639Y-54868833D01*
X82323329Y-54973959D01*
X82325223Y-55029771D01*
X82325223Y-55163181D01*
X82322546Y-55229999D01*
X82314552Y-55290715D01*
X82302496Y-55341274D01*
X82285997Y-55386450D01*
X82266734Y-55423513D01*
X82243713Y-55455789D01*
X82231273Y-55469630D01*
X82199913Y-55498067D01*
X82165905Y-55521518D01*
X82091898Y-55552920D01*
X82006832Y-55565326D01*
X81994343Y-55565510D01*
X81944403Y-55562780D01*
X81899097Y-55554417D01*
X81836417Y-55529828D01*
X81805507Y-55509988D01*
X81778260Y-55486183D01*
X81732764Y-55425352D01*
X81731217Y-55422613D01*
X81731217Y-55559885D01*
X81733901Y-55612181D01*
X81741944Y-55658468D01*
X81753758Y-55695011D01*
X81769893Y-55726703D01*
X81788753Y-55751815D01*
X81811328Y-55772753D01*
X81866499Y-55801776D01*
X81939244Y-55814961D01*
X81960507Y-55815539D01*
X82006372Y-55812853D01*
X82047068Y-55804804D01*
X82079761Y-55792835D01*
X82108504Y-55776444D01*
X82109030Y-55776078D01*
X82136685Y-55753218D01*
X82157809Y-55727198D01*
X82169684Y-55703274D01*
X82176446Y-55676433D01*
X82176700Y-55674572D01*
X82306416Y-55674572D01*
X82300912Y-55714168D01*
X82290324Y-55750523D01*
X82275361Y-55782657D01*
X82255783Y-55812098D01*
X82206758Y-55860624D01*
X82140228Y-55899132D01*
X82055612Y-55922858D01*
X81960507Y-55930226D01*
X81906617Y-55927539D01*
X81856863Y-55919479D01*
X81814021Y-55907075D01*
X81774714Y-55889968D01*
X81740133Y-55869027D01*
X81708763Y-55843717D01*
X81693603Y-55828720D01*
X81646465Y-55763280D01*
X81615377Y-55683186D01*
X81600543Y-55584552D01*
X81599570Y-55548551D01*
X81599570Y-55048578D01*
X81731217Y-55048578D01*
X81731217Y-55153778D01*
X81733904Y-55205828D01*
X81741970Y-55253868D01*
X81754343Y-55294973D01*
X81771403Y-55332421D01*
X81793262Y-55366277D01*
X81815551Y-55391230D01*
X81841050Y-55411514D01*
X81900221Y-55437856D01*
X81975536Y-55447045D01*
X82014657Y-55444360D01*
X82049932Y-55436311D01*
X82079118Y-55424100D01*
X82104982Y-55407316D01*
X82145803Y-55361460D01*
X82174559Y-55295788D01*
X82190056Y-55204217D01*
X82191729Y-55155709D01*
X82191729Y-55039175D01*
X82189045Y-54979172D01*
X82181001Y-54926045D01*
X82169237Y-54884253D01*
X82153182Y-54848015D01*
X82134742Y-54819731D01*
X82112726Y-54796113D01*
X82060615Y-54763932D01*
X81994300Y-54748835D01*
X81968064Y-54747755D01*
X81927798Y-54750430D01*
X81891417Y-54758414D01*
X81860827Y-54770636D01*
X81833530Y-54787397D01*
X81791331Y-54830454D01*
X81755371Y-54898567D01*
X81735011Y-54984487D01*
X81731217Y-55048578D01*
X81599570Y-55048578D01*
X81599570Y-54642471D01*
X81731217Y-54642471D01*
X81731217Y-54777812D01*
X81753740Y-54742223D01*
X81779529Y-54711707D01*
X81807389Y-54687065D01*
X81838190Y-54666996D01*
X81908603Y-54640298D01*
X81992496Y-54631220D01*
X82040048Y-54633908D01*
G37*
G36*
X81311256Y-54650027D02*
G01*
X81311256Y-55625625D01*
X81181541Y-55625625D01*
X81181541Y-55007186D01*
X81178883Y-54964142D01*
X81171023Y-54924876D01*
X81158686Y-54890351D01*
X81141831Y-54858840D01*
X81117648Y-54826676D01*
X81093314Y-54803067D01*
X81066322Y-54784415D01*
X81005595Y-54761887D01*
X80956028Y-54757158D01*
X80875031Y-54766966D01*
X80856369Y-54772187D01*
X80856369Y-54642471D01*
X80925887Y-54636845D01*
X80971118Y-54639576D01*
X81014279Y-54647939D01*
X81076341Y-54672528D01*
X81110296Y-54694156D01*
X81140277Y-54720377D01*
X81183472Y-54779743D01*
X81183472Y-54650027D01*
X81311256Y-54650027D01*
G37*
G36*
X80407837Y-54639546D02*
G01*
X80460862Y-54647701D01*
X80504904Y-54659965D01*
X80544822Y-54676898D01*
X80598029Y-54712072D01*
X80626787Y-54739873D01*
X80650332Y-54770464D01*
X80667676Y-54801973D01*
X80680159Y-54836069D01*
X80690132Y-54911306D01*
X80690132Y-54920709D01*
X80562263Y-54920709D01*
X80562263Y-54915084D01*
X80559577Y-54882230D01*
X80551523Y-54852595D01*
X80539160Y-54827833D01*
X80522124Y-54805887D01*
X80505927Y-54790993D01*
X80452938Y-54762109D01*
X80379832Y-54747153D01*
X80348001Y-54745908D01*
X80303649Y-54748574D01*
X80264137Y-54756494D01*
X80231835Y-54768419D01*
X80203682Y-54784656D01*
X80184450Y-54800397D01*
X80165199Y-54822375D01*
X80149951Y-54848036D01*
X80131327Y-54911624D01*
X80128030Y-54960170D01*
X80128030Y-55071079D01*
X80391239Y-55071079D01*
X80446081Y-55073741D01*
X80496264Y-55081632D01*
X80539480Y-55093811D01*
X80578379Y-55110438D01*
X80631864Y-55146306D01*
X80657640Y-55172217D01*
X80679012Y-55201416D01*
X80707869Y-55268336D01*
X80718330Y-55348265D01*
X80718342Y-55351164D01*
X80715655Y-55399115D01*
X80707595Y-55442529D01*
X80695391Y-55478683D01*
X80678611Y-55511193D01*
X80633712Y-55563663D01*
X80570760Y-55603907D01*
X80491048Y-55628674D01*
X80395018Y-55636959D01*
X80339823Y-55634272D01*
X80289580Y-55626212D01*
X80235161Y-55608749D01*
X80199426Y-55590216D01*
X80166743Y-55566786D01*
X80124252Y-55522272D01*
X80124252Y-55625625D01*
X79996467Y-55625625D01*
X79996467Y-55294828D01*
X80128030Y-55294828D01*
X80130736Y-55343798D01*
X80138930Y-55387294D01*
X80150844Y-55421101D01*
X80167222Y-55450441D01*
X80186297Y-55473408D01*
X80234830Y-55506743D01*
X80303096Y-55526563D01*
X80374280Y-55531675D01*
X80423300Y-55528985D01*
X80465812Y-55520903D01*
X80497889Y-55509306D01*
X80524982Y-55493501D01*
X80545558Y-55475203D01*
X80561950Y-55453309D01*
X80582211Y-55399000D01*
X80586695Y-55349317D01*
X80584008Y-55311083D01*
X80575946Y-55277268D01*
X80563976Y-55250430D01*
X80547576Y-55227282D01*
X80503440Y-55193151D01*
X80440287Y-55172531D01*
X80372433Y-55166959D01*
X80128030Y-55166959D01*
X80128030Y-55294828D01*
X79996467Y-55294828D01*
X79996467Y-54962101D01*
X79999136Y-54910438D01*
X80007078Y-54863222D01*
X80019299Y-54822777D01*
X80036030Y-54786271D01*
X80056370Y-54754775D01*
X80080751Y-54726936D01*
X80088569Y-54719545D01*
X80152227Y-54676456D01*
X80232818Y-54648603D01*
X80334919Y-54637008D01*
X80349848Y-54636845D01*
X80407837Y-54639546D01*
G37*
G36*
X79710000Y-54650027D02*
G01*
X79710000Y-55625625D01*
X79580285Y-55625625D01*
X79580285Y-55003408D01*
X79577627Y-54958204D01*
X79569767Y-54917122D01*
X79557630Y-54881972D01*
X79541095Y-54850711D01*
X79516392Y-54819203D01*
X79491602Y-54797142D01*
X79463914Y-54779820D01*
X79400401Y-54759221D01*
X79350994Y-54755311D01*
X79308548Y-54758015D01*
X79270406Y-54766197D01*
X79239506Y-54778411D01*
X79211960Y-54795273D01*
X79185512Y-54819203D01*
X79165875Y-54844717D01*
X79150338Y-54873778D01*
X79131074Y-54944605D01*
X79127245Y-55003408D01*
X79127245Y-55625625D01*
X78993835Y-55625625D01*
X78993835Y-54997783D01*
X78991109Y-54950713D01*
X78982774Y-54908070D01*
X78970514Y-54874078D01*
X78953503Y-54843724D01*
X78933636Y-54819203D01*
X78909250Y-54797603D01*
X78881818Y-54780525D01*
X78817651Y-54759623D01*
X78764460Y-54755311D01*
X78722222Y-54758015D01*
X78684572Y-54766197D01*
X78654281Y-54778370D01*
X78627255Y-54795166D01*
X78600909Y-54819203D01*
X78581272Y-54844717D01*
X78565735Y-54873778D01*
X78546471Y-54944605D01*
X78542642Y-55003408D01*
X78542642Y-55625625D01*
X78410995Y-55625625D01*
X78410995Y-54984602D01*
X78413692Y-54928515D01*
X78421825Y-54876842D01*
X78434165Y-54833304D01*
X78451210Y-54793712D01*
X78471567Y-54760180D01*
X78496166Y-54730306D01*
X78497472Y-54728948D01*
X78526351Y-54703056D01*
X78558494Y-54681524D01*
X78632301Y-54651639D01*
X78722295Y-54638995D01*
X78740028Y-54638693D01*
X78789657Y-54641379D01*
X78835926Y-54649436D01*
X78876558Y-54661991D01*
X78914149Y-54679343D01*
X78947792Y-54700831D01*
X78978523Y-54726857D01*
X79031512Y-54793051D01*
X79037073Y-54802244D01*
X79059305Y-54763822D01*
X79085484Y-54730100D01*
X79113227Y-54703384D01*
X79144633Y-54680941D01*
X79146051Y-54680084D01*
X79213991Y-54651512D01*
X79299057Y-54639034D01*
X79317159Y-54638693D01*
X79363706Y-54641376D01*
X79407998Y-54649409D01*
X79471306Y-54672528D01*
X79509674Y-54694930D01*
X79543728Y-54722251D01*
X79582216Y-54768408D01*
X79582216Y-54650027D01*
X79710000Y-54650027D01*
G37*
G36*
X78123521Y-54650027D02*
G01*
X78123521Y-55625625D01*
X77993805Y-55625625D01*
X77993805Y-55003408D01*
X77991147Y-54958204D01*
X77983288Y-54917122D01*
X77971150Y-54881972D01*
X77954616Y-54850711D01*
X77929913Y-54819203D01*
X77905122Y-54797142D01*
X77877435Y-54779820D01*
X77813922Y-54759221D01*
X77764515Y-54755311D01*
X77722069Y-54758015D01*
X77683926Y-54766197D01*
X77653027Y-54778411D01*
X77625481Y-54795273D01*
X77599032Y-54819203D01*
X77579396Y-54844717D01*
X77563858Y-54873778D01*
X77544594Y-54944605D01*
X77540765Y-55003408D01*
X77540765Y-55625625D01*
X77407355Y-55625625D01*
X77407355Y-54997783D01*
X77404629Y-54950713D01*
X77396294Y-54908070D01*
X77384035Y-54874078D01*
X77367024Y-54843724D01*
X77347157Y-54819203D01*
X77322771Y-54797603D01*
X77295338Y-54780525D01*
X77231171Y-54759623D01*
X77177981Y-54755311D01*
X77135743Y-54758015D01*
X77098093Y-54766197D01*
X77067802Y-54778370D01*
X77040775Y-54795166D01*
X77014429Y-54819203D01*
X76994793Y-54844717D01*
X76979256Y-54873778D01*
X76959991Y-54944605D01*
X76956162Y-55003408D01*
X76956162Y-55625625D01*
X76824515Y-55625625D01*
X76824515Y-54984602D01*
X76827212Y-54928515D01*
X76835346Y-54876842D01*
X76847686Y-54833304D01*
X76864730Y-54793712D01*
X76885088Y-54760180D01*
X76909687Y-54730306D01*
X76910993Y-54728948D01*
X76939871Y-54703056D01*
X76972015Y-54681524D01*
X77045821Y-54651639D01*
X77135816Y-54638995D01*
X77153549Y-54638693D01*
X77203178Y-54641379D01*
X77249446Y-54649436D01*
X77290079Y-54661991D01*
X77327670Y-54679343D01*
X77361313Y-54700831D01*
X77392043Y-54726857D01*
X77445032Y-54793051D01*
X77450594Y-54802244D01*
X77472825Y-54763822D01*
X77499005Y-54730100D01*
X77526747Y-54703384D01*
X77558154Y-54680941D01*
X77559572Y-54680084D01*
X77627511Y-54651512D01*
X77712578Y-54639034D01*
X77730679Y-54638693D01*
X77777226Y-54641376D01*
X77821519Y-54649409D01*
X77884827Y-54672528D01*
X77923194Y-54694930D01*
X77957249Y-54722251D01*
X77995736Y-54768408D01*
X77995736Y-54650027D01*
X78123521Y-54650027D01*
G37*
G36*
X76250771Y-54639549D02*
G01*
X76301176Y-54647731D01*
X76344781Y-54660324D01*
X76385257Y-54677813D01*
X76420989Y-54699188D01*
X76453784Y-54725188D01*
X76465677Y-54736504D01*
X76513390Y-54799414D01*
X76547355Y-54880521D01*
X76566177Y-54982989D01*
X76569030Y-55048578D01*
X76569030Y-55217754D01*
X76566358Y-55282933D01*
X76558401Y-55342657D01*
X76546229Y-55393577D01*
X76529569Y-55439549D01*
X76509829Y-55478268D01*
X76486229Y-55512461D01*
X76465677Y-55535453D01*
X76433733Y-55563591D01*
X76398711Y-55587172D01*
X76320320Y-55620364D01*
X76227233Y-55635913D01*
X76193064Y-55636959D01*
X76135941Y-55634283D01*
X76083180Y-55626300D01*
X76037463Y-55613963D01*
X75995731Y-55597017D01*
X75929854Y-55554260D01*
X75902130Y-55527068D01*
X75879123Y-55496962D01*
X75847475Y-55429198D01*
X75834295Y-55349806D01*
X75833973Y-55334289D01*
X75833973Y-55324885D01*
X75961842Y-55324885D01*
X75961842Y-55330510D01*
X75964548Y-55367028D01*
X75972742Y-55400211D01*
X75985134Y-55427527D01*
X76002298Y-55451863D01*
X76020109Y-55469630D01*
X76074350Y-55501986D01*
X76145301Y-55518552D01*
X76183660Y-55520425D01*
X76228800Y-55517739D01*
X76269924Y-55509683D01*
X76304502Y-55497405D01*
X76335621Y-55480507D01*
X76369796Y-55452754D01*
X76405305Y-55401790D01*
X76428435Y-55329010D01*
X76437467Y-55221532D01*
X76437467Y-55163181D01*
X75826501Y-55163181D01*
X75826501Y-55048578D01*
X75827200Y-55031618D01*
X75958064Y-55031618D01*
X75958064Y-55065454D01*
X76437467Y-55065454D01*
X76437467Y-55044800D01*
X76434795Y-54984596D01*
X76426842Y-54931988D01*
X76415291Y-54891268D01*
X76399632Y-54856664D01*
X76371643Y-54819203D01*
X76346323Y-54797670D01*
X76317966Y-54780628D01*
X76251705Y-54759657D01*
X76196842Y-54755311D01*
X76152244Y-54757998D01*
X76112233Y-54766064D01*
X76079215Y-54778237D01*
X76049585Y-54794969D01*
X76021956Y-54817356D01*
X75988242Y-54864371D01*
X75966233Y-54933425D01*
X75958064Y-55031618D01*
X75827200Y-55031618D01*
X75829188Y-54983381D01*
X75837248Y-54923655D01*
X75849450Y-54873487D01*
X75866225Y-54828137D01*
X75886013Y-54790217D01*
X75909786Y-54756624D01*
X75928007Y-54736504D01*
X75959404Y-54708889D01*
X75993709Y-54685856D01*
X76071129Y-54653187D01*
X76163279Y-54637865D01*
X76196842Y-54636845D01*
X76250771Y-54639549D01*
G37*
G36*
X75569840Y-54650027D02*
G01*
X75569840Y-55625625D01*
X75440124Y-55625625D01*
X75440124Y-55007186D01*
X75437466Y-54964142D01*
X75429607Y-54924876D01*
X75417270Y-54890351D01*
X75400414Y-54858840D01*
X75376232Y-54826676D01*
X75351897Y-54803067D01*
X75324906Y-54784415D01*
X75264179Y-54761887D01*
X75214612Y-54757158D01*
X75133614Y-54766966D01*
X75114953Y-54772187D01*
X75114953Y-54642471D01*
X75184470Y-54636845D01*
X75229702Y-54639576D01*
X75272862Y-54647939D01*
X75334924Y-54672528D01*
X75368880Y-54694156D01*
X75398860Y-54720377D01*
X75442055Y-54779743D01*
X75442055Y-54650027D01*
X75569840Y-54650027D01*
G37*
G36*
X92045852Y-58770625D02*
G01*
X91904885Y-58770625D01*
X91904885Y-58187869D01*
X91585339Y-58187869D01*
X91286447Y-58770625D01*
X91124743Y-58770625D01*
X91436817Y-58174771D01*
X91388056Y-58160818D01*
X91343901Y-58142456D01*
X91305831Y-58120802D01*
X91271555Y-58095115D01*
X91228180Y-58050681D01*
X91204173Y-58017108D01*
X91184841Y-57980719D01*
X91160018Y-57899336D01*
X91153109Y-57817528D01*
X91293920Y-57817528D01*
X91296593Y-57861028D01*
X91304563Y-57900720D01*
X91316822Y-57934510D01*
X91333634Y-57964798D01*
X91365368Y-58001817D01*
X91421643Y-58038973D01*
X91493938Y-58060351D01*
X91564602Y-58065709D01*
X91904885Y-58065709D01*
X91904885Y-57569431D01*
X91564602Y-57569431D01*
X91513044Y-57572118D01*
X91466483Y-57580183D01*
X91428407Y-57592255D01*
X91394669Y-57608821D01*
X91363521Y-57631476D01*
X91341877Y-57654060D01*
X91324321Y-57680157D01*
X91301063Y-57743801D01*
X91293920Y-57817528D01*
X91153109Y-57817528D01*
X91152953Y-57815681D01*
X91155640Y-57761246D01*
X91163703Y-57710634D01*
X91176156Y-57666744D01*
X91193345Y-57626446D01*
X91214166Y-57591437D01*
X91239303Y-57559894D01*
X91260084Y-57539373D01*
X91293929Y-57512687D01*
X91331307Y-57490126D01*
X91416790Y-57457644D01*
X91519220Y-57442447D01*
X91553351Y-57441562D01*
X92045852Y-57441562D01*
X92045852Y-58770625D01*
G37*
G36*
X90723590Y-57603266D02*
G01*
X90723590Y-58770625D01*
X90584470Y-58770625D01*
X90584470Y-57441562D01*
X90725437Y-57441562D01*
X90952964Y-57618294D01*
X90952964Y-57776220D01*
X90723590Y-57603266D01*
G37*
G36*
X90315887Y-58593976D02*
G01*
X90315887Y-58770625D01*
X90146711Y-58770625D01*
X90146711Y-58593976D01*
X90315887Y-58593976D01*
G37*
G36*
X89832874Y-58704885D02*
G01*
X89767510Y-58749800D01*
X89687881Y-58778081D01*
X89590193Y-58789330D01*
X89579152Y-58789431D01*
X89526871Y-58786735D01*
X89477873Y-58778609D01*
X89434982Y-58765998D01*
X89395154Y-58748510D01*
X89359851Y-58727071D01*
X89327529Y-58701046D01*
X89317789Y-58691704D01*
X89290472Y-58660555D01*
X89267678Y-58626366D01*
X89235588Y-58549118D01*
X89220874Y-58456662D01*
X89220061Y-58426647D01*
X89220061Y-58379630D01*
X89222723Y-58329329D01*
X89230612Y-58282127D01*
X89243164Y-58239318D01*
X89260389Y-58199716D01*
X89268925Y-58184175D01*
X89290889Y-58152031D01*
X89316767Y-58123924D01*
X89345664Y-58100565D01*
X89378250Y-58081198D01*
X89409891Y-58067556D01*
X89376436Y-58049809D01*
X89346460Y-58027948D01*
X89295538Y-57971312D01*
X89289579Y-57962356D01*
X89270597Y-57927626D01*
X89256284Y-57889921D01*
X89247046Y-57850118D01*
X89242871Y-57807731D01*
X89242646Y-57795027D01*
X89242646Y-57751788D01*
X89245333Y-57702025D01*
X89253393Y-57655906D01*
X89265887Y-57615775D01*
X89283140Y-57578767D01*
X89330482Y-57515375D01*
X89332817Y-57513010D01*
X89362937Y-57486738D01*
X89396200Y-57464968D01*
X89471455Y-57435175D01*
X89562255Y-57422970D01*
X89577221Y-57422755D01*
X89630524Y-57425452D01*
X89679816Y-57433585D01*
X89721807Y-57446012D01*
X89760258Y-57463198D01*
X89793511Y-57484017D01*
X89823471Y-57509232D01*
X89849642Y-57538295D01*
X89871104Y-57570231D01*
X89900105Y-57642283D01*
X89911717Y-57729687D01*
X89911879Y-57742385D01*
X89911879Y-57778067D01*
X89778385Y-57778067D01*
X89778385Y-57746163D01*
X89775738Y-57708393D01*
X89767952Y-57673976D01*
X89755722Y-57643918D01*
X89739098Y-57617227D01*
X89725743Y-57601419D01*
X89679794Y-57568255D01*
X89618972Y-57551111D01*
X89580999Y-57548777D01*
X89542181Y-57551465D01*
X89507146Y-57559537D01*
X89478150Y-57571784D01*
X89452380Y-57588641D01*
X89434407Y-57605113D01*
X89401319Y-57655166D01*
X89384038Y-57720360D01*
X89381765Y-57759261D01*
X89381765Y-57798805D01*
X89384499Y-57841925D01*
X89392890Y-57880686D01*
X89405281Y-57911716D01*
X89422534Y-57939916D01*
X89436254Y-57956647D01*
X89459707Y-57978460D01*
X89486144Y-57995562D01*
X89546862Y-58015470D01*
X89588555Y-58018692D01*
X89656226Y-58018692D01*
X89656226Y-58144630D01*
X89586624Y-58144630D01*
X89546119Y-58147302D01*
X89509735Y-58155255D01*
X89478940Y-58167482D01*
X89451185Y-58184231D01*
X89421226Y-58210454D01*
X89399598Y-58236957D01*
X89382591Y-58266560D01*
X89362619Y-58334374D01*
X89359180Y-58383408D01*
X89359180Y-58434203D01*
X89361834Y-58476632D01*
X89369660Y-58514883D01*
X89381798Y-58547728D01*
X89398308Y-58577095D01*
X89417448Y-58601448D01*
X89440525Y-58622851D01*
X89467061Y-58640081D01*
X89529903Y-58661412D01*
X89577221Y-58665425D01*
X89619473Y-58662716D01*
X89657851Y-58654507D01*
X89688974Y-58642255D01*
X89716537Y-58625314D01*
X89731368Y-58612783D01*
X89751655Y-58589784D01*
X89767440Y-58563648D01*
X89785464Y-58502258D01*
X89787788Y-58466107D01*
X89787788Y-58441675D01*
X89928755Y-58441675D01*
X89928755Y-58471732D01*
X89926092Y-58517956D01*
X89918202Y-58561086D01*
X89905685Y-58599892D01*
X89888515Y-58635613D01*
X89841386Y-58696830D01*
X89832874Y-58704885D01*
G37*
G36*
X88565017Y-58657868D02*
G01*
X88565017Y-58770625D01*
X87890159Y-58770625D01*
X87890159Y-58644687D01*
X88390216Y-58644687D01*
X88006693Y-58091988D01*
X87963731Y-58026974D01*
X87930323Y-57963884D01*
X87920216Y-57939771D01*
X87903798Y-57889187D01*
X87893493Y-57836846D01*
X87890159Y-57785624D01*
X87890159Y-57751788D01*
X87892877Y-57704743D01*
X87901155Y-57660368D01*
X87931466Y-57584459D01*
X87953888Y-57549622D01*
X87980257Y-57518749D01*
X88043426Y-57469705D01*
X88049932Y-57465994D01*
X88128177Y-57434963D01*
X88217975Y-57422843D01*
X88226664Y-57422755D01*
X88276801Y-57425424D01*
X88323415Y-57433360D01*
X88364767Y-57445822D01*
X88402786Y-57462937D01*
X88436713Y-57484095D01*
X88467362Y-57509530D01*
X88472915Y-57514941D01*
X88499746Y-57545580D01*
X88522106Y-57579395D01*
X88552745Y-57655279D01*
X88564877Y-57744224D01*
X88565017Y-57755566D01*
X88565017Y-57798805D01*
X88425898Y-57798805D01*
X88425898Y-57763039D01*
X88423251Y-57718932D01*
X88415465Y-57680084D01*
X88403716Y-57648349D01*
X88387855Y-57621035D01*
X88373256Y-57603266D01*
X88325972Y-57568775D01*
X88264655Y-57550947D01*
X88230443Y-57548777D01*
X88190916Y-57551511D01*
X88155451Y-57559901D01*
X88127389Y-57572247D01*
X88102298Y-57589424D01*
X88087545Y-57603266D01*
X88067740Y-57628010D01*
X88052305Y-57656055D01*
X88034926Y-57721783D01*
X88033056Y-57755566D01*
X88033056Y-57785624D01*
X88043811Y-57864807D01*
X88078124Y-57952678D01*
X88117602Y-58018692D01*
X88565017Y-58657868D01*
G37*
G36*
X87357450Y-57425442D02*
G01*
X87406360Y-57433502D01*
X87447718Y-57445783D01*
X87485217Y-57462689D01*
X87517408Y-57483134D01*
X87546092Y-57507789D01*
X87592656Y-57569202D01*
X87626283Y-57649998D01*
X87645982Y-57755269D01*
X87649954Y-57840113D01*
X87649954Y-58364601D01*
X87647266Y-58436507D01*
X87639197Y-58501727D01*
X87627132Y-58555410D01*
X87610575Y-58603539D01*
X87591256Y-58643115D01*
X87568084Y-58677948D01*
X87542488Y-58706661D01*
X87513405Y-58731099D01*
X87445678Y-58766830D01*
X87361793Y-58786224D01*
X87304045Y-58789431D01*
X87250568Y-58786744D01*
X87201593Y-58778677D01*
X87160211Y-58766392D01*
X87122677Y-58749476D01*
X87090444Y-58729016D01*
X87061699Y-58704332D01*
X87014928Y-58642786D01*
X86980952Y-58561673D01*
X86960729Y-58455761D01*
X86956289Y-58364601D01*
X86956289Y-57875879D01*
X87097255Y-57875879D01*
X87097255Y-58338322D01*
X87099970Y-58417644D01*
X87108226Y-58485036D01*
X87119489Y-58532293D01*
X87134831Y-58571448D01*
X87144272Y-58588351D01*
X87162173Y-58611754D01*
X87183660Y-58630734D01*
X87235967Y-58655196D01*
X87304045Y-58663493D01*
X87344782Y-58660794D01*
X87380630Y-58652643D01*
X87408553Y-58640704D01*
X87432701Y-58624308D01*
X87463818Y-58588351D01*
X87490517Y-58525831D01*
X87507243Y-58428464D01*
X87510835Y-58338322D01*
X87510835Y-57875879D01*
X87508120Y-57796511D01*
X87499863Y-57729102D01*
X87488605Y-57681869D01*
X87473270Y-57642754D01*
X87463818Y-57625851D01*
X87445928Y-57602424D01*
X87424457Y-57583427D01*
X87372200Y-57558946D01*
X87304045Y-57550624D01*
X87263308Y-57553324D01*
X87227460Y-57561479D01*
X87199550Y-57573420D01*
X87175413Y-57589821D01*
X87144272Y-57625851D01*
X87117592Y-57688246D01*
X87100861Y-57785522D01*
X87097255Y-57875879D01*
X86956289Y-57875879D01*
X86956289Y-57840113D01*
X86958978Y-57769611D01*
X86967056Y-57705627D01*
X86979135Y-57652954D01*
X86995720Y-57605703D01*
X87015095Y-57566804D01*
X87038349Y-57532550D01*
X87064099Y-57504254D01*
X87093380Y-57480167D01*
X87161825Y-57444885D01*
X87246938Y-57425797D01*
X87304045Y-57422755D01*
X87357450Y-57425442D01*
G37*
G36*
X86717931Y-58657868D02*
G01*
X86717931Y-58770625D01*
X86043072Y-58770625D01*
X86043072Y-58644687D01*
X86543129Y-58644687D01*
X86159607Y-58091988D01*
X86116644Y-58026974D01*
X86083236Y-57963884D01*
X86073130Y-57939771D01*
X86056711Y-57889187D01*
X86046406Y-57836846D01*
X86043072Y-57785624D01*
X86043072Y-57751788D01*
X86045790Y-57704743D01*
X86054069Y-57660368D01*
X86084380Y-57584459D01*
X86106801Y-57549622D01*
X86133171Y-57518749D01*
X86196339Y-57469705D01*
X86202845Y-57465994D01*
X86281090Y-57434963D01*
X86370888Y-57422843D01*
X86379578Y-57422755D01*
X86429714Y-57425424D01*
X86476329Y-57433360D01*
X86517681Y-57445822D01*
X86555700Y-57462937D01*
X86589626Y-57484095D01*
X86620276Y-57509530D01*
X86625828Y-57514941D01*
X86652659Y-57545580D01*
X86675020Y-57579395D01*
X86705658Y-57655279D01*
X86717791Y-57744224D01*
X86717931Y-57755566D01*
X86717931Y-57798805D01*
X86578811Y-57798805D01*
X86578811Y-57763039D01*
X86576164Y-57718932D01*
X86568379Y-57680084D01*
X86556629Y-57648349D01*
X86540769Y-57621035D01*
X86526169Y-57603266D01*
X86478885Y-57568775D01*
X86417569Y-57550947D01*
X86383356Y-57548777D01*
X86343829Y-57551511D01*
X86308364Y-57559901D01*
X86280303Y-57572247D01*
X86255212Y-57589424D01*
X86240459Y-57603266D01*
X86220653Y-57628010D01*
X86205218Y-57656055D01*
X86187839Y-57721783D01*
X86185970Y-57755566D01*
X86185970Y-57785624D01*
X86196724Y-57864807D01*
X86231037Y-57952678D01*
X86270516Y-58018692D01*
X86717931Y-58657868D01*
G37*
G36*
X85738975Y-58067556D02*
G01*
X85788145Y-58183322D01*
X85797242Y-58212301D01*
X85809962Y-58266116D01*
X85816853Y-58320936D01*
X85817896Y-58351420D01*
X85817896Y-58417243D01*
X85815217Y-58471150D01*
X85807213Y-58521018D01*
X85794773Y-58564634D01*
X85777644Y-58604888D01*
X85730688Y-58674442D01*
X85718237Y-58687925D01*
X85686677Y-58716544D01*
X85652139Y-58740433D01*
X85575740Y-58773475D01*
X85485441Y-58788552D01*
X85455111Y-58789431D01*
X85405490Y-58786745D01*
X85358571Y-58778685D01*
X85316140Y-58765917D01*
X85276190Y-58748214D01*
X85268975Y-58744345D01*
X85234307Y-58722176D01*
X85203328Y-58696043D01*
X85150881Y-58630989D01*
X85141106Y-58614630D01*
X85109107Y-58536153D01*
X85094913Y-58443102D01*
X85094174Y-58413465D01*
X85094174Y-58355198D01*
X85233293Y-58355198D01*
X85233293Y-58421021D01*
X85235963Y-58465595D01*
X85243906Y-58505702D01*
X85256104Y-58539720D01*
X85272797Y-58570480D01*
X85293407Y-58597754D01*
X85316835Y-58620456D01*
X85343287Y-58638539D01*
X85404332Y-58660712D01*
X85455111Y-58665425D01*
X85493954Y-58662739D01*
X85529574Y-58654683D01*
X85559961Y-58642258D01*
X85587367Y-58625121D01*
X85616731Y-58597754D01*
X85637235Y-58570187D01*
X85653227Y-58539544D01*
X85672011Y-58468196D01*
X85674998Y-58419090D01*
X85674998Y-58353351D01*
X85672328Y-58308546D01*
X85664385Y-58268048D01*
X85652224Y-58233870D01*
X85635591Y-58203307D01*
X85614884Y-58176618D01*
X85591561Y-58155009D01*
X85565309Y-58137926D01*
X85503774Y-58116897D01*
X85455111Y-58112726D01*
X85416190Y-58115399D01*
X85380492Y-58123361D01*
X85349658Y-58135745D01*
X85321901Y-58152753D01*
X85293407Y-58178465D01*
X85272688Y-58205180D01*
X85256246Y-58235339D01*
X85236548Y-58305998D01*
X85233293Y-58355198D01*
X85094174Y-58355198D01*
X85094174Y-58347726D01*
X85096860Y-58292305D01*
X85104920Y-58240912D01*
X85117363Y-58196373D01*
X85134534Y-58155387D01*
X85155491Y-58119346D01*
X85180815Y-58086594D01*
X85184345Y-58082669D01*
X85213492Y-58054765D01*
X85245512Y-58031596D01*
X85317227Y-57999533D01*
X85402000Y-57985442D01*
X85424970Y-57984857D01*
X85465063Y-57987544D01*
X85503751Y-57995604D01*
X85505822Y-57996191D01*
X85559748Y-58020515D01*
X85567867Y-58026249D01*
X85282157Y-57441562D01*
X85428748Y-57441562D01*
X85738975Y-58067556D01*
G37*
G36*
X84561969Y-57425442D02*
G01*
X84610879Y-57433502D01*
X84652237Y-57445783D01*
X84689736Y-57462689D01*
X84721926Y-57483134D01*
X84750610Y-57507789D01*
X84797174Y-57569202D01*
X84830801Y-57649998D01*
X84850500Y-57755269D01*
X84854472Y-57840113D01*
X84854472Y-58364601D01*
X84851784Y-58436507D01*
X84843715Y-58501727D01*
X84831651Y-58555410D01*
X84815094Y-58603539D01*
X84795775Y-58643115D01*
X84772603Y-58677948D01*
X84747007Y-58706661D01*
X84717923Y-58731099D01*
X84650197Y-58766830D01*
X84566312Y-58786224D01*
X84508563Y-58789431D01*
X84455087Y-58786744D01*
X84406112Y-58778677D01*
X84364730Y-58766392D01*
X84327195Y-58749476D01*
X84294963Y-58729016D01*
X84266218Y-58704332D01*
X84219446Y-58642786D01*
X84185471Y-58561673D01*
X84165247Y-58455761D01*
X84160807Y-58364601D01*
X84160807Y-57875879D01*
X84301774Y-57875879D01*
X84301774Y-58338322D01*
X84304488Y-58417644D01*
X84312745Y-58485036D01*
X84324007Y-58532293D01*
X84339350Y-58571448D01*
X84348790Y-58588351D01*
X84366692Y-58611754D01*
X84388178Y-58630734D01*
X84440485Y-58655196D01*
X84508563Y-58663493D01*
X84549300Y-58660794D01*
X84585148Y-58652643D01*
X84613072Y-58640704D01*
X84637219Y-58624308D01*
X84668336Y-58588351D01*
X84695035Y-58525831D01*
X84711761Y-58428464D01*
X84715353Y-58338322D01*
X84715353Y-57875879D01*
X84712638Y-57796511D01*
X84704382Y-57729102D01*
X84693124Y-57681869D01*
X84677789Y-57642754D01*
X84668336Y-57625851D01*
X84650446Y-57602424D01*
X84628975Y-57583427D01*
X84576718Y-57558946D01*
X84508563Y-57550624D01*
X84467826Y-57553324D01*
X84431978Y-57561479D01*
X84404069Y-57573420D01*
X84379931Y-57589821D01*
X84348790Y-57625851D01*
X84322111Y-57688246D01*
X84305380Y-57785522D01*
X84301774Y-57875879D01*
X84160807Y-57875879D01*
X84160807Y-57840113D01*
X84163496Y-57769611D01*
X84171574Y-57705627D01*
X84183653Y-57652954D01*
X84200239Y-57605703D01*
X84219613Y-57566804D01*
X84242867Y-57532550D01*
X84268617Y-57504254D01*
X84297899Y-57480167D01*
X84366343Y-57444885D01*
X84451457Y-57425797D01*
X84508563Y-57422755D01*
X84561969Y-57425442D01*
G37*
G36*
X83710034Y-57603266D02*
G01*
X83710034Y-58770625D01*
X83570915Y-58770625D01*
X83570915Y-57441562D01*
X83711881Y-57441562D01*
X83939409Y-57618294D01*
X83939409Y-57776220D01*
X83710034Y-57603266D01*
G37*
G36*
X82983549Y-57425442D02*
G01*
X83032459Y-57433502D01*
X83073817Y-57445783D01*
X83111316Y-57462689D01*
X83143507Y-57483134D01*
X83172191Y-57507789D01*
X83218755Y-57569202D01*
X83252382Y-57649998D01*
X83272081Y-57755269D01*
X83276053Y-57840113D01*
X83276053Y-58364601D01*
X83273365Y-58436507D01*
X83265296Y-58501727D01*
X83253231Y-58555410D01*
X83236674Y-58603539D01*
X83217355Y-58643115D01*
X83194183Y-58677948D01*
X83168587Y-58706661D01*
X83139504Y-58731099D01*
X83071777Y-58766830D01*
X82987892Y-58786224D01*
X82930144Y-58789431D01*
X82876668Y-58786744D01*
X82827692Y-58778677D01*
X82786310Y-58766392D01*
X82748776Y-58749476D01*
X82716544Y-58729016D01*
X82687798Y-58704332D01*
X82641027Y-58642786D01*
X82607051Y-58561673D01*
X82586828Y-58455761D01*
X82582388Y-58364601D01*
X82582388Y-57875879D01*
X82723354Y-57875879D01*
X82723354Y-58338322D01*
X82726069Y-58417644D01*
X82734326Y-58485036D01*
X82745588Y-58532293D01*
X82760930Y-58571448D01*
X82770371Y-58588351D01*
X82788272Y-58611754D01*
X82809759Y-58630734D01*
X82862066Y-58655196D01*
X82930144Y-58663493D01*
X82970881Y-58660794D01*
X83006729Y-58652643D01*
X83034652Y-58640704D01*
X83058800Y-58624308D01*
X83089917Y-58588351D01*
X83116616Y-58525831D01*
X83133342Y-58428464D01*
X83136934Y-58338322D01*
X83136934Y-57875879D01*
X83134219Y-57796511D01*
X83125962Y-57729102D01*
X83114704Y-57681869D01*
X83099369Y-57642754D01*
X83089917Y-57625851D01*
X83072027Y-57602424D01*
X83050556Y-57583427D01*
X82998299Y-57558946D01*
X82930144Y-57550624D01*
X82889407Y-57553324D01*
X82853559Y-57561479D01*
X82825649Y-57573420D01*
X82801512Y-57589821D01*
X82770371Y-57625851D01*
X82743691Y-57688246D01*
X82726960Y-57785522D01*
X82723354Y-57875879D01*
X82582388Y-57875879D01*
X82582388Y-57840113D01*
X82585077Y-57769611D01*
X82593155Y-57705627D01*
X82605234Y-57652954D01*
X82621819Y-57605703D01*
X82641194Y-57566804D01*
X82664448Y-57532550D01*
X82690198Y-57504254D01*
X82719480Y-57480167D01*
X82787924Y-57444885D01*
X82873038Y-57425797D01*
X82930144Y-57422755D01*
X82983549Y-57425442D01*
G37*
G36*
X82265109Y-58067556D02*
G01*
X82314279Y-58183322D01*
X82323376Y-58212301D01*
X82336096Y-58266116D01*
X82342987Y-58320936D01*
X82344030Y-58351420D01*
X82344030Y-58417243D01*
X82341351Y-58471150D01*
X82333347Y-58521018D01*
X82320906Y-58564634D01*
X82303778Y-58604888D01*
X82256822Y-58674442D01*
X82244371Y-58687925D01*
X82212811Y-58716544D01*
X82178273Y-58740433D01*
X82101874Y-58773475D01*
X82011575Y-58788552D01*
X81981245Y-58789431D01*
X81931624Y-58786745D01*
X81884705Y-58778685D01*
X81842274Y-58765917D01*
X81802324Y-58748214D01*
X81795109Y-58744345D01*
X81760441Y-58722176D01*
X81729462Y-58696043D01*
X81677015Y-58630989D01*
X81667240Y-58614630D01*
X81635241Y-58536153D01*
X81621047Y-58443102D01*
X81620308Y-58413465D01*
X81620308Y-58355198D01*
X81759427Y-58355198D01*
X81759427Y-58421021D01*
X81762097Y-58465595D01*
X81770040Y-58505702D01*
X81782238Y-58539720D01*
X81798931Y-58570480D01*
X81819541Y-58597754D01*
X81842969Y-58620456D01*
X81869421Y-58638539D01*
X81930466Y-58660712D01*
X81981245Y-58665425D01*
X82020088Y-58662739D01*
X82055708Y-58654683D01*
X82086095Y-58642258D01*
X82113501Y-58625121D01*
X82142865Y-58597754D01*
X82163369Y-58570187D01*
X82179361Y-58539544D01*
X82198145Y-58468196D01*
X82201132Y-58419090D01*
X82201132Y-58353351D01*
X82198462Y-58308546D01*
X82190519Y-58268048D01*
X82178358Y-58233870D01*
X82161725Y-58203307D01*
X82141018Y-58176618D01*
X82117695Y-58155009D01*
X82091443Y-58137926D01*
X82029908Y-58116897D01*
X81981245Y-58112726D01*
X81942324Y-58115399D01*
X81906626Y-58123361D01*
X81875792Y-58135745D01*
X81848035Y-58152753D01*
X81819541Y-58178465D01*
X81798822Y-58205180D01*
X81782380Y-58235339D01*
X81762682Y-58305998D01*
X81759427Y-58355198D01*
X81620308Y-58355198D01*
X81620308Y-58347726D01*
X81622994Y-58292305D01*
X81631054Y-58240912D01*
X81643497Y-58196373D01*
X81660668Y-58155387D01*
X81681625Y-58119346D01*
X81706949Y-58086594D01*
X81710479Y-58082669D01*
X81739626Y-58054765D01*
X81771646Y-58031596D01*
X81843361Y-57999533D01*
X81928134Y-57985442D01*
X81951104Y-57984857D01*
X81991197Y-57987544D01*
X82029885Y-57995604D01*
X82031956Y-57996191D01*
X82085882Y-58020515D01*
X82094001Y-58026249D01*
X81808291Y-57441562D01*
X81954882Y-57441562D01*
X82265109Y-58067556D01*
G37*
D11*
G36*
X73049388Y-55248408D02*
G01*
X73049388Y-55408387D01*
X72803314Y-55408387D01*
X72803314Y-56215000D01*
X72617384Y-56215000D01*
X72617384Y-55408387D01*
X72371248Y-55408387D01*
X72371248Y-55248408D01*
X73049388Y-55248408D01*
G37*
G36*
X72057701Y-55711920D02*
G01*
X72358486Y-56215000D01*
X72149292Y-56215000D01*
X71952433Y-55858222D01*
X71758260Y-56215000D01*
X71539540Y-56215000D01*
X71844416Y-55705081D01*
X71570986Y-55248408D01*
X71780180Y-55248408D01*
X71948342Y-55562871D01*
X72119251Y-55248408D01*
X72336627Y-55248408D01*
X72057701Y-55711920D01*
G37*
G36*
X71452468Y-55650371D02*
G01*
X71452468Y-55811693D01*
X71066930Y-55811693D01*
X71066930Y-55650371D01*
X71452468Y-55650371D01*
G37*
G36*
X70847356Y-56165785D02*
G01*
X70797755Y-56198438D01*
X70736482Y-56219799D01*
X70659622Y-56229626D01*
X70636819Y-56230081D01*
X70597533Y-56228107D01*
X70559961Y-56222102D01*
X70526596Y-56212738D01*
X70495116Y-56199645D01*
X70487769Y-56195887D01*
X70459314Y-56178516D01*
X70434112Y-56158351D01*
X70394292Y-56111293D01*
X70386592Y-56098801D01*
X70372434Y-56070517D01*
X70361692Y-56040259D01*
X70350402Y-55972940D01*
X70349711Y-55949813D01*
X70349711Y-55923801D01*
X70351665Y-55885443D01*
X70357527Y-55850257D01*
X70366542Y-55820020D01*
X70378974Y-55792159D01*
X70382501Y-55785743D01*
X70398583Y-55761559D01*
X70417624Y-55740329D01*
X70438592Y-55722939D01*
X70462409Y-55708388D01*
X70478244Y-55700990D01*
X70453658Y-55686074D01*
X70432174Y-55668637D01*
X70397411Y-55625978D01*
X70394835Y-55621673D01*
X70381339Y-55594611D01*
X70371644Y-55565644D01*
X70364732Y-55509565D01*
X70364732Y-55489049D01*
X70366669Y-55453286D01*
X70372414Y-55419952D01*
X70381521Y-55389934D01*
X70394019Y-55362140D01*
X70428631Y-55313322D01*
X70438554Y-55303119D01*
X70485855Y-55268066D01*
X70543522Y-55244966D01*
X70613765Y-55234057D01*
X70638162Y-55233387D01*
X70679906Y-55235335D01*
X70718619Y-55241151D01*
X70752394Y-55250169D01*
X70783399Y-55262576D01*
X70810550Y-55277657D01*
X70835088Y-55295806D01*
X70841860Y-55301775D01*
X70861780Y-55322631D01*
X70878575Y-55345871D01*
X70902851Y-55399469D01*
X70914739Y-55464238D01*
X70915744Y-55491796D01*
X70915744Y-55515000D01*
X70747583Y-55515000D01*
X70747583Y-55491796D01*
X70745654Y-55468364D01*
X70739966Y-55447445D01*
X70720228Y-55416570D01*
X70705780Y-55404926D01*
X70688699Y-55396419D01*
X70646772Y-55389285D01*
X70645001Y-55389275D01*
X70621508Y-55391256D01*
X70600557Y-55397301D01*
X70584362Y-55406172D01*
X70570585Y-55418463D01*
X70569835Y-55419317D01*
X70558181Y-55435803D01*
X70549653Y-55454917D01*
X70542486Y-55501152D01*
X70542480Y-55502726D01*
X70542480Y-55523243D01*
X70544395Y-55548797D01*
X70549983Y-55571432D01*
X70558621Y-55590461D01*
X70570240Y-55606751D01*
X70572583Y-55609338D01*
X70586379Y-55621297D01*
X70602561Y-55630173D01*
X70643365Y-55639104D01*
X70654587Y-55639441D01*
X70702459Y-55639441D01*
X70702459Y-55795329D01*
X70653244Y-55795329D01*
X70625109Y-55797283D01*
X70600648Y-55803145D01*
X70581561Y-55811773D01*
X70565094Y-55823572D01*
X70560248Y-55828119D01*
X70538874Y-55860445D01*
X70528301Y-55905571D01*
X70527459Y-55925205D01*
X70527459Y-55949813D01*
X70529439Y-55978394D01*
X70535484Y-56003875D01*
X70544244Y-56023417D01*
X70556350Y-56040155D01*
X70557501Y-56041404D01*
X70573306Y-56055352D01*
X70591435Y-56065837D01*
X70610838Y-56072391D01*
X70632344Y-56075410D01*
X70639566Y-56075598D01*
X70668437Y-56073615D01*
X70692964Y-56067554D01*
X70722914Y-56049586D01*
X70734959Y-56035722D01*
X70743756Y-56019320D01*
X70751578Y-55978828D01*
X70751674Y-55973016D01*
X70751674Y-55951156D01*
X70922583Y-55951156D01*
X70922583Y-55981259D01*
X70920624Y-56018491D01*
X70914725Y-56052915D01*
X70905672Y-56082416D01*
X70893158Y-56109482D01*
X70877845Y-56133194D01*
X70859289Y-56154652D01*
X70847356Y-56165785D01*
G37*
G36*
X70226735Y-56016796D02*
G01*
X70226735Y-56215000D01*
X70032623Y-56215000D01*
X70032623Y-56016796D01*
X70226735Y-56016796D01*
G37*
G36*
X69842052Y-56165785D02*
G01*
X69792451Y-56198438D01*
X69731178Y-56219799D01*
X69654318Y-56229626D01*
X69631515Y-56230081D01*
X69592229Y-56228107D01*
X69554657Y-56222102D01*
X69521293Y-56212738D01*
X69489812Y-56199645D01*
X69482466Y-56195887D01*
X69454010Y-56178516D01*
X69428809Y-56158351D01*
X69388988Y-56111293D01*
X69381288Y-56098801D01*
X69367131Y-56070517D01*
X69356388Y-56040259D01*
X69345098Y-55972940D01*
X69344408Y-55949813D01*
X69344408Y-55923801D01*
X69346361Y-55885443D01*
X69352223Y-55850257D01*
X69361239Y-55820020D01*
X69373670Y-55792159D01*
X69377197Y-55785743D01*
X69393280Y-55761559D01*
X69412320Y-55740329D01*
X69433289Y-55722939D01*
X69457105Y-55708388D01*
X69472940Y-55700990D01*
X69448354Y-55686074D01*
X69426870Y-55668637D01*
X69392108Y-55625978D01*
X69389531Y-55621673D01*
X69376036Y-55594611D01*
X69366340Y-55565644D01*
X69359428Y-55509565D01*
X69359428Y-55489049D01*
X69361366Y-55453286D01*
X69367111Y-55419952D01*
X69376217Y-55389934D01*
X69388715Y-55362140D01*
X69423328Y-55313322D01*
X69433251Y-55303119D01*
X69480551Y-55268066D01*
X69538218Y-55244966D01*
X69608462Y-55234057D01*
X69632858Y-55233387D01*
X69674602Y-55235335D01*
X69713315Y-55241151D01*
X69747091Y-55250169D01*
X69778095Y-55262576D01*
X69805246Y-55277657D01*
X69829784Y-55295806D01*
X69836557Y-55301775D01*
X69856477Y-55322631D01*
X69873272Y-55345871D01*
X69897548Y-55399469D01*
X69909435Y-55464238D01*
X69910440Y-55491796D01*
X69910440Y-55515000D01*
X69742279Y-55515000D01*
X69742279Y-55491796D01*
X69740350Y-55468364D01*
X69734662Y-55447445D01*
X69714924Y-55416570D01*
X69700476Y-55404926D01*
X69683396Y-55396419D01*
X69641469Y-55389285D01*
X69639697Y-55389275D01*
X69616204Y-55391256D01*
X69595254Y-55397301D01*
X69579058Y-55406172D01*
X69565282Y-55418463D01*
X69564531Y-55419317D01*
X69552877Y-55435803D01*
X69544349Y-55454917D01*
X69537183Y-55501152D01*
X69537176Y-55502726D01*
X69537176Y-55523243D01*
X69539091Y-55548797D01*
X69544679Y-55571432D01*
X69553317Y-55590461D01*
X69564937Y-55606751D01*
X69567279Y-55609338D01*
X69581076Y-55621297D01*
X69597258Y-55630173D01*
X69638062Y-55639104D01*
X69649284Y-55639441D01*
X69697155Y-55639441D01*
X69697155Y-55795329D01*
X69647940Y-55795329D01*
X69619806Y-55797283D01*
X69595344Y-55803145D01*
X69576257Y-55811773D01*
X69559790Y-55823572D01*
X69554945Y-55828119D01*
X69533570Y-55860445D01*
X69522997Y-55905571D01*
X69522155Y-55925205D01*
X69522155Y-55949813D01*
X69524135Y-55978394D01*
X69530181Y-56003875D01*
X69538941Y-56023417D01*
X69551046Y-56040155D01*
X69552197Y-56041404D01*
X69568003Y-56055352D01*
X69586132Y-56065837D01*
X69605535Y-56072391D01*
X69627040Y-56075410D01*
X69634263Y-56075598D01*
X69663134Y-56073615D01*
X69687660Y-56067554D01*
X69717611Y-56049586D01*
X69729656Y-56035722D01*
X69738452Y-56019320D01*
X69746275Y-55978828D01*
X69746370Y-55973016D01*
X69746370Y-55951156D01*
X69917279Y-55951156D01*
X69917279Y-55981259D01*
X69915320Y-56018491D01*
X69909421Y-56052915D01*
X69900369Y-56082416D01*
X69887854Y-56109482D01*
X69872541Y-56133194D01*
X69853986Y-56154652D01*
X69842052Y-56165785D01*
G37*
G36*
X69269303Y-55248408D02*
G01*
X68961679Y-56215000D01*
X68814034Y-56215000D01*
X68505067Y-55248408D01*
X68696431Y-55248408D01*
X68886513Y-55916962D01*
X69077878Y-55248408D01*
X69269303Y-55248408D01*
G37*
G36*
X70847356Y-53665785D02*
G01*
X70797755Y-53698438D01*
X70736482Y-53719799D01*
X70659622Y-53729626D01*
X70636819Y-53730081D01*
X70597533Y-53728107D01*
X70559961Y-53722102D01*
X70526596Y-53712738D01*
X70495116Y-53699645D01*
X70487770Y-53695887D01*
X70459314Y-53678516D01*
X70434113Y-53658351D01*
X70394292Y-53611293D01*
X70386592Y-53598801D01*
X70372435Y-53570517D01*
X70361692Y-53540259D01*
X70350402Y-53472940D01*
X70349711Y-53449813D01*
X70349711Y-53423801D01*
X70351665Y-53385443D01*
X70357527Y-53350257D01*
X70366543Y-53320020D01*
X70378974Y-53292159D01*
X70382501Y-53285743D01*
X70398584Y-53261559D01*
X70417624Y-53240329D01*
X70438592Y-53222939D01*
X70462409Y-53208388D01*
X70478244Y-53200990D01*
X70453658Y-53186074D01*
X70432174Y-53168637D01*
X70397412Y-53125978D01*
X70394835Y-53121673D01*
X70381340Y-53094611D01*
X70371644Y-53065644D01*
X70364732Y-53009565D01*
X70364732Y-52989049D01*
X70366670Y-52953286D01*
X70372415Y-52919952D01*
X70381521Y-52889934D01*
X70394019Y-52862140D01*
X70428632Y-52813322D01*
X70438555Y-52803119D01*
X70485855Y-52768066D01*
X70543522Y-52744966D01*
X70613765Y-52734057D01*
X70638162Y-52733387D01*
X70679906Y-52735335D01*
X70718619Y-52741151D01*
X70752395Y-52750169D01*
X70783399Y-52762576D01*
X70810550Y-52777657D01*
X70835088Y-52795806D01*
X70841861Y-52801775D01*
X70861781Y-52822631D01*
X70878576Y-52845871D01*
X70902852Y-52899469D01*
X70914739Y-52964238D01*
X70915744Y-52991796D01*
X70915744Y-53015000D01*
X70747583Y-53015000D01*
X70747583Y-52991796D01*
X70745654Y-52968364D01*
X70739966Y-52947445D01*
X70720228Y-52916570D01*
X70705780Y-52904926D01*
X70688699Y-52896419D01*
X70646773Y-52889285D01*
X70645001Y-52889275D01*
X70621508Y-52891256D01*
X70600557Y-52897301D01*
X70584362Y-52906172D01*
X70570586Y-52918463D01*
X70569835Y-52919317D01*
X70558181Y-52935803D01*
X70549653Y-52954917D01*
X70542486Y-53001152D01*
X70542480Y-53002726D01*
X70542480Y-53023243D01*
X70544395Y-53048797D01*
X70549983Y-53071432D01*
X70558621Y-53090461D01*
X70570240Y-53106751D01*
X70572583Y-53109338D01*
X70586379Y-53121297D01*
X70602561Y-53130173D01*
X70643366Y-53139104D01*
X70654588Y-53139441D01*
X70702459Y-53139441D01*
X70702459Y-53295329D01*
X70653244Y-53295329D01*
X70625109Y-53297283D01*
X70600648Y-53303145D01*
X70581561Y-53311773D01*
X70565094Y-53323572D01*
X70560249Y-53328119D01*
X70538874Y-53360445D01*
X70528301Y-53405571D01*
X70527459Y-53425205D01*
X70527459Y-53449813D01*
X70529439Y-53478394D01*
X70535485Y-53503875D01*
X70544244Y-53523417D01*
X70556350Y-53540155D01*
X70557501Y-53541404D01*
X70573307Y-53555352D01*
X70591435Y-53565837D01*
X70610839Y-53572391D01*
X70632344Y-53575410D01*
X70639567Y-53575598D01*
X70668438Y-53573615D01*
X70692964Y-53567554D01*
X70722915Y-53549586D01*
X70734960Y-53535722D01*
X70743756Y-53519320D01*
X70751579Y-53478828D01*
X70751674Y-53473016D01*
X70751674Y-53451156D01*
X70922583Y-53451156D01*
X70922583Y-53481259D01*
X70920624Y-53518491D01*
X70914725Y-53552915D01*
X70905673Y-53582416D01*
X70893158Y-53609482D01*
X70877845Y-53633194D01*
X70859289Y-53654652D01*
X70847356Y-53665785D01*
G37*
G36*
X70226735Y-53516796D02*
G01*
X70226735Y-53715000D01*
X70032623Y-53715000D01*
X70032623Y-53516796D01*
X70226735Y-53516796D01*
G37*
G36*
X69842053Y-53665785D02*
G01*
X69792452Y-53698438D01*
X69731178Y-53719799D01*
X69654319Y-53729626D01*
X69631515Y-53730081D01*
X69592230Y-53728107D01*
X69554657Y-53722102D01*
X69521293Y-53712738D01*
X69489813Y-53699645D01*
X69482466Y-53695887D01*
X69454011Y-53678516D01*
X69428809Y-53658351D01*
X69388989Y-53611293D01*
X69381289Y-53598801D01*
X69367131Y-53570517D01*
X69356389Y-53540259D01*
X69345099Y-53472940D01*
X69344408Y-53449813D01*
X69344408Y-53423801D01*
X69346362Y-53385443D01*
X69352224Y-53350257D01*
X69361239Y-53320020D01*
X69373670Y-53292159D01*
X69377197Y-53285743D01*
X69393280Y-53261559D01*
X69412321Y-53240329D01*
X69433289Y-53222939D01*
X69457106Y-53208388D01*
X69472941Y-53200990D01*
X69448355Y-53186074D01*
X69426870Y-53168637D01*
X69392108Y-53125978D01*
X69389532Y-53121673D01*
X69376036Y-53094611D01*
X69366341Y-53065644D01*
X69359429Y-53009565D01*
X69359429Y-52989049D01*
X69361366Y-52953286D01*
X69367111Y-52919952D01*
X69376218Y-52889934D01*
X69388715Y-52862140D01*
X69423328Y-52813322D01*
X69433251Y-52803119D01*
X69480552Y-52768066D01*
X69538219Y-52744966D01*
X69608462Y-52734057D01*
X69632859Y-52733387D01*
X69674603Y-52735335D01*
X69713316Y-52741151D01*
X69747091Y-52750169D01*
X69778095Y-52762576D01*
X69805246Y-52777657D01*
X69829784Y-52795806D01*
X69836557Y-52801775D01*
X69856477Y-52822631D01*
X69873272Y-52845871D01*
X69897548Y-52899469D01*
X69909436Y-52964238D01*
X69910441Y-52991796D01*
X69910441Y-53015000D01*
X69742279Y-53015000D01*
X69742279Y-52991796D01*
X69740350Y-52968364D01*
X69734663Y-52947445D01*
X69714924Y-52916570D01*
X69700477Y-52904926D01*
X69683396Y-52896419D01*
X69641469Y-52889285D01*
X69639697Y-52889275D01*
X69616204Y-52891256D01*
X69595254Y-52897301D01*
X69579058Y-52906172D01*
X69565282Y-52918463D01*
X69564532Y-52919317D01*
X69552877Y-52935803D01*
X69544349Y-52954917D01*
X69537183Y-53001152D01*
X69537177Y-53002726D01*
X69537177Y-53023243D01*
X69539091Y-53048797D01*
X69544680Y-53071432D01*
X69553317Y-53090461D01*
X69564937Y-53106751D01*
X69567279Y-53109338D01*
X69581076Y-53121297D01*
X69597258Y-53130173D01*
X69638062Y-53139104D01*
X69649284Y-53139441D01*
X69697156Y-53139441D01*
X69697156Y-53295329D01*
X69647941Y-53295329D01*
X69619806Y-53297283D01*
X69595344Y-53303145D01*
X69576257Y-53311773D01*
X69559790Y-53323572D01*
X69554945Y-53328119D01*
X69533571Y-53360445D01*
X69522998Y-53405571D01*
X69522156Y-53425205D01*
X69522156Y-53449813D01*
X69524136Y-53478394D01*
X69530181Y-53503875D01*
X69538941Y-53523417D01*
X69551047Y-53540155D01*
X69552197Y-53541404D01*
X69568003Y-53555352D01*
X69586132Y-53565837D01*
X69605535Y-53572391D01*
X69627041Y-53575410D01*
X69634263Y-53575598D01*
X69663134Y-53573615D01*
X69687660Y-53567554D01*
X69717611Y-53549586D01*
X69729656Y-53535722D01*
X69738453Y-53519320D01*
X69746275Y-53478828D01*
X69746371Y-53473016D01*
X69746371Y-53451156D01*
X69917279Y-53451156D01*
X69917279Y-53481259D01*
X69915320Y-53518491D01*
X69909422Y-53552915D01*
X69900369Y-53582416D01*
X69887854Y-53609482D01*
X69872542Y-53633194D01*
X69853986Y-53654652D01*
X69842053Y-53665785D01*
G37*
G36*
X69269303Y-52748408D02*
G01*
X68961679Y-53715000D01*
X68814035Y-53715000D01*
X68505067Y-52748408D01*
X68696432Y-52748408D01*
X68886514Y-53416962D01*
X69077878Y-52748408D01*
X69269303Y-52748408D01*
G37*
G36*
X92235908Y-48358920D02*
G01*
X92011006Y-50533750D01*
X91686086Y-50533750D01*
X90554021Y-48358920D01*
X90975111Y-48358920D01*
X91706145Y-49863165D01*
X91814543Y-48358920D01*
X92235908Y-48358920D01*
G37*
D13*
G36*
X88341291Y-74190073D02*
G01*
X88385593Y-74196605D01*
X88424271Y-74206738D01*
X88459653Y-74220667D01*
X88515081Y-74255547D01*
X88538926Y-74278150D01*
X88558710Y-74303163D01*
X88573856Y-74329494D01*
X88585187Y-74358109D01*
X88596284Y-74422548D01*
X88596620Y-74437034D01*
X88596620Y-74443217D01*
X88415064Y-74443217D01*
X88415064Y-74438614D01*
X88412863Y-74415996D01*
X88406252Y-74396202D01*
X88382778Y-74366280D01*
X88345208Y-74345690D01*
X88295126Y-74338597D01*
X88263100Y-74340798D01*
X88235604Y-74347416D01*
X88215141Y-74356909D01*
X88198156Y-74369851D01*
X88175465Y-74403882D01*
X88164954Y-74452708D01*
X88164402Y-74469320D01*
X88164402Y-74533961D01*
X88338196Y-74533961D01*
X88386505Y-74536180D01*
X88430695Y-74542927D01*
X88466872Y-74552971D01*
X88499608Y-74566877D01*
X88544276Y-74597021D01*
X88566752Y-74619610D01*
X88585157Y-74644564D01*
X88599026Y-74670888D01*
X88609131Y-74699558D01*
X88618075Y-74765270D01*
X88618121Y-74770815D01*
X88615923Y-74811937D01*
X88609329Y-74849789D01*
X88599218Y-74882094D01*
X88585285Y-74911469D01*
X88548879Y-74958485D01*
X88525204Y-74978314D01*
X88498618Y-74994768D01*
X88436542Y-75017407D01*
X88359381Y-75026112D01*
X88353584Y-75026148D01*
X88310686Y-75023953D01*
X88273578Y-75017378D01*
X88244361Y-75007670D01*
X88195760Y-74978331D01*
X88159800Y-74946189D01*
X88159800Y-75016875D01*
X87970618Y-75016875D01*
X87970618Y-74726233D01*
X88164402Y-74726233D01*
X88166626Y-74761260D01*
X88173399Y-74791569D01*
X88182894Y-74813465D01*
X88195910Y-74831490D01*
X88198199Y-74833876D01*
X88233579Y-74856721D01*
X88285835Y-74868326D01*
X88309002Y-74869253D01*
X88341040Y-74867064D01*
X88368109Y-74860534D01*
X88387792Y-74851258D01*
X88403640Y-74838711D01*
X88423019Y-74806499D01*
X88428940Y-74766213D01*
X88426746Y-74741649D01*
X88420178Y-74720646D01*
X88410544Y-74704765D01*
X88397402Y-74691735D01*
X88360590Y-74674145D01*
X88305910Y-74667775D01*
X88164402Y-74667775D01*
X88164402Y-74726233D01*
X87970618Y-74726233D01*
X87970618Y-74478594D01*
X87972805Y-74435012D01*
X87979315Y-74394898D01*
X87989390Y-74360143D01*
X88003211Y-74328498D01*
X88020072Y-74300869D01*
X88040319Y-74276152D01*
X88055180Y-74261729D01*
X88110205Y-74224616D01*
X88178829Y-74200072D01*
X88265287Y-74188513D01*
X88293614Y-74187884D01*
X88341291Y-74190073D01*
G37*
G36*
X87794695Y-74198669D02*
G01*
X87794695Y-75016875D01*
X87600911Y-75016875D01*
X87600911Y-74198669D01*
X87794695Y-74198669D01*
G37*
G36*
X87797786Y-73929460D02*
G01*
X87797786Y-74086355D01*
X87599331Y-74086355D01*
X87599331Y-73929460D01*
X87797786Y-73929460D01*
G37*
G36*
X87153173Y-73914759D02*
G01*
X87196734Y-73921352D01*
X87234050Y-73931459D01*
X87268204Y-73945385D01*
X87297941Y-73962280D01*
X87324836Y-73982669D01*
X87347364Y-74004816D01*
X87386217Y-74061061D01*
X87413520Y-74132098D01*
X87428388Y-74221218D01*
X87430483Y-74275536D01*
X87430483Y-74660081D01*
X87428298Y-74718344D01*
X87421794Y-74771551D01*
X87411860Y-74816855D01*
X87398274Y-74857865D01*
X87382080Y-74892837D01*
X87362716Y-74924067D01*
X87350455Y-74940007D01*
X87328524Y-74963022D01*
X87303611Y-74982766D01*
X87244624Y-75012602D01*
X87170462Y-75029931D01*
X87105907Y-75033842D01*
X87056733Y-75031638D01*
X87011731Y-75025005D01*
X86974086Y-75014984D01*
X86939961Y-75001176D01*
X86911076Y-74984706D01*
X86885307Y-74964841D01*
X86861359Y-74940007D01*
X86823377Y-74880261D01*
X86796879Y-74804664D01*
X86782945Y-74709394D01*
X86781400Y-74660081D01*
X86781400Y-74304800D01*
X86987480Y-74304800D01*
X86987480Y-74641603D01*
X86989722Y-74707294D01*
X86996628Y-74759465D01*
X87012072Y-74806192D01*
X87023561Y-74823293D01*
X87038252Y-74836825D01*
X87075287Y-74852471D01*
X87105907Y-74855377D01*
X87131961Y-74853192D01*
X87154423Y-74846693D01*
X87171770Y-74837078D01*
X87186132Y-74824007D01*
X87198231Y-74806192D01*
X87214239Y-74756637D01*
X87222491Y-74668685D01*
X87222823Y-74641603D01*
X87222823Y-74304800D01*
X87220697Y-74244442D01*
X87214604Y-74195542D01*
X87198231Y-74141722D01*
X87187694Y-74125585D01*
X87173770Y-74112631D01*
X87137076Y-74097049D01*
X87105907Y-74094049D01*
X87079065Y-74096220D01*
X87056151Y-74102623D01*
X87038481Y-74112097D01*
X87023976Y-74124878D01*
X87012072Y-74141722D01*
X86996383Y-74188487D01*
X86987916Y-74273983D01*
X86987480Y-74304800D01*
X86781400Y-74304800D01*
X86781400Y-74275536D01*
X86783585Y-74219423D01*
X86790086Y-74168108D01*
X86800042Y-74124247D01*
X86813663Y-74084478D01*
X86829967Y-74050378D01*
X86849472Y-74019868D01*
X86861359Y-74004816D01*
X86883553Y-73982108D01*
X86908795Y-73962601D01*
X86968726Y-73933088D01*
X87044090Y-73916116D01*
X87105907Y-73912561D01*
X87153173Y-73914759D01*
G37*
G36*
X86547911Y-74961508D02*
G01*
X86492110Y-74998242D01*
X86423178Y-75022274D01*
X86336711Y-75033329D01*
X86311057Y-75033842D01*
X86266860Y-75031621D01*
X86224592Y-75024865D01*
X86187057Y-75014330D01*
X86151642Y-74999600D01*
X86143377Y-74995373D01*
X86111364Y-74975831D01*
X86083013Y-74953145D01*
X86038214Y-74900204D01*
X86029552Y-74886151D01*
X86013625Y-74854332D01*
X86001539Y-74820291D01*
X85988838Y-74744557D01*
X85988061Y-74718539D01*
X85988061Y-74689276D01*
X85990259Y-74646124D01*
X85996854Y-74606539D01*
X86006996Y-74572523D01*
X86020981Y-74541179D01*
X86024949Y-74533961D01*
X86043042Y-74506754D01*
X86064463Y-74482870D01*
X86088052Y-74463307D01*
X86114846Y-74446936D01*
X86132660Y-74438614D01*
X86105001Y-74421833D01*
X86080831Y-74402216D01*
X86041724Y-74354226D01*
X86038825Y-74349382D01*
X86023643Y-74318938D01*
X86012736Y-74286349D01*
X86004960Y-74223261D01*
X86004960Y-74200180D01*
X86007139Y-74159947D01*
X86013602Y-74122446D01*
X86023847Y-74088675D01*
X86037907Y-74057407D01*
X86076846Y-74002487D01*
X86088010Y-73991009D01*
X86141223Y-73951575D01*
X86206098Y-73925586D01*
X86285122Y-73913315D01*
X86312568Y-73912561D01*
X86359530Y-73914752D01*
X86403082Y-73921295D01*
X86441080Y-73931440D01*
X86475959Y-73945398D01*
X86506504Y-73962364D01*
X86534110Y-73982782D01*
X86541729Y-73989497D01*
X86564139Y-74012960D01*
X86583033Y-74039105D01*
X86610344Y-74099402D01*
X86623717Y-74172268D01*
X86624848Y-74203271D01*
X86624848Y-74229375D01*
X86435667Y-74229375D01*
X86435667Y-74203271D01*
X86433496Y-74176910D01*
X86427098Y-74153376D01*
X86404892Y-74118641D01*
X86388638Y-74105542D01*
X86369423Y-74095971D01*
X86322255Y-74087945D01*
X86320262Y-74087935D01*
X86293832Y-74090163D01*
X86270263Y-74096964D01*
X86252043Y-74106944D01*
X86236544Y-74120771D01*
X86235700Y-74121732D01*
X86222589Y-74140279D01*
X86212995Y-74161782D01*
X86204933Y-74213796D01*
X86204926Y-74215567D01*
X86204926Y-74238648D01*
X86207080Y-74267397D01*
X86213367Y-74292861D01*
X86223084Y-74314268D01*
X86236156Y-74332594D01*
X86238792Y-74335506D01*
X86254313Y-74348959D01*
X86272517Y-74358944D01*
X86318422Y-74368993D01*
X86331047Y-74369371D01*
X86384902Y-74369371D01*
X86384902Y-74544745D01*
X86329535Y-74544745D01*
X86297884Y-74546944D01*
X86270365Y-74553538D01*
X86248892Y-74563244D01*
X86230366Y-74576519D01*
X86224916Y-74581634D01*
X86200869Y-74618001D01*
X86188975Y-74668767D01*
X86188027Y-74690856D01*
X86188027Y-74718539D01*
X86190255Y-74750693D01*
X86197056Y-74779359D01*
X86206911Y-74801344D01*
X86220530Y-74820174D01*
X86221824Y-74821579D01*
X86239606Y-74837271D01*
X86260000Y-74849066D01*
X86281829Y-74856440D01*
X86306023Y-74859836D01*
X86314148Y-74860048D01*
X86346628Y-74857817D01*
X86374220Y-74850999D01*
X86407914Y-74830784D01*
X86421465Y-74815188D01*
X86431362Y-74796735D01*
X86440162Y-74751182D01*
X86440269Y-74744643D01*
X86440269Y-74720051D01*
X86632542Y-74720051D01*
X86632542Y-74753917D01*
X86630338Y-74795802D01*
X86623702Y-74834529D01*
X86613517Y-74867719D01*
X86599438Y-74898167D01*
X86582212Y-74924844D01*
X86561336Y-74948984D01*
X86547911Y-74961508D01*
G37*
G36*
X85849713Y-74793896D02*
G01*
X85849713Y-75016875D01*
X85631337Y-75016875D01*
X85631337Y-74793896D01*
X85849713Y-74793896D01*
G37*
G36*
X85412342Y-74943098D02*
G01*
X85384603Y-74965708D01*
X85354209Y-74984733D01*
X85285635Y-75011920D01*
X85203430Y-75025083D01*
X85169306Y-75026148D01*
X85120273Y-75023950D01*
X85075076Y-75017358D01*
X85036358Y-75007257D01*
X85000902Y-74993340D01*
X84970058Y-74976491D01*
X84942125Y-74956167D01*
X84932451Y-74947700D01*
X84908715Y-74922889D01*
X84888928Y-74895671D01*
X84861633Y-74835480D01*
X84848832Y-74763689D01*
X84847890Y-74735438D01*
X84847890Y-74724653D01*
X85033980Y-74724653D01*
X85033980Y-74733927D01*
X85036156Y-74760199D01*
X85042597Y-74783042D01*
X85065827Y-74818147D01*
X85069357Y-74821579D01*
X85106643Y-74844290D01*
X85157081Y-74853685D01*
X85166214Y-74853865D01*
X85195577Y-74851685D01*
X85221877Y-74845214D01*
X85243667Y-74835335D01*
X85262572Y-74821860D01*
X85270834Y-74813886D01*
X85293018Y-74777508D01*
X85305812Y-74720955D01*
X85307723Y-74681582D01*
X85307723Y-74533961D01*
X85305527Y-74494185D01*
X85298953Y-74459551D01*
X85289455Y-74433127D01*
X85276527Y-74410812D01*
X85261610Y-74393928D01*
X85243809Y-74380564D01*
X85200254Y-74364596D01*
X85166214Y-74361678D01*
X85137475Y-74363832D01*
X85112027Y-74370119D01*
X85090617Y-74379840D01*
X85072264Y-74392919D01*
X85069357Y-74395544D01*
X85055287Y-74411652D01*
X85044679Y-74430533D01*
X85034252Y-74476522D01*
X85033980Y-74486287D01*
X85033980Y-74495492D01*
X84847890Y-74495492D01*
X84847890Y-74480105D01*
X84850094Y-74437296D01*
X84856734Y-74397499D01*
X84866956Y-74363176D01*
X84881099Y-74331602D01*
X84898311Y-74304054D01*
X84919163Y-74279131D01*
X84932451Y-74266331D01*
X84959948Y-74244757D01*
X84990480Y-74226494D01*
X85060434Y-74200374D01*
X85144654Y-74188446D01*
X85169306Y-74187884D01*
X85216557Y-74190070D01*
X85260413Y-74196580D01*
X85299141Y-74206752D01*
X85334907Y-74220729D01*
X85367018Y-74237981D01*
X85396421Y-74258741D01*
X85412342Y-74272445D01*
X85452883Y-74321819D01*
X85481526Y-74384824D01*
X85498120Y-74465018D01*
X85501575Y-74530869D01*
X85501575Y-74683162D01*
X85499371Y-74736431D01*
X85492737Y-74785246D01*
X85482734Y-74826014D01*
X85468955Y-74862917D01*
X85452715Y-74893736D01*
X85433159Y-74921110D01*
X85412342Y-74943098D01*
G37*
G36*
X84421912Y-74190070D02*
G01*
X84465768Y-74196580D01*
X84504497Y-74206752D01*
X84540263Y-74220729D01*
X84572374Y-74237981D01*
X84601776Y-74258741D01*
X84617698Y-74272445D01*
X84658239Y-74321819D01*
X84686882Y-74384824D01*
X84703476Y-74465018D01*
X84706931Y-74530869D01*
X84706931Y-74683162D01*
X84704727Y-74736431D01*
X84698093Y-74785246D01*
X84688090Y-74826014D01*
X84674311Y-74862917D01*
X84658071Y-74893736D01*
X84638515Y-74921110D01*
X84617698Y-74943098D01*
X84589959Y-74965708D01*
X84559565Y-74984733D01*
X84490991Y-75011920D01*
X84408786Y-75025083D01*
X84374661Y-75026148D01*
X84326714Y-75023950D01*
X84282028Y-75017355D01*
X84243066Y-75007148D01*
X84207117Y-74993056D01*
X84175655Y-74975972D01*
X84147054Y-74955344D01*
X84133205Y-74943098D01*
X84093640Y-74893573D01*
X84065271Y-74829451D01*
X84048820Y-74747591D01*
X84045552Y-74683162D01*
X84045552Y-74533961D01*
X84239336Y-74533961D01*
X84239336Y-74681582D01*
X84241537Y-74722623D01*
X84248155Y-74758165D01*
X84257601Y-74784761D01*
X84270468Y-74807077D01*
X84285166Y-74823648D01*
X84302720Y-74836631D01*
X84345525Y-74851607D01*
X84374661Y-74853865D01*
X84403932Y-74851671D01*
X84429727Y-74845107D01*
X84450252Y-74835315D01*
X84467878Y-74821918D01*
X84493983Y-74785367D01*
X84509508Y-74732146D01*
X84513078Y-74681582D01*
X84513078Y-74533961D01*
X84510880Y-74493553D01*
X84504284Y-74458464D01*
X84494811Y-74431953D01*
X84481913Y-74409635D01*
X84467106Y-74392907D01*
X84449427Y-74379732D01*
X84406243Y-74364257D01*
X84374661Y-74361678D01*
X84345917Y-74363872D01*
X84320631Y-74370436D01*
X84300548Y-74380227D01*
X84283329Y-74393621D01*
X84257808Y-74430332D01*
X84242677Y-74484192D01*
X84239336Y-74533961D01*
X84045552Y-74533961D01*
X84045552Y-74530869D01*
X84047750Y-74477620D01*
X84054347Y-74429004D01*
X84064309Y-74388346D01*
X84078002Y-74351615D01*
X84094213Y-74320770D01*
X84113699Y-74293372D01*
X84133205Y-74272445D01*
X84160086Y-74250014D01*
X84189818Y-74230941D01*
X84258055Y-74202971D01*
X84339389Y-74189111D01*
X84374661Y-74187884D01*
X84421912Y-74190070D01*
G37*
G36*
X83890717Y-74198669D02*
G01*
X83890717Y-75016875D01*
X83695353Y-75016875D01*
X83695353Y-74506277D01*
X83693155Y-74474399D01*
X83686561Y-74446377D01*
X83676835Y-74424398D01*
X83663528Y-74405559D01*
X83658465Y-74400146D01*
X83639036Y-74383896D01*
X83617194Y-74371877D01*
X83594763Y-74364784D01*
X83570049Y-74361771D01*
X83564630Y-74361678D01*
X83537844Y-74363876D01*
X83513822Y-74370471D01*
X83493970Y-74380536D01*
X83476484Y-74394396D01*
X83472375Y-74398566D01*
X83458747Y-74416378D01*
X83448334Y-74437391D01*
X83437490Y-74490210D01*
X83436998Y-74506277D01*
X83436998Y-75016875D01*
X83241634Y-75016875D01*
X83241634Y-74501675D01*
X83239458Y-74472616D01*
X83233017Y-74446314D01*
X83222987Y-74423739D01*
X83209291Y-74403697D01*
X83206257Y-74400146D01*
X83190233Y-74385268D01*
X83171782Y-74374091D01*
X83127205Y-74362401D01*
X83110911Y-74361678D01*
X83084116Y-74363876D01*
X83060077Y-74370471D01*
X83040228Y-74380531D01*
X83022767Y-74394383D01*
X83018656Y-74398566D01*
X83005027Y-74416378D01*
X82994615Y-74437391D01*
X82983771Y-74490210D01*
X82983279Y-74506277D01*
X82983279Y-75016875D01*
X82787915Y-75016875D01*
X82787915Y-74483196D01*
X82790113Y-74437865D01*
X82796710Y-74395881D01*
X82806867Y-74359674D01*
X82820876Y-74326472D01*
X82837873Y-74297578D01*
X82858393Y-74271494D01*
X82861760Y-74267843D01*
X82886425Y-74244867D01*
X82913752Y-74225666D01*
X82942731Y-74210793D01*
X82974384Y-74199566D01*
X83046705Y-74188287D01*
X83064749Y-74187884D01*
X83103154Y-74190073D01*
X83139976Y-74196603D01*
X83174573Y-74207198D01*
X83207534Y-74221882D01*
X83268582Y-74263513D01*
X83297001Y-74290924D01*
X83318348Y-74264438D01*
X83342353Y-74241792D01*
X83368161Y-74223523D01*
X83396380Y-74208970D01*
X83459912Y-74191187D01*
X83506172Y-74187884D01*
X83539936Y-74190082D01*
X83572797Y-74196676D01*
X83612303Y-74210965D01*
X83645779Y-74228649D01*
X83675935Y-74250014D01*
X83700025Y-74272445D01*
X83700025Y-74198669D01*
X83890717Y-74198669D01*
G37*
D12*
G36*
X91288294Y-68114431D02*
G01*
X91288294Y-67986562D01*
X92184971Y-67986562D01*
X92184971Y-68114431D01*
X91805227Y-68114431D01*
X91805227Y-69315625D01*
X91666191Y-69315625D01*
X91666191Y-68114431D01*
X91288294Y-68114431D01*
G37*
G36*
X91030935Y-68329546D02*
G01*
X91083960Y-68337701D01*
X91128002Y-68349965D01*
X91167920Y-68366898D01*
X91221128Y-68402072D01*
X91249885Y-68429873D01*
X91273430Y-68460464D01*
X91290774Y-68491973D01*
X91303257Y-68526069D01*
X91313230Y-68601306D01*
X91313230Y-68610709D01*
X91185361Y-68610709D01*
X91185361Y-68605084D01*
X91182675Y-68572230D01*
X91174622Y-68542595D01*
X91162258Y-68517833D01*
X91145222Y-68495887D01*
X91129025Y-68480993D01*
X91076037Y-68452109D01*
X91002930Y-68437153D01*
X90971099Y-68435908D01*
X90926747Y-68438574D01*
X90887235Y-68446494D01*
X90854934Y-68458419D01*
X90826781Y-68474656D01*
X90807548Y-68490397D01*
X90788297Y-68512375D01*
X90773049Y-68538036D01*
X90754425Y-68601624D01*
X90751128Y-68650170D01*
X90751128Y-68761079D01*
X91014338Y-68761079D01*
X91069180Y-68763741D01*
X91119363Y-68771632D01*
X91162578Y-68783811D01*
X91201477Y-68800438D01*
X91254963Y-68836306D01*
X91280738Y-68862217D01*
X91302111Y-68891416D01*
X91330967Y-68958336D01*
X91341429Y-69038265D01*
X91341440Y-69041164D01*
X91338753Y-69089115D01*
X91330693Y-69132529D01*
X91318489Y-69168683D01*
X91301709Y-69201193D01*
X91256810Y-69253663D01*
X91193859Y-69293907D01*
X91114147Y-69318674D01*
X91018116Y-69326959D01*
X90962922Y-69324272D01*
X90912678Y-69316212D01*
X90858259Y-69298749D01*
X90822525Y-69280216D01*
X90789842Y-69256786D01*
X90747350Y-69212272D01*
X90747350Y-69315625D01*
X90619565Y-69315625D01*
X90619565Y-68984828D01*
X90751128Y-68984828D01*
X90753834Y-69033798D01*
X90762028Y-69077294D01*
X90773943Y-69111101D01*
X90790321Y-69140441D01*
X90809395Y-69163408D01*
X90857929Y-69196743D01*
X90926194Y-69216563D01*
X90997378Y-69221675D01*
X91046398Y-69218985D01*
X91088910Y-69210903D01*
X91120987Y-69199306D01*
X91148081Y-69183501D01*
X91168657Y-69165203D01*
X91185048Y-69143309D01*
X91205310Y-69089000D01*
X91209793Y-69039317D01*
X91207106Y-69001083D01*
X91199045Y-68967268D01*
X91187074Y-68940430D01*
X91170674Y-68917282D01*
X91126539Y-68883151D01*
X91063386Y-68862531D01*
X90995531Y-68856959D01*
X90751128Y-68856959D01*
X90751128Y-68984828D01*
X90619565Y-68984828D01*
X90619565Y-68652101D01*
X90622235Y-68600438D01*
X90630176Y-68553222D01*
X90642398Y-68512777D01*
X90659129Y-68476271D01*
X90679468Y-68444775D01*
X90703849Y-68416936D01*
X90711668Y-68409545D01*
X90775325Y-68366456D01*
X90855916Y-68338603D01*
X90958018Y-68327008D01*
X90972946Y-68326845D01*
X91030935Y-68329546D01*
G37*
G36*
X90333099Y-68340027D02*
G01*
X90333099Y-69315625D01*
X90203383Y-69315625D01*
X90203383Y-68697186D01*
X90200725Y-68654142D01*
X90192866Y-68614876D01*
X90180528Y-68580351D01*
X90163673Y-68548840D01*
X90139491Y-68516676D01*
X90115156Y-68493067D01*
X90088165Y-68474415D01*
X90027438Y-68451887D01*
X89977870Y-68447158D01*
X89896873Y-68456966D01*
X89878212Y-68462187D01*
X89878212Y-68332471D01*
X89947729Y-68326845D01*
X89992961Y-68329576D01*
X90036121Y-68337939D01*
X90098183Y-68362528D01*
X90132139Y-68384156D01*
X90162119Y-68410377D01*
X90205314Y-68469743D01*
X90205314Y-68340027D01*
X90333099Y-68340027D01*
G37*
G36*
X89432424Y-68323908D02*
G01*
X89476872Y-68331973D01*
X89516237Y-68344609D01*
X89552893Y-68362098D01*
X89617329Y-68410752D01*
X89623650Y-68417101D01*
X89667794Y-68478063D01*
X89699015Y-68558833D01*
X89715705Y-68663959D01*
X89717599Y-68719771D01*
X89717599Y-68853181D01*
X89714922Y-68919999D01*
X89706928Y-68980715D01*
X89694872Y-69031274D01*
X89678373Y-69076450D01*
X89659110Y-69113513D01*
X89636090Y-69145789D01*
X89623650Y-69159630D01*
X89592289Y-69188067D01*
X89558281Y-69211518D01*
X89484274Y-69242920D01*
X89399209Y-69255326D01*
X89386719Y-69255510D01*
X89336779Y-69252780D01*
X89291473Y-69244417D01*
X89228793Y-69219828D01*
X89197883Y-69199988D01*
X89170636Y-69176183D01*
X89125140Y-69115352D01*
X89123593Y-69112613D01*
X89123593Y-69249885D01*
X89126277Y-69302181D01*
X89134320Y-69348468D01*
X89146134Y-69385011D01*
X89162269Y-69416703D01*
X89181129Y-69441815D01*
X89203704Y-69462753D01*
X89258875Y-69491776D01*
X89331620Y-69504961D01*
X89352884Y-69505539D01*
X89398748Y-69502853D01*
X89439445Y-69494804D01*
X89472137Y-69482835D01*
X89500880Y-69466444D01*
X89501406Y-69466078D01*
X89529061Y-69443218D01*
X89550185Y-69417198D01*
X89562060Y-69393274D01*
X89568822Y-69366433D01*
X89569077Y-69364572D01*
X89698792Y-69364572D01*
X89693289Y-69404168D01*
X89682700Y-69440523D01*
X89667737Y-69472657D01*
X89648159Y-69502098D01*
X89599134Y-69550624D01*
X89532604Y-69589132D01*
X89447988Y-69612858D01*
X89352884Y-69620226D01*
X89298993Y-69617539D01*
X89249239Y-69609479D01*
X89206397Y-69597075D01*
X89167090Y-69579968D01*
X89132509Y-69559027D01*
X89101139Y-69533717D01*
X89085980Y-69518720D01*
X89038841Y-69453280D01*
X89007753Y-69373186D01*
X88992919Y-69274552D01*
X88991946Y-69238551D01*
X88991946Y-68738578D01*
X89123593Y-68738578D01*
X89123593Y-68843778D01*
X89126280Y-68895828D01*
X89134346Y-68943868D01*
X89146719Y-68984973D01*
X89163779Y-69022421D01*
X89185638Y-69056277D01*
X89207927Y-69081230D01*
X89233426Y-69101514D01*
X89292597Y-69127856D01*
X89367912Y-69137045D01*
X89407033Y-69134360D01*
X89442308Y-69126311D01*
X89471494Y-69114100D01*
X89497358Y-69097316D01*
X89538180Y-69051460D01*
X89566935Y-68985788D01*
X89582432Y-68894217D01*
X89584105Y-68845709D01*
X89584105Y-68729175D01*
X89581421Y-68669172D01*
X89573377Y-68616045D01*
X89561613Y-68574253D01*
X89545558Y-68538015D01*
X89527119Y-68509731D01*
X89505102Y-68486113D01*
X89452991Y-68453932D01*
X89386676Y-68438835D01*
X89360440Y-68437755D01*
X89320174Y-68440430D01*
X89283793Y-68448414D01*
X89253204Y-68460636D01*
X89225906Y-68477397D01*
X89183707Y-68520454D01*
X89147747Y-68588567D01*
X89127388Y-68674487D01*
X89123593Y-68738578D01*
X88991946Y-68738578D01*
X88991946Y-68332471D01*
X89123593Y-68332471D01*
X89123593Y-68467812D01*
X89146117Y-68432223D01*
X89171905Y-68401707D01*
X89199765Y-68377065D01*
X89230566Y-68356996D01*
X89300979Y-68330298D01*
X89384872Y-68321220D01*
X89432424Y-68323908D01*
G37*
G36*
X88417362Y-68329549D02*
G01*
X88467767Y-68337731D01*
X88511372Y-68350324D01*
X88551848Y-68367813D01*
X88587580Y-68389188D01*
X88620375Y-68415188D01*
X88632268Y-68426504D01*
X88679981Y-68489414D01*
X88713946Y-68570521D01*
X88732768Y-68672989D01*
X88735621Y-68738578D01*
X88735621Y-68907754D01*
X88732949Y-68972933D01*
X88724992Y-69032657D01*
X88712820Y-69083577D01*
X88696160Y-69129549D01*
X88676420Y-69168268D01*
X88652820Y-69202461D01*
X88632268Y-69225453D01*
X88600324Y-69253591D01*
X88565302Y-69277172D01*
X88486911Y-69310364D01*
X88393824Y-69325913D01*
X88359655Y-69326959D01*
X88302532Y-69324283D01*
X88249771Y-69316300D01*
X88204054Y-69303963D01*
X88162322Y-69287017D01*
X88096445Y-69244260D01*
X88068721Y-69217068D01*
X88045715Y-69186962D01*
X88014066Y-69119198D01*
X88000886Y-69039806D01*
X88000564Y-69024289D01*
X88000564Y-69014885D01*
X88128433Y-69014885D01*
X88128433Y-69020510D01*
X88131139Y-69057028D01*
X88139333Y-69090211D01*
X88151725Y-69117527D01*
X88168889Y-69141863D01*
X88186700Y-69159630D01*
X88240942Y-69191986D01*
X88311892Y-69208552D01*
X88350251Y-69210425D01*
X88395391Y-69207739D01*
X88436515Y-69199683D01*
X88471093Y-69187405D01*
X88502212Y-69170507D01*
X88536387Y-69142754D01*
X88571896Y-69091790D01*
X88595027Y-69019010D01*
X88604058Y-68911532D01*
X88604058Y-68853181D01*
X87993092Y-68853181D01*
X87993092Y-68738578D01*
X87993791Y-68721618D01*
X88124655Y-68721618D01*
X88124655Y-68755454D01*
X88604058Y-68755454D01*
X88604058Y-68734800D01*
X88601386Y-68674596D01*
X88593433Y-68621988D01*
X88581882Y-68581268D01*
X88566223Y-68546664D01*
X88538234Y-68509203D01*
X88512914Y-68487670D01*
X88484557Y-68470628D01*
X88418296Y-68449657D01*
X88363433Y-68445311D01*
X88318835Y-68447998D01*
X88278825Y-68456064D01*
X88245806Y-68468237D01*
X88216176Y-68484969D01*
X88188547Y-68507356D01*
X88154833Y-68554371D01*
X88132824Y-68623425D01*
X88124655Y-68721618D01*
X87993791Y-68721618D01*
X87995779Y-68673381D01*
X88003839Y-68613655D01*
X88016041Y-68563487D01*
X88032816Y-68518137D01*
X88052604Y-68480217D01*
X88076377Y-68446624D01*
X88094598Y-68426504D01*
X88125995Y-68398889D01*
X88160300Y-68375856D01*
X88237720Y-68343187D01*
X88329870Y-68327865D01*
X88363433Y-68326845D01*
X88417362Y-68329549D01*
G37*
G36*
X87531572Y-68443380D02*
G01*
X87311601Y-68443380D01*
X87311601Y-68340027D01*
X87531572Y-68340027D01*
X87531572Y-68054232D01*
X87663135Y-68116278D01*
X87663135Y-68340027D01*
X87815436Y-68340027D01*
X87815436Y-68443380D01*
X87663135Y-68443380D01*
X87663135Y-69073152D01*
X87660448Y-69118164D01*
X87652382Y-69159149D01*
X87640137Y-69193377D01*
X87623286Y-69224005D01*
X87601090Y-69251732D01*
X87577238Y-69272821D01*
X87550116Y-69289621D01*
X87485215Y-69310773D01*
X87426288Y-69315625D01*
X87328561Y-69315625D01*
X87328561Y-69201021D01*
X87405635Y-69201021D01*
X87438211Y-69198340D01*
X87466029Y-69190319D01*
X87486770Y-69178693D01*
X87503633Y-69162871D01*
X87525156Y-69120181D01*
X87531572Y-69067527D01*
X87531572Y-68443380D01*
G37*
G36*
X86665792Y-68340027D02*
G01*
X86665792Y-69315625D01*
X86536077Y-69315625D01*
X86536077Y-68693408D01*
X86533419Y-68648204D01*
X86525559Y-68607122D01*
X86513422Y-68571972D01*
X86496887Y-68540711D01*
X86472184Y-68509203D01*
X86447394Y-68487142D01*
X86419706Y-68469820D01*
X86356193Y-68449221D01*
X86306786Y-68445311D01*
X86264340Y-68448015D01*
X86226198Y-68456197D01*
X86195298Y-68468411D01*
X86167752Y-68485273D01*
X86141304Y-68509203D01*
X86121667Y-68534717D01*
X86106130Y-68563778D01*
X86086866Y-68634605D01*
X86083037Y-68693408D01*
X86083037Y-69315625D01*
X85949627Y-69315625D01*
X85949627Y-68687783D01*
X85946901Y-68640713D01*
X85938566Y-68598070D01*
X85926306Y-68564078D01*
X85909295Y-68533724D01*
X85889428Y-68509203D01*
X85865042Y-68487603D01*
X85837610Y-68470525D01*
X85773443Y-68449623D01*
X85720252Y-68445311D01*
X85678014Y-68448015D01*
X85640364Y-68456197D01*
X85610073Y-68468370D01*
X85583047Y-68485166D01*
X85556701Y-68509203D01*
X85537065Y-68534717D01*
X85521527Y-68563778D01*
X85502263Y-68634605D01*
X85498434Y-68693408D01*
X85498434Y-69315625D01*
X85366787Y-69315625D01*
X85366787Y-68674602D01*
X85369484Y-68618515D01*
X85377617Y-68566842D01*
X85389957Y-68523304D01*
X85407002Y-68483712D01*
X85427359Y-68450180D01*
X85451959Y-68420306D01*
X85453264Y-68418948D01*
X85482143Y-68393056D01*
X85514286Y-68371524D01*
X85588093Y-68341639D01*
X85678087Y-68328995D01*
X85695820Y-68328693D01*
X85745449Y-68331379D01*
X85791718Y-68339436D01*
X85832350Y-68351991D01*
X85869941Y-68369343D01*
X85903584Y-68390831D01*
X85934315Y-68416857D01*
X85987304Y-68483051D01*
X85992865Y-68492244D01*
X86015097Y-68453822D01*
X86041276Y-68420100D01*
X86069019Y-68393384D01*
X86100425Y-68370941D01*
X86101843Y-68370084D01*
X86169783Y-68341512D01*
X86254849Y-68329034D01*
X86272951Y-68328693D01*
X86319498Y-68331376D01*
X86363790Y-68339409D01*
X86427098Y-68362528D01*
X86465466Y-68384930D01*
X86499520Y-68412251D01*
X86538008Y-68458408D01*
X86538008Y-68340027D01*
X86665792Y-68340027D01*
G37*
G36*
X84990989Y-69231078D02*
G01*
X84963005Y-69256894D01*
X84931411Y-69278672D01*
X84856943Y-69310199D01*
X84763399Y-69325712D01*
X84724085Y-69326959D01*
X84666217Y-69324273D01*
X84613397Y-69316215D01*
X84569118Y-69304011D01*
X84529141Y-69287233D01*
X84495324Y-69267181D01*
X84465348Y-69243049D01*
X84453319Y-69231078D01*
X84428340Y-69200603D01*
X84407404Y-69166546D01*
X84377435Y-69086641D01*
X84363749Y-68986942D01*
X84363147Y-68958465D01*
X84363147Y-68340027D01*
X84494710Y-68340027D01*
X84494710Y-68939658D01*
X84497358Y-68996733D01*
X84505143Y-69047105D01*
X84516725Y-69087567D01*
X84532321Y-69121915D01*
X84547352Y-69144601D01*
X84589543Y-69181007D01*
X84649536Y-69203393D01*
X84722154Y-69210425D01*
X84768652Y-69207739D01*
X84809341Y-69199683D01*
X84840749Y-69187965D01*
X84867537Y-69171976D01*
X84897039Y-69142754D01*
X84928484Y-69082594D01*
X84946629Y-68998741D01*
X84949597Y-68939658D01*
X84949597Y-68340027D01*
X85079313Y-68340027D01*
X85079313Y-68958465D01*
X85076604Y-69019198D01*
X85068387Y-69074604D01*
X85056133Y-69120081D01*
X85039186Y-69161319D01*
X85019020Y-69196063D01*
X84994589Y-69227183D01*
X84990989Y-69231078D01*
G37*
G36*
X84034534Y-69249885D02*
G01*
X83964223Y-69291950D01*
X83877678Y-69318153D01*
X83776949Y-69326959D01*
X83715552Y-69324259D01*
X83658869Y-69316104D01*
X83611147Y-69303757D01*
X83567637Y-69286690D01*
X83510045Y-69251732D01*
X83481276Y-69226171D01*
X83457331Y-69197513D01*
X83438827Y-69166897D01*
X83424903Y-69133396D01*
X83410917Y-69057129D01*
X83410386Y-69037470D01*
X83413072Y-68993649D01*
X83421128Y-68954210D01*
X83433283Y-68921708D01*
X83449980Y-68892769D01*
X83478057Y-68860737D01*
X83537151Y-68820905D01*
X83626577Y-68787373D01*
X83690472Y-68772413D01*
X83818341Y-68749828D01*
X83867979Y-68739073D01*
X83909255Y-68724085D01*
X83948056Y-68699033D01*
X83965277Y-68679294D01*
X83977599Y-68656404D01*
X83987495Y-68602467D01*
X83987517Y-68599459D01*
X83984830Y-68567805D01*
X83976770Y-68539269D01*
X83947134Y-68493706D01*
X83931097Y-68479146D01*
X83878223Y-68450258D01*
X83804868Y-68435295D01*
X83771324Y-68433977D01*
X83723088Y-68436664D01*
X83680210Y-68444733D01*
X83646118Y-68456643D01*
X83616414Y-68472950D01*
X83607773Y-68479146D01*
X83585477Y-68499511D01*
X83568627Y-68522513D01*
X83551265Y-68573669D01*
X83549506Y-68599459D01*
X83549506Y-68605084D01*
X83421637Y-68605084D01*
X83421637Y-68593750D01*
X83424323Y-68555252D01*
X83432380Y-68519063D01*
X83445152Y-68486625D01*
X83462859Y-68456505D01*
X83512768Y-68403851D01*
X83517517Y-68400141D01*
X83587927Y-68359836D01*
X83675622Y-68334868D01*
X83775102Y-68326845D01*
X83830629Y-68329546D01*
X83882521Y-68337701D01*
X83927117Y-68350206D01*
X83968072Y-68367536D01*
X84021352Y-68402072D01*
X84049896Y-68428879D01*
X84073364Y-68458520D01*
X84091054Y-68489619D01*
X84103976Y-68523325D01*
X84115323Y-68598636D01*
X84115386Y-68605084D01*
X84112714Y-68647960D01*
X84104761Y-68686741D01*
X84092629Y-68719205D01*
X84076036Y-68747923D01*
X84049562Y-68778038D01*
X83990581Y-68817309D01*
X83901276Y-68849569D01*
X83840925Y-68862585D01*
X83720613Y-68885169D01*
X83663983Y-68897863D01*
X83618374Y-68914117D01*
X83581494Y-68935964D01*
X83551476Y-68973711D01*
X83537060Y-69027696D01*
X83536324Y-69044942D01*
X83538981Y-69075982D01*
X83546832Y-69103960D01*
X83576069Y-69149724D01*
X83600300Y-69170880D01*
X83659156Y-69200438D01*
X83738075Y-69214940D01*
X83771324Y-69216050D01*
X83820960Y-69213335D01*
X83865216Y-69205078D01*
X83899781Y-69193061D01*
X83930149Y-69176484D01*
X83940500Y-69169033D01*
X83963963Y-69147468D01*
X83981875Y-69123183D01*
X83993509Y-69098090D01*
X84000396Y-69070298D01*
X84002546Y-69041164D01*
X84002546Y-69033692D01*
X84130414Y-69033692D01*
X84130414Y-69043095D01*
X84127728Y-69085071D01*
X84119671Y-69124149D01*
X84107066Y-69158493D01*
X84089633Y-69190142D01*
X84041167Y-69244448D01*
X84034534Y-69249885D01*
G37*
G36*
X82983038Y-68443380D02*
G01*
X82763066Y-68443380D01*
X82763066Y-68340027D01*
X82983038Y-68340027D01*
X82983038Y-68054232D01*
X83114601Y-68116278D01*
X83114601Y-68340027D01*
X83266901Y-68340027D01*
X83266901Y-68443380D01*
X83114601Y-68443380D01*
X83114601Y-69073152D01*
X83111913Y-69118164D01*
X83103848Y-69159149D01*
X83091602Y-69193377D01*
X83074752Y-69224005D01*
X83052555Y-69251732D01*
X83028704Y-69272821D01*
X83001581Y-69289621D01*
X82936680Y-69310773D01*
X82877754Y-69315625D01*
X82780026Y-69315625D01*
X82780026Y-69201021D01*
X82857100Y-69201021D01*
X82889676Y-69198340D01*
X82917495Y-69190319D01*
X82938235Y-69178693D01*
X82955098Y-69162871D01*
X82976622Y-69120181D01*
X82983038Y-69067527D01*
X82983038Y-68443380D01*
G37*
G36*
X81774826Y-68331345D02*
G01*
X81815265Y-68339166D01*
X81882342Y-68366306D01*
X81939772Y-68410998D01*
X81986048Y-68474468D01*
X81987542Y-68477215D01*
X81987542Y-68340027D01*
X82117258Y-68340027D01*
X82117258Y-69608891D01*
X81987542Y-69608891D01*
X81987542Y-69185993D01*
X81964535Y-69220306D01*
X81938084Y-69249844D01*
X81909449Y-69273707D01*
X81877638Y-69293166D01*
X81804473Y-69318871D01*
X81722485Y-69326959D01*
X81675780Y-69324273D01*
X81631922Y-69316215D01*
X81592727Y-69303523D01*
X81556120Y-69285945D01*
X81491481Y-69236952D01*
X81485638Y-69231078D01*
X81442344Y-69171109D01*
X81411917Y-69091314D01*
X81395512Y-68985787D01*
X81393536Y-68926561D01*
X81393536Y-68736647D01*
X81525099Y-68736647D01*
X81525099Y-68919005D01*
X81527783Y-68979660D01*
X81535824Y-69033285D01*
X81547562Y-69075337D01*
X81563574Y-69111723D01*
X81581909Y-69139976D01*
X81603785Y-69163489D01*
X81627970Y-69181509D01*
X81655367Y-69195193D01*
X81720801Y-69209600D01*
X81743223Y-69210425D01*
X81783624Y-69207748D01*
X81820453Y-69199761D01*
X81851862Y-69187442D01*
X81880094Y-69170522D01*
X81923650Y-69127641D01*
X81945441Y-69094465D01*
X81962872Y-69057860D01*
X81983903Y-68975018D01*
X81987542Y-68917158D01*
X81987542Y-68746050D01*
X81984872Y-68691891D01*
X81976929Y-68642244D01*
X81964709Y-68599683D01*
X81947979Y-68561300D01*
X81927428Y-68528010D01*
X81905567Y-68502384D01*
X81880361Y-68481432D01*
X81822323Y-68454473D01*
X81750695Y-68445311D01*
X81709577Y-68447996D01*
X81672592Y-68456045D01*
X81642176Y-68468198D01*
X81615268Y-68484887D01*
X81573122Y-68530092D01*
X81543516Y-68594234D01*
X81527212Y-68683138D01*
X81525099Y-68736647D01*
X81393536Y-68736647D01*
X81393536Y-68727243D01*
X81396213Y-68661385D01*
X81404210Y-68601573D01*
X81416275Y-68551741D01*
X81432790Y-68507153D01*
X81452164Y-68470330D01*
X81475336Y-68438137D01*
X81487569Y-68424573D01*
X81517917Y-68397123D01*
X81551186Y-68374289D01*
X81625813Y-68342561D01*
X81713101Y-68329080D01*
X81731888Y-68328693D01*
X81774826Y-68331345D01*
G37*
G36*
X81136623Y-68340027D02*
G01*
X81136623Y-69315625D01*
X81006907Y-69315625D01*
X81006907Y-68697186D01*
X81004249Y-68654142D01*
X80996390Y-68614876D01*
X80984053Y-68580351D01*
X80967197Y-68548840D01*
X80943015Y-68516676D01*
X80918680Y-68493067D01*
X80891689Y-68474415D01*
X80830962Y-68451887D01*
X80781395Y-68447158D01*
X80700397Y-68456966D01*
X80681736Y-68462187D01*
X80681736Y-68332471D01*
X80751253Y-68326845D01*
X80796485Y-68329576D01*
X80839645Y-68337939D01*
X80901707Y-68362528D01*
X80935663Y-68384156D01*
X80965643Y-68410377D01*
X81008838Y-68469743D01*
X81008838Y-68340027D01*
X81136623Y-68340027D01*
G37*
G36*
X80200683Y-68329532D02*
G01*
X80252156Y-68337589D01*
X80296843Y-68350041D01*
X80338047Y-68367224D01*
X80374563Y-68388300D01*
X80407911Y-68413782D01*
X80417770Y-68422726D01*
X80465445Y-68482587D01*
X80499204Y-68560358D01*
X80518085Y-68659943D01*
X80521123Y-68727243D01*
X80521123Y-68926561D01*
X80518451Y-68989848D01*
X80510494Y-69047471D01*
X80498385Y-69096114D01*
X80481827Y-69139829D01*
X80462169Y-69176585D01*
X80438668Y-69208947D01*
X80417770Y-69231078D01*
X80385315Y-69258020D01*
X80349685Y-69280531D01*
X80269205Y-69312132D01*
X80172771Y-69326319D01*
X80145157Y-69326959D01*
X80091228Y-69324273D01*
X80040823Y-69316215D01*
X79996467Y-69303664D01*
X79955354Y-69286317D01*
X79918758Y-69265008D01*
X79885272Y-69239228D01*
X79876322Y-69231078D01*
X79829484Y-69172075D01*
X79796432Y-69095127D01*
X79777871Y-68995569D01*
X79774816Y-68926561D01*
X79774816Y-68734800D01*
X79906379Y-68734800D01*
X79906379Y-68919005D01*
X79909082Y-68981659D01*
X79917253Y-69036042D01*
X79928790Y-69076371D01*
X79944544Y-69110517D01*
X79970356Y-69144601D01*
X79996394Y-69166827D01*
X80025633Y-69184577D01*
X80092815Y-69206188D01*
X80145157Y-69210425D01*
X80188285Y-69207753D01*
X80227734Y-69199800D01*
X80261563Y-69187510D01*
X80291960Y-69170660D01*
X80323737Y-69144601D01*
X80357957Y-69095128D01*
X80380859Y-69022352D01*
X80389560Y-68919005D01*
X80389560Y-68734800D01*
X80386889Y-68674596D01*
X80378936Y-68621988D01*
X80367385Y-68581268D01*
X80351725Y-68546664D01*
X80323737Y-68509203D01*
X80270840Y-68471335D01*
X80204012Y-68450081D01*
X80145157Y-68445311D01*
X80101325Y-68448015D01*
X80061402Y-68456197D01*
X80028371Y-68468538D01*
X79998598Y-68485611D01*
X79970356Y-68509203D01*
X79937029Y-68557675D01*
X79914901Y-68629446D01*
X79906379Y-68734800D01*
X79774816Y-68734800D01*
X79774816Y-68727243D01*
X79777503Y-68662330D01*
X79785563Y-68603390D01*
X79797662Y-68554641D01*
X79814269Y-68510904D01*
X79833808Y-68474653D01*
X79857264Y-68442755D01*
X79876322Y-68422726D01*
X79908764Y-68395784D01*
X79944302Y-68373273D01*
X80024645Y-68341513D01*
X80119849Y-68327417D01*
X80145157Y-68326845D01*
X80200683Y-68329532D01*
G37*
G36*
X79636369Y-68340027D02*
G01*
X79298016Y-69315625D01*
X79181398Y-69315625D01*
X78844976Y-68340027D01*
X78985942Y-68340027D01*
X79239749Y-69123947D01*
X79493471Y-68340027D01*
X79636369Y-68340027D01*
G37*
G36*
X78670594Y-68340027D02*
G01*
X78670594Y-69315625D01*
X78538948Y-69315625D01*
X78538948Y-68340027D01*
X78670594Y-68340027D01*
G37*
G36*
X78674289Y-67986562D02*
G01*
X78674289Y-68159516D01*
X78535253Y-68159516D01*
X78535253Y-67986562D01*
X78674289Y-67986562D01*
G37*
G36*
X77683746Y-68477215D02*
G01*
X77707924Y-68439950D01*
X77735351Y-68407929D01*
X77764228Y-68382553D01*
X77796044Y-68361895D01*
X77867103Y-68335162D01*
X77945025Y-68326845D01*
X77992517Y-68329532D01*
X78036913Y-68337589D01*
X78076286Y-68350224D01*
X78112950Y-68367706D01*
X78177457Y-68416360D01*
X78183803Y-68422726D01*
X78227432Y-68483078D01*
X78258743Y-68563968D01*
X78275724Y-68669472D01*
X78277753Y-68727243D01*
X78277753Y-68926561D01*
X78275075Y-68992419D01*
X78267082Y-69052231D01*
X78255017Y-69102082D01*
X78238506Y-69146685D01*
X78219134Y-69183525D01*
X78195968Y-69215730D01*
X78183803Y-69229231D01*
X78151813Y-69258301D01*
X78117073Y-69282391D01*
X78080944Y-69300822D01*
X78042259Y-69314432D01*
X77957597Y-69326816D01*
X77946872Y-69326959D01*
X77897109Y-69324233D01*
X77851947Y-69315899D01*
X77788946Y-69291193D01*
X77756429Y-69270487D01*
X77727974Y-69245700D01*
X77683746Y-69185993D01*
X77683746Y-69315625D01*
X77552100Y-69315625D01*
X77552100Y-68746050D01*
X77683746Y-68746050D01*
X77683746Y-68917158D01*
X77686434Y-68969198D01*
X77694499Y-69017217D01*
X77706871Y-69058293D01*
X77723929Y-69095719D01*
X77745792Y-69129573D01*
X77768100Y-69154550D01*
X77793623Y-69174860D01*
X77852826Y-69201233D01*
X77928066Y-69210425D01*
X77967171Y-69207740D01*
X78002433Y-69199692D01*
X78031616Y-69187480D01*
X78057479Y-69170696D01*
X78098306Y-69124835D01*
X78127073Y-69059156D01*
X78142581Y-68967584D01*
X78144259Y-68919005D01*
X78144259Y-68734800D01*
X78141574Y-68675363D01*
X78133530Y-68622679D01*
X78121752Y-68581152D01*
X78105674Y-68545113D01*
X78087189Y-68516946D01*
X78065115Y-68493414D01*
X78012828Y-68461337D01*
X77946286Y-68446345D01*
X77920593Y-68445311D01*
X77880270Y-68447988D01*
X77843843Y-68455981D01*
X77813267Y-68468205D01*
X77785982Y-68484974D01*
X77743861Y-68528010D01*
X77707928Y-68595985D01*
X77687558Y-68681829D01*
X77683746Y-68746050D01*
X77552100Y-68746050D01*
X77552100Y-67986562D01*
X77683746Y-67986562D01*
X77683746Y-68477215D01*
G37*
G36*
X76977515Y-68329549D02*
G01*
X77027920Y-68337731D01*
X77071525Y-68350324D01*
X77112002Y-68367813D01*
X77147734Y-68389188D01*
X77180529Y-68415188D01*
X77192421Y-68426504D01*
X77240134Y-68489414D01*
X77274099Y-68570521D01*
X77292922Y-68672989D01*
X77295774Y-68738578D01*
X77295774Y-68907754D01*
X77293102Y-68972933D01*
X77285145Y-69032657D01*
X77272974Y-69083577D01*
X77256313Y-69129549D01*
X77236574Y-69168268D01*
X77212974Y-69202461D01*
X77192421Y-69225453D01*
X77160478Y-69253591D01*
X77125455Y-69277172D01*
X77047065Y-69310364D01*
X76953978Y-69325913D01*
X76919808Y-69326959D01*
X76862686Y-69324283D01*
X76809925Y-69316300D01*
X76764208Y-69303963D01*
X76722476Y-69287017D01*
X76656598Y-69244260D01*
X76628875Y-69217068D01*
X76605868Y-69186962D01*
X76574219Y-69119198D01*
X76561039Y-69039806D01*
X76560718Y-69024289D01*
X76560718Y-69014885D01*
X76688587Y-69014885D01*
X76688587Y-69020510D01*
X76691292Y-69057028D01*
X76699487Y-69090211D01*
X76711879Y-69117527D01*
X76729042Y-69141863D01*
X76746854Y-69159630D01*
X76801095Y-69191986D01*
X76872045Y-69208552D01*
X76910405Y-69210425D01*
X76955544Y-69207739D01*
X76996668Y-69199683D01*
X77031247Y-69187405D01*
X77062366Y-69170507D01*
X77096541Y-69142754D01*
X77132050Y-69091790D01*
X77155180Y-69019010D01*
X77164211Y-68911532D01*
X77164211Y-68853181D01*
X76553246Y-68853181D01*
X76553246Y-68738578D01*
X76553945Y-68721618D01*
X76684808Y-68721618D01*
X76684808Y-68755454D01*
X77164211Y-68755454D01*
X77164211Y-68734800D01*
X77161540Y-68674596D01*
X77153587Y-68621988D01*
X77142036Y-68581268D01*
X77126376Y-68546664D01*
X77098388Y-68509203D01*
X77073067Y-68487670D01*
X77044710Y-68470628D01*
X76978450Y-68449657D01*
X76923586Y-68445311D01*
X76878988Y-68447998D01*
X76838978Y-68456064D01*
X76805960Y-68468237D01*
X76776330Y-68484969D01*
X76748701Y-68507356D01*
X76714986Y-68554371D01*
X76692977Y-68623425D01*
X76684808Y-68721618D01*
X76553945Y-68721618D01*
X76555932Y-68673381D01*
X76563992Y-68613655D01*
X76576194Y-68563487D01*
X76592970Y-68518137D01*
X76612757Y-68480217D01*
X76636530Y-68446624D01*
X76654751Y-68426504D01*
X76686148Y-68398889D01*
X76720454Y-68375856D01*
X76797873Y-68343187D01*
X76890023Y-68327865D01*
X76923586Y-68326845D01*
X76977515Y-68329549D01*
G37*
G36*
X75855718Y-67986562D02*
G01*
X75855718Y-69315625D01*
X75714752Y-69315625D01*
X75714752Y-67986562D01*
X75855718Y-67986562D01*
G37*
G36*
X75021675Y-67986562D02*
G01*
X75435254Y-69334431D01*
X75318720Y-69334431D01*
X74906988Y-67986562D01*
X75021675Y-67986562D01*
G37*
G36*
X74266478Y-67972367D02*
G01*
X74323223Y-67980388D01*
X74373783Y-67992960D01*
X74420913Y-68010315D01*
X74463228Y-68031636D01*
X74502277Y-68057381D01*
X74542524Y-68091846D01*
X74594347Y-68157517D01*
X74633092Y-68241969D01*
X74658005Y-68349337D01*
X74666615Y-68479146D01*
X74666615Y-68823124D01*
X74663928Y-68897942D01*
X74655870Y-68966443D01*
X74643678Y-69024055D01*
X74626919Y-69076358D01*
X74607131Y-69120463D01*
X74583357Y-69159983D01*
X74542524Y-69208493D01*
X74507028Y-69239430D01*
X74468341Y-69265914D01*
X74382368Y-69305050D01*
X74281985Y-69326630D01*
X74207949Y-69330737D01*
X74148277Y-69328057D01*
X74092090Y-69320040D01*
X74041727Y-69307428D01*
X73994678Y-69290009D01*
X73952324Y-69268585D01*
X73913199Y-69242711D01*
X73873291Y-69208493D01*
X73820229Y-69141507D01*
X73780840Y-69056333D01*
X73755768Y-68949104D01*
X73747353Y-68823124D01*
X73747353Y-68484771D01*
X73888319Y-68484771D01*
X73888319Y-68830680D01*
X73891008Y-68896161D01*
X73899078Y-68955312D01*
X73911106Y-69003639D01*
X73927605Y-69046723D01*
X73946877Y-69081948D01*
X73969994Y-69112677D01*
X73995738Y-69137887D01*
X74025017Y-69158974D01*
X74094258Y-69188797D01*
X74181612Y-69202300D01*
X74206018Y-69202868D01*
X74256668Y-69200208D01*
X74302953Y-69192336D01*
X74343069Y-69180120D01*
X74379305Y-69163450D01*
X74410996Y-69142996D01*
X74439065Y-69118553D01*
X74444796Y-69112613D01*
X74485142Y-69053685D01*
X74513142Y-68973340D01*
X74526772Y-68865786D01*
X74527495Y-68830680D01*
X74527495Y-68484771D01*
X74524796Y-68413324D01*
X74516647Y-68349077D01*
X74504729Y-68298110D01*
X74488367Y-68253288D01*
X74469887Y-68218508D01*
X74447758Y-68188966D01*
X74446643Y-68187726D01*
X74419912Y-68162251D01*
X74389663Y-68140984D01*
X74318937Y-68111268D01*
X74229848Y-68097988D01*
X74206018Y-68097471D01*
X74155287Y-68100157D01*
X74108988Y-68108209D01*
X74070027Y-68120459D01*
X74034863Y-68137309D01*
X74004776Y-68157725D01*
X73978153Y-68182340D01*
X73935339Y-68244037D01*
X73905399Y-68325936D01*
X73889804Y-68433609D01*
X73888319Y-68484771D01*
X73747353Y-68484771D01*
X73747353Y-68479146D01*
X73750040Y-68404216D01*
X73758098Y-68335424D01*
X73770314Y-68277358D01*
X73787113Y-68224590D01*
X73806910Y-68180169D01*
X73830692Y-68140404D01*
X73871444Y-68091846D01*
X73906515Y-68061310D01*
X73944810Y-68035112D01*
X74030860Y-67995825D01*
X74131359Y-67973937D01*
X74206018Y-67969686D01*
X74266478Y-67972367D01*
G37*
G36*
X92173720Y-70650027D02*
G01*
X91835368Y-71625625D01*
X91718750Y-71625625D01*
X91382328Y-70650027D01*
X91523294Y-70650027D01*
X91777101Y-71433947D01*
X92030823Y-70650027D01*
X92173720Y-70650027D01*
G37*
G36*
X90923188Y-70639532D02*
G01*
X90974661Y-70647589D01*
X91019349Y-70660041D01*
X91060552Y-70677224D01*
X91097068Y-70698300D01*
X91130416Y-70723782D01*
X91140276Y-70732726D01*
X91187950Y-70792587D01*
X91221710Y-70870358D01*
X91240590Y-70969943D01*
X91243628Y-71037243D01*
X91243628Y-71236561D01*
X91240956Y-71299848D01*
X91232999Y-71357471D01*
X91220891Y-71406114D01*
X91204332Y-71449829D01*
X91184675Y-71486585D01*
X91161173Y-71518947D01*
X91140276Y-71541078D01*
X91107820Y-71568020D01*
X91072190Y-71590531D01*
X90991710Y-71622132D01*
X90895276Y-71636319D01*
X90867662Y-71636959D01*
X90813734Y-71634273D01*
X90763329Y-71626215D01*
X90718973Y-71613664D01*
X90677859Y-71596317D01*
X90641263Y-71575008D01*
X90607778Y-71549228D01*
X90598827Y-71541078D01*
X90551989Y-71482075D01*
X90518937Y-71405127D01*
X90500377Y-71305569D01*
X90497322Y-71236561D01*
X90497322Y-71044800D01*
X90628884Y-71044800D01*
X90628884Y-71229005D01*
X90631587Y-71291659D01*
X90639758Y-71346042D01*
X90651296Y-71386371D01*
X90667049Y-71420517D01*
X90692861Y-71454601D01*
X90718899Y-71476827D01*
X90748138Y-71494577D01*
X90815320Y-71516188D01*
X90867662Y-71520425D01*
X90910791Y-71517753D01*
X90950240Y-71509800D01*
X90984068Y-71497510D01*
X91014465Y-71480660D01*
X91046242Y-71454601D01*
X91080462Y-71405128D01*
X91103364Y-71332352D01*
X91112066Y-71229005D01*
X91112066Y-71044800D01*
X91109394Y-70984596D01*
X91101441Y-70931988D01*
X91089890Y-70891268D01*
X91074230Y-70856664D01*
X91046242Y-70819203D01*
X90993346Y-70781335D01*
X90926517Y-70760081D01*
X90867662Y-70755311D01*
X90823830Y-70758015D01*
X90783907Y-70766197D01*
X90750876Y-70778538D01*
X90721103Y-70795611D01*
X90692861Y-70819203D01*
X90659534Y-70867675D01*
X90637406Y-70939446D01*
X90628884Y-71044800D01*
X90497322Y-71044800D01*
X90497322Y-71037243D01*
X90500008Y-70972330D01*
X90508068Y-70913390D01*
X90520167Y-70864641D01*
X90536775Y-70820904D01*
X90556313Y-70784653D01*
X90579769Y-70752755D01*
X90598827Y-70732726D01*
X90631270Y-70705784D01*
X90666807Y-70683273D01*
X90747150Y-70651513D01*
X90842354Y-70637417D01*
X90867662Y-70636845D01*
X90923188Y-70639532D01*
G37*
G36*
X90178447Y-71559885D02*
G01*
X90153900Y-71581606D01*
X90125792Y-71599062D01*
X90059474Y-71620711D01*
X89999784Y-71625625D01*
X89907681Y-71625625D01*
X89907681Y-71507243D01*
X89986686Y-71507243D01*
X90018156Y-71504623D01*
X90044817Y-71497032D01*
X90064905Y-71486026D01*
X90080636Y-71471477D01*
X90102730Y-71427521D01*
X90110693Y-71362499D01*
X90110693Y-70296562D01*
X90240409Y-70296562D01*
X90240409Y-71369971D01*
X90237722Y-71419212D01*
X90229662Y-71463443D01*
X90217645Y-71499287D01*
X90201172Y-71530824D01*
X90178447Y-71559885D01*
G37*
G36*
X89511649Y-70753380D02*
G01*
X89291678Y-70753380D01*
X89291678Y-70650027D01*
X89511649Y-70650027D01*
X89511649Y-70364232D01*
X89643212Y-70426278D01*
X89643212Y-70650027D01*
X89795513Y-70650027D01*
X89795513Y-70753380D01*
X89643212Y-70753380D01*
X89643212Y-71383152D01*
X89640525Y-71428164D01*
X89632459Y-71469149D01*
X89620214Y-71503377D01*
X89603363Y-71534005D01*
X89581167Y-71561732D01*
X89557315Y-71582821D01*
X89530193Y-71599621D01*
X89465291Y-71620773D01*
X89406365Y-71625625D01*
X89308637Y-71625625D01*
X89308637Y-71511021D01*
X89385711Y-71511021D01*
X89418287Y-71508340D01*
X89446106Y-71500319D01*
X89466846Y-71488693D01*
X89483710Y-71472871D01*
X89505233Y-71430181D01*
X89511649Y-71377527D01*
X89511649Y-70753380D01*
G37*
G36*
X88806371Y-70639546D02*
G01*
X88859396Y-70647701D01*
X88903439Y-70659965D01*
X88943356Y-70676898D01*
X88996564Y-70712072D01*
X89025321Y-70739873D01*
X89048866Y-70770464D01*
X89066210Y-70801973D01*
X89078693Y-70836069D01*
X89088666Y-70911306D01*
X89088666Y-70920709D01*
X88960797Y-70920709D01*
X88960797Y-70915084D01*
X88958112Y-70882230D01*
X88950058Y-70852595D01*
X88937694Y-70827833D01*
X88920658Y-70805887D01*
X88904461Y-70790993D01*
X88851473Y-70762109D01*
X88778367Y-70747153D01*
X88746535Y-70745908D01*
X88702183Y-70748574D01*
X88662671Y-70756494D01*
X88630370Y-70768419D01*
X88602217Y-70784656D01*
X88582984Y-70800397D01*
X88563733Y-70822375D01*
X88548485Y-70848036D01*
X88529861Y-70911624D01*
X88526564Y-70960170D01*
X88526564Y-71071079D01*
X88789774Y-71071079D01*
X88844616Y-71073741D01*
X88894799Y-71081632D01*
X88938014Y-71093811D01*
X88976914Y-71110438D01*
X89030399Y-71146306D01*
X89056174Y-71172217D01*
X89077547Y-71201416D01*
X89106403Y-71268336D01*
X89116865Y-71348265D01*
X89116876Y-71351164D01*
X89114190Y-71399115D01*
X89106130Y-71442529D01*
X89093925Y-71478683D01*
X89077146Y-71511193D01*
X89032246Y-71563663D01*
X88969295Y-71603907D01*
X88889583Y-71628674D01*
X88793552Y-71636959D01*
X88738358Y-71634272D01*
X88688114Y-71626212D01*
X88633695Y-71608749D01*
X88597961Y-71590216D01*
X88565278Y-71566786D01*
X88522786Y-71522272D01*
X88522786Y-71625625D01*
X88395001Y-71625625D01*
X88395001Y-71294828D01*
X88526564Y-71294828D01*
X88529270Y-71343798D01*
X88537464Y-71387294D01*
X88549379Y-71421101D01*
X88565757Y-71450441D01*
X88584831Y-71473408D01*
X88633365Y-71506743D01*
X88701630Y-71526563D01*
X88772814Y-71531675D01*
X88821834Y-71528985D01*
X88864346Y-71520903D01*
X88896424Y-71509306D01*
X88923517Y-71493501D01*
X88944093Y-71475203D01*
X88960484Y-71453309D01*
X88980746Y-71399000D01*
X88985229Y-71349317D01*
X88982542Y-71311083D01*
X88974481Y-71277268D01*
X88962510Y-71250430D01*
X88946110Y-71227282D01*
X88901975Y-71193151D01*
X88838822Y-71172531D01*
X88770967Y-71166959D01*
X88526564Y-71166959D01*
X88526564Y-71294828D01*
X88395001Y-71294828D01*
X88395001Y-70962101D01*
X88397671Y-70910438D01*
X88405612Y-70863222D01*
X88417834Y-70822777D01*
X88434565Y-70786271D01*
X88454904Y-70754775D01*
X88479286Y-70726936D01*
X88487104Y-70719545D01*
X88550761Y-70676456D01*
X88631352Y-70648603D01*
X88733454Y-70637008D01*
X88748382Y-70636845D01*
X88806371Y-70639546D01*
G37*
G36*
X87855348Y-70633908D02*
G01*
X87899796Y-70641973D01*
X87939161Y-70654609D01*
X87975817Y-70672098D01*
X88040253Y-70720752D01*
X88046574Y-70727101D01*
X88090718Y-70788063D01*
X88121939Y-70868833D01*
X88138629Y-70973959D01*
X88140523Y-71029771D01*
X88140523Y-71163181D01*
X88137846Y-71229999D01*
X88129852Y-71290715D01*
X88117796Y-71341274D01*
X88101297Y-71386450D01*
X88082034Y-71423513D01*
X88059013Y-71455789D01*
X88046574Y-71469630D01*
X88015213Y-71498067D01*
X87981205Y-71521518D01*
X87907198Y-71552920D01*
X87822132Y-71565326D01*
X87809643Y-71565510D01*
X87759703Y-71562780D01*
X87714397Y-71554417D01*
X87651717Y-71529828D01*
X87620807Y-71509988D01*
X87593560Y-71486183D01*
X87548064Y-71425352D01*
X87546517Y-71422613D01*
X87546517Y-71559885D01*
X87549201Y-71612181D01*
X87557244Y-71658468D01*
X87569058Y-71695011D01*
X87585193Y-71726703D01*
X87604053Y-71751815D01*
X87626628Y-71772753D01*
X87681799Y-71801776D01*
X87754544Y-71814961D01*
X87775807Y-71815539D01*
X87821672Y-71812853D01*
X87862369Y-71804804D01*
X87895061Y-71792835D01*
X87923804Y-71776444D01*
X87924330Y-71776078D01*
X87951985Y-71753218D01*
X87973109Y-71727198D01*
X87984984Y-71703274D01*
X87991746Y-71676433D01*
X87992001Y-71674572D01*
X88121716Y-71674572D01*
X88116213Y-71714168D01*
X88105624Y-71750523D01*
X88090661Y-71782657D01*
X88071083Y-71812098D01*
X88022058Y-71860624D01*
X87955528Y-71899132D01*
X87870912Y-71922858D01*
X87775807Y-71930226D01*
X87721917Y-71927539D01*
X87672163Y-71919479D01*
X87629321Y-71907075D01*
X87590014Y-71889968D01*
X87555433Y-71869027D01*
X87524063Y-71843717D01*
X87508903Y-71828720D01*
X87461765Y-71763280D01*
X87430677Y-71683186D01*
X87415843Y-71584552D01*
X87414870Y-71548551D01*
X87414870Y-71048578D01*
X87546517Y-71048578D01*
X87546517Y-71153778D01*
X87549204Y-71205828D01*
X87557270Y-71253868D01*
X87569643Y-71294973D01*
X87586703Y-71332421D01*
X87608562Y-71366277D01*
X87630851Y-71391230D01*
X87656350Y-71411514D01*
X87715521Y-71437856D01*
X87790836Y-71447045D01*
X87829957Y-71444360D01*
X87865232Y-71436311D01*
X87894418Y-71424100D01*
X87920282Y-71407316D01*
X87961103Y-71361460D01*
X87989859Y-71295788D01*
X88005356Y-71204217D01*
X88007029Y-71155709D01*
X88007029Y-71039175D01*
X88004345Y-70979172D01*
X87996301Y-70926045D01*
X87984537Y-70884253D01*
X87968482Y-70848015D01*
X87950042Y-70819731D01*
X87928026Y-70796113D01*
X87875915Y-70763932D01*
X87809600Y-70748835D01*
X87783364Y-70747755D01*
X87743098Y-70750430D01*
X87706717Y-70758414D01*
X87676127Y-70770636D01*
X87648830Y-70787397D01*
X87606631Y-70830454D01*
X87570671Y-70898567D01*
X87550312Y-70984487D01*
X87546517Y-71048578D01*
X87414870Y-71048578D01*
X87414870Y-70642471D01*
X87546517Y-70642471D01*
X87546517Y-70777812D01*
X87569040Y-70742223D01*
X87594829Y-70711707D01*
X87622689Y-70687065D01*
X87653490Y-70666996D01*
X87723903Y-70640298D01*
X87807796Y-70631220D01*
X87855348Y-70633908D01*
G37*
G36*
X86840286Y-70639549D02*
G01*
X86890691Y-70647731D01*
X86934296Y-70660324D01*
X86974772Y-70677813D01*
X87010504Y-70699188D01*
X87043299Y-70725188D01*
X87055192Y-70736504D01*
X87102905Y-70799414D01*
X87136870Y-70880521D01*
X87155692Y-70982989D01*
X87158545Y-71048578D01*
X87158545Y-71217754D01*
X87155873Y-71282933D01*
X87147916Y-71342657D01*
X87135744Y-71393577D01*
X87119084Y-71439549D01*
X87099344Y-71478268D01*
X87075744Y-71512461D01*
X87055192Y-71535453D01*
X87023248Y-71563591D01*
X86988226Y-71587172D01*
X86909835Y-71620364D01*
X86816748Y-71635913D01*
X86782579Y-71636959D01*
X86725456Y-71634283D01*
X86672695Y-71626300D01*
X86626978Y-71613963D01*
X86585246Y-71597017D01*
X86519369Y-71554260D01*
X86491645Y-71527068D01*
X86468638Y-71496962D01*
X86436990Y-71429198D01*
X86423810Y-71349806D01*
X86423488Y-71334289D01*
X86423488Y-71324885D01*
X86551357Y-71324885D01*
X86551357Y-71330510D01*
X86554063Y-71367028D01*
X86562257Y-71400211D01*
X86574649Y-71427527D01*
X86591813Y-71451863D01*
X86609624Y-71469630D01*
X86663865Y-71501986D01*
X86734816Y-71518552D01*
X86773175Y-71520425D01*
X86818315Y-71517739D01*
X86859439Y-71509683D01*
X86894017Y-71497405D01*
X86925136Y-71480507D01*
X86959311Y-71452754D01*
X86994820Y-71401790D01*
X87017950Y-71329010D01*
X87026982Y-71221532D01*
X87026982Y-71163181D01*
X86416016Y-71163181D01*
X86416016Y-71048578D01*
X86416715Y-71031618D01*
X86547579Y-71031618D01*
X86547579Y-71065454D01*
X87026982Y-71065454D01*
X87026982Y-71044800D01*
X87024310Y-70984596D01*
X87016357Y-70931988D01*
X87004806Y-70891268D01*
X86989147Y-70856664D01*
X86961158Y-70819203D01*
X86935838Y-70797670D01*
X86907481Y-70780628D01*
X86841220Y-70759657D01*
X86786357Y-70755311D01*
X86741759Y-70757998D01*
X86701748Y-70766064D01*
X86668730Y-70778237D01*
X86639100Y-70794969D01*
X86611471Y-70817356D01*
X86577757Y-70864371D01*
X86555748Y-70933425D01*
X86547579Y-71031618D01*
X86416715Y-71031618D01*
X86418703Y-70983381D01*
X86426763Y-70923655D01*
X86438965Y-70873487D01*
X86455740Y-70828137D01*
X86475528Y-70790217D01*
X86499301Y-70756624D01*
X86517522Y-70736504D01*
X86548919Y-70708889D01*
X86583224Y-70685856D01*
X86660644Y-70653187D01*
X86752794Y-70637865D01*
X86786357Y-70636845D01*
X86840286Y-70639549D01*
G37*
G36*
X85454469Y-70639532D02*
G01*
X85505942Y-70647589D01*
X85550629Y-70660041D01*
X85591833Y-70677224D01*
X85628349Y-70698300D01*
X85661697Y-70723782D01*
X85671556Y-70732726D01*
X85719230Y-70792587D01*
X85752990Y-70870358D01*
X85771870Y-70969943D01*
X85774909Y-71037243D01*
X85774909Y-71236561D01*
X85772237Y-71299848D01*
X85764280Y-71357471D01*
X85752171Y-71406114D01*
X85735612Y-71449829D01*
X85715955Y-71486585D01*
X85692454Y-71518947D01*
X85671556Y-71541078D01*
X85639100Y-71568020D01*
X85603470Y-71590531D01*
X85522990Y-71622132D01*
X85426556Y-71636319D01*
X85398943Y-71636959D01*
X85345014Y-71634273D01*
X85294609Y-71626215D01*
X85250253Y-71613664D01*
X85209140Y-71596317D01*
X85172544Y-71575008D01*
X85139058Y-71549228D01*
X85130108Y-71541078D01*
X85083269Y-71482075D01*
X85050218Y-71405127D01*
X85031657Y-71305569D01*
X85028602Y-71236561D01*
X85028602Y-71044800D01*
X85160165Y-71044800D01*
X85160165Y-71229005D01*
X85162868Y-71291659D01*
X85171038Y-71346042D01*
X85182576Y-71386371D01*
X85198329Y-71420517D01*
X85224141Y-71454601D01*
X85250180Y-71476827D01*
X85279419Y-71494577D01*
X85346600Y-71516188D01*
X85398943Y-71520425D01*
X85442071Y-71517753D01*
X85481520Y-71509800D01*
X85515349Y-71497510D01*
X85545746Y-71480660D01*
X85577523Y-71454601D01*
X85611742Y-71405128D01*
X85634645Y-71332352D01*
X85643346Y-71229005D01*
X85643346Y-71044800D01*
X85640675Y-70984596D01*
X85632721Y-70931988D01*
X85621171Y-70891268D01*
X85605511Y-70856664D01*
X85577523Y-70819203D01*
X85524626Y-70781335D01*
X85457798Y-70760081D01*
X85398943Y-70755311D01*
X85355110Y-70758015D01*
X85315188Y-70766197D01*
X85282156Y-70778538D01*
X85252384Y-70795611D01*
X85224141Y-70819203D01*
X85190815Y-70867675D01*
X85168687Y-70939446D01*
X85160165Y-71044800D01*
X85028602Y-71044800D01*
X85028602Y-71037243D01*
X85031289Y-70972330D01*
X85039349Y-70913390D01*
X85051448Y-70864641D01*
X85068055Y-70820904D01*
X85087594Y-70784653D01*
X85111050Y-70752755D01*
X85130108Y-70732726D01*
X85162550Y-70705784D01*
X85198087Y-70683273D01*
X85278430Y-70651513D01*
X85373635Y-70637417D01*
X85398943Y-70636845D01*
X85454469Y-70639532D01*
G37*
G36*
X84771689Y-70650027D02*
G01*
X84771689Y-71625625D01*
X84641973Y-71625625D01*
X84641973Y-71003408D01*
X84639315Y-70958204D01*
X84631456Y-70917122D01*
X84619319Y-70881972D01*
X84602784Y-70850711D01*
X84578081Y-70819203D01*
X84553290Y-70797142D01*
X84525603Y-70779820D01*
X84462090Y-70759221D01*
X84412683Y-70755311D01*
X84370237Y-70758015D01*
X84332094Y-70766197D01*
X84301195Y-70778411D01*
X84273649Y-70795273D01*
X84247201Y-70819203D01*
X84226926Y-70845444D01*
X84210724Y-70875429D01*
X84190834Y-70947264D01*
X84187086Y-71003408D01*
X84187086Y-71625625D01*
X84055523Y-71625625D01*
X84055523Y-70984602D01*
X84058211Y-70928434D01*
X84066278Y-70876694D01*
X84078592Y-70832721D01*
X84095555Y-70792780D01*
X84115753Y-70758992D01*
X84140070Y-70728948D01*
X84168077Y-70703042D01*
X84199404Y-70681502D01*
X84271479Y-70651730D01*
X84360227Y-70639028D01*
X84378847Y-70638693D01*
X84429838Y-70641490D01*
X84478051Y-70650328D01*
X84532995Y-70670681D01*
X84568690Y-70691629D01*
X84600700Y-70717122D01*
X84643904Y-70768408D01*
X84643904Y-70650027D01*
X84771689Y-70650027D01*
G37*
G36*
X83483430Y-70296562D02*
G01*
X83051044Y-71625625D01*
X82936357Y-71625625D01*
X82503971Y-70296562D01*
X82648715Y-70296562D01*
X82992777Y-71398181D01*
X83336755Y-70296562D01*
X83483430Y-70296562D01*
G37*
G36*
X82142110Y-70753380D02*
G01*
X81922138Y-70753380D01*
X81922138Y-70650027D01*
X82142110Y-70650027D01*
X82142110Y-70364232D01*
X82273673Y-70426278D01*
X82273673Y-70650027D01*
X82425973Y-70650027D01*
X82425973Y-70753380D01*
X82273673Y-70753380D01*
X82273673Y-71383152D01*
X82270985Y-71428164D01*
X82262920Y-71469149D01*
X82250674Y-71503377D01*
X82233824Y-71534005D01*
X82211627Y-71561732D01*
X82187775Y-71582821D01*
X82160653Y-71599621D01*
X82095752Y-71620773D01*
X82036826Y-71625625D01*
X81939098Y-71625625D01*
X81939098Y-71511021D01*
X82016172Y-71511021D01*
X82048748Y-71508340D01*
X82076567Y-71500319D01*
X82097307Y-71488693D01*
X82114170Y-71472871D01*
X82135694Y-71430181D01*
X82142110Y-71377527D01*
X82142110Y-70753380D01*
G37*
G36*
X81692764Y-70650027D02*
G01*
X81692764Y-71625625D01*
X81563048Y-71625625D01*
X81563048Y-71007186D01*
X81560390Y-70964142D01*
X81552531Y-70924876D01*
X81540194Y-70890351D01*
X81523338Y-70858840D01*
X81499156Y-70826676D01*
X81474821Y-70803067D01*
X81447830Y-70784415D01*
X81387103Y-70761887D01*
X81337535Y-70757158D01*
X81256538Y-70766966D01*
X81237877Y-70772187D01*
X81237877Y-70642471D01*
X81307394Y-70636845D01*
X81352626Y-70639576D01*
X81395786Y-70647939D01*
X81457848Y-70672528D01*
X81491804Y-70694156D01*
X81521784Y-70720377D01*
X81564979Y-70779743D01*
X81564979Y-70650027D01*
X81692764Y-70650027D01*
G37*
G36*
X80759005Y-70639549D02*
G01*
X80809410Y-70647731D01*
X80853015Y-70660324D01*
X80893491Y-70677813D01*
X80929224Y-70699188D01*
X80962018Y-70725188D01*
X80973911Y-70736504D01*
X81021624Y-70799414D01*
X81055589Y-70880521D01*
X81074411Y-70982989D01*
X81077264Y-71048578D01*
X81077264Y-71217754D01*
X81074592Y-71282933D01*
X81066635Y-71342657D01*
X81054464Y-71393577D01*
X81037803Y-71439549D01*
X81018063Y-71478268D01*
X80994463Y-71512461D01*
X80973911Y-71535453D01*
X80941968Y-71563591D01*
X80906945Y-71587172D01*
X80828555Y-71620364D01*
X80735468Y-71635913D01*
X80701298Y-71636959D01*
X80644176Y-71634283D01*
X80591415Y-71626300D01*
X80545698Y-71613963D01*
X80503965Y-71597017D01*
X80438088Y-71554260D01*
X80410365Y-71527068D01*
X80387358Y-71496962D01*
X80355709Y-71429198D01*
X80342529Y-71349806D01*
X80342208Y-71334289D01*
X80342208Y-71324885D01*
X80470076Y-71324885D01*
X80470076Y-71330510D01*
X80472782Y-71367028D01*
X80480977Y-71400211D01*
X80493369Y-71427527D01*
X80510532Y-71451863D01*
X80528344Y-71469630D01*
X80582585Y-71501986D01*
X80653535Y-71518552D01*
X80691895Y-71520425D01*
X80737034Y-71517739D01*
X80778158Y-71509683D01*
X80812737Y-71497405D01*
X80843856Y-71480507D01*
X80878031Y-71452754D01*
X80913540Y-71401790D01*
X80936670Y-71329010D01*
X80945701Y-71221532D01*
X80945701Y-71163181D01*
X80334735Y-71163181D01*
X80334735Y-71048578D01*
X80335434Y-71031618D01*
X80466298Y-71031618D01*
X80466298Y-71065454D01*
X80945701Y-71065454D01*
X80945701Y-71044800D01*
X80943030Y-70984596D01*
X80935077Y-70931988D01*
X80923526Y-70891268D01*
X80907866Y-70856664D01*
X80879878Y-70819203D01*
X80854557Y-70797670D01*
X80826200Y-70780628D01*
X80759940Y-70759657D01*
X80705076Y-70755311D01*
X80660478Y-70757998D01*
X80620468Y-70766064D01*
X80587450Y-70778237D01*
X80557820Y-70794969D01*
X80530191Y-70817356D01*
X80496476Y-70864371D01*
X80474467Y-70933425D01*
X80466298Y-71031618D01*
X80335434Y-71031618D01*
X80337422Y-70983381D01*
X80345482Y-70923655D01*
X80357684Y-70873487D01*
X80374460Y-70828137D01*
X80394247Y-70790217D01*
X80418020Y-70756624D01*
X80436241Y-70736504D01*
X80467638Y-70708889D01*
X80501943Y-70685856D01*
X80579363Y-70653187D01*
X80671513Y-70637865D01*
X80705076Y-70636845D01*
X80759005Y-70639549D01*
G37*
G36*
X79910829Y-70533493D02*
G01*
X79908143Y-70497406D01*
X79900085Y-70467146D01*
X79888720Y-70445552D01*
X79873302Y-70428308D01*
X79832713Y-70407402D01*
X79786738Y-70401846D01*
X79705886Y-70401846D01*
X79705886Y-70296562D01*
X79807392Y-70296562D01*
X79849384Y-70299233D01*
X79887721Y-70307186D01*
X79920467Y-70319458D01*
X79949784Y-70336278D01*
X79980347Y-70362385D01*
X80001480Y-70388359D01*
X80018226Y-70417593D01*
X80038548Y-70486038D01*
X80042392Y-70539118D01*
X80042392Y-70650027D01*
X80166483Y-70650027D01*
X80166483Y-70753380D01*
X80042392Y-70753380D01*
X80042392Y-71625625D01*
X79910829Y-71625625D01*
X79910829Y-70753380D01*
X79705886Y-70753380D01*
X79705886Y-70650027D01*
X79910829Y-70650027D01*
X79910829Y-70533493D01*
G37*
G36*
X79105247Y-70994005D02*
G01*
X79102558Y-71084068D01*
X79094482Y-71173307D01*
X79081138Y-71260987D01*
X79062467Y-71347828D01*
X79009183Y-71518704D01*
X78934034Y-71686954D01*
X78877804Y-71787329D01*
X78778145Y-71787329D01*
X78822303Y-71695580D01*
X78860916Y-71602168D01*
X78892023Y-71512438D01*
X78917903Y-71420652D01*
X78922890Y-71400112D01*
X78943795Y-71299808D01*
X78959012Y-71199528D01*
X78968137Y-71103033D01*
X78971705Y-71006545D01*
X78971753Y-70994005D01*
X78961179Y-70809381D01*
X78928847Y-70617731D01*
X78922890Y-70591760D01*
X78869992Y-70413228D01*
X78795062Y-70234862D01*
X78778145Y-70200681D01*
X78875873Y-70200681D01*
X78923726Y-70283798D01*
X78966023Y-70368144D01*
X79002161Y-70452217D01*
X79032905Y-70537447D01*
X79057981Y-70622834D01*
X79077756Y-70709325D01*
X79092158Y-70796478D01*
X79101283Y-70884696D01*
X79105247Y-70994005D01*
G37*
G36*
X78340722Y-70458266D02*
G01*
X78340722Y-71625625D01*
X78201602Y-71625625D01*
X78201602Y-70296562D01*
X78342569Y-70296562D01*
X78570096Y-70473294D01*
X78570096Y-70631220D01*
X78340722Y-70458266D01*
G37*
G36*
X77933019Y-71448976D02*
G01*
X77933019Y-71625625D01*
X77763843Y-71625625D01*
X77763843Y-71448976D01*
X77933019Y-71448976D01*
G37*
G36*
X77216924Y-70280439D02*
G01*
X77261585Y-70288482D01*
X77301985Y-70301239D01*
X77339658Y-70318912D01*
X77346653Y-70322925D01*
X77384809Y-70348741D01*
X77418637Y-70378705D01*
X77444850Y-70409155D01*
X77466966Y-70443237D01*
X77497084Y-70519092D01*
X77508211Y-70605022D01*
X77508273Y-70612414D01*
X77508273Y-70651874D01*
X77505551Y-70700115D01*
X77497238Y-70744722D01*
X77484633Y-70782320D01*
X77467055Y-70817207D01*
X77466966Y-70817356D01*
X77444617Y-70849364D01*
X77418496Y-70877460D01*
X77355326Y-70921985D01*
X77350431Y-70924487D01*
X77386344Y-70943611D01*
X77418571Y-70966843D01*
X77471802Y-71024873D01*
X77485772Y-71046647D01*
X77505544Y-71085836D01*
X77520335Y-71127431D01*
X77529851Y-71170526D01*
X77534301Y-71215966D01*
X77534636Y-71232783D01*
X77534636Y-71281647D01*
X77531950Y-71332593D01*
X77523890Y-71380677D01*
X77511207Y-71423692D01*
X77493643Y-71463820D01*
X77489550Y-71471477D01*
X77441644Y-71536681D01*
X77377063Y-71589205D01*
X77359835Y-71599345D01*
X77320780Y-71617776D01*
X77279194Y-71631391D01*
X77187520Y-71644185D01*
X77171852Y-71644431D01*
X77120892Y-71641745D01*
X77072781Y-71633685D01*
X77029737Y-71621001D01*
X76989592Y-71603437D01*
X76981938Y-71599345D01*
X76944929Y-71575858D01*
X76911353Y-71548102D01*
X76882019Y-71516824D01*
X76856594Y-71481708D01*
X76850375Y-71471477D01*
X76818371Y-71395995D01*
X76804067Y-71306860D01*
X76803358Y-71279800D01*
X76803358Y-71230852D01*
X76944324Y-71230852D01*
X76944324Y-71279800D01*
X76947009Y-71322387D01*
X76955059Y-71361302D01*
X76967475Y-71394637D01*
X76984593Y-71425080D01*
X77006369Y-71452754D01*
X77031351Y-71475991D01*
X77059167Y-71494363D01*
X77121685Y-71516200D01*
X77169921Y-71520425D01*
X77208787Y-71517739D01*
X77244529Y-71509683D01*
X77275329Y-71497190D01*
X77303343Y-71479941D01*
X77333472Y-71452754D01*
X77355600Y-71424601D01*
X77372864Y-71393636D01*
X77392545Y-71324573D01*
X77395517Y-71279800D01*
X77395517Y-71230852D01*
X77392830Y-71188182D01*
X77384764Y-71149205D01*
X77372349Y-71115917D01*
X77355221Y-71085528D01*
X77333472Y-71057981D01*
X77308609Y-71034774D01*
X77280905Y-71016414D01*
X77218504Y-70994515D01*
X77169921Y-70990227D01*
X77128502Y-70992946D01*
X77090866Y-71001233D01*
X77060075Y-71013651D01*
X77032223Y-71030904D01*
X77004522Y-71056050D01*
X76983606Y-71082825D01*
X76967300Y-71112360D01*
X76947746Y-71180894D01*
X76944324Y-71230852D01*
X76803358Y-71230852D01*
X76806023Y-71186055D01*
X76813932Y-71142718D01*
X76826942Y-71101160D01*
X76844927Y-71061625D01*
X76852222Y-71048578D01*
X76901087Y-70985950D01*
X76966200Y-70936813D01*
X76989494Y-70924487D01*
X76954646Y-70904080D01*
X76923509Y-70879452D01*
X76897019Y-70851562D01*
X76874321Y-70819736D01*
X76872875Y-70817356D01*
X76854644Y-70781571D01*
X76841244Y-70742933D01*
X76832989Y-70702272D01*
X76829693Y-70658597D01*
X76829637Y-70651874D01*
X76829637Y-70612414D01*
X76829743Y-70610566D01*
X76968756Y-70610566D01*
X76968756Y-70651874D01*
X76971391Y-70689303D01*
X76979087Y-70724092D01*
X76991537Y-70756046D01*
X77008427Y-70784953D01*
X77025176Y-70806022D01*
X77048156Y-70827432D01*
X77074218Y-70844253D01*
X77134210Y-70863598D01*
X77169921Y-70866220D01*
X77205965Y-70863551D01*
X77238973Y-70855618D01*
X77267585Y-70843218D01*
X77293247Y-70826205D01*
X77314665Y-70806022D01*
X77348390Y-70753183D01*
X77365401Y-70686773D01*
X77367307Y-70651874D01*
X77367307Y-70610566D01*
X77364640Y-70572757D01*
X77356721Y-70538065D01*
X77344247Y-70507501D01*
X77327123Y-70479608D01*
X77312818Y-70462044D01*
X77290493Y-70441320D01*
X77265359Y-70425229D01*
X77206571Y-70406456D01*
X77169921Y-70403777D01*
X77133059Y-70406485D01*
X77099012Y-70414699D01*
X77070121Y-70427315D01*
X77043830Y-70444859D01*
X77025176Y-70462044D01*
X77003872Y-70488306D01*
X76987595Y-70517191D01*
X76970353Y-70581137D01*
X76968756Y-70610566D01*
X76829743Y-70610566D01*
X76832356Y-70565045D01*
X76840645Y-70519977D01*
X76853330Y-70480630D01*
X76871028Y-70443237D01*
X76894582Y-70406497D01*
X76922380Y-70374001D01*
X76952394Y-70347528D01*
X76986977Y-70324375D01*
X76989494Y-70322925D01*
X77027288Y-70304442D01*
X77067495Y-70290785D01*
X77155784Y-70277978D01*
X77169921Y-70277755D01*
X77216924Y-70280439D01*
G37*
G36*
X76119432Y-71200795D02*
G01*
X76056642Y-71216514D01*
X76031108Y-71217754D01*
X75963538Y-71207382D01*
X75898138Y-71176118D01*
X75890141Y-71170737D01*
X75834975Y-71119381D01*
X75788086Y-71045727D01*
X75784858Y-71039175D01*
X75878807Y-70978976D01*
X75909779Y-71027858D01*
X75939502Y-71061864D01*
X75948409Y-71069232D01*
X75992310Y-71089462D01*
X76029261Y-71093664D01*
X76059925Y-71090764D01*
X76087893Y-71081212D01*
X76089375Y-71080482D01*
X76103746Y-71073516D01*
X76164602Y-71041022D01*
X76256704Y-70990227D01*
X76288321Y-70979660D01*
X76322338Y-70974189D01*
X76343181Y-70973351D01*
X76379692Y-70976038D01*
X76414837Y-70984098D01*
X76480167Y-71015719D01*
X76484148Y-71018437D01*
X76537054Y-71068133D01*
X76581995Y-71140007D01*
X76587585Y-71151931D01*
X76493551Y-71210198D01*
X76462116Y-71163430D01*
X76433342Y-71130073D01*
X76422102Y-71119943D01*
X76401357Y-71106476D01*
X76377691Y-71097649D01*
X76345029Y-71093664D01*
X76294615Y-71103472D01*
X76282983Y-71108692D01*
X76209687Y-71150084D01*
X76119432Y-71200795D01*
G37*
G36*
X75480676Y-71559885D02*
G01*
X75415312Y-71604800D01*
X75335683Y-71633081D01*
X75237995Y-71644330D01*
X75226953Y-71644431D01*
X75174672Y-71641735D01*
X75125675Y-71633609D01*
X75082784Y-71620998D01*
X75042956Y-71603510D01*
X75007653Y-71582071D01*
X74975331Y-71556046D01*
X74965591Y-71546704D01*
X74938274Y-71515555D01*
X74915479Y-71481366D01*
X74883390Y-71404118D01*
X74868675Y-71311662D01*
X74867863Y-71281647D01*
X74867863Y-71234630D01*
X74870525Y-71184329D01*
X74878414Y-71137127D01*
X74890966Y-71094318D01*
X74908191Y-71054716D01*
X74916727Y-71039175D01*
X74938691Y-71007031D01*
X74964569Y-70978924D01*
X74993466Y-70955565D01*
X75026052Y-70936198D01*
X75057693Y-70922556D01*
X75024238Y-70904809D01*
X74994262Y-70882948D01*
X74943340Y-70826312D01*
X74937381Y-70817356D01*
X74918399Y-70782626D01*
X74904086Y-70744921D01*
X74894848Y-70705118D01*
X74890673Y-70662731D01*
X74890448Y-70650027D01*
X74890448Y-70606788D01*
X74893135Y-70557025D01*
X74901195Y-70510906D01*
X74913688Y-70470775D01*
X74930942Y-70433767D01*
X74978283Y-70370375D01*
X74980619Y-70368010D01*
X75010739Y-70341738D01*
X75044001Y-70319968D01*
X75119257Y-70290175D01*
X75210057Y-70277970D01*
X75225022Y-70277755D01*
X75278326Y-70280452D01*
X75327617Y-70288585D01*
X75369609Y-70301012D01*
X75408060Y-70318198D01*
X75441313Y-70339017D01*
X75471273Y-70364232D01*
X75497443Y-70393295D01*
X75518905Y-70425231D01*
X75547907Y-70497283D01*
X75559519Y-70584687D01*
X75559681Y-70597385D01*
X75559681Y-70633067D01*
X75426187Y-70633067D01*
X75426187Y-70601163D01*
X75423540Y-70563393D01*
X75415754Y-70528976D01*
X75403524Y-70498918D01*
X75386900Y-70472227D01*
X75373545Y-70456419D01*
X75327596Y-70423255D01*
X75266773Y-70406111D01*
X75228801Y-70403777D01*
X75189983Y-70406465D01*
X75154948Y-70414537D01*
X75125951Y-70426784D01*
X75100182Y-70443641D01*
X75082209Y-70460113D01*
X75049121Y-70510166D01*
X75031839Y-70575360D01*
X75029567Y-70614261D01*
X75029567Y-70653805D01*
X75032301Y-70696925D01*
X75040691Y-70735686D01*
X75053083Y-70766716D01*
X75070336Y-70794916D01*
X75084056Y-70811647D01*
X75107509Y-70833460D01*
X75133946Y-70850562D01*
X75194664Y-70870470D01*
X75236357Y-70873692D01*
X75304027Y-70873692D01*
X75304027Y-70999630D01*
X75234426Y-70999630D01*
X75193921Y-71002302D01*
X75157537Y-71010255D01*
X75126741Y-71022482D01*
X75098987Y-71039231D01*
X75069028Y-71065454D01*
X75047400Y-71091957D01*
X75030393Y-71121560D01*
X75010421Y-71189374D01*
X75006982Y-71238408D01*
X75006982Y-71289203D01*
X75009636Y-71331632D01*
X75017462Y-71369883D01*
X75029600Y-71402728D01*
X75046110Y-71432095D01*
X75065249Y-71456448D01*
X75088327Y-71477851D01*
X75114863Y-71495081D01*
X75177705Y-71516412D01*
X75225022Y-71520425D01*
X75267275Y-71517716D01*
X75305653Y-71509507D01*
X75336776Y-71497255D01*
X75364338Y-71480314D01*
X75379170Y-71467783D01*
X75399456Y-71444784D01*
X75415242Y-71418648D01*
X75433266Y-71357258D01*
X75435590Y-71321107D01*
X75435590Y-71296675D01*
X75576557Y-71296675D01*
X75576557Y-71326732D01*
X75573894Y-71372956D01*
X75566004Y-71416086D01*
X75553487Y-71454892D01*
X75536317Y-71490613D01*
X75489187Y-71551830D01*
X75480676Y-71559885D01*
G37*
G36*
X74640503Y-71448976D02*
G01*
X74640503Y-71625625D01*
X74471327Y-71625625D01*
X74471327Y-71448976D01*
X74640503Y-71448976D01*
G37*
G36*
X74178228Y-70922556D02*
G01*
X74227399Y-71038322D01*
X74236495Y-71067301D01*
X74249215Y-71121116D01*
X74256106Y-71175936D01*
X74257149Y-71206420D01*
X74257149Y-71272243D01*
X74254470Y-71326150D01*
X74246466Y-71376018D01*
X74234026Y-71419634D01*
X74216897Y-71459888D01*
X74169942Y-71529442D01*
X74157490Y-71542925D01*
X74125930Y-71571544D01*
X74091393Y-71595433D01*
X74014993Y-71628475D01*
X73924694Y-71643552D01*
X73894364Y-71644431D01*
X73844744Y-71641745D01*
X73797825Y-71633685D01*
X73755393Y-71620917D01*
X73715443Y-71603214D01*
X73708229Y-71599345D01*
X73673560Y-71577176D01*
X73642582Y-71551043D01*
X73590134Y-71485989D01*
X73580360Y-71469630D01*
X73548360Y-71391153D01*
X73534167Y-71298102D01*
X73533427Y-71268465D01*
X73533427Y-71210198D01*
X73672546Y-71210198D01*
X73672546Y-71276021D01*
X73675216Y-71320595D01*
X73683159Y-71360702D01*
X73695357Y-71394720D01*
X73712051Y-71425480D01*
X73732660Y-71452754D01*
X73756088Y-71475456D01*
X73782540Y-71493539D01*
X73843585Y-71515712D01*
X73894364Y-71520425D01*
X73933208Y-71517739D01*
X73968827Y-71509683D01*
X73999215Y-71497258D01*
X74026620Y-71480121D01*
X74055985Y-71452754D01*
X74076489Y-71425187D01*
X74092480Y-71394544D01*
X74111265Y-71323196D01*
X74114252Y-71274090D01*
X74114252Y-71208351D01*
X74111582Y-71163546D01*
X74103638Y-71123048D01*
X74091478Y-71088870D01*
X74074844Y-71058307D01*
X74054137Y-71031618D01*
X74030814Y-71010009D01*
X74004562Y-70992926D01*
X73943027Y-70971897D01*
X73894364Y-70967726D01*
X73855443Y-70970399D01*
X73819746Y-70978361D01*
X73788911Y-70990745D01*
X73761154Y-71007753D01*
X73732660Y-71033465D01*
X73711942Y-71060180D01*
X73695499Y-71090339D01*
X73675801Y-71160998D01*
X73672546Y-71210198D01*
X73533427Y-71210198D01*
X73533427Y-71202726D01*
X73536114Y-71147305D01*
X73544174Y-71095912D01*
X73556617Y-71051373D01*
X73573787Y-71010387D01*
X73594744Y-70974346D01*
X73620068Y-70941594D01*
X73623598Y-70937669D01*
X73652745Y-70909765D01*
X73684766Y-70886596D01*
X73756481Y-70854533D01*
X73841254Y-70840442D01*
X73864223Y-70839857D01*
X73904317Y-70842544D01*
X73943004Y-70850604D01*
X73945075Y-70851191D01*
X73999001Y-70875515D01*
X74007121Y-70881249D01*
X73721410Y-70296562D01*
X73868002Y-70296562D01*
X74178228Y-70922556D01*
G37*
G36*
X73408413Y-70296562D02*
G01*
X72976027Y-71625625D01*
X72861339Y-71625625D01*
X72428953Y-70296562D01*
X72573698Y-70296562D01*
X72917759Y-71398181D01*
X73261737Y-70296562D01*
X73408413Y-70296562D01*
G37*
G36*
X72157348Y-71398181D02*
G01*
X72183937Y-71493460D01*
X72215591Y-71586843D01*
X72293809Y-71767355D01*
X72303939Y-71787329D01*
X72202433Y-71787329D01*
X72155158Y-71703968D01*
X72113542Y-71619670D01*
X72077888Y-71535349D01*
X72047687Y-71450140D01*
X72022984Y-71364406D01*
X72003602Y-71277818D01*
X71980593Y-71101616D01*
X71976837Y-70994005D01*
X71979526Y-70902326D01*
X71987602Y-70811867D01*
X72000878Y-70723742D01*
X72019435Y-70636836D01*
X72043136Y-70551643D01*
X72072083Y-70467682D01*
X72145878Y-70303304D01*
X72204280Y-70200681D01*
X72303939Y-70200681D01*
X72259899Y-70293516D01*
X72221215Y-70387835D01*
X72188502Y-70481870D01*
X72160935Y-70577650D01*
X72157348Y-70591760D01*
X72136124Y-70687760D01*
X72120601Y-70783278D01*
X72110938Y-70876402D01*
X72106746Y-70969330D01*
X72106553Y-70994005D01*
X72117291Y-71179053D01*
X72149814Y-71366840D01*
X72157348Y-71398181D01*
G37*
%LPC*%
D14*
X93825000Y-42300000D02*
G75*
G02*
X91575000Y-42300000I-1125000J0D01*
G01*
X91575000Y-42300000D02*
G75*
G02*
X93825000Y-42300000I1125000J0D01*
G01*
X68425000Y-79200000D02*
G75*
G02*
X66175000Y-79200000I-1125000J0D01*
G01*
X66175000Y-79200000D02*
G75*
G02*
X68425000Y-79200000I1125000J0D01*
G01*
X93825000Y-79200000D02*
G75*
G02*
X91575000Y-79200000I-1125000J0D01*
G01*
X91575000Y-79200000D02*
G75*
G02*
X93825000Y-79200000I1125000J0D01*
G01*
X68425000Y-42300000D02*
G75*
G02*
X66175000Y-42300000I-1125000J0D01*
G01*
X66175000Y-42300000D02*
G75*
G02*
X68425000Y-42300000I1125000J0D01*
G01*
D15*
%TO.C,REF\u002A\u002A*%
X67300000Y-79200000D03*
%TD*%
%TO.C,REF\u002A\u002A*%
X92700000Y-79200000D03*
%TD*%
%TO.C,REF\u002A\u002A*%
X67300000Y-42300000D03*
%TD*%
%TO.C,REF\u002A\u002A*%
X92700000Y-42300000D03*
%TD*%
D16*
%TO.C,J1*%
X78095000Y-77000000D03*
X81905000Y-77000000D03*
%TD*%
D17*
%TO.C,J5*%
X73240000Y-50600000D03*
X68160000Y-51616000D03*
X68160000Y-49584000D03*
%TD*%
D18*
%TO.C,J2*%
X82890000Y-44755000D03*
X77110000Y-44755000D03*
D19*
X84320000Y-45285000D03*
D20*
X84320000Y-41105000D03*
D19*
X75680000Y-45285000D03*
D20*
X75680000Y-41105000D03*
%TD*%
D21*
%TO.C,J3*%
X67500000Y-53190000D03*
X67500000Y-55730000D03*
X67500000Y-58270000D03*
X67500000Y-60810000D03*
%TD*%
%LPD*%
M02*
