M48
; DRILL file {KiCad 9.0.6} date 2026-01-06T10:29:41+0900
; FORMAT={-:-/ absolute / metric / decimal}
; #@! TF.CreationDate,2026-01-06T10:29:41+09:00
; #@! TF.GenerationSoftware,Kicad,Pcbnew,9.0.6
; #@! TF.FileFunction,Plated,1,2,PTH
FMAT,2
METRIC
; #@! TA.AperFunction,Plated,PTH,ViaDrill
T1C0.300
; #@! TA.AperFunction,Plated,PTH,ViaDrill
T2C0.400
; #@! TA.AperFunction,Plated,PTH,ComponentDrill
T3C0.600
%
G90
G05
T1
X69.5Y-53.5
X69.9Y-71.2
X69.9Y-74.8
X70.9Y-69.5
X71.0Y-49.1
X72.1Y-73.4
X73.1Y-69.7
X73.1Y-73.3
X75.7Y-74.5
X76.4Y-56.5
X76.5Y-71.3
X77.0Y-58.2
X77.2Y-73.0
X77.9Y-62.4
X78.3Y-58.2
X78.5Y-47.5
X78.7Y-71.3
X79.1Y-58.2
X79.2Y-60.6
X79.3Y-48.8
X79.4Y-51.0
X79.4Y-68.0
X79.7Y-54.9
X80.4Y-56.2
X80.6Y-70.7
X80.7Y-60.4
X81.0Y-47.8
X81.0Y-50.0
X81.0Y-57.4
X81.0Y-59.6
X81.4Y-70.8
X81.4Y-73.0
X81.8Y-68.8
X82.2Y-47.8
X82.2Y-59.5
X82.5Y-60.3
X82.5Y-68.3
X82.9Y-57.4
X82.9Y-71.1
X83.0Y-56.2
X83.1Y-59.6
X83.3Y-50.7
X83.3Y-55.0
X84.7Y-53.0
X84.7Y-59.2
X84.7Y-60.2
X84.8Y-49.6
X85.0Y-57.7
X85.1Y-68.3
X86.7Y-51.2
X86.8Y-68.5
X86.9Y-50.4
X86.9Y-54.9
X88.4Y-56.8
X88.605Y-51.785
X91.0Y-48.2
T2
X65.9Y-62.4
X65.9Y-66.2
X67.1Y-48.9
X68.0Y-67.7
X68.8Y-46.2
X69.4Y-48.9
X70.7Y-42.9
X71.3Y-52.8
X71.8Y-44.7
X71.9Y-49.0
X72.5Y-46.8
X73.3Y-61.3
X73.4Y-48.8
X74.0Y-71.4
X74.3Y-56.5
X74.5Y-41.8
X74.6Y-46.6
X75.0Y-68.8
X75.5Y-77.5
X75.5Y-80.6
X75.7Y-49.0
X75.7Y-50.85
X77.0Y-60.8
X77.5Y-50.85
X77.6Y-47.6
X77.7Y-66.2
X78.2Y-56.5
X79.3Y-77.0
X80.3Y-77.0
X83.1Y-47.6
X84.6Y-71.1
X85.8Y-55.9
X85.8Y-74.9
X85.9Y-77.6
X85.9Y-79.5
X86.1Y-71.2
X86.9Y-70.4
X87.6Y-75.2
X87.7Y-59.6
X87.8Y-73.2
X88.9Y-58.2
X88.9Y-68.3
X89.4Y-47.9
X89.4Y-55.9
X89.5Y-62.3
X89.5Y-66.3
X89.5Y-79.3
X90.2Y-59.0
X90.2Y-60.7
X90.2Y-67.9
X90.8Y-70.0
X92.8Y-58.0
T3
G00X75.68Y-41.405
M15
G01X75.68Y-40.805
M16
G05
G00X75.68Y-45.835
M15
G01X75.68Y-44.735
M16
G05
G00X84.32Y-41.405
M15
G01X84.32Y-40.805
M16
G05
G00X84.32Y-45.835
M15
G01X84.32Y-44.735
M16
G05
M30
