%TF.GenerationSoftware,KiCad,Pcbnew,9.0.6*%
%TF.CreationDate,2026-01-06T04:45:57+09:00*%
%TF.ProjectId,VVDAP,56564441-502e-46b6-9963-61645f706362,rev?*%
%TF.SameCoordinates,Original*%
%TF.FileFunction,Drillmap*%
%TF.FilePolarity,Positive*%
%FSLAX45Y45*%
G04 Gerber Fmt 4.5, Leading zero omitted, Abs format (unit mm)*
G04 Created by KiCad (PCBNEW 9.0.6) date 2026-01-06 04:45:57*
%MOMM*%
%LPD*%
G01*
G04 APERTURE LIST*
%ADD10C,0.050000*%
%ADD11C,0.200000*%
%ADD12C,0.100000*%
G04 APERTURE END LIST*
D10*
X9500000Y-7920000D02*
X9500000Y-4230000D01*
X9270000Y-4000000D02*
G75*
G02*
X9500000Y-4230000I0J-230000D01*
G01*
X9500000Y-7920000D02*
G75*
G02*
X9270000Y-8150000I-230000J0D01*
G01*
X6500000Y-4230000D02*
G75*
G02*
X6730000Y-4000000I230000J0D01*
G01*
X6500000Y-4230000D02*
X6500000Y-7920000D01*
X6730000Y-8150000D02*
G75*
G02*
X6500000Y-7920000I0J230000D01*
G01*
X6730000Y-8150000D02*
X9270000Y-8150000D01*
X9270000Y-4000000D02*
X6730000Y-4000000D01*
D11*
D12*
X6935000Y-5335000D02*
X6965000Y-5365000D01*
X6965000Y-5335000D02*
X6935000Y-5365000D01*
X6975000Y-7105000D02*
X7005000Y-7135000D01*
X7005000Y-7105000D02*
X6975000Y-7135000D01*
X6975000Y-7465000D02*
X7005000Y-7495000D01*
X7005000Y-7465000D02*
X6975000Y-7495000D01*
X7075000Y-6935000D02*
X7105000Y-6965000D01*
X7105000Y-6935000D02*
X7075000Y-6965000D01*
X7085000Y-4895000D02*
X7115000Y-4925000D01*
X7115000Y-4895000D02*
X7085000Y-4925000D01*
X7195000Y-7325000D02*
X7225000Y-7355000D01*
X7225000Y-7325000D02*
X7195000Y-7355000D01*
X7295000Y-6955000D02*
X7325000Y-6985000D01*
X7325000Y-6955000D02*
X7295000Y-6985000D01*
X7295000Y-7315000D02*
X7325000Y-7345000D01*
X7325000Y-7315000D02*
X7295000Y-7345000D01*
X7555000Y-7435000D02*
X7585000Y-7465000D01*
X7585000Y-7435000D02*
X7555000Y-7465000D01*
X7625000Y-5635000D02*
X7655000Y-5665000D01*
X7655000Y-5635000D02*
X7625000Y-5665000D01*
X7635000Y-7115000D02*
X7665000Y-7145000D01*
X7665000Y-7115000D02*
X7635000Y-7145000D01*
X7685000Y-5805000D02*
X7715000Y-5835000D01*
X7715000Y-5805000D02*
X7685000Y-5835000D01*
X7705000Y-7285000D02*
X7735000Y-7315000D01*
X7735000Y-7285000D02*
X7705000Y-7315000D01*
X7775000Y-6225000D02*
X7805000Y-6255000D01*
X7805000Y-6225000D02*
X7775000Y-6255000D01*
X7815000Y-5805000D02*
X7845000Y-5835000D01*
X7845000Y-5805000D02*
X7815000Y-5835000D01*
X7835000Y-4735000D02*
X7865000Y-4765000D01*
X7865000Y-4735000D02*
X7835000Y-4765000D01*
X7855000Y-7115000D02*
X7885000Y-7145000D01*
X7885000Y-7115000D02*
X7855000Y-7145000D01*
X7895000Y-5805000D02*
X7925000Y-5835000D01*
X7925000Y-5805000D02*
X7895000Y-5835000D01*
X7905000Y-6045000D02*
X7935000Y-6075000D01*
X7935000Y-6045000D02*
X7905000Y-6075000D01*
X7915000Y-4865000D02*
X7945000Y-4895000D01*
X7945000Y-4865000D02*
X7915000Y-4895000D01*
X7925000Y-5085000D02*
X7955000Y-5115000D01*
X7955000Y-5085000D02*
X7925000Y-5115000D01*
X7925000Y-6785000D02*
X7955000Y-6815000D01*
X7955000Y-6785000D02*
X7925000Y-6815000D01*
X7955000Y-5475000D02*
X7985000Y-5505000D01*
X7985000Y-5475000D02*
X7955000Y-5505000D01*
X8025000Y-5605000D02*
X8055000Y-5635000D01*
X8055000Y-5605000D02*
X8025000Y-5635000D01*
X8045000Y-7055000D02*
X8075000Y-7085000D01*
X8075000Y-7055000D02*
X8045000Y-7085000D01*
X8055000Y-6025000D02*
X8085000Y-6055000D01*
X8085000Y-6025000D02*
X8055000Y-6055000D01*
X8085000Y-4765000D02*
X8115000Y-4795000D01*
X8115000Y-4765000D02*
X8085000Y-4795000D01*
X8085000Y-4985000D02*
X8115000Y-5015000D01*
X8115000Y-4985000D02*
X8085000Y-5015000D01*
X8085000Y-5725000D02*
X8115000Y-5755000D01*
X8115000Y-5725000D02*
X8085000Y-5755000D01*
X8085000Y-5945000D02*
X8115000Y-5975000D01*
X8115000Y-5945000D02*
X8085000Y-5975000D01*
X8125000Y-7065000D02*
X8155000Y-7095000D01*
X8155000Y-7065000D02*
X8125000Y-7095000D01*
X8125000Y-7285000D02*
X8155000Y-7315000D01*
X8155000Y-7285000D02*
X8125000Y-7315000D01*
X8165000Y-6865000D02*
X8195000Y-6895000D01*
X8195000Y-6865000D02*
X8165000Y-6895000D01*
X8205000Y-4765000D02*
X8235000Y-4795000D01*
X8235000Y-4765000D02*
X8205000Y-4795000D01*
X8205000Y-5935000D02*
X8235000Y-5965000D01*
X8235000Y-5935000D02*
X8205000Y-5965000D01*
X8235000Y-6015000D02*
X8265000Y-6045000D01*
X8265000Y-6015000D02*
X8235000Y-6045000D01*
X8235000Y-6815000D02*
X8265000Y-6845000D01*
X8265000Y-6815000D02*
X8235000Y-6845000D01*
X8275000Y-5725000D02*
X8305000Y-5755000D01*
X8305000Y-5725000D02*
X8275000Y-5755000D01*
X8275000Y-7095000D02*
X8305000Y-7125000D01*
X8305000Y-7095000D02*
X8275000Y-7125000D01*
X8285000Y-5605000D02*
X8315000Y-5635000D01*
X8315000Y-5605000D02*
X8285000Y-5635000D01*
X8295000Y-5945000D02*
X8325000Y-5975000D01*
X8325000Y-5945000D02*
X8295000Y-5975000D01*
X8315000Y-5055000D02*
X8345000Y-5085000D01*
X8345000Y-5055000D02*
X8315000Y-5085000D01*
X8315000Y-5485000D02*
X8345000Y-5515000D01*
X8345000Y-5485000D02*
X8315000Y-5515000D01*
X8455000Y-5285000D02*
X8485000Y-5315000D01*
X8485000Y-5285000D02*
X8455000Y-5315000D01*
X8455000Y-5905000D02*
X8485000Y-5935000D01*
X8485000Y-5905000D02*
X8455000Y-5935000D01*
X8455000Y-6005000D02*
X8485000Y-6035000D01*
X8485000Y-6005000D02*
X8455000Y-6035000D01*
X8465000Y-4945000D02*
X8495000Y-4975000D01*
X8495000Y-4945000D02*
X8465000Y-4975000D01*
X8485000Y-5755000D02*
X8515000Y-5785000D01*
X8515000Y-5755000D02*
X8485000Y-5785000D01*
X8495000Y-6815000D02*
X8525000Y-6845000D01*
X8525000Y-6815000D02*
X8495000Y-6845000D01*
X8655000Y-5105000D02*
X8685000Y-5135000D01*
X8685000Y-5105000D02*
X8655000Y-5135000D01*
X8665000Y-6835000D02*
X8695000Y-6865000D01*
X8695000Y-6835000D02*
X8665000Y-6865000D01*
X8675000Y-5025000D02*
X8705000Y-5055000D01*
X8705000Y-5025000D02*
X8675000Y-5055000D01*
X8675000Y-5475000D02*
X8705000Y-5505000D01*
X8705000Y-5475000D02*
X8675000Y-5505000D01*
X8825000Y-5665000D02*
X8855000Y-5695000D01*
X8855000Y-5665000D02*
X8825000Y-5695000D01*
X8845500Y-5163500D02*
X8875500Y-5193500D01*
X8875500Y-5163500D02*
X8845500Y-5193500D01*
X9085000Y-4805000D02*
X9115000Y-4835000D01*
X9115000Y-4805000D02*
X9085000Y-4835000D01*
X6610000Y-6240000D02*
G75*
G02*
X6570000Y-6240000I-20000J0D01*
G01*
X6570000Y-6240000D02*
G75*
G02*
X6610000Y-6240000I20000J0D01*
G01*
X6610000Y-6620000D02*
G75*
G02*
X6570000Y-6620000I-20000J0D01*
G01*
X6570000Y-6620000D02*
G75*
G02*
X6610000Y-6620000I20000J0D01*
G01*
X6730000Y-4890000D02*
G75*
G02*
X6690000Y-4890000I-20000J0D01*
G01*
X6690000Y-4890000D02*
G75*
G02*
X6730000Y-4890000I20000J0D01*
G01*
X6820000Y-6770000D02*
G75*
G02*
X6780000Y-6770000I-20000J0D01*
G01*
X6780000Y-6770000D02*
G75*
G02*
X6820000Y-6770000I20000J0D01*
G01*
X6900000Y-4620000D02*
G75*
G02*
X6860000Y-4620000I-20000J0D01*
G01*
X6860000Y-4620000D02*
G75*
G02*
X6900000Y-4620000I20000J0D01*
G01*
X6960000Y-4890000D02*
G75*
G02*
X6920000Y-4890000I-20000J0D01*
G01*
X6920000Y-4890000D02*
G75*
G02*
X6960000Y-4890000I20000J0D01*
G01*
X7090000Y-4290000D02*
G75*
G02*
X7050000Y-4290000I-20000J0D01*
G01*
X7050000Y-4290000D02*
G75*
G02*
X7090000Y-4290000I20000J0D01*
G01*
X7150000Y-5280000D02*
G75*
G02*
X7110000Y-5280000I-20000J0D01*
G01*
X7110000Y-5280000D02*
G75*
G02*
X7150000Y-5280000I20000J0D01*
G01*
X7200000Y-4470000D02*
G75*
G02*
X7160000Y-4470000I-20000J0D01*
G01*
X7160000Y-4470000D02*
G75*
G02*
X7200000Y-4470000I20000J0D01*
G01*
X7210000Y-4900000D02*
G75*
G02*
X7170000Y-4900000I-20000J0D01*
G01*
X7170000Y-4900000D02*
G75*
G02*
X7210000Y-4900000I20000J0D01*
G01*
X7270000Y-4680000D02*
G75*
G02*
X7230000Y-4680000I-20000J0D01*
G01*
X7230000Y-4680000D02*
G75*
G02*
X7270000Y-4680000I20000J0D01*
G01*
X7350000Y-6130000D02*
G75*
G02*
X7310000Y-6130000I-20000J0D01*
G01*
X7310000Y-6130000D02*
G75*
G02*
X7350000Y-6130000I20000J0D01*
G01*
X7360000Y-4880000D02*
G75*
G02*
X7320000Y-4880000I-20000J0D01*
G01*
X7320000Y-4880000D02*
G75*
G02*
X7360000Y-4880000I20000J0D01*
G01*
X7420000Y-7140000D02*
G75*
G02*
X7380000Y-7140000I-20000J0D01*
G01*
X7380000Y-7140000D02*
G75*
G02*
X7420000Y-7140000I20000J0D01*
G01*
X7450000Y-5650000D02*
G75*
G02*
X7410000Y-5650000I-20000J0D01*
G01*
X7410000Y-5650000D02*
G75*
G02*
X7450000Y-5650000I20000J0D01*
G01*
X7470000Y-4180000D02*
G75*
G02*
X7430000Y-4180000I-20000J0D01*
G01*
X7430000Y-4180000D02*
G75*
G02*
X7470000Y-4180000I20000J0D01*
G01*
X7480000Y-4660000D02*
G75*
G02*
X7440000Y-4660000I-20000J0D01*
G01*
X7440000Y-4660000D02*
G75*
G02*
X7480000Y-4660000I20000J0D01*
G01*
X7520000Y-6880000D02*
G75*
G02*
X7480000Y-6880000I-20000J0D01*
G01*
X7480000Y-6880000D02*
G75*
G02*
X7520000Y-6880000I20000J0D01*
G01*
X7570000Y-7750000D02*
G75*
G02*
X7530000Y-7750000I-20000J0D01*
G01*
X7530000Y-7750000D02*
G75*
G02*
X7570000Y-7750000I20000J0D01*
G01*
X7570000Y-8060000D02*
G75*
G02*
X7530000Y-8060000I-20000J0D01*
G01*
X7530000Y-8060000D02*
G75*
G02*
X7570000Y-8060000I20000J0D01*
G01*
X7590000Y-4900000D02*
G75*
G02*
X7550000Y-4900000I-20000J0D01*
G01*
X7550000Y-4900000D02*
G75*
G02*
X7590000Y-4900000I20000J0D01*
G01*
X7590000Y-5085000D02*
G75*
G02*
X7550000Y-5085000I-20000J0D01*
G01*
X7550000Y-5085000D02*
G75*
G02*
X7590000Y-5085000I20000J0D01*
G01*
X7720000Y-6080000D02*
G75*
G02*
X7680000Y-6080000I-20000J0D01*
G01*
X7680000Y-6080000D02*
G75*
G02*
X7720000Y-6080000I20000J0D01*
G01*
X7770000Y-5085000D02*
G75*
G02*
X7730000Y-5085000I-20000J0D01*
G01*
X7730000Y-5085000D02*
G75*
G02*
X7770000Y-5085000I20000J0D01*
G01*
X7780000Y-4760000D02*
G75*
G02*
X7740000Y-4760000I-20000J0D01*
G01*
X7740000Y-4760000D02*
G75*
G02*
X7780000Y-4760000I20000J0D01*
G01*
X7790000Y-6620000D02*
G75*
G02*
X7750000Y-6620000I-20000J0D01*
G01*
X7750000Y-6620000D02*
G75*
G02*
X7790000Y-6620000I20000J0D01*
G01*
X7840000Y-5650000D02*
G75*
G02*
X7800000Y-5650000I-20000J0D01*
G01*
X7800000Y-5650000D02*
G75*
G02*
X7840000Y-5650000I20000J0D01*
G01*
X7950000Y-7700000D02*
G75*
G02*
X7910000Y-7700000I-20000J0D01*
G01*
X7910000Y-7700000D02*
G75*
G02*
X7950000Y-7700000I20000J0D01*
G01*
X8050000Y-7700000D02*
G75*
G02*
X8010000Y-7700000I-20000J0D01*
G01*
X8010000Y-7700000D02*
G75*
G02*
X8050000Y-7700000I20000J0D01*
G01*
X8330000Y-4760000D02*
G75*
G02*
X8290000Y-4760000I-20000J0D01*
G01*
X8290000Y-4760000D02*
G75*
G02*
X8330000Y-4760000I20000J0D01*
G01*
X8480000Y-7110000D02*
G75*
G02*
X8440000Y-7110000I-20000J0D01*
G01*
X8440000Y-7110000D02*
G75*
G02*
X8480000Y-7110000I20000J0D01*
G01*
X8600000Y-5590000D02*
G75*
G02*
X8560000Y-5590000I-20000J0D01*
G01*
X8560000Y-5590000D02*
G75*
G02*
X8600000Y-5590000I20000J0D01*
G01*
X8600000Y-7490000D02*
G75*
G02*
X8560000Y-7490000I-20000J0D01*
G01*
X8560000Y-7490000D02*
G75*
G02*
X8600000Y-7490000I20000J0D01*
G01*
X8610000Y-7760000D02*
G75*
G02*
X8570000Y-7760000I-20000J0D01*
G01*
X8570000Y-7760000D02*
G75*
G02*
X8610000Y-7760000I20000J0D01*
G01*
X8610000Y-7950000D02*
G75*
G02*
X8570000Y-7950000I-20000J0D01*
G01*
X8570000Y-7950000D02*
G75*
G02*
X8610000Y-7950000I20000J0D01*
G01*
X8630000Y-7120000D02*
G75*
G02*
X8590000Y-7120000I-20000J0D01*
G01*
X8590000Y-7120000D02*
G75*
G02*
X8630000Y-7120000I20000J0D01*
G01*
X8710000Y-7040000D02*
G75*
G02*
X8670000Y-7040000I-20000J0D01*
G01*
X8670000Y-7040000D02*
G75*
G02*
X8710000Y-7040000I20000J0D01*
G01*
X8780000Y-7520000D02*
G75*
G02*
X8740000Y-7520000I-20000J0D01*
G01*
X8740000Y-7520000D02*
G75*
G02*
X8780000Y-7520000I20000J0D01*
G01*
X8790000Y-5960000D02*
G75*
G02*
X8750000Y-5960000I-20000J0D01*
G01*
X8750000Y-5960000D02*
G75*
G02*
X8790000Y-5960000I20000J0D01*
G01*
X8800000Y-7320000D02*
G75*
G02*
X8760000Y-7320000I-20000J0D01*
G01*
X8760000Y-7320000D02*
G75*
G02*
X8800000Y-7320000I20000J0D01*
G01*
X8910000Y-5820000D02*
G75*
G02*
X8870000Y-5820000I-20000J0D01*
G01*
X8870000Y-5820000D02*
G75*
G02*
X8910000Y-5820000I20000J0D01*
G01*
X8910000Y-6830000D02*
G75*
G02*
X8870000Y-6830000I-20000J0D01*
G01*
X8870000Y-6830000D02*
G75*
G02*
X8910000Y-6830000I20000J0D01*
G01*
X8960000Y-4790000D02*
G75*
G02*
X8920000Y-4790000I-20000J0D01*
G01*
X8920000Y-4790000D02*
G75*
G02*
X8960000Y-4790000I20000J0D01*
G01*
X8960000Y-5590000D02*
G75*
G02*
X8920000Y-5590000I-20000J0D01*
G01*
X8920000Y-5590000D02*
G75*
G02*
X8960000Y-5590000I20000J0D01*
G01*
X8970000Y-6230000D02*
G75*
G02*
X8930000Y-6230000I-20000J0D01*
G01*
X8930000Y-6230000D02*
G75*
G02*
X8970000Y-6230000I20000J0D01*
G01*
X8970000Y-6630000D02*
G75*
G02*
X8930000Y-6630000I-20000J0D01*
G01*
X8930000Y-6630000D02*
G75*
G02*
X8970000Y-6630000I20000J0D01*
G01*
X8970000Y-7930000D02*
G75*
G02*
X8930000Y-7930000I-20000J0D01*
G01*
X8930000Y-7930000D02*
G75*
G02*
X8970000Y-7930000I20000J0D01*
G01*
X9040000Y-5900000D02*
G75*
G02*
X9000000Y-5900000I-20000J0D01*
G01*
X9000000Y-5900000D02*
G75*
G02*
X9040000Y-5900000I20000J0D01*
G01*
X9040000Y-6070000D02*
G75*
G02*
X9000000Y-6070000I-20000J0D01*
G01*
X9000000Y-6070000D02*
G75*
G02*
X9040000Y-6070000I20000J0D01*
G01*
X9040000Y-6790000D02*
G75*
G02*
X9000000Y-6790000I-20000J0D01*
G01*
X9000000Y-6790000D02*
G75*
G02*
X9040000Y-6790000I20000J0D01*
G01*
X9100000Y-7000000D02*
G75*
G02*
X9060000Y-7000000I-20000J0D01*
G01*
X9060000Y-7000000D02*
G75*
G02*
X9100000Y-7000000I20000J0D01*
G01*
X9300000Y-5800000D02*
G75*
G02*
X9260000Y-5800000I-20000J0D01*
G01*
X9260000Y-5800000D02*
G75*
G02*
X9300000Y-5800000I20000J0D01*
G01*
X7568000Y-4080500D02*
X7568000Y-4140500D01*
X7538000Y-4110500D02*
X7598000Y-4110500D01*
X7598000Y-4140500D02*
X7598000Y-4080500D01*
X7538000Y-4080500D02*
G75*
G02*
X7598000Y-4080500I30000J0D01*
G01*
X7538000Y-4080500D02*
X7538000Y-4140500D01*
X7538000Y-4140500D02*
G75*
G03*
X7598000Y-4140500I30000J0D01*
G01*
X7568000Y-4498500D02*
X7568000Y-4558500D01*
X7538000Y-4528500D02*
X7598000Y-4528500D01*
X7598000Y-4583500D02*
X7598000Y-4473500D01*
X7538000Y-4473500D02*
G75*
G02*
X7598000Y-4473500I30000J0D01*
G01*
X7538000Y-4473500D02*
X7538000Y-4583500D01*
X7538000Y-4583500D02*
G75*
G03*
X7598000Y-4583500I30000J0D01*
G01*
X8432000Y-4080500D02*
X8432000Y-4140500D01*
X8402000Y-4110500D02*
X8462000Y-4110500D01*
X8462000Y-4140500D02*
X8462000Y-4080500D01*
X8402000Y-4080500D02*
G75*
G02*
X8462000Y-4080500I30000J0D01*
G01*
X8402000Y-4080500D02*
X8402000Y-4140500D01*
X8402000Y-4140500D02*
G75*
G03*
X8462000Y-4140500I30000J0D01*
G01*
X8432000Y-4498500D02*
X8432000Y-4558500D01*
X8402000Y-4528500D02*
X8462000Y-4528500D01*
X8462000Y-4583500D02*
X8462000Y-4473500D01*
X8402000Y-4473500D02*
G75*
G02*
X8462000Y-4473500I30000J0D01*
G01*
X8402000Y-4473500D02*
X8402000Y-4583500D01*
X8402000Y-4583500D02*
G75*
G03*
X8462000Y-4583500I30000J0D01*
G01*
D11*
X6758277Y-8463984D02*
X6758277Y-8263984D01*
X6758277Y-8263984D02*
X6805896Y-8263984D01*
X6805896Y-8263984D02*
X6834467Y-8273508D01*
X6834467Y-8273508D02*
X6853515Y-8292555D01*
X6853515Y-8292555D02*
X6863039Y-8311603D01*
X6863039Y-8311603D02*
X6872562Y-8349698D01*
X6872562Y-8349698D02*
X6872562Y-8378269D01*
X6872562Y-8378269D02*
X6863039Y-8416365D01*
X6863039Y-8416365D02*
X6853515Y-8435412D01*
X6853515Y-8435412D02*
X6834467Y-8454460D01*
X6834467Y-8454460D02*
X6805896Y-8463984D01*
X6805896Y-8463984D02*
X6758277Y-8463984D01*
X6958277Y-8463984D02*
X6958277Y-8330650D01*
X6958277Y-8368746D02*
X6967801Y-8349698D01*
X6967801Y-8349698D02*
X6977324Y-8340174D01*
X6977324Y-8340174D02*
X6996372Y-8330650D01*
X6996372Y-8330650D02*
X7015420Y-8330650D01*
X7082086Y-8463984D02*
X7082086Y-8330650D01*
X7082086Y-8263984D02*
X7072562Y-8273508D01*
X7072562Y-8273508D02*
X7082086Y-8283031D01*
X7082086Y-8283031D02*
X7091610Y-8273508D01*
X7091610Y-8273508D02*
X7082086Y-8263984D01*
X7082086Y-8263984D02*
X7082086Y-8283031D01*
X7205896Y-8463984D02*
X7186848Y-8454460D01*
X7186848Y-8454460D02*
X7177324Y-8435412D01*
X7177324Y-8435412D02*
X7177324Y-8263984D01*
X7310658Y-8463984D02*
X7291610Y-8454460D01*
X7291610Y-8454460D02*
X7282086Y-8435412D01*
X7282086Y-8435412D02*
X7282086Y-8263984D01*
X7539229Y-8463984D02*
X7539229Y-8263984D01*
X7539229Y-8263984D02*
X7605896Y-8406841D01*
X7605896Y-8406841D02*
X7672562Y-8263984D01*
X7672562Y-8263984D02*
X7672562Y-8463984D01*
X7853515Y-8463984D02*
X7853515Y-8359222D01*
X7853515Y-8359222D02*
X7843991Y-8340174D01*
X7843991Y-8340174D02*
X7824943Y-8330650D01*
X7824943Y-8330650D02*
X7786848Y-8330650D01*
X7786848Y-8330650D02*
X7767801Y-8340174D01*
X7853515Y-8454460D02*
X7834467Y-8463984D01*
X7834467Y-8463984D02*
X7786848Y-8463984D01*
X7786848Y-8463984D02*
X7767801Y-8454460D01*
X7767801Y-8454460D02*
X7758277Y-8435412D01*
X7758277Y-8435412D02*
X7758277Y-8416365D01*
X7758277Y-8416365D02*
X7767801Y-8397317D01*
X7767801Y-8397317D02*
X7786848Y-8387793D01*
X7786848Y-8387793D02*
X7834467Y-8387793D01*
X7834467Y-8387793D02*
X7853515Y-8378269D01*
X7948753Y-8330650D02*
X7948753Y-8530650D01*
X7948753Y-8340174D02*
X7967801Y-8330650D01*
X7967801Y-8330650D02*
X8005896Y-8330650D01*
X8005896Y-8330650D02*
X8024943Y-8340174D01*
X8024943Y-8340174D02*
X8034467Y-8349698D01*
X8034467Y-8349698D02*
X8043991Y-8368746D01*
X8043991Y-8368746D02*
X8043991Y-8425889D01*
X8043991Y-8425889D02*
X8034467Y-8444936D01*
X8034467Y-8444936D02*
X8024943Y-8454460D01*
X8024943Y-8454460D02*
X8005896Y-8463984D01*
X8005896Y-8463984D02*
X7967801Y-8463984D01*
X7967801Y-8463984D02*
X7948753Y-8454460D01*
X8129705Y-8444936D02*
X8139229Y-8454460D01*
X8139229Y-8454460D02*
X8129705Y-8463984D01*
X8129705Y-8463984D02*
X8120182Y-8454460D01*
X8120182Y-8454460D02*
X8129705Y-8444936D01*
X8129705Y-8444936D02*
X8129705Y-8463984D01*
X8129705Y-8340174D02*
X8139229Y-8349698D01*
X8139229Y-8349698D02*
X8129705Y-8359222D01*
X8129705Y-8359222D02*
X8120182Y-8349698D01*
X8120182Y-8349698D02*
X8129705Y-8340174D01*
X8129705Y-8340174D02*
X8129705Y-8359222D01*
D12*
X6467500Y-8777500D02*
X6497500Y-8807500D01*
X6497500Y-8777500D02*
X6467500Y-8807500D01*
D11*
X6796372Y-8683984D02*
X6815420Y-8683984D01*
X6815420Y-8683984D02*
X6834467Y-8693508D01*
X6834467Y-8693508D02*
X6843991Y-8703031D01*
X6843991Y-8703031D02*
X6853515Y-8722079D01*
X6853515Y-8722079D02*
X6863039Y-8760174D01*
X6863039Y-8760174D02*
X6863039Y-8807793D01*
X6863039Y-8807793D02*
X6853515Y-8845889D01*
X6853515Y-8845889D02*
X6843991Y-8864936D01*
X6843991Y-8864936D02*
X6834467Y-8874460D01*
X6834467Y-8874460D02*
X6815420Y-8883984D01*
X6815420Y-8883984D02*
X6796372Y-8883984D01*
X6796372Y-8883984D02*
X6777324Y-8874460D01*
X6777324Y-8874460D02*
X6767801Y-8864936D01*
X6767801Y-8864936D02*
X6758277Y-8845889D01*
X6758277Y-8845889D02*
X6748753Y-8807793D01*
X6748753Y-8807793D02*
X6748753Y-8760174D01*
X6748753Y-8760174D02*
X6758277Y-8722079D01*
X6758277Y-8722079D02*
X6767801Y-8703031D01*
X6767801Y-8703031D02*
X6777324Y-8693508D01*
X6777324Y-8693508D02*
X6796372Y-8683984D01*
X6948753Y-8864936D02*
X6958277Y-8874460D01*
X6958277Y-8874460D02*
X6948753Y-8883984D01*
X6948753Y-8883984D02*
X6939229Y-8874460D01*
X6939229Y-8874460D02*
X6948753Y-8864936D01*
X6948753Y-8864936D02*
X6948753Y-8883984D01*
X7024943Y-8683984D02*
X7148753Y-8683984D01*
X7148753Y-8683984D02*
X7082086Y-8760174D01*
X7082086Y-8760174D02*
X7110658Y-8760174D01*
X7110658Y-8760174D02*
X7129705Y-8769698D01*
X7129705Y-8769698D02*
X7139229Y-8779222D01*
X7139229Y-8779222D02*
X7148753Y-8798270D01*
X7148753Y-8798270D02*
X7148753Y-8845889D01*
X7148753Y-8845889D02*
X7139229Y-8864936D01*
X7139229Y-8864936D02*
X7129705Y-8874460D01*
X7129705Y-8874460D02*
X7110658Y-8883984D01*
X7110658Y-8883984D02*
X7053515Y-8883984D01*
X7053515Y-8883984D02*
X7034467Y-8874460D01*
X7034467Y-8874460D02*
X7024943Y-8864936D01*
X7272562Y-8683984D02*
X7291610Y-8683984D01*
X7291610Y-8683984D02*
X7310658Y-8693508D01*
X7310658Y-8693508D02*
X7320182Y-8703031D01*
X7320182Y-8703031D02*
X7329705Y-8722079D01*
X7329705Y-8722079D02*
X7339229Y-8760174D01*
X7339229Y-8760174D02*
X7339229Y-8807793D01*
X7339229Y-8807793D02*
X7329705Y-8845889D01*
X7329705Y-8845889D02*
X7320182Y-8864936D01*
X7320182Y-8864936D02*
X7310658Y-8874460D01*
X7310658Y-8874460D02*
X7291610Y-8883984D01*
X7291610Y-8883984D02*
X7272562Y-8883984D01*
X7272562Y-8883984D02*
X7253515Y-8874460D01*
X7253515Y-8874460D02*
X7243991Y-8864936D01*
X7243991Y-8864936D02*
X7234467Y-8845889D01*
X7234467Y-8845889D02*
X7224943Y-8807793D01*
X7224943Y-8807793D02*
X7224943Y-8760174D01*
X7224943Y-8760174D02*
X7234467Y-8722079D01*
X7234467Y-8722079D02*
X7243991Y-8703031D01*
X7243991Y-8703031D02*
X7253515Y-8693508D01*
X7253515Y-8693508D02*
X7272562Y-8683984D01*
X7463039Y-8683984D02*
X7482086Y-8683984D01*
X7482086Y-8683984D02*
X7501134Y-8693508D01*
X7501134Y-8693508D02*
X7510658Y-8703031D01*
X7510658Y-8703031D02*
X7520182Y-8722079D01*
X7520182Y-8722079D02*
X7529705Y-8760174D01*
X7529705Y-8760174D02*
X7529705Y-8807793D01*
X7529705Y-8807793D02*
X7520182Y-8845889D01*
X7520182Y-8845889D02*
X7510658Y-8864936D01*
X7510658Y-8864936D02*
X7501134Y-8874460D01*
X7501134Y-8874460D02*
X7482086Y-8883984D01*
X7482086Y-8883984D02*
X7463039Y-8883984D01*
X7463039Y-8883984D02*
X7443991Y-8874460D01*
X7443991Y-8874460D02*
X7434467Y-8864936D01*
X7434467Y-8864936D02*
X7424943Y-8845889D01*
X7424943Y-8845889D02*
X7415420Y-8807793D01*
X7415420Y-8807793D02*
X7415420Y-8760174D01*
X7415420Y-8760174D02*
X7424943Y-8722079D01*
X7424943Y-8722079D02*
X7434467Y-8703031D01*
X7434467Y-8703031D02*
X7443991Y-8693508D01*
X7443991Y-8693508D02*
X7463039Y-8683984D01*
X7615420Y-8883984D02*
X7615420Y-8750650D01*
X7615420Y-8769698D02*
X7624943Y-8760174D01*
X7624943Y-8760174D02*
X7643991Y-8750650D01*
X7643991Y-8750650D02*
X7672563Y-8750650D01*
X7672563Y-8750650D02*
X7691610Y-8760174D01*
X7691610Y-8760174D02*
X7701134Y-8779222D01*
X7701134Y-8779222D02*
X7701134Y-8883984D01*
X7701134Y-8779222D02*
X7710658Y-8760174D01*
X7710658Y-8760174D02*
X7729705Y-8750650D01*
X7729705Y-8750650D02*
X7758277Y-8750650D01*
X7758277Y-8750650D02*
X7777324Y-8760174D01*
X7777324Y-8760174D02*
X7786848Y-8779222D01*
X7786848Y-8779222D02*
X7786848Y-8883984D01*
X7882086Y-8883984D02*
X7882086Y-8750650D01*
X7882086Y-8769698D02*
X7891610Y-8760174D01*
X7891610Y-8760174D02*
X7910658Y-8750650D01*
X7910658Y-8750650D02*
X7939229Y-8750650D01*
X7939229Y-8750650D02*
X7958277Y-8760174D01*
X7958277Y-8760174D02*
X7967801Y-8779222D01*
X7967801Y-8779222D02*
X7967801Y-8883984D01*
X7967801Y-8779222D02*
X7977324Y-8760174D01*
X7977324Y-8760174D02*
X7996372Y-8750650D01*
X7996372Y-8750650D02*
X8024943Y-8750650D01*
X8024943Y-8750650D02*
X8043991Y-8760174D01*
X8043991Y-8760174D02*
X8053515Y-8779222D01*
X8053515Y-8779222D02*
X8053515Y-8883984D01*
X8443991Y-8674460D02*
X8272563Y-8931603D01*
X8701134Y-8683984D02*
X8720182Y-8683984D01*
X8720182Y-8683984D02*
X8739229Y-8693508D01*
X8739229Y-8693508D02*
X8748753Y-8703031D01*
X8748753Y-8703031D02*
X8758277Y-8722079D01*
X8758277Y-8722079D02*
X8767801Y-8760174D01*
X8767801Y-8760174D02*
X8767801Y-8807793D01*
X8767801Y-8807793D02*
X8758277Y-8845889D01*
X8758277Y-8845889D02*
X8748753Y-8864936D01*
X8748753Y-8864936D02*
X8739229Y-8874460D01*
X8739229Y-8874460D02*
X8720182Y-8883984D01*
X8720182Y-8883984D02*
X8701134Y-8883984D01*
X8701134Y-8883984D02*
X8682087Y-8874460D01*
X8682087Y-8874460D02*
X8672563Y-8864936D01*
X8672563Y-8864936D02*
X8663039Y-8845889D01*
X8663039Y-8845889D02*
X8653515Y-8807793D01*
X8653515Y-8807793D02*
X8653515Y-8760174D01*
X8653515Y-8760174D02*
X8663039Y-8722079D01*
X8663039Y-8722079D02*
X8672563Y-8703031D01*
X8672563Y-8703031D02*
X8682087Y-8693508D01*
X8682087Y-8693508D02*
X8701134Y-8683984D01*
X8853515Y-8864936D02*
X8863039Y-8874460D01*
X8863039Y-8874460D02*
X8853515Y-8883984D01*
X8853515Y-8883984D02*
X8843991Y-8874460D01*
X8843991Y-8874460D02*
X8853515Y-8864936D01*
X8853515Y-8864936D02*
X8853515Y-8883984D01*
X8986848Y-8683984D02*
X9005896Y-8683984D01*
X9005896Y-8683984D02*
X9024944Y-8693508D01*
X9024944Y-8693508D02*
X9034468Y-8703031D01*
X9034468Y-8703031D02*
X9043991Y-8722079D01*
X9043991Y-8722079D02*
X9053515Y-8760174D01*
X9053515Y-8760174D02*
X9053515Y-8807793D01*
X9053515Y-8807793D02*
X9043991Y-8845889D01*
X9043991Y-8845889D02*
X9034468Y-8864936D01*
X9034468Y-8864936D02*
X9024944Y-8874460D01*
X9024944Y-8874460D02*
X9005896Y-8883984D01*
X9005896Y-8883984D02*
X8986848Y-8883984D01*
X8986848Y-8883984D02*
X8967801Y-8874460D01*
X8967801Y-8874460D02*
X8958277Y-8864936D01*
X8958277Y-8864936D02*
X8948753Y-8845889D01*
X8948753Y-8845889D02*
X8939229Y-8807793D01*
X8939229Y-8807793D02*
X8939229Y-8760174D01*
X8939229Y-8760174D02*
X8948753Y-8722079D01*
X8948753Y-8722079D02*
X8958277Y-8703031D01*
X8958277Y-8703031D02*
X8967801Y-8693508D01*
X8967801Y-8693508D02*
X8986848Y-8683984D01*
X9243991Y-8883984D02*
X9129706Y-8883984D01*
X9186848Y-8883984D02*
X9186848Y-8683984D01*
X9186848Y-8683984D02*
X9167801Y-8712555D01*
X9167801Y-8712555D02*
X9148753Y-8731603D01*
X9148753Y-8731603D02*
X9129706Y-8741127D01*
X9434468Y-8883984D02*
X9320182Y-8883984D01*
X9377325Y-8883984D02*
X9377325Y-8683984D01*
X9377325Y-8683984D02*
X9358277Y-8712555D01*
X9358277Y-8712555D02*
X9339229Y-8731603D01*
X9339229Y-8731603D02*
X9320182Y-8741127D01*
X9548753Y-8769698D02*
X9529706Y-8760174D01*
X9529706Y-8760174D02*
X9520182Y-8750650D01*
X9520182Y-8750650D02*
X9510658Y-8731603D01*
X9510658Y-8731603D02*
X9510658Y-8722079D01*
X9510658Y-8722079D02*
X9520182Y-8703031D01*
X9520182Y-8703031D02*
X9529706Y-8693508D01*
X9529706Y-8693508D02*
X9548753Y-8683984D01*
X9548753Y-8683984D02*
X9586849Y-8683984D01*
X9586849Y-8683984D02*
X9605896Y-8693508D01*
X9605896Y-8693508D02*
X9615420Y-8703031D01*
X9615420Y-8703031D02*
X9624944Y-8722079D01*
X9624944Y-8722079D02*
X9624944Y-8731603D01*
X9624944Y-8731603D02*
X9615420Y-8750650D01*
X9615420Y-8750650D02*
X9605896Y-8760174D01*
X9605896Y-8760174D02*
X9586849Y-8769698D01*
X9586849Y-8769698D02*
X9548753Y-8769698D01*
X9548753Y-8769698D02*
X9529706Y-8779222D01*
X9529706Y-8779222D02*
X9520182Y-8788746D01*
X9520182Y-8788746D02*
X9510658Y-8807793D01*
X9510658Y-8807793D02*
X9510658Y-8845889D01*
X9510658Y-8845889D02*
X9520182Y-8864936D01*
X9520182Y-8864936D02*
X9529706Y-8874460D01*
X9529706Y-8874460D02*
X9548753Y-8883984D01*
X9548753Y-8883984D02*
X9586849Y-8883984D01*
X9586849Y-8883984D02*
X9605896Y-8874460D01*
X9605896Y-8874460D02*
X9615420Y-8864936D01*
X9615420Y-8864936D02*
X9624944Y-8845889D01*
X9624944Y-8845889D02*
X9624944Y-8807793D01*
X9624944Y-8807793D02*
X9615420Y-8788746D01*
X9615420Y-8788746D02*
X9605896Y-8779222D01*
X9605896Y-8779222D02*
X9586849Y-8769698D01*
X9701134Y-8683984D02*
X9701134Y-8722079D01*
X9777325Y-8683984D02*
X9777325Y-8722079D01*
X10072563Y-8960174D02*
X10063039Y-8950650D01*
X10063039Y-8950650D02*
X10043991Y-8922079D01*
X10043991Y-8922079D02*
X10034468Y-8903031D01*
X10034468Y-8903031D02*
X10024944Y-8874460D01*
X10024944Y-8874460D02*
X10015420Y-8826841D01*
X10015420Y-8826841D02*
X10015420Y-8788746D01*
X10015420Y-8788746D02*
X10024944Y-8741127D01*
X10024944Y-8741127D02*
X10034468Y-8712555D01*
X10034468Y-8712555D02*
X10043991Y-8693508D01*
X10043991Y-8693508D02*
X10063039Y-8664936D01*
X10063039Y-8664936D02*
X10072563Y-8655412D01*
X10243991Y-8683984D02*
X10148753Y-8683984D01*
X10148753Y-8683984D02*
X10139230Y-8779222D01*
X10139230Y-8779222D02*
X10148753Y-8769698D01*
X10148753Y-8769698D02*
X10167801Y-8760174D01*
X10167801Y-8760174D02*
X10215420Y-8760174D01*
X10215420Y-8760174D02*
X10234468Y-8769698D01*
X10234468Y-8769698D02*
X10243991Y-8779222D01*
X10243991Y-8779222D02*
X10253515Y-8798270D01*
X10253515Y-8798270D02*
X10253515Y-8845889D01*
X10253515Y-8845889D02*
X10243991Y-8864936D01*
X10243991Y-8864936D02*
X10234468Y-8874460D01*
X10234468Y-8874460D02*
X10215420Y-8883984D01*
X10215420Y-8883984D02*
X10167801Y-8883984D01*
X10167801Y-8883984D02*
X10148753Y-8874460D01*
X10148753Y-8874460D02*
X10139230Y-8864936D01*
X10424944Y-8683984D02*
X10386849Y-8683984D01*
X10386849Y-8683984D02*
X10367801Y-8693508D01*
X10367801Y-8693508D02*
X10358277Y-8703031D01*
X10358277Y-8703031D02*
X10339230Y-8731603D01*
X10339230Y-8731603D02*
X10329706Y-8769698D01*
X10329706Y-8769698D02*
X10329706Y-8845889D01*
X10329706Y-8845889D02*
X10339230Y-8864936D01*
X10339230Y-8864936D02*
X10348753Y-8874460D01*
X10348753Y-8874460D02*
X10367801Y-8883984D01*
X10367801Y-8883984D02*
X10405896Y-8883984D01*
X10405896Y-8883984D02*
X10424944Y-8874460D01*
X10424944Y-8874460D02*
X10434468Y-8864936D01*
X10434468Y-8864936D02*
X10443991Y-8845889D01*
X10443991Y-8845889D02*
X10443991Y-8798270D01*
X10443991Y-8798270D02*
X10434468Y-8779222D01*
X10434468Y-8779222D02*
X10424944Y-8769698D01*
X10424944Y-8769698D02*
X10405896Y-8760174D01*
X10405896Y-8760174D02*
X10367801Y-8760174D01*
X10367801Y-8760174D02*
X10348753Y-8769698D01*
X10348753Y-8769698D02*
X10339230Y-8779222D01*
X10339230Y-8779222D02*
X10329706Y-8798270D01*
X10682087Y-8883984D02*
X10682087Y-8683984D01*
X10767801Y-8883984D02*
X10767801Y-8779222D01*
X10767801Y-8779222D02*
X10758277Y-8760174D01*
X10758277Y-8760174D02*
X10739230Y-8750650D01*
X10739230Y-8750650D02*
X10710658Y-8750650D01*
X10710658Y-8750650D02*
X10691611Y-8760174D01*
X10691611Y-8760174D02*
X10682087Y-8769698D01*
X10891611Y-8883984D02*
X10872563Y-8874460D01*
X10872563Y-8874460D02*
X10863039Y-8864936D01*
X10863039Y-8864936D02*
X10853515Y-8845889D01*
X10853515Y-8845889D02*
X10853515Y-8788746D01*
X10853515Y-8788746D02*
X10863039Y-8769698D01*
X10863039Y-8769698D02*
X10872563Y-8760174D01*
X10872563Y-8760174D02*
X10891611Y-8750650D01*
X10891611Y-8750650D02*
X10920182Y-8750650D01*
X10920182Y-8750650D02*
X10939230Y-8760174D01*
X10939230Y-8760174D02*
X10948753Y-8769698D01*
X10948753Y-8769698D02*
X10958277Y-8788746D01*
X10958277Y-8788746D02*
X10958277Y-8845889D01*
X10958277Y-8845889D02*
X10948753Y-8864936D01*
X10948753Y-8864936D02*
X10939230Y-8874460D01*
X10939230Y-8874460D02*
X10920182Y-8883984D01*
X10920182Y-8883984D02*
X10891611Y-8883984D01*
X11072563Y-8883984D02*
X11053515Y-8874460D01*
X11053515Y-8874460D02*
X11043992Y-8855412D01*
X11043992Y-8855412D02*
X11043992Y-8683984D01*
X11224944Y-8874460D02*
X11205896Y-8883984D01*
X11205896Y-8883984D02*
X11167801Y-8883984D01*
X11167801Y-8883984D02*
X11148753Y-8874460D01*
X11148753Y-8874460D02*
X11139230Y-8855412D01*
X11139230Y-8855412D02*
X11139230Y-8779222D01*
X11139230Y-8779222D02*
X11148753Y-8760174D01*
X11148753Y-8760174D02*
X11167801Y-8750650D01*
X11167801Y-8750650D02*
X11205896Y-8750650D01*
X11205896Y-8750650D02*
X11224944Y-8760174D01*
X11224944Y-8760174D02*
X11234468Y-8779222D01*
X11234468Y-8779222D02*
X11234468Y-8798270D01*
X11234468Y-8798270D02*
X11139230Y-8817317D01*
X11310658Y-8874460D02*
X11329706Y-8883984D01*
X11329706Y-8883984D02*
X11367801Y-8883984D01*
X11367801Y-8883984D02*
X11386849Y-8874460D01*
X11386849Y-8874460D02*
X11396372Y-8855412D01*
X11396372Y-8855412D02*
X11396372Y-8845889D01*
X11396372Y-8845889D02*
X11386849Y-8826841D01*
X11386849Y-8826841D02*
X11367801Y-8817317D01*
X11367801Y-8817317D02*
X11339230Y-8817317D01*
X11339230Y-8817317D02*
X11320182Y-8807793D01*
X11320182Y-8807793D02*
X11310658Y-8788746D01*
X11310658Y-8788746D02*
X11310658Y-8779222D01*
X11310658Y-8779222D02*
X11320182Y-8760174D01*
X11320182Y-8760174D02*
X11339230Y-8750650D01*
X11339230Y-8750650D02*
X11367801Y-8750650D01*
X11367801Y-8750650D02*
X11386849Y-8760174D01*
X11463039Y-8960174D02*
X11472563Y-8950650D01*
X11472563Y-8950650D02*
X11491611Y-8922079D01*
X11491611Y-8922079D02*
X11501134Y-8903031D01*
X11501134Y-8903031D02*
X11510658Y-8874460D01*
X11510658Y-8874460D02*
X11520182Y-8826841D01*
X11520182Y-8826841D02*
X11520182Y-8788746D01*
X11520182Y-8788746D02*
X11510658Y-8741127D01*
X11510658Y-8741127D02*
X11501134Y-8712555D01*
X11501134Y-8712555D02*
X11491611Y-8693508D01*
X11491611Y-8693508D02*
X11472563Y-8664936D01*
X11472563Y-8664936D02*
X11463039Y-8655412D01*
D12*
X6497500Y-9056500D02*
G75*
G02*
X6457500Y-9056500I-20000J0D01*
G01*
X6457500Y-9056500D02*
G75*
G02*
X6497500Y-9056500I20000J0D01*
G01*
D11*
X6796372Y-8947984D02*
X6815420Y-8947984D01*
X6815420Y-8947984D02*
X6834467Y-8957508D01*
X6834467Y-8957508D02*
X6843991Y-8967031D01*
X6843991Y-8967031D02*
X6853515Y-8986079D01*
X6853515Y-8986079D02*
X6863039Y-9024174D01*
X6863039Y-9024174D02*
X6863039Y-9071793D01*
X6863039Y-9071793D02*
X6853515Y-9109889D01*
X6853515Y-9109889D02*
X6843991Y-9128936D01*
X6843991Y-9128936D02*
X6834467Y-9138460D01*
X6834467Y-9138460D02*
X6815420Y-9147984D01*
X6815420Y-9147984D02*
X6796372Y-9147984D01*
X6796372Y-9147984D02*
X6777324Y-9138460D01*
X6777324Y-9138460D02*
X6767801Y-9128936D01*
X6767801Y-9128936D02*
X6758277Y-9109889D01*
X6758277Y-9109889D02*
X6748753Y-9071793D01*
X6748753Y-9071793D02*
X6748753Y-9024174D01*
X6748753Y-9024174D02*
X6758277Y-8986079D01*
X6758277Y-8986079D02*
X6767801Y-8967031D01*
X6767801Y-8967031D02*
X6777324Y-8957508D01*
X6777324Y-8957508D02*
X6796372Y-8947984D01*
X6948753Y-9128936D02*
X6958277Y-9138460D01*
X6958277Y-9138460D02*
X6948753Y-9147984D01*
X6948753Y-9147984D02*
X6939229Y-9138460D01*
X6939229Y-9138460D02*
X6948753Y-9128936D01*
X6948753Y-9128936D02*
X6948753Y-9147984D01*
X7129705Y-9014650D02*
X7129705Y-9147984D01*
X7082086Y-8938460D02*
X7034467Y-9081317D01*
X7034467Y-9081317D02*
X7158277Y-9081317D01*
X7272562Y-8947984D02*
X7291610Y-8947984D01*
X7291610Y-8947984D02*
X7310658Y-8957508D01*
X7310658Y-8957508D02*
X7320182Y-8967031D01*
X7320182Y-8967031D02*
X7329705Y-8986079D01*
X7329705Y-8986079D02*
X7339229Y-9024174D01*
X7339229Y-9024174D02*
X7339229Y-9071793D01*
X7339229Y-9071793D02*
X7329705Y-9109889D01*
X7329705Y-9109889D02*
X7320182Y-9128936D01*
X7320182Y-9128936D02*
X7310658Y-9138460D01*
X7310658Y-9138460D02*
X7291610Y-9147984D01*
X7291610Y-9147984D02*
X7272562Y-9147984D01*
X7272562Y-9147984D02*
X7253515Y-9138460D01*
X7253515Y-9138460D02*
X7243991Y-9128936D01*
X7243991Y-9128936D02*
X7234467Y-9109889D01*
X7234467Y-9109889D02*
X7224943Y-9071793D01*
X7224943Y-9071793D02*
X7224943Y-9024174D01*
X7224943Y-9024174D02*
X7234467Y-8986079D01*
X7234467Y-8986079D02*
X7243991Y-8967031D01*
X7243991Y-8967031D02*
X7253515Y-8957508D01*
X7253515Y-8957508D02*
X7272562Y-8947984D01*
X7463039Y-8947984D02*
X7482086Y-8947984D01*
X7482086Y-8947984D02*
X7501134Y-8957508D01*
X7501134Y-8957508D02*
X7510658Y-8967031D01*
X7510658Y-8967031D02*
X7520182Y-8986079D01*
X7520182Y-8986079D02*
X7529705Y-9024174D01*
X7529705Y-9024174D02*
X7529705Y-9071793D01*
X7529705Y-9071793D02*
X7520182Y-9109889D01*
X7520182Y-9109889D02*
X7510658Y-9128936D01*
X7510658Y-9128936D02*
X7501134Y-9138460D01*
X7501134Y-9138460D02*
X7482086Y-9147984D01*
X7482086Y-9147984D02*
X7463039Y-9147984D01*
X7463039Y-9147984D02*
X7443991Y-9138460D01*
X7443991Y-9138460D02*
X7434467Y-9128936D01*
X7434467Y-9128936D02*
X7424943Y-9109889D01*
X7424943Y-9109889D02*
X7415420Y-9071793D01*
X7415420Y-9071793D02*
X7415420Y-9024174D01*
X7415420Y-9024174D02*
X7424943Y-8986079D01*
X7424943Y-8986079D02*
X7434467Y-8967031D01*
X7434467Y-8967031D02*
X7443991Y-8957508D01*
X7443991Y-8957508D02*
X7463039Y-8947984D01*
X7615420Y-9147984D02*
X7615420Y-9014650D01*
X7615420Y-9033698D02*
X7624943Y-9024174D01*
X7624943Y-9024174D02*
X7643991Y-9014650D01*
X7643991Y-9014650D02*
X7672563Y-9014650D01*
X7672563Y-9014650D02*
X7691610Y-9024174D01*
X7691610Y-9024174D02*
X7701134Y-9043222D01*
X7701134Y-9043222D02*
X7701134Y-9147984D01*
X7701134Y-9043222D02*
X7710658Y-9024174D01*
X7710658Y-9024174D02*
X7729705Y-9014650D01*
X7729705Y-9014650D02*
X7758277Y-9014650D01*
X7758277Y-9014650D02*
X7777324Y-9024174D01*
X7777324Y-9024174D02*
X7786848Y-9043222D01*
X7786848Y-9043222D02*
X7786848Y-9147984D01*
X7882086Y-9147984D02*
X7882086Y-9014650D01*
X7882086Y-9033698D02*
X7891610Y-9024174D01*
X7891610Y-9024174D02*
X7910658Y-9014650D01*
X7910658Y-9014650D02*
X7939229Y-9014650D01*
X7939229Y-9014650D02*
X7958277Y-9024174D01*
X7958277Y-9024174D02*
X7967801Y-9043222D01*
X7967801Y-9043222D02*
X7967801Y-9147984D01*
X7967801Y-9043222D02*
X7977324Y-9024174D01*
X7977324Y-9024174D02*
X7996372Y-9014650D01*
X7996372Y-9014650D02*
X8024943Y-9014650D01*
X8024943Y-9014650D02*
X8043991Y-9024174D01*
X8043991Y-9024174D02*
X8053515Y-9043222D01*
X8053515Y-9043222D02*
X8053515Y-9147984D01*
X8443991Y-8938460D02*
X8272563Y-9195603D01*
X8701134Y-8947984D02*
X8720182Y-8947984D01*
X8720182Y-8947984D02*
X8739229Y-8957508D01*
X8739229Y-8957508D02*
X8748753Y-8967031D01*
X8748753Y-8967031D02*
X8758277Y-8986079D01*
X8758277Y-8986079D02*
X8767801Y-9024174D01*
X8767801Y-9024174D02*
X8767801Y-9071793D01*
X8767801Y-9071793D02*
X8758277Y-9109889D01*
X8758277Y-9109889D02*
X8748753Y-9128936D01*
X8748753Y-9128936D02*
X8739229Y-9138460D01*
X8739229Y-9138460D02*
X8720182Y-9147984D01*
X8720182Y-9147984D02*
X8701134Y-9147984D01*
X8701134Y-9147984D02*
X8682087Y-9138460D01*
X8682087Y-9138460D02*
X8672563Y-9128936D01*
X8672563Y-9128936D02*
X8663039Y-9109889D01*
X8663039Y-9109889D02*
X8653515Y-9071793D01*
X8653515Y-9071793D02*
X8653515Y-9024174D01*
X8653515Y-9024174D02*
X8663039Y-8986079D01*
X8663039Y-8986079D02*
X8672563Y-8967031D01*
X8672563Y-8967031D02*
X8682087Y-8957508D01*
X8682087Y-8957508D02*
X8701134Y-8947984D01*
X8853515Y-9128936D02*
X8863039Y-9138460D01*
X8863039Y-9138460D02*
X8853515Y-9147984D01*
X8853515Y-9147984D02*
X8843991Y-9138460D01*
X8843991Y-9138460D02*
X8853515Y-9128936D01*
X8853515Y-9128936D02*
X8853515Y-9147984D01*
X8986848Y-8947984D02*
X9005896Y-8947984D01*
X9005896Y-8947984D02*
X9024944Y-8957508D01*
X9024944Y-8957508D02*
X9034468Y-8967031D01*
X9034468Y-8967031D02*
X9043991Y-8986079D01*
X9043991Y-8986079D02*
X9053515Y-9024174D01*
X9053515Y-9024174D02*
X9053515Y-9071793D01*
X9053515Y-9071793D02*
X9043991Y-9109889D01*
X9043991Y-9109889D02*
X9034468Y-9128936D01*
X9034468Y-9128936D02*
X9024944Y-9138460D01*
X9024944Y-9138460D02*
X9005896Y-9147984D01*
X9005896Y-9147984D02*
X8986848Y-9147984D01*
X8986848Y-9147984D02*
X8967801Y-9138460D01*
X8967801Y-9138460D02*
X8958277Y-9128936D01*
X8958277Y-9128936D02*
X8948753Y-9109889D01*
X8948753Y-9109889D02*
X8939229Y-9071793D01*
X8939229Y-9071793D02*
X8939229Y-9024174D01*
X8939229Y-9024174D02*
X8948753Y-8986079D01*
X8948753Y-8986079D02*
X8958277Y-8967031D01*
X8958277Y-8967031D02*
X8967801Y-8957508D01*
X8967801Y-8957508D02*
X8986848Y-8947984D01*
X9243991Y-9147984D02*
X9129706Y-9147984D01*
X9186848Y-9147984D02*
X9186848Y-8947984D01*
X9186848Y-8947984D02*
X9167801Y-8976555D01*
X9167801Y-8976555D02*
X9148753Y-8995603D01*
X9148753Y-8995603D02*
X9129706Y-9005127D01*
X9424944Y-8947984D02*
X9329706Y-8947984D01*
X9329706Y-8947984D02*
X9320182Y-9043222D01*
X9320182Y-9043222D02*
X9329706Y-9033698D01*
X9329706Y-9033698D02*
X9348753Y-9024174D01*
X9348753Y-9024174D02*
X9396372Y-9024174D01*
X9396372Y-9024174D02*
X9415420Y-9033698D01*
X9415420Y-9033698D02*
X9424944Y-9043222D01*
X9424944Y-9043222D02*
X9434468Y-9062270D01*
X9434468Y-9062270D02*
X9434468Y-9109889D01*
X9434468Y-9109889D02*
X9424944Y-9128936D01*
X9424944Y-9128936D02*
X9415420Y-9138460D01*
X9415420Y-9138460D02*
X9396372Y-9147984D01*
X9396372Y-9147984D02*
X9348753Y-9147984D01*
X9348753Y-9147984D02*
X9329706Y-9138460D01*
X9329706Y-9138460D02*
X9320182Y-9128936D01*
X9501134Y-8947984D02*
X9634468Y-8947984D01*
X9634468Y-8947984D02*
X9548753Y-9147984D01*
X9701134Y-8947984D02*
X9701134Y-8986079D01*
X9777325Y-8947984D02*
X9777325Y-8986079D01*
X10072563Y-9224174D02*
X10063039Y-9214650D01*
X10063039Y-9214650D02*
X10043991Y-9186079D01*
X10043991Y-9186079D02*
X10034468Y-9167031D01*
X10034468Y-9167031D02*
X10024944Y-9138460D01*
X10024944Y-9138460D02*
X10015420Y-9090841D01*
X10015420Y-9090841D02*
X10015420Y-9052746D01*
X10015420Y-9052746D02*
X10024944Y-9005127D01*
X10024944Y-9005127D02*
X10034468Y-8976555D01*
X10034468Y-8976555D02*
X10043991Y-8957508D01*
X10043991Y-8957508D02*
X10063039Y-8928936D01*
X10063039Y-8928936D02*
X10072563Y-8919412D01*
X10243991Y-8947984D02*
X10148753Y-8947984D01*
X10148753Y-8947984D02*
X10139230Y-9043222D01*
X10139230Y-9043222D02*
X10148753Y-9033698D01*
X10148753Y-9033698D02*
X10167801Y-9024174D01*
X10167801Y-9024174D02*
X10215420Y-9024174D01*
X10215420Y-9024174D02*
X10234468Y-9033698D01*
X10234468Y-9033698D02*
X10243991Y-9043222D01*
X10243991Y-9043222D02*
X10253515Y-9062270D01*
X10253515Y-9062270D02*
X10253515Y-9109889D01*
X10253515Y-9109889D02*
X10243991Y-9128936D01*
X10243991Y-9128936D02*
X10234468Y-9138460D01*
X10234468Y-9138460D02*
X10215420Y-9147984D01*
X10215420Y-9147984D02*
X10167801Y-9147984D01*
X10167801Y-9147984D02*
X10148753Y-9138460D01*
X10148753Y-9138460D02*
X10139230Y-9128936D01*
X10329706Y-8967031D02*
X10339230Y-8957508D01*
X10339230Y-8957508D02*
X10358277Y-8947984D01*
X10358277Y-8947984D02*
X10405896Y-8947984D01*
X10405896Y-8947984D02*
X10424944Y-8957508D01*
X10424944Y-8957508D02*
X10434468Y-8967031D01*
X10434468Y-8967031D02*
X10443991Y-8986079D01*
X10443991Y-8986079D02*
X10443991Y-9005127D01*
X10443991Y-9005127D02*
X10434468Y-9033698D01*
X10434468Y-9033698D02*
X10320182Y-9147984D01*
X10320182Y-9147984D02*
X10443991Y-9147984D01*
X10682087Y-9147984D02*
X10682087Y-8947984D01*
X10767801Y-9147984D02*
X10767801Y-9043222D01*
X10767801Y-9043222D02*
X10758277Y-9024174D01*
X10758277Y-9024174D02*
X10739230Y-9014650D01*
X10739230Y-9014650D02*
X10710658Y-9014650D01*
X10710658Y-9014650D02*
X10691611Y-9024174D01*
X10691611Y-9024174D02*
X10682087Y-9033698D01*
X10891611Y-9147984D02*
X10872563Y-9138460D01*
X10872563Y-9138460D02*
X10863039Y-9128936D01*
X10863039Y-9128936D02*
X10853515Y-9109889D01*
X10853515Y-9109889D02*
X10853515Y-9052746D01*
X10853515Y-9052746D02*
X10863039Y-9033698D01*
X10863039Y-9033698D02*
X10872563Y-9024174D01*
X10872563Y-9024174D02*
X10891611Y-9014650D01*
X10891611Y-9014650D02*
X10920182Y-9014650D01*
X10920182Y-9014650D02*
X10939230Y-9024174D01*
X10939230Y-9024174D02*
X10948753Y-9033698D01*
X10948753Y-9033698D02*
X10958277Y-9052746D01*
X10958277Y-9052746D02*
X10958277Y-9109889D01*
X10958277Y-9109889D02*
X10948753Y-9128936D01*
X10948753Y-9128936D02*
X10939230Y-9138460D01*
X10939230Y-9138460D02*
X10920182Y-9147984D01*
X10920182Y-9147984D02*
X10891611Y-9147984D01*
X11072563Y-9147984D02*
X11053515Y-9138460D01*
X11053515Y-9138460D02*
X11043992Y-9119412D01*
X11043992Y-9119412D02*
X11043992Y-8947984D01*
X11224944Y-9138460D02*
X11205896Y-9147984D01*
X11205896Y-9147984D02*
X11167801Y-9147984D01*
X11167801Y-9147984D02*
X11148753Y-9138460D01*
X11148753Y-9138460D02*
X11139230Y-9119412D01*
X11139230Y-9119412D02*
X11139230Y-9043222D01*
X11139230Y-9043222D02*
X11148753Y-9024174D01*
X11148753Y-9024174D02*
X11167801Y-9014650D01*
X11167801Y-9014650D02*
X11205896Y-9014650D01*
X11205896Y-9014650D02*
X11224944Y-9024174D01*
X11224944Y-9024174D02*
X11234468Y-9043222D01*
X11234468Y-9043222D02*
X11234468Y-9062270D01*
X11234468Y-9062270D02*
X11139230Y-9081317D01*
X11310658Y-9138460D02*
X11329706Y-9147984D01*
X11329706Y-9147984D02*
X11367801Y-9147984D01*
X11367801Y-9147984D02*
X11386849Y-9138460D01*
X11386849Y-9138460D02*
X11396372Y-9119412D01*
X11396372Y-9119412D02*
X11396372Y-9109889D01*
X11396372Y-9109889D02*
X11386849Y-9090841D01*
X11386849Y-9090841D02*
X11367801Y-9081317D01*
X11367801Y-9081317D02*
X11339230Y-9081317D01*
X11339230Y-9081317D02*
X11320182Y-9071793D01*
X11320182Y-9071793D02*
X11310658Y-9052746D01*
X11310658Y-9052746D02*
X11310658Y-9043222D01*
X11310658Y-9043222D02*
X11320182Y-9024174D01*
X11320182Y-9024174D02*
X11339230Y-9014650D01*
X11339230Y-9014650D02*
X11367801Y-9014650D01*
X11367801Y-9014650D02*
X11386849Y-9024174D01*
X11463039Y-9224174D02*
X11472563Y-9214650D01*
X11472563Y-9214650D02*
X11491611Y-9186079D01*
X11491611Y-9186079D02*
X11501134Y-9167031D01*
X11501134Y-9167031D02*
X11510658Y-9138460D01*
X11510658Y-9138460D02*
X11520182Y-9090841D01*
X11520182Y-9090841D02*
X11520182Y-9052746D01*
X11520182Y-9052746D02*
X11510658Y-9005127D01*
X11510658Y-9005127D02*
X11501134Y-8976555D01*
X11501134Y-8976555D02*
X11491611Y-8957508D01*
X11491611Y-8957508D02*
X11472563Y-8928936D01*
X11472563Y-8928936D02*
X11463039Y-8919412D01*
D12*
X6467500Y-9290500D02*
X6467500Y-9350500D01*
X6437500Y-9320500D02*
X6497500Y-9320500D01*
D11*
X6796372Y-9211984D02*
X6815420Y-9211984D01*
X6815420Y-9211984D02*
X6834467Y-9221508D01*
X6834467Y-9221508D02*
X6843991Y-9231031D01*
X6843991Y-9231031D02*
X6853515Y-9250079D01*
X6853515Y-9250079D02*
X6863039Y-9288174D01*
X6863039Y-9288174D02*
X6863039Y-9335793D01*
X6863039Y-9335793D02*
X6853515Y-9373889D01*
X6853515Y-9373889D02*
X6843991Y-9392936D01*
X6843991Y-9392936D02*
X6834467Y-9402460D01*
X6834467Y-9402460D02*
X6815420Y-9411984D01*
X6815420Y-9411984D02*
X6796372Y-9411984D01*
X6796372Y-9411984D02*
X6777324Y-9402460D01*
X6777324Y-9402460D02*
X6767801Y-9392936D01*
X6767801Y-9392936D02*
X6758277Y-9373889D01*
X6758277Y-9373889D02*
X6748753Y-9335793D01*
X6748753Y-9335793D02*
X6748753Y-9288174D01*
X6748753Y-9288174D02*
X6758277Y-9250079D01*
X6758277Y-9250079D02*
X6767801Y-9231031D01*
X6767801Y-9231031D02*
X6777324Y-9221508D01*
X6777324Y-9221508D02*
X6796372Y-9211984D01*
X6948753Y-9392936D02*
X6958277Y-9402460D01*
X6958277Y-9402460D02*
X6948753Y-9411984D01*
X6948753Y-9411984D02*
X6939229Y-9402460D01*
X6939229Y-9402460D02*
X6948753Y-9392936D01*
X6948753Y-9392936D02*
X6948753Y-9411984D01*
X7129705Y-9211984D02*
X7091610Y-9211984D01*
X7091610Y-9211984D02*
X7072562Y-9221508D01*
X7072562Y-9221508D02*
X7063039Y-9231031D01*
X7063039Y-9231031D02*
X7043991Y-9259603D01*
X7043991Y-9259603D02*
X7034467Y-9297698D01*
X7034467Y-9297698D02*
X7034467Y-9373889D01*
X7034467Y-9373889D02*
X7043991Y-9392936D01*
X7043991Y-9392936D02*
X7053515Y-9402460D01*
X7053515Y-9402460D02*
X7072562Y-9411984D01*
X7072562Y-9411984D02*
X7110658Y-9411984D01*
X7110658Y-9411984D02*
X7129705Y-9402460D01*
X7129705Y-9402460D02*
X7139229Y-9392936D01*
X7139229Y-9392936D02*
X7148753Y-9373889D01*
X7148753Y-9373889D02*
X7148753Y-9326270D01*
X7148753Y-9326270D02*
X7139229Y-9307222D01*
X7139229Y-9307222D02*
X7129705Y-9297698D01*
X7129705Y-9297698D02*
X7110658Y-9288174D01*
X7110658Y-9288174D02*
X7072562Y-9288174D01*
X7072562Y-9288174D02*
X7053515Y-9297698D01*
X7053515Y-9297698D02*
X7043991Y-9307222D01*
X7043991Y-9307222D02*
X7034467Y-9326270D01*
X7272562Y-9211984D02*
X7291610Y-9211984D01*
X7291610Y-9211984D02*
X7310658Y-9221508D01*
X7310658Y-9221508D02*
X7320182Y-9231031D01*
X7320182Y-9231031D02*
X7329705Y-9250079D01*
X7329705Y-9250079D02*
X7339229Y-9288174D01*
X7339229Y-9288174D02*
X7339229Y-9335793D01*
X7339229Y-9335793D02*
X7329705Y-9373889D01*
X7329705Y-9373889D02*
X7320182Y-9392936D01*
X7320182Y-9392936D02*
X7310658Y-9402460D01*
X7310658Y-9402460D02*
X7291610Y-9411984D01*
X7291610Y-9411984D02*
X7272562Y-9411984D01*
X7272562Y-9411984D02*
X7253515Y-9402460D01*
X7253515Y-9402460D02*
X7243991Y-9392936D01*
X7243991Y-9392936D02*
X7234467Y-9373889D01*
X7234467Y-9373889D02*
X7224943Y-9335793D01*
X7224943Y-9335793D02*
X7224943Y-9288174D01*
X7224943Y-9288174D02*
X7234467Y-9250079D01*
X7234467Y-9250079D02*
X7243991Y-9231031D01*
X7243991Y-9231031D02*
X7253515Y-9221508D01*
X7253515Y-9221508D02*
X7272562Y-9211984D01*
X7463039Y-9211984D02*
X7482086Y-9211984D01*
X7482086Y-9211984D02*
X7501134Y-9221508D01*
X7501134Y-9221508D02*
X7510658Y-9231031D01*
X7510658Y-9231031D02*
X7520182Y-9250079D01*
X7520182Y-9250079D02*
X7529705Y-9288174D01*
X7529705Y-9288174D02*
X7529705Y-9335793D01*
X7529705Y-9335793D02*
X7520182Y-9373889D01*
X7520182Y-9373889D02*
X7510658Y-9392936D01*
X7510658Y-9392936D02*
X7501134Y-9402460D01*
X7501134Y-9402460D02*
X7482086Y-9411984D01*
X7482086Y-9411984D02*
X7463039Y-9411984D01*
X7463039Y-9411984D02*
X7443991Y-9402460D01*
X7443991Y-9402460D02*
X7434467Y-9392936D01*
X7434467Y-9392936D02*
X7424943Y-9373889D01*
X7424943Y-9373889D02*
X7415420Y-9335793D01*
X7415420Y-9335793D02*
X7415420Y-9288174D01*
X7415420Y-9288174D02*
X7424943Y-9250079D01*
X7424943Y-9250079D02*
X7434467Y-9231031D01*
X7434467Y-9231031D02*
X7443991Y-9221508D01*
X7443991Y-9221508D02*
X7463039Y-9211984D01*
X7615420Y-9411984D02*
X7615420Y-9278650D01*
X7615420Y-9297698D02*
X7624943Y-9288174D01*
X7624943Y-9288174D02*
X7643991Y-9278650D01*
X7643991Y-9278650D02*
X7672563Y-9278650D01*
X7672563Y-9278650D02*
X7691610Y-9288174D01*
X7691610Y-9288174D02*
X7701134Y-9307222D01*
X7701134Y-9307222D02*
X7701134Y-9411984D01*
X7701134Y-9307222D02*
X7710658Y-9288174D01*
X7710658Y-9288174D02*
X7729705Y-9278650D01*
X7729705Y-9278650D02*
X7758277Y-9278650D01*
X7758277Y-9278650D02*
X7777324Y-9288174D01*
X7777324Y-9288174D02*
X7786848Y-9307222D01*
X7786848Y-9307222D02*
X7786848Y-9411984D01*
X7882086Y-9411984D02*
X7882086Y-9278650D01*
X7882086Y-9297698D02*
X7891610Y-9288174D01*
X7891610Y-9288174D02*
X7910658Y-9278650D01*
X7910658Y-9278650D02*
X7939229Y-9278650D01*
X7939229Y-9278650D02*
X7958277Y-9288174D01*
X7958277Y-9288174D02*
X7967801Y-9307222D01*
X7967801Y-9307222D02*
X7967801Y-9411984D01*
X7967801Y-9307222D02*
X7977324Y-9288174D01*
X7977324Y-9288174D02*
X7996372Y-9278650D01*
X7996372Y-9278650D02*
X8024943Y-9278650D01*
X8024943Y-9278650D02*
X8043991Y-9288174D01*
X8043991Y-9288174D02*
X8053515Y-9307222D01*
X8053515Y-9307222D02*
X8053515Y-9411984D01*
X8443991Y-9202460D02*
X8272563Y-9459603D01*
X8701134Y-9211984D02*
X8720182Y-9211984D01*
X8720182Y-9211984D02*
X8739229Y-9221508D01*
X8739229Y-9221508D02*
X8748753Y-9231031D01*
X8748753Y-9231031D02*
X8758277Y-9250079D01*
X8758277Y-9250079D02*
X8767801Y-9288174D01*
X8767801Y-9288174D02*
X8767801Y-9335793D01*
X8767801Y-9335793D02*
X8758277Y-9373889D01*
X8758277Y-9373889D02*
X8748753Y-9392936D01*
X8748753Y-9392936D02*
X8739229Y-9402460D01*
X8739229Y-9402460D02*
X8720182Y-9411984D01*
X8720182Y-9411984D02*
X8701134Y-9411984D01*
X8701134Y-9411984D02*
X8682087Y-9402460D01*
X8682087Y-9402460D02*
X8672563Y-9392936D01*
X8672563Y-9392936D02*
X8663039Y-9373889D01*
X8663039Y-9373889D02*
X8653515Y-9335793D01*
X8653515Y-9335793D02*
X8653515Y-9288174D01*
X8653515Y-9288174D02*
X8663039Y-9250079D01*
X8663039Y-9250079D02*
X8672563Y-9231031D01*
X8672563Y-9231031D02*
X8682087Y-9221508D01*
X8682087Y-9221508D02*
X8701134Y-9211984D01*
X8853515Y-9392936D02*
X8863039Y-9402460D01*
X8863039Y-9402460D02*
X8853515Y-9411984D01*
X8853515Y-9411984D02*
X8843991Y-9402460D01*
X8843991Y-9402460D02*
X8853515Y-9392936D01*
X8853515Y-9392936D02*
X8853515Y-9411984D01*
X8986848Y-9211984D02*
X9005896Y-9211984D01*
X9005896Y-9211984D02*
X9024944Y-9221508D01*
X9024944Y-9221508D02*
X9034468Y-9231031D01*
X9034468Y-9231031D02*
X9043991Y-9250079D01*
X9043991Y-9250079D02*
X9053515Y-9288174D01*
X9053515Y-9288174D02*
X9053515Y-9335793D01*
X9053515Y-9335793D02*
X9043991Y-9373889D01*
X9043991Y-9373889D02*
X9034468Y-9392936D01*
X9034468Y-9392936D02*
X9024944Y-9402460D01*
X9024944Y-9402460D02*
X9005896Y-9411984D01*
X9005896Y-9411984D02*
X8986848Y-9411984D01*
X8986848Y-9411984D02*
X8967801Y-9402460D01*
X8967801Y-9402460D02*
X8958277Y-9392936D01*
X8958277Y-9392936D02*
X8948753Y-9373889D01*
X8948753Y-9373889D02*
X8939229Y-9335793D01*
X8939229Y-9335793D02*
X8939229Y-9288174D01*
X8939229Y-9288174D02*
X8948753Y-9250079D01*
X8948753Y-9250079D02*
X8958277Y-9231031D01*
X8958277Y-9231031D02*
X8967801Y-9221508D01*
X8967801Y-9221508D02*
X8986848Y-9211984D01*
X9129706Y-9231031D02*
X9139229Y-9221508D01*
X9139229Y-9221508D02*
X9158277Y-9211984D01*
X9158277Y-9211984D02*
X9205896Y-9211984D01*
X9205896Y-9211984D02*
X9224944Y-9221508D01*
X9224944Y-9221508D02*
X9234468Y-9231031D01*
X9234468Y-9231031D02*
X9243991Y-9250079D01*
X9243991Y-9250079D02*
X9243991Y-9269127D01*
X9243991Y-9269127D02*
X9234468Y-9297698D01*
X9234468Y-9297698D02*
X9120182Y-9411984D01*
X9120182Y-9411984D02*
X9243991Y-9411984D01*
X9310658Y-9211984D02*
X9434468Y-9211984D01*
X9434468Y-9211984D02*
X9367801Y-9288174D01*
X9367801Y-9288174D02*
X9396372Y-9288174D01*
X9396372Y-9288174D02*
X9415420Y-9297698D01*
X9415420Y-9297698D02*
X9424944Y-9307222D01*
X9424944Y-9307222D02*
X9434468Y-9326270D01*
X9434468Y-9326270D02*
X9434468Y-9373889D01*
X9434468Y-9373889D02*
X9424944Y-9392936D01*
X9424944Y-9392936D02*
X9415420Y-9402460D01*
X9415420Y-9402460D02*
X9396372Y-9411984D01*
X9396372Y-9411984D02*
X9339229Y-9411984D01*
X9339229Y-9411984D02*
X9320182Y-9402460D01*
X9320182Y-9402460D02*
X9310658Y-9392936D01*
X9605896Y-9211984D02*
X9567801Y-9211984D01*
X9567801Y-9211984D02*
X9548753Y-9221508D01*
X9548753Y-9221508D02*
X9539229Y-9231031D01*
X9539229Y-9231031D02*
X9520182Y-9259603D01*
X9520182Y-9259603D02*
X9510658Y-9297698D01*
X9510658Y-9297698D02*
X9510658Y-9373889D01*
X9510658Y-9373889D02*
X9520182Y-9392936D01*
X9520182Y-9392936D02*
X9529706Y-9402460D01*
X9529706Y-9402460D02*
X9548753Y-9411984D01*
X9548753Y-9411984D02*
X9586849Y-9411984D01*
X9586849Y-9411984D02*
X9605896Y-9402460D01*
X9605896Y-9402460D02*
X9615420Y-9392936D01*
X9615420Y-9392936D02*
X9624944Y-9373889D01*
X9624944Y-9373889D02*
X9624944Y-9326270D01*
X9624944Y-9326270D02*
X9615420Y-9307222D01*
X9615420Y-9307222D02*
X9605896Y-9297698D01*
X9605896Y-9297698D02*
X9586849Y-9288174D01*
X9586849Y-9288174D02*
X9548753Y-9288174D01*
X9548753Y-9288174D02*
X9529706Y-9297698D01*
X9529706Y-9297698D02*
X9520182Y-9307222D01*
X9520182Y-9307222D02*
X9510658Y-9326270D01*
X9701134Y-9211984D02*
X9701134Y-9250079D01*
X9777325Y-9211984D02*
X9777325Y-9250079D01*
X10072563Y-9488174D02*
X10063039Y-9478650D01*
X10063039Y-9478650D02*
X10043991Y-9450079D01*
X10043991Y-9450079D02*
X10034468Y-9431031D01*
X10034468Y-9431031D02*
X10024944Y-9402460D01*
X10024944Y-9402460D02*
X10015420Y-9354841D01*
X10015420Y-9354841D02*
X10015420Y-9316746D01*
X10015420Y-9316746D02*
X10024944Y-9269127D01*
X10024944Y-9269127D02*
X10034468Y-9240555D01*
X10034468Y-9240555D02*
X10043991Y-9221508D01*
X10043991Y-9221508D02*
X10063039Y-9192936D01*
X10063039Y-9192936D02*
X10072563Y-9183412D01*
X10186849Y-9211984D02*
X10205896Y-9211984D01*
X10205896Y-9211984D02*
X10224944Y-9221508D01*
X10224944Y-9221508D02*
X10234468Y-9231031D01*
X10234468Y-9231031D02*
X10243991Y-9250079D01*
X10243991Y-9250079D02*
X10253515Y-9288174D01*
X10253515Y-9288174D02*
X10253515Y-9335793D01*
X10253515Y-9335793D02*
X10243991Y-9373889D01*
X10243991Y-9373889D02*
X10234468Y-9392936D01*
X10234468Y-9392936D02*
X10224944Y-9402460D01*
X10224944Y-9402460D02*
X10205896Y-9411984D01*
X10205896Y-9411984D02*
X10186849Y-9411984D01*
X10186849Y-9411984D02*
X10167801Y-9402460D01*
X10167801Y-9402460D02*
X10158277Y-9392936D01*
X10158277Y-9392936D02*
X10148753Y-9373889D01*
X10148753Y-9373889D02*
X10139230Y-9335793D01*
X10139230Y-9335793D02*
X10139230Y-9288174D01*
X10139230Y-9288174D02*
X10148753Y-9250079D01*
X10148753Y-9250079D02*
X10158277Y-9231031D01*
X10158277Y-9231031D02*
X10167801Y-9221508D01*
X10167801Y-9221508D02*
X10186849Y-9211984D01*
X10491611Y-9411984D02*
X10491611Y-9211984D01*
X10577325Y-9411984D02*
X10577325Y-9307222D01*
X10577325Y-9307222D02*
X10567801Y-9288174D01*
X10567801Y-9288174D02*
X10548753Y-9278650D01*
X10548753Y-9278650D02*
X10520182Y-9278650D01*
X10520182Y-9278650D02*
X10501134Y-9288174D01*
X10501134Y-9288174D02*
X10491611Y-9297698D01*
X10701134Y-9411984D02*
X10682087Y-9402460D01*
X10682087Y-9402460D02*
X10672563Y-9392936D01*
X10672563Y-9392936D02*
X10663039Y-9373889D01*
X10663039Y-9373889D02*
X10663039Y-9316746D01*
X10663039Y-9316746D02*
X10672563Y-9297698D01*
X10672563Y-9297698D02*
X10682087Y-9288174D01*
X10682087Y-9288174D02*
X10701134Y-9278650D01*
X10701134Y-9278650D02*
X10729706Y-9278650D01*
X10729706Y-9278650D02*
X10748753Y-9288174D01*
X10748753Y-9288174D02*
X10758277Y-9297698D01*
X10758277Y-9297698D02*
X10767801Y-9316746D01*
X10767801Y-9316746D02*
X10767801Y-9373889D01*
X10767801Y-9373889D02*
X10758277Y-9392936D01*
X10758277Y-9392936D02*
X10748753Y-9402460D01*
X10748753Y-9402460D02*
X10729706Y-9411984D01*
X10729706Y-9411984D02*
X10701134Y-9411984D01*
X10882087Y-9411984D02*
X10863039Y-9402460D01*
X10863039Y-9402460D02*
X10853515Y-9383412D01*
X10853515Y-9383412D02*
X10853515Y-9211984D01*
X11034468Y-9402460D02*
X11015420Y-9411984D01*
X11015420Y-9411984D02*
X10977325Y-9411984D01*
X10977325Y-9411984D02*
X10958277Y-9402460D01*
X10958277Y-9402460D02*
X10948753Y-9383412D01*
X10948753Y-9383412D02*
X10948753Y-9307222D01*
X10948753Y-9307222D02*
X10958277Y-9288174D01*
X10958277Y-9288174D02*
X10977325Y-9278650D01*
X10977325Y-9278650D02*
X11015420Y-9278650D01*
X11015420Y-9278650D02*
X11034468Y-9288174D01*
X11034468Y-9288174D02*
X11043992Y-9307222D01*
X11043992Y-9307222D02*
X11043992Y-9326270D01*
X11043992Y-9326270D02*
X10948753Y-9345317D01*
X11120182Y-9402460D02*
X11139230Y-9411984D01*
X11139230Y-9411984D02*
X11177325Y-9411984D01*
X11177325Y-9411984D02*
X11196372Y-9402460D01*
X11196372Y-9402460D02*
X11205896Y-9383412D01*
X11205896Y-9383412D02*
X11205896Y-9373889D01*
X11205896Y-9373889D02*
X11196372Y-9354841D01*
X11196372Y-9354841D02*
X11177325Y-9345317D01*
X11177325Y-9345317D02*
X11148753Y-9345317D01*
X11148753Y-9345317D02*
X11129706Y-9335793D01*
X11129706Y-9335793D02*
X11120182Y-9316746D01*
X11120182Y-9316746D02*
X11120182Y-9307222D01*
X11120182Y-9307222D02*
X11129706Y-9288174D01*
X11129706Y-9288174D02*
X11148753Y-9278650D01*
X11148753Y-9278650D02*
X11177325Y-9278650D01*
X11177325Y-9278650D02*
X11196372Y-9288174D01*
X11443992Y-9335793D02*
X11596373Y-9335793D01*
X11520182Y-9411984D02*
X11520182Y-9259603D01*
X11929706Y-9278650D02*
X11929706Y-9411984D01*
X11882087Y-9202460D02*
X11834468Y-9345317D01*
X11834468Y-9345317D02*
X11958277Y-9345317D01*
X12177325Y-9402460D02*
X12196373Y-9411984D01*
X12196373Y-9411984D02*
X12234468Y-9411984D01*
X12234468Y-9411984D02*
X12253515Y-9402460D01*
X12253515Y-9402460D02*
X12263039Y-9383412D01*
X12263039Y-9383412D02*
X12263039Y-9373889D01*
X12263039Y-9373889D02*
X12253515Y-9354841D01*
X12253515Y-9354841D02*
X12234468Y-9345317D01*
X12234468Y-9345317D02*
X12205896Y-9345317D01*
X12205896Y-9345317D02*
X12186849Y-9335793D01*
X12186849Y-9335793D02*
X12177325Y-9316746D01*
X12177325Y-9316746D02*
X12177325Y-9307222D01*
X12177325Y-9307222D02*
X12186849Y-9288174D01*
X12186849Y-9288174D02*
X12205896Y-9278650D01*
X12205896Y-9278650D02*
X12234468Y-9278650D01*
X12234468Y-9278650D02*
X12253515Y-9288174D01*
X12377325Y-9411984D02*
X12358277Y-9402460D01*
X12358277Y-9402460D02*
X12348754Y-9383412D01*
X12348754Y-9383412D02*
X12348754Y-9211984D01*
X12482087Y-9411984D02*
X12463039Y-9402460D01*
X12463039Y-9402460D02*
X12453515Y-9392936D01*
X12453515Y-9392936D02*
X12443992Y-9373889D01*
X12443992Y-9373889D02*
X12443992Y-9316746D01*
X12443992Y-9316746D02*
X12453515Y-9297698D01*
X12453515Y-9297698D02*
X12463039Y-9288174D01*
X12463039Y-9288174D02*
X12482087Y-9278650D01*
X12482087Y-9278650D02*
X12510658Y-9278650D01*
X12510658Y-9278650D02*
X12529706Y-9288174D01*
X12529706Y-9288174D02*
X12539230Y-9297698D01*
X12539230Y-9297698D02*
X12548754Y-9316746D01*
X12548754Y-9316746D02*
X12548754Y-9373889D01*
X12548754Y-9373889D02*
X12539230Y-9392936D01*
X12539230Y-9392936D02*
X12529706Y-9402460D01*
X12529706Y-9402460D02*
X12510658Y-9411984D01*
X12510658Y-9411984D02*
X12482087Y-9411984D01*
X12605896Y-9278650D02*
X12682087Y-9278650D01*
X12634468Y-9211984D02*
X12634468Y-9383412D01*
X12634468Y-9383412D02*
X12643992Y-9402460D01*
X12643992Y-9402460D02*
X12663039Y-9411984D01*
X12663039Y-9411984D02*
X12682087Y-9411984D01*
X12739230Y-9402460D02*
X12758277Y-9411984D01*
X12758277Y-9411984D02*
X12796373Y-9411984D01*
X12796373Y-9411984D02*
X12815420Y-9402460D01*
X12815420Y-9402460D02*
X12824944Y-9383412D01*
X12824944Y-9383412D02*
X12824944Y-9373889D01*
X12824944Y-9373889D02*
X12815420Y-9354841D01*
X12815420Y-9354841D02*
X12796373Y-9345317D01*
X12796373Y-9345317D02*
X12767801Y-9345317D01*
X12767801Y-9345317D02*
X12748754Y-9335793D01*
X12748754Y-9335793D02*
X12739230Y-9316746D01*
X12739230Y-9316746D02*
X12739230Y-9307222D01*
X12739230Y-9307222D02*
X12748754Y-9288174D01*
X12748754Y-9288174D02*
X12767801Y-9278650D01*
X12767801Y-9278650D02*
X12796373Y-9278650D01*
X12796373Y-9278650D02*
X12815420Y-9288174D01*
X12891611Y-9488174D02*
X12901135Y-9478650D01*
X12901135Y-9478650D02*
X12920182Y-9450079D01*
X12920182Y-9450079D02*
X12929706Y-9431031D01*
X12929706Y-9431031D02*
X12939230Y-9402460D01*
X12939230Y-9402460D02*
X12948754Y-9354841D01*
X12948754Y-9354841D02*
X12948754Y-9316746D01*
X12948754Y-9316746D02*
X12939230Y-9269127D01*
X12939230Y-9269127D02*
X12929706Y-9240555D01*
X12929706Y-9240555D02*
X12920182Y-9221508D01*
X12920182Y-9221508D02*
X12901135Y-9192936D01*
X12901135Y-9192936D02*
X12891611Y-9183412D01*
M02*
