%TF.GenerationSoftware,KiCad,Pcbnew,9.0.6*%
%TF.CreationDate,2026-01-06T10:11:47+09:00*%
%TF.ProjectId,VVDAP,56564441-502e-46b6-9963-61645f706362,rev?*%
%TF.SameCoordinates,Original*%
%TF.FileFunction,Paste,Top*%
%TF.FilePolarity,Positive*%
%FSLAX46Y46*%
G04 Gerber Fmt 4.6, Leading zero omitted, Abs format (unit mm)*
G04 Created by KiCad (PCBNEW 9.0.6) date 2026-01-06 10:11:47*
%MOMM*%
%LPD*%
G01*
G04 APERTURE LIST*
G04 Aperture macros list*
%AMRoundRect*
0 Rectangle with rounded corners*
0 $1 Rounding radius*
0 $2 $3 $4 $5 $6 $7 $8 $9 X,Y pos of 4 corners*
0 Add a 4 corners polygon primitive as box body*
4,1,4,$2,$3,$4,$5,$6,$7,$8,$9,$2,$3,0*
0 Add four circle primitives for the rounded corners*
1,1,$1+$1,$2,$3*
1,1,$1+$1,$4,$5*
1,1,$1+$1,$6,$7*
1,1,$1+$1,$8,$9*
0 Add four rect primitives between the rounded corners*
20,1,$1+$1,$2,$3,$4,$5,0*
20,1,$1+$1,$4,$5,$6,$7,0*
20,1,$1+$1,$6,$7,$8,$9,0*
20,1,$1+$1,$8,$9,$2,$3,0*%
%AMFreePoly0*
4,1,18,-0.287500,0.312500,-0.285597,0.322067,-0.280178,0.330178,-0.272067,0.335597,-0.262500,0.337500,0.262500,0.337500,0.272067,0.335597,0.280178,0.330178,0.285597,0.322067,0.287500,0.312500,0.287500,-0.193750,0.143750,-0.337500,-0.262500,-0.337500,-0.272067,-0.335597,-0.280178,-0.330178,-0.285597,-0.322067,-0.287500,-0.312500,-0.287500,0.312500,-0.287500,0.312500,$1*%
G04 Aperture macros list end*
%ADD10RoundRect,0.225000X0.225000X0.250000X-0.225000X0.250000X-0.225000X-0.250000X0.225000X-0.250000X0*%
%ADD11RoundRect,0.200000X-0.275000X0.200000X-0.275000X-0.200000X0.275000X-0.200000X0.275000X0.200000X0*%
%ADD12FreePoly0,0.000000*%
%ADD13RoundRect,0.025000X-0.262500X-0.312500X0.262500X-0.312500X0.262500X0.312500X-0.262500X0.312500X0*%
%ADD14RoundRect,0.025000X-0.125000X-0.312500X0.125000X-0.312500X0.125000X0.312500X-0.125000X0.312500X0*%
%ADD15RoundRect,0.025000X-0.425000X-0.250000X0.425000X-0.250000X0.425000X0.250000X-0.425000X0.250000X0*%
%ADD16RoundRect,0.150000X0.200000X-0.150000X0.200000X0.150000X-0.200000X0.150000X-0.200000X-0.150000X0*%
%ADD17RoundRect,0.250000X0.275000X0.750000X-0.275000X0.750000X-0.275000X-0.750000X0.275000X-0.750000X0*%
%ADD18RoundRect,0.200000X-0.200000X-0.275000X0.200000X-0.275000X0.200000X0.275000X-0.200000X0.275000X0*%
%ADD19RoundRect,0.225000X-0.225000X-0.250000X0.225000X-0.250000X0.225000X0.250000X-0.225000X0.250000X0*%
%ADD20RoundRect,0.075000X0.200000X-0.075000X0.200000X0.075000X-0.200000X0.075000X-0.200000X-0.075000X0*%
%ADD21RoundRect,0.150000X-0.512500X-0.150000X0.512500X-0.150000X0.512500X0.150000X-0.512500X0.150000X0*%
%ADD22RoundRect,0.150000X-0.150000X0.825000X-0.150000X-0.825000X0.150000X-0.825000X0.150000X0.825000X0*%
%ADD23RoundRect,0.250000X-0.375000X-0.625000X0.375000X-0.625000X0.375000X0.625000X-0.375000X0.625000X0*%
%ADD24RoundRect,0.075000X0.075000X0.200000X-0.075000X0.200000X-0.075000X-0.200000X0.075000X-0.200000X0*%
%ADD25RoundRect,0.050000X-0.320000X-1.345000X0.320000X-1.345000X0.320000X1.345000X-0.320000X1.345000X0*%
%ADD26RoundRect,0.225000X-0.250000X0.225000X-0.250000X-0.225000X0.250000X-0.225000X0.250000X0.225000X0*%
%ADD27RoundRect,0.150000X-0.150000X-0.200000X0.150000X-0.200000X0.150000X0.200000X-0.150000X0.200000X0*%
%ADD28RoundRect,0.218750X-0.218750X-0.256250X0.218750X-0.256250X0.218750X0.256250X-0.218750X0.256250X0*%
%ADD29RoundRect,0.150000X0.512500X0.150000X-0.512500X0.150000X-0.512500X-0.150000X0.512500X-0.150000X0*%
%ADD30RoundRect,0.075000X-0.075000X-0.200000X0.075000X-0.200000X0.075000X0.200000X-0.075000X0.200000X0*%
%ADD31RoundRect,0.150000X-0.150000X0.512500X-0.150000X-0.512500X0.150000X-0.512500X0.150000X0.512500X0*%
%ADD32RoundRect,0.200000X0.275000X-0.200000X0.275000X0.200000X-0.275000X0.200000X-0.275000X-0.200000X0*%
%ADD33RoundRect,0.100000X0.100000X-0.637500X0.100000X0.637500X-0.100000X0.637500X-0.100000X-0.637500X0*%
%ADD34RoundRect,0.200000X0.200000X0.275000X-0.200000X0.275000X-0.200000X-0.275000X0.200000X-0.275000X0*%
%ADD35RoundRect,0.225000X0.250000X-0.225000X0.250000X0.225000X-0.250000X0.225000X-0.250000X-0.225000X0*%
%ADD36RoundRect,0.250000X0.325000X0.650000X-0.325000X0.650000X-0.325000X-0.650000X0.325000X-0.650000X0*%
%ADD37R,0.600000X1.450000*%
%ADD38R,0.300000X1.450000*%
%ADD39RoundRect,0.150000X0.150000X-0.512500X0.150000X0.512500X-0.150000X0.512500X-0.150000X-0.512500X0*%
%ADD40RoundRect,0.250000X-0.275000X-0.750000X0.275000X-0.750000X0.275000X0.750000X-0.275000X0.750000X0*%
G04 APERTURE END LIST*
D10*
%TO.C,C7*%
X89375000Y-54900000D03*
X87825000Y-54900000D03*
%TD*%
D11*
%TO.C,R10*%
X68000000Y-68675000D03*
X68000000Y-70325000D03*
%TD*%
D12*
%TO.C,U11*%
X90362500Y-62212500D03*
D13*
X90362500Y-66387500D03*
D14*
X91100000Y-66387500D03*
D15*
X91400000Y-66325000D03*
D14*
X91700000Y-66387500D03*
X92300000Y-66387500D03*
D15*
X92600000Y-66325000D03*
D14*
X92900000Y-66387500D03*
D13*
X93637500Y-66387500D03*
X93637500Y-62212500D03*
D14*
X92900000Y-62212500D03*
X92300000Y-62212500D03*
D15*
X92600000Y-62275000D03*
D14*
X91700000Y-62212500D03*
X91100000Y-62212500D03*
D15*
X91400000Y-62275000D03*
%TD*%
D16*
%TO.C,D4*%
X75500000Y-78400000D03*
X75500000Y-79800000D03*
%TD*%
D17*
%TO.C,SW2*%
X70525000Y-58200000D03*
X66075000Y-58200000D03*
%TD*%
D18*
%TO.C,R3*%
X91175000Y-51000000D03*
X92825000Y-51000000D03*
%TD*%
D19*
%TO.C,C10*%
X71925000Y-41800000D03*
X73475000Y-41800000D03*
%TD*%
D20*
%TO.C,U4*%
X77985000Y-72300000D03*
X77985000Y-71800000D03*
X77985000Y-71300000D03*
X77985000Y-70800000D03*
X77985000Y-70300000D03*
X77215000Y-70300000D03*
X77215000Y-70800000D03*
X77215000Y-71300000D03*
X77215000Y-71800000D03*
X77215000Y-72300000D03*
%TD*%
D10*
%TO.C,C6*%
X85775000Y-54900000D03*
X84225000Y-54900000D03*
%TD*%
D18*
%TO.C,R11*%
X86875000Y-79300000D03*
X88525000Y-79300000D03*
%TD*%
%TO.C,R4*%
X91175000Y-52800000D03*
X92825000Y-52800000D03*
%TD*%
D11*
%TO.C,R2*%
X72200000Y-59675000D03*
X72200000Y-61325000D03*
%TD*%
D21*
%TO.C,U10*%
X69862500Y-72150000D03*
X69862500Y-73100000D03*
X69862500Y-74050000D03*
X72137500Y-74050000D03*
X72137500Y-72150000D03*
%TD*%
D19*
%TO.C,C8*%
X75925000Y-50000000D03*
X77475000Y-50000000D03*
%TD*%
D21*
%TO.C,U7*%
X69862500Y-68550000D03*
X69862500Y-69500000D03*
X69862500Y-70450000D03*
X72137500Y-70450000D03*
X72137500Y-68550000D03*
%TD*%
D10*
%TO.C,C17*%
X88475000Y-77600000D03*
X86925000Y-77600000D03*
%TD*%
D19*
%TO.C,C1*%
X75925000Y-51700000D03*
X77475000Y-51700000D03*
%TD*%
D22*
%TO.C,U12*%
X87545000Y-61825000D03*
X86275000Y-61825000D03*
X85005000Y-61825000D03*
X83735000Y-61825000D03*
X82465000Y-61825000D03*
X81195000Y-61825000D03*
X79925000Y-61825000D03*
X78655000Y-61825000D03*
X78655000Y-66775000D03*
X79925000Y-66775000D03*
X81195000Y-66775000D03*
X82465000Y-66775000D03*
X83735000Y-66775000D03*
X85005000Y-66775000D03*
X86275000Y-66775000D03*
X87545000Y-66775000D03*
%TD*%
D23*
%TO.C,F1*%
X67300000Y-47400000D03*
X70100000Y-47400000D03*
%TD*%
D24*
%TO.C,U3*%
X82400000Y-71515000D03*
X81900000Y-71515000D03*
X81400000Y-71515000D03*
X80900000Y-71515000D03*
X80400000Y-71515000D03*
X80400000Y-72285000D03*
X80900000Y-72285000D03*
X81400000Y-72285000D03*
X81900000Y-72285000D03*
X82400000Y-72285000D03*
%TD*%
D25*
%TO.C,J1*%
X77460000Y-79035000D03*
X77460000Y-74965000D03*
X78730000Y-79038000D03*
X78730000Y-74968000D03*
X80000000Y-79038000D03*
X80000000Y-74968000D03*
X81270000Y-79038000D03*
X81270000Y-74968000D03*
X82540000Y-79038000D03*
X82540000Y-74968000D03*
%TD*%
D26*
%TO.C,C3*%
X72200000Y-56525000D03*
X72200000Y-58075000D03*
%TD*%
%TO.C,C5*%
X87900000Y-68925000D03*
X87900000Y-70475000D03*
%TD*%
D27*
%TO.C,D3*%
X70200000Y-45300000D03*
X68800000Y-45300000D03*
%TD*%
D19*
%TO.C,C15*%
X84625000Y-72200000D03*
X86175000Y-72200000D03*
%TD*%
D28*
%TO.C,D1*%
X91212500Y-49200000D03*
X92787500Y-49200000D03*
%TD*%
D26*
%TO.C,C18*%
X84700000Y-73875000D03*
X84700000Y-75425000D03*
%TD*%
D29*
%TO.C,U13*%
X88837500Y-75850000D03*
X88837500Y-74900000D03*
X88837500Y-73950000D03*
X86562500Y-73950000D03*
X86562500Y-75850000D03*
%TD*%
D30*
%TO.C,U8*%
X80000000Y-49285000D03*
X80500000Y-49285000D03*
X81000000Y-49285000D03*
X81500000Y-49285000D03*
X82000000Y-49285000D03*
X82000000Y-48515000D03*
X81500000Y-48515000D03*
X81000000Y-48515000D03*
X80500000Y-48515000D03*
X80000000Y-48515000D03*
%TD*%
D26*
%TO.C,C11*%
X74000000Y-68725000D03*
X74000000Y-70275000D03*
%TD*%
D31*
%TO.C,U9*%
X85955000Y-50747500D03*
X85005000Y-50747500D03*
X84055000Y-50747500D03*
X84055000Y-53022500D03*
X85955000Y-53022500D03*
%TD*%
D10*
%TO.C,C20*%
X92775000Y-67900000D03*
X91225000Y-67900000D03*
%TD*%
D32*
%TO.C,R9*%
X68000000Y-73925000D03*
X68000000Y-72275000D03*
%TD*%
D10*
%TO.C,C9*%
X73475000Y-47800000D03*
X71925000Y-47800000D03*
%TD*%
D33*
%TO.C,U1*%
X73775000Y-59375000D03*
X74425000Y-59375000D03*
X75075000Y-59375000D03*
X75725000Y-59375000D03*
X76375000Y-59375000D03*
X77025000Y-59375000D03*
X77675000Y-59375000D03*
X78325000Y-59375000D03*
X78975000Y-59375000D03*
X79625000Y-59375000D03*
X79625000Y-53650000D03*
X78975000Y-53650000D03*
X78325000Y-53650000D03*
X77675000Y-53650000D03*
X77025000Y-53650000D03*
X76375000Y-53650000D03*
X75725000Y-53650000D03*
X75075000Y-53650000D03*
X74425000Y-53650000D03*
X73775000Y-53650000D03*
%TD*%
D10*
%TO.C,C19*%
X92775000Y-60700000D03*
X91225000Y-60700000D03*
%TD*%
D18*
%TO.C,R8*%
X84175000Y-48900000D03*
X85825000Y-48900000D03*
%TD*%
D34*
%TO.C,R6*%
X81825000Y-51000000D03*
X80175000Y-51000000D03*
%TD*%
D11*
%TO.C,R1*%
X72200000Y-53275000D03*
X72200000Y-54925000D03*
%TD*%
D35*
%TO.C,C4*%
X88900000Y-60775000D03*
X88900000Y-59225000D03*
%TD*%
D10*
%TO.C,C2*%
X75875000Y-61300000D03*
X74325000Y-61300000D03*
%TD*%
%TO.C,C16*%
X89375000Y-72200000D03*
X87825000Y-72200000D03*
%TD*%
D11*
%TO.C,R5*%
X81700000Y-52675000D03*
X81700000Y-54325000D03*
%TD*%
D10*
%TO.C,C13*%
X92775000Y-59000000D03*
X91225000Y-59000000D03*
%TD*%
D36*
%TO.C,C14*%
X92675000Y-70000000D03*
X89725000Y-70000000D03*
%TD*%
D31*
%TO.C,U5*%
X89550000Y-50762500D03*
X88600000Y-50762500D03*
X87650000Y-50762500D03*
X87650000Y-53037500D03*
X89550000Y-53037500D03*
%TD*%
D37*
%TO.C,J2*%
X83250000Y-46200000D03*
X82450000Y-46200000D03*
D38*
X81250000Y-46200000D03*
X80250000Y-46200000D03*
X79750000Y-46200000D03*
X78750000Y-46200000D03*
D37*
X77550000Y-46200000D03*
X76750000Y-46200000D03*
X76750000Y-46200000D03*
X77550000Y-46200000D03*
D38*
X78250000Y-46200000D03*
X79250000Y-46200000D03*
X80750000Y-46200000D03*
X81750000Y-46200000D03*
D37*
X82450000Y-46200000D03*
X83250000Y-46200000D03*
%TD*%
D26*
%TO.C,C12*%
X74000000Y-72325000D03*
X74000000Y-73875000D03*
%TD*%
D39*
%TO.C,U6*%
X71750000Y-45937500D03*
X73650000Y-45937500D03*
X72700000Y-43662500D03*
%TD*%
D34*
%TO.C,R7*%
X89425000Y-48900000D03*
X87775000Y-48900000D03*
%TD*%
D28*
%TO.C,D2*%
X91212500Y-54600000D03*
X92787500Y-54600000D03*
%TD*%
D40*
%TO.C,SW1*%
X66075000Y-54400000D03*
X70525000Y-54400000D03*
%TD*%
M02*
